<svg version="1.1" id="Layer_1" xmlns="http://www.w3.org/2000/svg" xmlns:xlink="http://www.w3.org/1999/xlink" x="0px" y="0px" viewBox="0 0 1700.4 703.7" style="enable-background:new 0 0 1700.4 703.7;" xml:space="preserve">
<style type="text/css">
	.st0{fill:#fff;stroke:#fff;stroke-width:.6px;stroke-miterlimit:10;}
    .st1{fill:#fff;stroke:#fff;stroke-width:.4px;stroke-miterlimit:10;}
    
    .feat, .feat_two {

        transform-origin: 900px 360px;
        transform: scale(.5);
    }

    @keyframes flash {

        25% {

            fill: transparent;
        }

        50% {

            fill: #fff;
        }
    }

    .feat path:nth-of-type(1) {

        animation: flash 2s linear infinite;
    }

    .feat path:nth-of-type(2) {

        animation: flash 2s .1s linear infinite;
    }

    .feat path:nth-of-type(3) {

        animation: flash 2s .2s linear infinite;
    }

    .feat path:nth-of-type(4) {

        animation: flash 2s .3s linear infinite;
    }

    .feat path:nth-of-type(5) {

        animation: flash 2s .4s linear infinite;
    }

    .feat path:nth-of-type(6) {

        animation: flash 2s .5s linear infinite;
    }

    .feat path:nth-of-type(7) {

        animation: flash 2s .6s linear infinite;
    }

    .feat path:nth-of-type(8) {

        animation: flash 2s .7s linear infinite;
    }

    .feat_two path:nth-of-type(1) {

        animation: flash 2s .4s linear infinite;
    }

    .feat_two path:nth-of-type(2) {

        animation: flash 2s .5s linear infinite;
    }

    .feat_two path:nth-of-type(3) {

        animation: flash 2s .6s linear infinite;
    } 
</style>
<g class="feat">
    <path class="st0" d="M12.8,12c0.1-0.4,0.2-1.3,0.3-1.8c54.5,0.1,109.1,0,163.6,0c-0.1,18.3,0.1,36.7-0.1,55   c-1.3-0.5-2.3-1.4-2.5-2.8c-2.6-9.7-4.5-19.9-9.8-28.6c-6.2-10.7-17.4-18.3-29.5-20.5c-4.9-1-10-1.3-15-1.3c-15.9,0-31.8,0-47.8,0   c-0.1,33.6,0,67.2,0,100.8c11.6,0,23.2,0,34.8,0c7.1,0,14.7-1.2,20.3-5.9c9-6.8,13.3-18.2,13.3-29.3c0.5,0,1.6,0,2.1,0   c0,24.1,0,48.2,0,72.3c-0.5,0-1.6,0-2.1,0c-0.1-10-3.1-20.4-10.7-27.2c-5.2-5.3-12.6-7.9-19.9-8c-12.6-0.1-25.2,0-37.8,0   c0.1,23.3-0.1,46.7,0.1,70c0.4,7.4-0.4,15.6,3.5,22.2c3.8,6.1,11.5,7.7,18.2,8c10.3,0.1,20.7,0,31,0c15.1,0.1,30.4-5.4,41.5-15.7   c11.3-10.6,18.7-24.8,22.1-39.8c0.6-1.7,0.5-4.2,3-4.5c-2.2,20.8-5,41.5-7.4,62.2c-56.9,0.1-113.8,0-170.7,0c0-0.6,0-1.7,0-2.2   c8.2-0.3,17.3,0.4,24.3-4.5c6.6-5.1,6.7-14.1,6.9-21.7c0.1-46.4,0-92.7,0-139.1c0.1-6.4-0.3-12.7-0.8-19.1   c-0.5-5.5-2.3-11.6-7.4-14.6C29.2,11.8,20.7,11.9,12.8,12z"/>
    <path class="st0" d="M221.6,10c18.1,0,36.2,0,54.2,0c23.1,44.2,46.3,88.4,69.4,132.5c23.1-44.2,46.2-88.3,69.2-132.6   c18.4,0,36.7,0,55.1,0c0,0.5,0,1.5,0,2c-7.8,0.3-16.4-1.2-23.4,2.9c-6.4,4.2-7.3,12.6-7.6,19.6c0,52.3,0,104.6,0,156.9   c0.2,6.7,1.2,14.5,6.9,18.9c6,4.6,13.9,4.5,21.1,4.3c0.9,0.3,5.3-0.4,3,1.6c-29.9,0.4-59.9,0.1-89.8,0.1c0-0.4,0-1.3,0.1-1.7   c8.6-0.3,18.4,0.2,25.4-5.8c5.7-5.9,5.4-14.8,5.4-22.5c0-54.9-0.2-109.8,0.2-164.7c-26.5,50.4-52.7,100.9-79.1,151.4   c-3.3-0.9-4-4.6-5.6-7.2C302.4,121,278.7,76,254.9,30.9c-0.1,50.5,0,101.1,0,151.6c0,5.7,0.9,11.7,4.3,16.4   c5.9,8.4,15.6,13.3,25.6,14.9c5,0.9,10.1,0.8,15.2,1.1c-0.9,0.9-2,1.7-3.3,1.5c-27,0-54,0-81,0c-2.5,0-5,0-7.5-0.3   c1.1-2.1,3.6-1.4,5.5-1.6c11.2,0,23-3,31.1-11.1c5.8-5,8.4-12.6,8.4-20.1c0.1-43,0-86.1,0-129.1c0-8.6,0.2-17.3-0.5-25.9   c-0.4-5.3-2.9-10.7-7.7-13.3c-7-4.1-15.5-3.1-23.3-3.2C221.7,11.5,221.6,10.5,221.6,10z"/>
    <path class="st0" d="M481.4,11.8c0.5-0.4,1.6-1.1,2.1-1.4c29.4-0.3,58.8,0,88.1-0.1c17.8-0.4,36.7,0.4,52.3,9.9    c10.8,6.2,18.8,17,21.4,29.3c3.5,16.1,0.7,34.6-11.1,46.8c-12.5,13-31.1,17.5-48.6,18.2c-14.9,0.3-29.7,0.1-44.6,0.1    c0,24.7-0.1,49.3,0.1,74c0.3,7.5,0.1,16.7,6.6,21.8c7.1,5.3,16.5,4.3,24.9,4.6c-0.3,3-3.3,1.9-5.2,2.2c-28.6-0.1-57.3,0.1-86-0.1    c0.2-0.5,0.7-1.5,0.9-2c8-0.6,17,0.3,23.9-4.6c5.8-4.3,6.7-12.1,6.8-18.7c0-52,0-104.1,0-156.1c-0.3-6.5-1-13.9-6.2-18.5    C499.8,11.5,490.1,12.2,481.4,11.8z M547.2,17.1c-5.9,5.3-5.7,14.1-6,21.4c-0.1,24.8,0,49.5,0,74.3c13.5-0.1,27,0.3,40.5-0.2    c11.7-0.5,22.7-7.4,28.5-17.5c7.6-13.1,9-28.8,7.3-43.6c-1.4-12-6.1-24.3-15.9-32c-7.3-5.9-16.9-7.7-26-7.4    C566.1,12.1,555.2,10.8,547.2,17.1z"/>
    <path class="st0" d="M738.1,8.1c5.8-0.9,11.7-0.5,17.6-0.6c6.7,0,13.5-0.3,20.1,0.8c18.8,3.1,36.5,12.7,49.4,26.7    c12.3,13.4,21.3,29.9,25.6,47.5c4.5,18.3,4.7,37.7,0.6,56.1c-4.2,18.9-13.7,36.6-27,50.7c-12.5,13.2-29.3,22.4-47.3,25.6    c-8.7,1.7-17.7,0.9-26.5,1.1c-20.4,0.8-40.8-7.1-56.1-20.4c-24.9-21.6-37.6-55.4-36.3-88c0.5-19.4,6.3-38.6,16-55.4    c8.1-13.1,18.9-24.8,32.1-32.9C716.1,13.6,726.9,9.6,738.1,8.1z M746.7,9.6c-4.5,0.5-8.5,2.5-12.5,4.5c-12,5.5-22.2,14.7-29,26    c-11.8,18.2-17,40-18.3,61.4c-1.2,20.8,1.1,41.9,8.2,61.6c6.4,16.8,16.4,33.3,32.2,42.7c7,3.8,14.1,8.1,22.3,8.6    c7.8,0.2,16,0.7,23.3-2.6c7.1-3.3,14.1-6.9,20.1-12c5.6-4.4,9.9-10.2,13.9-16.1c11.1-17,16.6-37.1,18.4-57.1    c1.7-20.6,0-41.6-6.4-61.3c-4.4-13.5-11.3-26.4-21-37c-7.4-7.7-16.9-13.1-26.7-17.3C763.4,8.4,754.9,9.2,746.7,9.6z"/>
    <path class="st0" d="M862.3,11.9c0.7-1.9,2.8-1.6,4.4-1.6c32.3,0,64.6,0,97,0c15.2,0.2,30.9,2.8,43.7,11.5    c10.8,6.7,17.9,18.6,19.7,31.1c2,13.6-0.1,28.5-8.7,39.6c-6.6,8.8-16.6,14.4-26.9,17.8c-7.7,2.9-16.1,3.3-24.2,4    c5.1,2.1,10.2,4.6,14.3,8.4c4.7,4.2,8.6,9.4,12.3,14.5c14.1,19.6,28.2,39.2,42.3,58.8c2.9,4,5.6,8.4,9.8,11.2    c7.5,5,16.5,7.6,25.5,7.7c0,0.5-0.1,1.6-0.2,2.1c-17.2,0-34.5,0-51.7,0c-20.9-28.9-41.8-57.9-62.7-86.8c-4.1-5.5-8.7-11-15.1-13.8    c-6.2-2.8-13.1-1.6-19.7-1.8c0,24.7-0.1,49.3,0.1,74c0.3,7.5,0.1,16.6,6.7,21.8c6.8,5.3,16,4.2,24,4.7l0.6,2    c-30.2,0.2-60.4,0-90.6,0.1c0-0.6-0.1-1.7-0.1-2.2c7.8-0.2,16.3,0.4,23.4-3.7c6.6-4.1,7.8-12.5,7.9-19.6c0-52,0-104.1,0-156.1    c-0.3-6.6-1-14.4-6.6-18.8C880.2,11.6,870.8,12.1,862.3,11.9z M926.3,19.2c-4.2,5.9-3.8,13.5-4.1,20.4c-0.1,24.4,0,48.8,0,73.2    c9.8,0,19.7,0,29.5,0c6.8,0,13.7,0.2,20.2-2c9.1-2.9,16.3-10,20.7-18.3c6.8-14.5,7.7-31.2,4.7-46.7c-2.5-12.3-9.3-24.5-20.9-30.1    c-9.5-4.8-20.5-3.5-30.8-3.7C938.7,12.1,930.8,13.3,926.3,19.2z"/>
    <path class="st0" d="M1086.4,10.3c29.1,0,58.2,0,87.3,0c1.5-0.2,2.7,0.3,3.3,1.7c-8.8,0.1-18.5-0.5-25.8,5.3   c-5.1,4.5-5.5,12-5.8,18.3c0,52,0,104,0,156c0.2,6.6,0.8,14.3,6.5,18.7c7.1,5.2,16.4,4.5,24.8,4.5c0,0.6,0,1.7,0,2.3   c-30.1,0-60.2,0-90.2,0c0-0.6,0-1.7,0-2.2c8.1-0.3,17.1,0.4,24.1-4.4c6.8-5,6.9-14.3,7.1-21.9c0.1-46.7,0-93.3,0-140   c0-6.7,0.2-13.5-0.8-20.1c-0.8-4.7-2.5-9.8-6.8-12.3c-7.1-4.3-15.7-4.1-23.7-4.1L1086.4,10.3z"/>
    <path class="st0" d="M1192.1,9.5c26.8,0,53.7,0,80.5,0c3.1,0,6.3-0.2,9.4,0.2c0.3,0.5,0.8,1.5,1,2c-7.7,0.2-16-0.7-23,3.2   c-5.6,2.9-8,9.7-7.9,15.7c0.1,41,0,82,0,123c0.5,16.4,5.3,33.5,16.8,45.6c9.7,10.2,23.8,15.7,37.7,15.4   c16.6-0.5,32.9-6.7,45.8-17.2c12.3-10.1,20-25.7,20.1-41.7c0.1-29.4,0-58.8,0-88.1c-0.2-9.7,0.4-19.4-0.4-29.1   c-0.6-7.5-5.2-14-11.2-18.2c-7.9-5.8-17.9-7.6-27.5-8.2c-2.2-0.1-4.4-0.2-6.3-1.6c4-1,8.2-0.6,12.3-0.6c26.3,0,52.7,0,79,0   c0,0.5-0.1,1.5-0.1,1.9c-9.8,0.3-19.9,1.3-28.6,6.2c-7.6,4.2-14.2,11.6-15,20.6c-0.7,8-0.1,16-0.3,24c0,31.4,0,62.8,0,94.1   c-0.2,14.8-6.8,29.2-17.5,39.4c-13.7,13.3-32.8,19.8-51.6,21c-16.5,1.1-33.5-1.3-48.1-9.2c-10.4-5.4-19.5-13.3-25.7-23.3   c-6.1-9.5-8.5-20.9-8.5-32.1c0-40.3,0-80.7,0-121c-0.1-6-1.8-12.9-7.3-16.1c-7.2-4-15.7-3.6-23.7-3.6   C1192.1,11.2,1192.1,10.1,1192.1,9.5z"/>
    <path class="st0" d="M1436.7,10c18.1,0,36.1-0.1,54.2,0c23.1,44.2,46.3,88.4,69.5,132.5c23.1-44.2,46.2-88.3,69.2-132.6   c18.4,0,36.8,0,55.1,0c0,0.5,0,1.5,0,2c-7.8,0.3-16.3-1.2-23.4,2.9c-6.4,4.2-7.3,12.5-7.6,19.5c0,52.4,0,104.7,0,157.1   c0.2,6.9,1.4,15.2,7.6,19.4c6.9,4.8,15.7,3.8,23.7,3.8c0,0.4,0,1.3,0,1.8c-30,0-60.1,0.1-90.1,0c0-0.4,0-1.3,0-1.7   c8-0.2,16.7,0.1,23.7-4.4c5.8-3.9,6.8-11.5,7.1-17.9c0.1-56.9-0.2-113.7,0.3-170.6c-26.5,50.4-52.7,100.9-79.1,151.3   c-1.3-0.6-2.7-1.2-3.2-2.6c-24.5-46.6-49.1-93.2-73.7-139.8c0,43.2,0,86.4,0,129.7c0.2,9-0.3,18,0.3,27   c0.8,10.9,9.6,19.3,19.2,23.3c8,3.6,16.9,3.8,25.6,4.1c-1.1,1.9-3.5,1.4-5.3,1.6c-28.6-0.1-57.2,0-85.8-0.1c0-0.4,0-1.3,0-1.7   c10.4,0.2,21.4-0.9,30.4-6.8c5.7-3.9,11-9.2,12.7-16c1.5-5.7,1.1-11.6,1.2-17.5c0-30.3,0-60.7,0-91c-0.1-17.3,0.3-34.7-0.3-52   c0-6-1.9-12.6-7.3-15.9c-7.1-4.5-15.9-3.4-24-3.6C1436.6,11.5,1436.7,10.5,1436.7,10z"/>
</g>
<g class="feat_two">
    <path class="st1" d="M683.8,252c3.6-3,10-0.3,10.1,4.4c-0.5,3.9,0.4,7.9-1.9,11.4c-8.7,44.1-15.9,88.5-21.9,133.1
        c-6.7,51.9-8.7,104.3-7.5,156.5c-0.1,20,1,40.3,6.6,59.6c6.7-3.2,8.7-11,11.8-17.2c8.7-17.7,14.6-36.5,20.9-55.1
        c10.3-31,20-62.2,32.7-92.3c3.4-6.5,6.5-13.2,10.2-19.5c4.3-48.6,11.6-97,21.9-144.7c1.9-8.3,3.6-16.7,5.8-24.9
        c1.7-4.3,3.8-9,8-11.5c3.1-2.2,7.4-0.4,9.1,2.7c1,2.6-0.3,5.3,0.2,8c0.3,2.3-1.6,3.9-1.9,6c-8.2,42.4-15.3,85.1-21.2,128
        c-8.2,60.3-9.6,121.3-7.6,182c0.6,13.1,2.6,26.2,6.3,38.8c3-2,5.6-4.6,7.1-7.8c6.8-14.2,13.3-28.6,18.2-43.5
        c13.8-39.6,25.4-80,42-118.5c-2.5-2.5-6.9-3.8-6.4-8.1c3.1-2.1,6.5,0,9.5,1c3.6-5.7,8.1-10.8,12.5-16c5.3-6.4,12.8-11.3,21.1-12.4
        c5.6-0.6,12.3,3.4,12.3,9.5c0.5,8.7-5.5,16-12,21.1c-7,5.9-15.9,8.7-24.9,9.3c-3.4,7.3-5.8,16.4-2.2,24.1c1.7,3.9,6.2,4.2,9.8,5
        c8.1,1.3,15.5-2.7,22.8-5.5c11.3-4.5,22-10.2,31.8-17.2c10.5-6.3,20.1-13.9,30-21.1c3.5-2.6,6.6-5.8,10.8-7.4
        c5-3.6,10.4-6.8,16.5-8c6.7-1.2,13.1,6.1,11.4,12.6c-0.5,2.6-3.3,5.7-6,3.7c-1-1.6-1.9-3.2-3.3-4.5c-12.9,5.1-20.8,17.6-26.2,29.7
        c-3.8,7.8-6.9,17.3-3.3,25.8c1.8,4.2,7,2.8,10.5,2.5c6.7-0.8,11.5-5.9,17.4-8.7c6.2-2.8,11.2-7.4,16.7-11.3
        c14.9-10.6,28.6-22.7,41.9-35.1c2.8-3.6,8.4-5.2,9.5-10c1.1-25.1,2.4-50.2,3.7-75.3c-39.2,4.6-77.7,14.3-117.2,17.2
        c-3.8,0.1-7.8-0.1-11.2-1.8c-2.6-1.4-2.2-5.8,0.5-6.9c3.5-0.8,7,0.6,10.5,0.1c19.1-2.4,38.1-5.3,56.9-9c20.1-3.9,40.4-6.9,60.8-9.1
        c1.6-18.1,2.6-36.3,4.5-54.4c0.2-5.8,2.3-11.4,6.2-15.7c3.2-1,8.4-0.3,8.8,3.8c1.2,21.3-0.3,42.5-1.3,63.8
        c27.1-2.7,54.2-5.6,81.2-9c23.9-3.1,47.9-5.2,71.9-6.2c26.1-0.8,52.7-2.5,78.1,4.6c1.9,0.3,4.1,1.5,4,3.8c0.3,3-3.7,4.3-6,3.2
        c-9-3.2-18.5-4.1-27.9-4.7c-28.5-1.3-56.9,1.6-85.2,4.4c-39,3.2-77.8,8.2-116.5,13.4c-1.8,26.9-2.7,53.8-3.6,80.7
        c-0.1,28-1.3,56-2.2,84.1c-0.5,29.3-0.3,58.7-1,88c-0.2,4.6,0,9.3-0.9,13.9c-0.6,4.7-8.1,6-10.6,2.2c-1.3-3.2-1.5-6.6-2-10
        c-0.9-14-1-28-1.3-42c-1.2-41.7-2.3-83.5-0.7-125.2c-15.8,15.9-32.7,30.7-49.9,45.2c-8.9,7.1-18.2,14.3-29,18.3
        c-7,2.4-15.4,3.4-22.1-0.5c-6-3.4-9-10.3-9.5-16.9c-0.9-11.9,2.9-23.5,8.1-34c-12.8,9.7-26.1,18.6-39.7,27.1
        c-7.9,4.6-15.6,10-24.5,12.3c-9.3,2.4-20,3.2-28.2-2.6c-4.5-2.8-7.2-7.5-8.9-12.3c-5.1,16.4-10.3,32.7-15.6,49
        c-4.8,14.2-9.9,28.3-14.2,42.7c-5.4,18.5-11.4,37.1-21.5,53.7c-2.8,5.2-8.3,8.3-13.9,9.1c-5.5-0.9-9.4-5.3-12.1-9.9
        c-6.5-14.1-9.1-29.7-9.7-45.1c-2.2-42.1-0.9-84.3,1.7-126.4c-9.4,20.5-15.3,42.4-22.4,63.8c-5.7,18.1-12.4,35.9-17.9,54
        c-5.6,19-11.7,38.2-22.2,55.1c-2.6,4.6-7.6,7.1-12.5,8.3c-5.7-0.1-9.8-4.7-12.6-9.2c-9.7-19.7-10-42.1-10.9-63.6
        c-4.2,7.3-10.6,12.9-17,18.2c-7.9,6.4-16.4,12-25.3,17c-5.9,3.3-11.5,7.2-17.6,10.1c-22.5,11.1-45.8,20.5-69.9,27.3
        c-19.4,5.5-39.4,10.3-59.7,9.9c-17.6-0.7-35.9-6.4-48.3-19.5c-12.4-12.8-17.6-30.8-19.2-48.2c-2.4-24.9,2.2-49.9,8.4-73.9
        c10.5-39,24.5-77.4,44.6-112.5c10.9-19.5,22.6-38.7,38.1-54.9c10.9-12.5,22.5-24.9,37.4-32.4c6.8-3.3,14.3-5.3,21.8-5.4
        c10.1-0.1,19.3,7.5,22,17.1c4.8,15.6,2.2,32.1-1.6,47.6c-1.7,6.4-3.3,13-6.9,18.7c-1.7,3-2.7,7-6.3,8.2c-2.8,0.8-6.6,1.8-8.8-0.9
        c-3-3.4-6.1-7.8-5.3-12.6c1.2-3.6,5.9-2.4,8.3-4.5c3.1-7.4,4.8-15.4,6.1-23.4c1.1-8.4,2.5-16.9,1.2-25.3c-0.5-4.4-3.4-8.8-7.7-10.3
        c-7.2-0.3-14.7,1.4-20.4,5.9c-4.8,3.6-10.1,6.5-14.7,10.4c-28.6,26.1-49.8,59.5-65.8,94.5c-10.4,22.6-19.6,45.8-26.5,69.7
        c-5.5,20.2-9.3,40.9-10.5,61.8c-0.7,18.3,0.9,37.9,11.3,53.6c9.1,13.9,25.4,21.6,41.7,22.6c21.4,1.4,42.7-3.2,63.2-9.1
        c22-6.5,43.4-14.9,64-24.9c16.4-8.2,32.8-17,46.4-29.4c4.5-4,8.4-8.8,10.9-14.2c2-3.6,2.7-7.8,1.4-11.7c-1.2-2.8,0.7-7.1,4.2-5.9
        c-0.2-89.5,10.5-178.9,31.1-266C676.9,260.9,679.3,255.4,683.8,252z M851.1,440.2c6.6-3,13.1-6.8,17.6-12.5c1.2-1.4,1.4-3.2,1.5-5
        C861.9,425.9,855.7,432.8,851.1,440.2zM581.5,422.4c1.5-3.4,5.3-5.3,8.9-5.4c2.1,0.2,3.9,1.7,6,2.1c2.9,0.4,5-2.7,8-2c4.9,0.3,9.6,5.1,8.1,10.2
        c-0.4,2.2-3,2.1-4.6,2c10.1,14.7,13.8,33.5,11.1,51.1c-1,6.9-4.3,13.6-10,17.7c-3.7,2.6-7.6,5.2-12,6.5c-7.6,2-16.8,0.5-22.1-5.7
        c-6.1-6.5-7.5-16-6.7-24.5c0.8-12.9,7.4-24.4,12.8-35.9C579.5,433.2,579.2,427.4,581.5,422.4z M588.1,453.2
        c-3.5,7.9-5,16.5-5.3,25.1c0.2,4.8,0.9,10.6,5.6,13.1c4.7,2.8,10-0.3,14-2.9c6.2-5.5,7.3-14.3,7.2-22.1
        c-0.5-11.7-3.8-23.6-11.1-32.9C594.7,439.8,591.2,446.4,588.1,453.2z"/>
    <path class="st1" d="M1150.5,422.4c2.1-4.5,8.3-6.9,12.7-4c2.7,1.8,5.6-0.1,8.1-1.2c5.6-0.9,11.9,4.3,10.1,10.2c-0.4,2.2-3,2.1-4.6,2
            c6.1,8.5,9.5,18.7,11.1,28.9c1.3,9.6,1.4,19.7-1.8,29c-2.7,7.7-9.8,12.7-16.9,16.1c-5.8,2.7-12.6,2.7-18.5,0.5
            c-6.5-2.6-11-8.9-12.8-15.5c-1.9-7.6-1.1-15.5,0.4-23.1c-4.2,6.6-8,13.5-12.4,20c-6.4,9.7-12.1,20-20,28.8c-3.9,4.7-8.6,9-14,11.9
            c-5.8,2.8-13.1,0.8-16.9-4.4c-4.5-6-5.4-13.8-6.3-21.1c-1.4-16.4,0.9-32.8,4.1-48.9c1.9-7.7,2.8-16.3,8.2-22.5
            c3-4.1,11.1-3,11.7,2.5c1,3,0.8,6.3-2.3,8c-2.5,5.8-3.7,12.2-4.9,18.4c-2.6,15-4.3,30.3-3.5,45.5c0.7,4.1,1.4,9.1,4.5,12
            c4.6-0.9,8.8-3.5,12.1-6.8c13.6-14.8,24.8-31.5,35.6-48.4c4.5-6.9,8.5-14,13.6-20.4c2.5-2.6,1-6.3,1.1-9.4
            C1148.9,427.6,1149.3,424.9,1150.5,422.4z M1152.9,467.3c-0.9,6.3-1.9,13,0.3,19.2c1.5,4.2,6.4,7.1,10.8,5.7
            c3.7-1.3,7.7-3,9.9-6.4c4.3-5.9,4.8-13.4,4.7-20.4c-0.7-11.3-3.9-22.9-11.1-31.9C1161.4,444.1,1154.9,455,1152.9,467.3zM1089.9,377.1c2.3-2.6,7.3-2.6,9.1,0.6c1.1,1.5,0.2,3.5-0.3,5.1c-2.3,1-4.8,1.6-7.3,1.7
        C1089.8,382.4,1088.3,379.6,1089.9,377.1z"/>
    <path class="st1" d="M1224.7,412.6c2.6-2.5,7.3-1.6,8.8,1.6c1.8,3.8,2.5,8.1,3.1,12.3c-1.6,0.6-3.4,0.7-5.1,0.6c-2.1,15.5-3.9,31-4.9,46.6
        c3.9-8.9,6.4-18.4,11.5-26.7c3.5-6.1,5.5-13.3,11-18c3.4-3.1,9.2-3.3,12.5,0c4.8,3.6,6.2,9.7,7.4,15.2c1.7,10.4,4.2,20.6,7,30.7
        c1,5.3,4.3,10,9.3,12.3c8.7-0.9,15.8-6.5,22.6-11.4c16.8-12.8,31.3-28.2,47.7-41.4c1.8-1.4,4.3-3.5,6.4-1.5c2.4,2.2,0,5.6-2.1,7.1
        c-9.5,7.8-17.7,17-26.7,25.3c-12.3,10.4-24.1,21.8-38.5,29.3c-6.1,3-14.2,2.4-19.2-2.3c-5.8-5-7.9-12.7-10-19.8
        c-3.4-12-3.9-25-9.8-36.2c-5.1,5.4-8.9,12-11.7,18.9c-5.6,13.3-10.1,27-14.9,40.6c-1,2.6-1.6,5.6-3.9,7.4c-2.5,2.1-6.7,1.7-8.8-0.8
        c-2.4-3-3.1-6.9-3.6-10.5c-1.3-22.7,2.3-45.3,6.4-67.6C1220.1,419.9,1221.4,415.5,1224.7,412.6z"/>
</g>
</svg>