<svg version="1.1" id="Layer_1" xmlns="http://www.w3.org/2000/svg" xmlns:xlink="http://www.w3.org/1999/xlink" x="0px" y="0px" viewBox="0 0 1700.4 703.7" style="enable-background:new 0 0 1700.4 703.7;" xml:space="preserve">
<style type="text/css">
	.st0{fill:#fff;stroke:#fff;stroke-width:.6px;stroke-miterlimit:10;}

    svg {

        background: #000;
    }

    .feat {

        transform-origin: 900px 360px;
        transform: scale(.5);
    }

    @keyframes flash {

        25% {

            fill: #000000;
        }

        50% {

            fill: #fff;
        }
    }

    .feat path:nth-of-type(1) {

        animation: flash 2s linear infinite;
    }

    .feat path:nth-of-type(2) {

        animation: flash 2s .1s linear infinite;
    }

    .feat path:nth-of-type(3) {

        animation: flash 2s .2s linear infinite;
    }

    .feat path:nth-of-type(4) {

        animation: flash 2s .3s linear infinite;
    }

    .feat path:nth-of-type(5) {

        animation: flash 2s .4s linear infinite;
    }

    .feat path:nth-of-type(6) {

        animation: flash 2s .5s linear infinite;
    }

    .feat path:nth-of-type(7) {

        animation: flash 2s .6s linear infinite;
    }

    .feat path:nth-of-type(8) {

        animation: flash 2s .7s linear infinite;
    }

    .feat path:nth-of-type(9) {

        animation: flash 2s .2s linear infinite;
    }

    .feat path:nth-of-type(10) {

        animation: flash 2s .3s linear infinite;
    }

    .feat path:nth-of-type(11) {

        animation: flash 2s .4s linear infinite;
    } 
</style>
<g class="feat">
<path class="st0" d="M12.8,12c0.1-0.4,0.2-1.3,0.3-1.8c54.5,0.1,109.1,0,163.6,0c-0.1,18.3,0.1,36.7-0.1,55   c-1.3-0.5-2.3-1.4-2.5-2.8c-2.6-9.7-4.5-19.9-9.8-28.6c-6.2-10.7-17.4-18.3-29.5-20.5c-4.9-1-10-1.3-15-1.3c-15.9,0-31.8,0-47.8,0   c-0.1,33.6,0,67.2,0,100.8c11.6,0,23.2,0,34.8,0c7.1,0,14.7-1.2,20.3-5.9c9-6.8,13.3-18.2,13.3-29.3c0.5,0,1.6,0,2.1,0   c0,24.1,0,48.2,0,72.3c-0.5,0-1.6,0-2.1,0c-0.1-10-3.1-20.4-10.7-27.2c-5.2-5.3-12.6-7.9-19.9-8c-12.6-0.1-25.2,0-37.8,0   c0.1,23.3-0.1,46.7,0.1,70c0.4,7.4-0.4,15.6,3.5,22.2c3.8,6.1,11.5,7.7,18.2,8c10.3,0.1,20.7,0,31,0c15.1,0.1,30.4-5.4,41.5-15.7   c11.3-10.6,18.7-24.8,22.1-39.8c0.6-1.7,0.5-4.2,3-4.5c-2.2,20.8-5,41.5-7.4,62.2c-56.9,0.1-113.8,0-170.7,0c0-0.6,0-1.7,0-2.2   c8.2-0.3,17.3,0.4,24.3-4.5c6.6-5.1,6.7-14.1,6.9-21.7c0.1-46.4,0-92.7,0-139.1c0.1-6.4-0.3-12.7-0.8-19.1   c-0.5-5.5-2.3-11.6-7.4-14.6C29.2,11.8,20.7,11.9,12.8,12z"/>
<path class="st0" d="M221.6,10c18.1,0,36.2,0,54.2,0c23.1,44.2,46.3,88.4,69.4,132.5c23.1-44.2,46.2-88.3,69.2-132.6   c18.4,0,36.7,0,55.1,0c0,0.5,0,1.5,0,2c-7.8,0.3-16.4-1.2-23.4,2.9c-6.4,4.2-7.3,12.6-7.6,19.6c0,52.3,0,104.6,0,156.9   c0.2,6.7,1.2,14.5,6.9,18.9c6,4.6,13.9,4.5,21.1,4.3c0.9,0.3,5.3-0.4,3,1.6c-29.9,0.4-59.9,0.1-89.8,0.1c0-0.4,0-1.3,0.1-1.7   c8.6-0.3,18.4,0.2,25.4-5.8c5.7-5.9,5.4-14.8,5.4-22.5c0-54.9-0.2-109.8,0.2-164.7c-26.5,50.4-52.7,100.9-79.1,151.4   c-3.3-0.9-4-4.6-5.6-7.2C302.4,121,278.7,76,254.9,30.9c-0.1,50.5,0,101.1,0,151.6c0,5.7,0.9,11.7,4.3,16.4   c5.9,8.4,15.6,13.3,25.6,14.9c5,0.9,10.1,0.8,15.2,1.1c-0.9,0.9-2,1.7-3.3,1.5c-27,0-54,0-81,0c-2.5,0-5,0-7.5-0.3   c1.1-2.1,3.6-1.4,5.5-1.6c11.2,0,23-3,31.1-11.1c5.8-5,8.4-12.6,8.4-20.1c0.1-43,0-86.1,0-129.1c0-8.6,0.2-17.3-0.5-25.9   c-0.4-5.3-2.9-10.7-7.7-13.3c-7-4.1-15.5-3.1-23.3-3.2C221.7,11.5,221.6,10.5,221.6,10z"/>
<path class="st0" d="M481.4,11.8c0.5-0.4,1.6-1.1,2.1-1.4c29.4-0.3,58.8,0,88.1-0.1c17.8-0.4,36.7,0.4,52.3,9.9    c10.8,6.2,18.8,17,21.4,29.3c3.5,16.1,0.7,34.6-11.1,46.8c-12.5,13-31.1,17.5-48.6,18.2c-14.9,0.3-29.7,0.1-44.6,0.1    c0,24.7-0.1,49.3,0.1,74c0.3,7.5,0.1,16.7,6.6,21.8c7.1,5.3,16.5,4.3,24.9,4.6c-0.3,3-3.3,1.9-5.2,2.2c-28.6-0.1-57.3,0.1-86-0.1    c0.2-0.5,0.7-1.5,0.9-2c8-0.6,17,0.3,23.9-4.6c5.8-4.3,6.7-12.1,6.8-18.7c0-52,0-104.1,0-156.1c-0.3-6.5-1-13.9-6.2-18.5    C499.8,11.5,490.1,12.2,481.4,11.8z M547.2,17.1c-5.9,5.3-5.7,14.1-6,21.4c-0.1,24.8,0,49.5,0,74.3c13.5-0.1,27,0.3,40.5-0.2    c11.7-0.5,22.7-7.4,28.5-17.5c7.6-13.1,9-28.8,7.3-43.6c-1.4-12-6.1-24.3-15.9-32c-7.3-5.9-16.9-7.7-26-7.4    C566.1,12.1,555.2,10.8,547.2,17.1z"/>
<path class="st0" d="M738.1,8.1c5.8-0.9,11.7-0.5,17.6-0.6c6.7,0,13.5-0.3,20.1,0.8c18.8,3.1,36.5,12.7,49.4,26.7    c12.3,13.4,21.3,29.9,25.6,47.5c4.5,18.3,4.7,37.7,0.6,56.1c-4.2,18.9-13.7,36.6-27,50.7c-12.5,13.2-29.3,22.4-47.3,25.6    c-8.7,1.7-17.7,0.9-26.5,1.1c-20.4,0.8-40.8-7.1-56.1-20.4c-24.9-21.6-37.6-55.4-36.3-88c0.5-19.4,6.3-38.6,16-55.4    c8.1-13.1,18.9-24.8,32.1-32.9C716.1,13.6,726.9,9.6,738.1,8.1z M746.7,9.6c-4.5,0.5-8.5,2.5-12.5,4.5c-12,5.5-22.2,14.7-29,26    c-11.8,18.2-17,40-18.3,61.4c-1.2,20.8,1.1,41.9,8.2,61.6c6.4,16.8,16.4,33.3,32.2,42.7c7,3.8,14.1,8.1,22.3,8.6    c7.8,0.2,16,0.7,23.3-2.6c7.1-3.3,14.1-6.9,20.1-12c5.6-4.4,9.9-10.2,13.9-16.1c11.1-17,16.6-37.1,18.4-57.1    c1.7-20.6,0-41.6-6.4-61.3c-4.4-13.5-11.3-26.4-21-37c-7.4-7.7-16.9-13.1-26.7-17.3C763.4,8.4,754.9,9.2,746.7,9.6z"/>
<path class="st0" d="M862.3,11.9c0.7-1.9,2.8-1.6,4.4-1.6c32.3,0,64.6,0,97,0c15.2,0.2,30.9,2.8,43.7,11.5    c10.8,6.7,17.9,18.6,19.7,31.1c2,13.6-0.1,28.5-8.7,39.6c-6.6,8.8-16.6,14.4-26.9,17.8c-7.7,2.9-16.1,3.3-24.2,4    c5.1,2.1,10.2,4.6,14.3,8.4c4.7,4.2,8.6,9.4,12.3,14.5c14.1,19.6,28.2,39.2,42.3,58.8c2.9,4,5.6,8.4,9.8,11.2    c7.5,5,16.5,7.6,25.5,7.7c0,0.5-0.1,1.6-0.2,2.1c-17.2,0-34.5,0-51.7,0c-20.9-28.9-41.8-57.9-62.7-86.8c-4.1-5.5-8.7-11-15.1-13.8    c-6.2-2.8-13.1-1.6-19.7-1.8c0,24.7-0.1,49.3,0.1,74c0.3,7.5,0.1,16.6,6.7,21.8c6.8,5.3,16,4.2,24,4.7l0.6,2    c-30.2,0.2-60.4,0-90.6,0.1c0-0.6-0.1-1.7-0.1-2.2c7.8-0.2,16.3,0.4,23.4-3.7c6.6-4.1,7.8-12.5,7.9-19.6c0-52,0-104.1,0-156.1    c-0.3-6.6-1-14.4-6.6-18.8C880.2,11.6,870.8,12.1,862.3,11.9z M926.3,19.2c-4.2,5.9-3.8,13.5-4.1,20.4c-0.1,24.4,0,48.8,0,73.2    c9.8,0,19.7,0,29.5,0c6.8,0,13.7,0.2,20.2-2c9.1-2.9,16.3-10,20.7-18.3c6.8-14.5,7.7-31.2,4.7-46.7c-2.5-12.3-9.3-24.5-20.9-30.1    c-9.5-4.8-20.5-3.5-30.8-3.7C938.7,12.1,930.8,13.3,926.3,19.2z"/>
<path class="st0" d="M1086.4,10.3c29.1,0,58.2,0,87.3,0c1.5-0.2,2.7,0.3,3.3,1.7c-8.8,0.1-18.5-0.5-25.8,5.3   c-5.1,4.5-5.5,12-5.8,18.3c0,52,0,104,0,156c0.2,6.6,0.8,14.3,6.5,18.7c7.1,5.2,16.4,4.5,24.8,4.5c0,0.6,0,1.7,0,2.3   c-30.1,0-60.2,0-90.2,0c0-0.6,0-1.7,0-2.2c8.1-0.3,17.1,0.4,24.1-4.4c6.8-5,6.9-14.3,7.1-21.9c0.1-46.7,0-93.3,0-140   c0-6.7,0.2-13.5-0.8-20.1c-0.8-4.7-2.5-9.8-6.8-12.3c-7.1-4.3-15.7-4.1-23.7-4.1L1086.4,10.3z"/>
<path class="st0" d="M1192.1,9.5c26.8,0,53.7,0,80.5,0c3.1,0,6.3-0.2,9.4,0.2c0.3,0.5,0.8,1.5,1,2c-7.7,0.2-16-0.7-23,3.2   c-5.6,2.9-8,9.7-7.9,15.7c0.1,41,0,82,0,123c0.5,16.4,5.3,33.5,16.8,45.6c9.7,10.2,23.8,15.7,37.7,15.4   c16.6-0.5,32.9-6.7,45.8-17.2c12.3-10.1,20-25.7,20.1-41.7c0.1-29.4,0-58.8,0-88.1c-0.2-9.7,0.4-19.4-0.4-29.1   c-0.6-7.5-5.2-14-11.2-18.2c-7.9-5.8-17.9-7.6-27.5-8.2c-2.2-0.1-4.4-0.2-6.3-1.6c4-1,8.2-0.6,12.3-0.6c26.3,0,52.7,0,79,0   c0,0.5-0.1,1.5-0.1,1.9c-9.8,0.3-19.9,1.3-28.6,6.2c-7.6,4.2-14.2,11.6-15,20.6c-0.7,8-0.1,16-0.3,24c0,31.4,0,62.8,0,94.1   c-0.2,14.8-6.8,29.2-17.5,39.4c-13.7,13.3-32.8,19.8-51.6,21c-16.5,1.1-33.5-1.3-48.1-9.2c-10.4-5.4-19.5-13.3-25.7-23.3   c-6.1-9.5-8.5-20.9-8.5-32.1c0-40.3,0-80.7,0-121c-0.1-6-1.8-12.9-7.3-16.1c-7.2-4-15.7-3.6-23.7-3.6   C1192.1,11.2,1192.1,10.1,1192.1,9.5z"/>
<path class="st0" d="M1436.7,10c18.1,0,36.1-0.1,54.2,0c23.1,44.2,46.3,88.4,69.5,132.5c23.1-44.2,46.2-88.3,69.2-132.6   c18.4,0,36.8,0,55.1,0c0,0.5,0,1.5,0,2c-7.8,0.3-16.3-1.2-23.4,2.9c-6.4,4.2-7.3,12.5-7.6,19.5c0,52.4,0,104.7,0,157.1   c0.2,6.9,1.4,15.2,7.6,19.4c6.9,4.8,15.7,3.8,23.7,3.8c0,0.4,0,1.3,0,1.8c-30,0-60.1,0.1-90.1,0c0-0.4,0-1.3,0-1.7   c8-0.2,16.7,0.1,23.7-4.4c5.8-3.9,6.8-11.5,7.1-17.9c0.1-56.9-0.2-113.7,0.3-170.6c-26.5,50.4-52.7,100.9-79.1,151.3   c-1.3-0.6-2.7-1.2-3.2-2.6c-24.5-46.6-49.1-93.2-73.7-139.8c0,43.2,0,86.4,0,129.7c0.2,9-0.3,18,0.3,27   c0.8,10.9,9.6,19.3,19.2,23.3c8,3.6,16.9,3.8,25.6,4.1c-1.1,1.9-3.5,1.4-5.3,1.6c-28.6-0.1-57.2,0-85.8-0.1c0-0.4,0-1.3,0-1.7   c10.4,0.2,21.4-0.9,30.4-6.8c5.7-3.9,11-9.2,12.7-16c1.5-5.7,1.1-11.6,1.2-17.5c0-30.3,0-60.7,0-91c-0.1-17.3,0.3-34.7-0.3-52   c0-6-1.9-12.6-7.3-15.9c-7.1-4.5-15.9-3.4-24-3.6C1436.6,11.5,1436.7,10.5,1436.7,10z"/>
<path class="st0" d="M625.8,189.6c2.8-3.4,6.3-6.9,10.8-7.6c2.9,0.1,6.4,1.4,7.1,4.6c0.3,2.3,0.8,5.2-1.2,6.9c-2.6,2.3-6,3.9-7.9,7   c-11.1,16.6-18.3,35.2-26.9,53.1c-25.2,56.7-49.3,114-70.6,172.3c-13,37.4-25,75.2-36.8,113c-10.8,34.8-21.2,69.6-30.9,104.7   c-3.7,14.3-9.6,28.2-19,39.7c-3,3.6-8.1,5.7-12.8,4.4c-6.2-1.1-11.1-5.6-14.3-10.9c-5-8.3-6.4-18-8.8-27.3   c-4.9-22.8-8.1-45.9-9.9-69.1c-1.6-22.3-2.3-44.6-3.2-66.9c-0.8-25.4-1.7-50.9-1.2-76.3c0.3-22.9,1.3-45.9,1.9-68.8   c1-27.7,1.5-55.4,4.5-82.9c1.1-10.3,2.1-21.2,7.8-30.2c3-5.3,8.9-9,15.1-8.2c3.3,2,4.6,6.3,3.4,10c-2.3,8.3-3.7,16.9-3.8,25.5   c-2.6,25.2-3.2,50.6-3.9,76c-0.8,65.3-1.8,130.8,1.9,196c1.8,34.9,5.6,69.8,13,104c9.1-18.6,14.6-38.6,21.1-58.1   c19.9-63.4,39.4-127,63.2-189.1c15.1-37.9,31.5-75.2,47.3-112.8c4.1-10,8.9-19.7,13.3-29.7c5.2-12,10.6-23.8,16.7-35.4   C610.4,219.2,615.3,202.8,625.8,189.6z"/>
<path class="st0" d="M600.9,388.7c1.9-4,6.4-6.2,10.7-6.1c2.4,0.4,4.6,1.7,7,2.4c2.6,0.2,4.8-1.4,7.1-2.1    c6.7-1.7,15,5.2,12.4,12.3c-0.7,2.4-3.5,2.2-5.4,2.6c11.8,16.9,16.1,38.5,13.9,58.8c-0.9,9.1-4.3,18.5-11.9,24.1    c-5.8,4.1-11.9,8.4-19.2,9.2c-8,1-16.7-0.9-22.4-6.9c-7.3-7.1-9.6-17.6-9-27.5c0-16.9,8.7-31.9,15.7-46.8    C598.4,402.2,597.8,394.9,600.9,388.7z M621.3,402.5c-4.5,7.6-8.4,15.5-12.2,23.4c-4.3,9.3-6.2,19.5-6.7,29.7    c-0.1,4.4,0.2,9,2.2,13c2.1,4.6,7.9,7.1,12.7,5.5c4.6-1.5,9.3-3.8,12-7.9c5.1-7,5.8-16.1,5.6-24.5    C634,427.7,630.1,413.4,621.3,402.5z"/>
<path class="st0" d="M782.1,353.9c3-2.2,7.3-1,9.5,1.7c2,2.5,2.3,5.8,2.8,8.8c3.1,32.6-1.5,65.1-5.3,97.4    c10.1-11.6,18.7-24.5,29.3-35.6c5.2-5.1,9.6-11.1,15-16.1c7.2-7.5,15.6-13.8,23.9-20c2.6-2.5,7.5-2.4,8.8,1.5    c4.9-0.8,10.5-0.3,14.1,3.5c4.7,4.9,8.1,11.6,7.4,18.5c-0.1,3.1-5.3,4.4-6.8,1.7c-2.3-3.3-3-7.3-5.5-10.5c-2.6-2-6.4-1.6-9,0.2    c-5.2,3.1-8.7,8.2-11.6,13.4c-5.7,9.3-11,19.5-10.6,30.8c4.3-1,8.7-2.3,12.2-5.1c20.1-15.4,37.1-34.3,54.1-52.9    c3.8-3.7,8.7-7.3,14.3-6.4c3.9,0.1,6.3,3.8,7.7,7c2.5,6.3,0.7,13.2,0.3,19.7c-2,24.9-7.4,49.8-5.2,74.9c0.2,4,1.8,7.9,4.7,10.6    c7.8-0.8,14.8-5.5,20-11.2c4.8-5.2,10.4-9.6,14.8-15.1c8.1-9.7,15.8-19.7,23.3-29.8c4.5-5.6,7.6-12.2,12-17.9    c7.5-11.2,17.8-20.1,27.5-29.3c2.3-2.8,6.1-1.2,9.1-1.7c5-0.7,10.7,0,14.3,4c3.4,4,5.3,8.9,7.4,13.6c8.7-5.4,16.1-12.7,24.8-18.4    c7-5.3,15.6-8.2,24.3-8.6c4.2-0.8,7.8,1.9,11.3,3.7c2.2,1.1,3.1,3.5,4.2,5.5c5,10.1,5.4,21.6,5.2,32.6c-0.9,20.4-6,40.2-8.8,60.4    c13.4-15,26.6-30.4,41-44.5c8.9-9.1,18.6-17.2,27.8-25.8c-0.5-1.5-1-2.9-1.4-4.4c2.2-1.9,4.9-1.6,7.6-1.4    c6.8-5.7,14.2-10.8,19.8-17.8c6.3-7.4,14.9-13,24.5-14.6c6.7-1.1,14.6,3,15.8,10.1c1.1,10.6-5.8,20-13.8,26.2    c-8.6,7.5-19.8,11.5-31.2,11.9c-3.5,6.8-5.2,14.4-4.9,22c0.4,4.1,1.8,8.8,5.5,11.2c7.3,3.2,15.9,3.5,23.5,0.7    c17.8-6.5,35.3-14.2,50.7-25.4c16.1-9.9,31.1-21.4,46-32.9c2.2-1.9,5.1-1.8,7.8-1.6c0,2.2,0.9,4.9-0.6,6.8    c-7.5,8-16.9,13.7-25.2,20.8c-19.9,14.8-40.5,28.6-62.1,40.9c-10.2,5.7-22,8.8-33.7,8.3c-8.6-0.4-17.2-4.5-22.2-11.6    c-4.5-6.1-5.6-14-5.4-21.4c0.2-7.7,3.2-14.8,5.6-22c-12.4,12.6-26.1,23.8-37.3,37.4c-12.9,14.5-25.8,29-38.1,44    c-2.2,2.8-5.1,5.3-5.8,9c-5,20.8-10.7,41.5-17,62c-5.7,18.4-12.7,36.4-21.5,53.6c-4.1,8.3-8.8,16.3-14.5,23.6    c-4,5.2-9.5,9.1-15.7,11.2c-6.7,2.2-14.9-1.4-17.5-8.1c-3-6.4-1.5-13.6-0.8-20.3c2.5-19.6,11.4-37.6,21.6-54.2    c13.2-24.5,31.5-45.6,48.6-67.4c1.9-2.2,2.1-5.2,2.7-7.9c4-20.6,9.7-40.9,11.9-61.7c1.1-10.7,2.3-21.4,1.6-32.1    c-0.2-4.4-2-8.4-4.4-11.9c-5.5,0.5-11.1,1.8-15.6,5.1c-2.7,1.9-5,4.2-7.6,6.2c-16.1,11.3-29.9,25.5-44.6,38.4    c-9,8.1-18.6,15.5-28.1,22.9c-6.2,4.8-14.2,8.5-22.2,6.9c-5-1.1-7.8-5.7-8.9-10.3c-8.4,11.6-16.4,23.5-26.8,33.5    c-6,6.2-14.3,10-22.8,11.4c-7.2,1.1-14.3-3.6-17.2-10c-5-10.3-5.2-22-5.1-33.1c0.1-20.8,4.7-41.3,5.6-62    c-7.3,6.5-14.1,13.5-20.2,21.1c-8.8,11.1-18.8,21.5-30.6,29.4c-6.4,3.8-12.7,8.7-20.5,8.9c-6.3,0.6-13.3-2.5-15.7-8.5    c-2.9-5.6-1.5-12.1-0.4-18c1.7-8.8,5.5-16.9,9.7-24.8C827,426,817,439.4,806.8,452.6c-6.5,8.5-12.9,17.2-19.3,25.9    c-2.7,3.5-2.5,8.1-3.6,12.2c-10.7,53.1-25.3,105.6-46.7,155.4c-5.7,13.5-12.7,26.6-21.9,38.2c-4.3,5.4-10.6,10.1-17.9,9.9    c-4.8-0.1-8.3-4.1-10.4-8.1c-3.2-6.4-2.3-13.7-2-20.6c0.8-17.7,6.3-34.7,12.6-51.1c7.6-20.4,16.8-40.1,28.1-58.7    c10-16.6,20.4-32.9,31.2-49c1.9-3,4.4-5.8,4.9-9.4c4.4-20.7,9-41.3,13.6-62c5.4-23.8,8.1-48.1,9.1-72.5c-2.4,2.1-4.8,4.3-6.5,7    c-10.1,17-20.5,34-29.3,51.8c-8,16.3-16.7,32.2-26.4,47.5c-6.9,10.8-12.6,23-23.3,30.7c-4.7,3.7-11.2,4.5-16.8,2.8    c-8.1-4.6-10.8-14.2-12.3-22.8c-2.8-17.5-1.3-35.4,2.3-52.6c2.2-9.8,4.8-19.6,10-28.2c3.1-5.1,11.9-7.6,15.6-1.8    c2.1,4.7,1.8,10.1,1.7,15.2c-0.1,3.1-4.2,1.7-6.2,2c-3.7,18.8-8.5,37.7-7.6,57c0.2,6.5,1.5,13,3.5,19.2    c11.5-4.5,18.1-15.4,24.6-25.2c11-17.6,21.2-35.8,31-54.1c7.3-13.4,15.2-26.6,23.5-39.4C772.4,365.8,775.7,358.4,782.1,353.9z     M1219.2,410.8c6-2.6,11.8-5.7,16.6-10.1c3.5-3,6.8-6.6,7.1-11.4C1232.5,393.1,1225.1,401.8,1219.2,410.8z M1036.7,404.7    c-6.9,3.8-11.8,10.1-16.8,16.1c-9.1,12-16.6,25.4-20.9,39.9c10.6-5.9,20.4-13.2,29.2-21.4c8.7-8.2,17.4-16.3,26.2-24.4    c-2.2-3.3-3.3-7.2-5.7-10.4C1045.4,400.9,1040.3,402.6,1036.7,404.7z M705.2,626.4c-4.7,15.3-9.6,31.4-6.8,47.6    c15.9-25.7,27-54,36.2-82.6c7.1-21.3,13.5-42.8,19.3-64.5C733.4,557.7,716.5,591.1,705.2,626.4z M1072.1,567.9    c-9,15-17.8,30.2-24.8,46.2c-4.7,10.3-6.3,21.9-5.5,33.2c3.9-2.1,7.7-4.8,9.9-8.7c3.7-6.9,9.3-12.6,12.2-20    c12.5-25.7,20.5-53.2,28.6-80.5C1085.4,547.9,1078.3,557.6,1072.1,567.9z"/>
</g>
</svg>