<svg xmlns="http://www.w3.org/2000/svg" viewBox="0 0 48 48"><g fill="#010101"><path d="M46.9 35.9H1.3l-.2-.8c-.1-.5-.1-1-.1-1.4 0-12.7 10.3-23 23-23s23 10.3 23 23c0 .2 0 .5-.1.7v1.5zM3 33.9h42v-.2c0-11.6-9.4-21-21-21s-21 9.4-21 21v.2zm45 12.9H0v-8.3h48v8.3zm-46-2h44v-4.3H2v4.3zM24 10c-2.4 0-4.4-2-4.4-4.4s2-4.4 4.4-4.4c2.4 0 4.4 2 4.4 4.4S26.4 10 24 10zm0-6.8c-1.3 0-2.4 1.1-2.4 2.4S22.7 8 24 8s2.4-1.1 2.4-2.4-1.1-2.4-2.4-2.4z"/><path d="M10.2 27.4l-1.8-.8c.2-.4 4.1-9.1 12.6-10.7l.4 2c-7.5 1.4-11.1 9.4-11.2 9.5z"/></g></svg>