<svg xmlns="http://www.w3.org/2000/svg" viewBox="0 0 48 48"><g fill="#010101"><path d="M8.9 48c-4.2 0-7.7-3.5-7.7-7.7V12c0-4.2 3.5-7.7 7.7-7.7s7.7 3.5 7.7 7.7v28.3c0 4.2-3.5 7.7-7.7 7.7zm0-41.7c-3.1 0-5.7 2.6-5.7 5.7v28.3c0 3.1 2.6 5.7 5.7 5.7s5.7-2.6 5.7-5.7V12c0-3.1-2.6-5.7-5.7-5.7zM27 48c-4.2 0-7.7-3.5-7.7-7.7V12c0-4.2 3.5-7.7 7.7-7.7s7.7 3.5 7.7 7.7v28.3c0 4.2-3.5 7.7-7.7 7.7zm0-41.7c-3.1 0-5.7 2.6-5.7 5.7v28.3c0 3.1 2.6 5.7 5.7 5.7s5.7-2.6 5.7-5.7V12c0-3.1-2.6-5.7-5.7-5.7z"/><path d="M15.6 17.8H2.2c-.6 0-1-.4-1-1s.4-1 1-1h13.4c.6 0 1 .4 1 1s-.4 1-1 1zm0 20.4H2.2c-.6 0-1-.4-1-1s.4-1 1-1h13.4c.6 0 1 .4 1 1s-.4 1-1 1zm18.1-20.4H20.3c-.6 0-1-.4-1-1s.4-1 1-1h13.4c.6 0 1 .4 1 1s-.4 1-1 1zm0 20.4H20.3c-.6 0-1-.4-1-1s.4-1 1-1h13.4c.6 0 1 .4 1 1s-.4 1-1 1zM11.6 6.7H6.2c-.6 0-1-.4-1-1V1c0-.6.4-1 1-1h5.4c.6 0 1 .4 1 1v4.7c0 .6-.4 1-1 1zm-4.4-2h3.4V2H7.2v2.7zm22.5 2h-5.4c-.6 0-1-.4-1-1V1c0-.6.4-1 1-1h5.4c.6 0 1 .4 1 1v4.7c0 .6-.4 1-1 1zm-4.4-2h3.4V2h-3.4v2.7z"/><path d="M44.1 30.2h-.3c-.5-.2-.8-.7-.7-1.2C47.5 14.5 46 7.9 44 4.8 42.3 2.3 40.1 2 40 2H1c-.6 0-1-.4-1-1s.4-1 1-1h39.1c.2 0 3.2.3 5.5 3.6 3.4 5 3.2 13.7-.5 25.9-.2.4-.6.7-1 .7z"/><path d="M41.6 40.5c-3.5 0-6.4-2.9-6.4-6.5s2.9-6.5 6.4-6.5c3.5 0 6.4 2.9 6.4 6.5s-2.9 6.5-6.4 6.5zm0-11c-2.4 0-4.4 2-4.4 4.5s2 4.5 4.4 4.5c2.4 0 4.4-2 4.4-4.5s-2-4.5-4.4-4.5z"/></g></svg>