<svg width="16" height="16" viewBox="0 0 16 16" xmlns="http://www.w3.org/2000/svg"><title>Shape</title><path d="M15.065 7.331l-5.32-3.53v-.484C9.745 2.35 9.26.415 7.81.415c-1.45 0-1.934 1.935-1.934 2.902v.484L.556 7.33s-.484.265-.484.968v.241c.079.66 1.451.435 1.451.435l4.353-.822v1.935c0 .582.156 1.629.403 2.676l-.887.71s-.483.483-.483.967c0 .483.483.483.483.483h1.58l-.001-.002v.002l.048.104.006.013.04.083a.305.305 0 0 0 .013.025l.036.066.014.026.035.062.014.023.04.068.007.012c.017.026.033.052.05.076l.005.01.043.06.015.02a.763.763 0 0 0 .035.043c.006.007.01.014.018.02l.033.038.017.017a.658.658 0 0 0 .05.05l.05.043.006.004a.458.458 0 0 0 .045.031l.016.01.034.02.018.009a.33.33 0 0 0 .033.012l.019.007a.23.23 0 0 0 .035.009l.016.004a.44.44 0 0 0 .1 0 .101.101 0 0 1 .017-.004.23.23 0 0 0 .035-.009l.018-.007a.173.173 0 0 0 .033-.013.149.149 0 0 0 .019-.008l.033-.02.017-.01.044-.03c.002-.003.004-.003.006-.005a.496.496 0 0 0 .05-.043l.013-.012.038-.038.016-.017c.01-.013.022-.025.034-.039l.016-.02.035-.043.015-.02.042-.06.006-.01c.017-.024.033-.05.05-.076.001-.004.004-.008.006-.011l.042-.07.012-.021c.013-.02.025-.043.036-.063a2.165 2.165 0 0 0 .05-.094l.011-.022c.015-.028.028-.057.043-.087 0-.003.003-.006.004-.01l.048-.104h1.58s.483 0 .483-.483c0-.484-.484-.967-.484-.967l-.886-.71c.248-1.047.403-2.094.403-2.676V8.153l4.353.822s1.372.223 1.45-.435V8.3c-.001-.702-.485-.968-.485-.968zm-13.493.822c-.804.177-.58-.048-.58-.048l4.884-3.337v2.418s-3.5.791-4.304.967zm6.238 6.288s-.967-3.386-.967-4.353v-6.77c0-.484.314-1.935.967-1.935s.968 1.45.968 1.934v6.771c0 .967-.968 4.353-.968 4.353zm6.24-6.288c-.806-.176-4.305-.967-4.305-.967V4.768l4.885 3.337s.223.225-.58.048z"/></svg>