<svg xmlns="http://www.w3.org/2000/svg" viewBox="0 0 48 48"><g fill="#010101"><path d="M14.8 29.8h19.6v2H14.8z"/><path d="M43.3 31.9v-2c.8 0 2.8-.2 2.8-1.9v-3.3c0-.7-.5-1.4-1.1-1.7-4.3-2.2-7-5.8-8.5-8.5-.3-.6-1-1-1.6-1H21.4c-.8 0-1.5.5-1.8 1.2L18 19.1c-.4 1.1-1.3 2-2.5 2.4L3.6 25.1c-.7.2-1.2.7-1.3 1.3l-.2 1.1c-.1.6 0 1.2.4 1.6.4.5.9.7 1.5.7h2v2H3.9c-1.2 0-2.3-.5-3-1.5-.7-.9-1-2.1-.8-3.3l.2-1c.3-1.4 1.3-2.5 2.7-2.9l11.9-3.5c.6-.2 1-.6 1.2-1.2l1.6-4.4c.5-1.5 2-2.6 3.6-2.6h13.4c1.4 0 2.7.8 3.4 2 1.1 2 3.6 5.6 7.7 7.7 1.4.7 2.2 2.1 2.2 3.5V28c.1 1.8-1.2 3.9-4.7 3.9z"/><path d="M10.4 36.5c-3 0-5.4-2.4-5.4-5.4s2.4-5.4 5.4-5.4 5.4 2.4 5.4 5.4-2.4 5.4-5.4 5.4zm0-8.8c-1.9 0-3.4 1.5-3.4 3.4s1.5 3.4 3.4 3.4 3.4-1.5 3.4-3.4-1.5-3.4-3.4-3.4zm28.4 8.8c-3 0-5.4-2.4-5.4-5.4s2.4-5.4 5.4-5.4 5.4 2.4 5.4 5.4-2.4 5.4-5.4 5.4zm0-8.8c-1.9 0-3.4 1.5-3.4 3.4s1.5 3.4 3.4 3.4 3.4-1.5 3.4-3.4-1.5-3.4-3.4-3.4zM16 19.1h25.9v2H16z"/><path d="M26.9 12.8h2v7h-2z"/></g></svg>