<svg xmlns="http://www.w3.org/2000/svg" viewBox="0 0 48 48"><g fill="#010101"><path d="M17.9 30.8c-.3 0-.5-.1-.7-.3L.3 14.2c-.3-.3-.4-.7-.2-1.1.2-.4.5-.6.9-.6h33.8c.4 0 .8.2.9.6.2.4.1.8-.2 1.1L18.6 30.5c-.2.2-.4.3-.7.3zM3.5 14.5l14.4 13.9 14.4-13.9H3.5z"/><path d="M16.9 29.8h2V47h-2z"/><path d="M11.9 46h12v2h-12zM8.2 19h19.4v2H8.2z"/><path d="M34.8 25.7c-1.6 0-3.2-.3-4.8-.9-1.5-.5-2.8-1.3-4.1-2.5l1.3-1.5c1.1 1 2.2 1.7 3.4 2.1 5.8 2.2 12.4-.5 14.6-6.1 1.1-2.6 1.1-5.5-.1-8.1-1.2-2.7-3.4-4.8-6.3-5.9C33 .6 26.5 3.4 24.3 9c-.6 1.4-.8 2.9-.7 4.3l-2 .1c-.1-1.7.2-3.4.9-5.1C25.1 1.6 32.7-1.6 39.6 1c3.4 1.3 6 3.8 7.4 7 1.3 3.1 1.4 6.5.1 9.6-2.1 5-7 8.1-12.3 8.1z"/><path d="M38.07 2.132l1.851.755-4.19 10.279-1.852-.755z"/><path d="M26.435 5.226l9.017 6.812-1.206 1.596-9.016-6.812z"/><path d="M34.9 11.755l11.365.897-.157 1.994-11.365-.898z"/><path d="M35.754 12.503l3.299 10.598-1.91.595-3.299-10.599zm-33.89-10l12.174 16.864-1.621 1.171L.243 3.673z"/></g></svg>