<svg width="219" height="179" viewBox="0 0 219 179" xmlns="http://www.w3.org/2000/svg"><title>iconfinder_Valentine_Day_Calendar_Love_love_calendar_love_day_valentine_day_4805230</title><g fill="none" fill-rule="evenodd"><g fill="#000" fill-rule="nonzero"><path d="M8.901 54.158h200.62c2.356 0 4.496.961 6.046 2.51a8.523 8.523 0 0 1 2.513 6.041v107a8.523 8.523 0 0 1-2.513 6.041 8.536 8.536 0 0 1-6.045 2.51H8.902a8.536 8.536 0 0 1-6.046-2.51 8.523 8.523 0 0 1-2.513-6.04v-107c0-2.354.963-4.493 2.513-6.042a8.536 8.536 0 0 1 6.045-2.51zm200.62 3.567H8.902a4.97 4.97 0 0 0-3.521 1.465 4.967 4.967 0 0 0-1.467 3.52v107c0 1.368.562 2.614 1.467 3.518a4.975 4.975 0 0 0 3.521 1.466h200.62c1.37 0 2.618-.562 3.522-1.466a4.967 4.967 0 0 0 1.467-3.519v-107a4.967 4.967 0 0 0-1.467-3.519 4.975 4.975 0 0 0-3.521-1.465z"/><path d="M10.796 18.384h24.07c.986 0 1.785.798 1.785 1.783v7.413c0 2.166.889 4.138 2.32 5.567a7.87 7.87 0 0 0 5.571 2.318 7.87 7.87 0 0 0 5.572-2.318 7.858 7.858 0 0 0 2.32-5.567v-7.413c0-.985.799-1.783 1.784-1.783h109.987c.986 0 1.785.798 1.785 1.783v7.413c0 2.166.888 4.138 2.32 5.567a7.87 7.87 0 0 0 5.571 2.318 7.87 7.87 0 0 0 5.572-2.318 7.858 7.858 0 0 0 2.32-5.567v-7.413c0-.985.799-1.783 1.784-1.783h24.07c2.877 0 5.49 1.174 7.384 3.066a10.41 10.41 0 0 1 3.069 7.378v33.277c0 .144-.003-.06-.009.194h-.007v.005h.014a1.79 1.79 0 0 1-.012.163v.008h.006a1.784 1.784 0 0 1-3.568-.1 4.98 4.98 0 0 0-1.537-3.266 4.969 4.969 0 0 0-3.445-1.384H8.902a4.969 4.969 0 0 0-3.446 1.384 4.976 4.976 0 0 0-1.543 3.383l-1.778-.07 1.783.076a1.784 1.784 0 0 1-3.566-.151h.002l-.001-.03H.346a1.014 1.014 0 0 1 .002-.146c-.004-.033-.004.033-.004-.066V28.828a10.41 10.41 0 0 1 3.069-7.378 10.426 10.426 0 0 1 7.383-3.066zm22.285 3.567H10.796a6.865 6.865 0 0 0-4.86 2.021 6.854 6.854 0 0 0-2.023 4.856v26.947a8.5 8.5 0 0 1 4.988-1.617h200.62a8.5 8.5 0 0 1 4.989 1.617V28.828c0-1.89-.775-3.609-2.023-4.856a6.865 6.865 0 0 0-4.86-2.021h-22.285v5.629c0 3.15-1.29 6.015-3.365 8.09a11.431 11.431 0 0 1-8.096 3.362 11.43 11.43 0 0 1-8.096-3.363 11.414 11.414 0 0 1-3.365-8.09v-5.628H56.003v5.629c0 3.15-1.289 6.015-3.365 8.09a11.432 11.432 0 0 1-8.096 3.362c-3.153 0-6.02-1.288-8.096-3.363a11.414 11.414 0 0 1-3.365-8.09v-5.628z"/><path d="M44.542.335a11.43 11.43 0 0 1 8.096 3.363 11.414 11.414 0 0 1 3.365 8.09V27.58c0 3.15-1.289 6.015-3.365 8.09a11.432 11.432 0 0 1-8.096 3.362c-3.153 0-6.02-1.288-8.095-3.363a11.414 11.414 0 0 1-3.366-8.09V11.788c0-3.15 1.29-6.014 3.366-8.089A11.432 11.432 0 0 1 44.542.335zm5.572 5.885a7.87 7.87 0 0 0-5.572-2.318A7.87 7.87 0 0 0 38.97 6.22a7.858 7.858 0 0 0-2.32 5.567V27.58a7.86 7.86 0 0 0 2.32 5.567 7.87 7.87 0 0 0 5.572 2.318 7.87 7.87 0 0 0 5.572-2.318 7.858 7.858 0 0 0 2.32-5.567V11.787a7.858 7.858 0 0 0-2.32-5.567zM173.88.335c3.155 0 6.02 1.288 8.097 3.363a11.414 11.414 0 0 1 3.365 8.09V27.58c0 3.15-1.29 6.015-3.365 8.09a11.431 11.431 0 0 1-8.096 3.362 11.43 11.43 0 0 1-8.096-3.363 11.414 11.414 0 0 1-3.365-8.09V11.788c0-3.15 1.289-6.014 3.365-8.089a11.432 11.432 0 0 1 8.096-3.363zm5.573 5.885a7.87 7.87 0 0 0-5.572-2.318 7.87 7.87 0 0 0-5.572 2.318 7.858 7.858 0 0 0-2.32 5.567V27.58a7.86 7.86 0 0 0 2.32 5.567 7.87 7.87 0 0 0 5.572 2.318 7.87 7.87 0 0 0 5.572-2.318 7.858 7.858 0 0 0 2.32-5.567V11.787a7.858 7.858 0 0 0-2.32-5.567zM19.05 135.547a1.784 1.784 0 0 0 3.57 0V55.941a1.784 1.784 0 0 0-3.57 0v79.606zm3.57 16.114a1.784 1.784 0 0 0-3.57 0v6.446a1.784 1.784 0 0 0 3.57 0v-6.446zm147.163-62.502c10.647 0 20.285 4.312 27.262 11.283 6.977 6.972 11.293 16.603 11.293 27.241 0 10.638-4.316 20.27-11.293 27.24-6.977 6.972-16.615 11.285-27.262 11.285-10.646 0-20.284-4.313-27.261-11.284-6.977-6.972-11.293-16.603-11.293-27.24 0-10.639 4.316-20.27 11.293-27.242 6.977-6.971 16.615-11.283 27.261-11.283zm24.739 13.805c-6.331-6.326-15.078-10.238-24.739-10.238-9.66 0-18.407 3.912-24.737 10.238-6.331 6.326-10.247 15.066-10.247 24.72 0 9.652 3.916 18.392 10.247 24.718 6.33 6.326 15.077 10.239 24.737 10.239 9.661 0 18.408-3.913 24.739-10.24 6.33-6.325 10.246-15.065 10.246-24.718s-3.916-18.393-10.246-24.719z"/><path d="M169.79 111.568c.887-1.37 1.84-2.495 2.947-3.38 1.894-1.513 4.12-2.27 7.046-2.27a11.75 11.75 0 0 1 8.33 3.45 11.733 11.733 0 0 1 3.453 8.324c0 5.432-2.645 10.767-6.612 16.052-3.854 5.135-8.881 10.159-13.908 15.182l-1.262-1.261 1.262 1.26a1.786 1.786 0 0 1-2.524 0l-.007-.006c-5.024-5.02-10.05-10.042-13.902-15.175-3.967-5.285-6.611-10.62-6.611-16.052 0-3.25 1.32-6.194 3.452-8.325a11.752 11.752 0 0 1 8.331-3.45c4.795 0 7.597 1.885 10.004 5.651zm5.164-.607c-1.303 1.042-2.394 2.68-3.51 4.887a1.786 1.786 0 0 1-3.257.144l.007-.004c-2.17-4.335-4.285-6.504-8.409-6.504-2.267 0-4.32.92-5.807 2.405a8.179 8.179 0 0 0-2.407 5.803c0 4.558 2.355 9.215 5.887 13.92 3.336 4.446 7.784 8.984 12.326 13.53 4.542-4.546 8.99-9.084 12.326-13.53 3.532-4.705 5.886-9.362 5.886-13.92 0-2.265-.92-4.317-2.406-5.803a8.192 8.192 0 0 0-5.807-2.405c-2.074 0-3.598.493-4.829 1.477zM38.423 87.031h13.203V73.84H38.423v13.192zm14.987 3.567H36.638a1.784 1.784 0 0 1-1.785-1.783v-16.76c0-.984.8-1.783 1.785-1.783H53.41c.986 0 1.785.799 1.785 1.784v16.759c0 .984-.799 1.783-1.785 1.783zm15.01-3.567h13.202V73.84H68.419v13.192zm14.987 3.567H66.634a1.784 1.784 0 0 1-1.784-1.783v-16.76c0-.984.799-1.783 1.784-1.783h16.773c.985 0 1.784.799 1.784 1.784v16.759c0 .984-.799 1.783-1.784 1.783zm15.008-3.567h13.203V73.84H98.415v13.192zm14.988 3.567H96.63a1.784 1.784 0 0 1-1.785-1.783v-16.76c0-.984.799-1.783 1.785-1.783h16.772c.985 0 1.785.799 1.785 1.784v16.759c0 .984-.8 1.783-1.785 1.783zm15.009-3.567h13.202V73.84h-13.202v13.192zm14.987 3.567h-16.772a1.784 1.784 0 0 1-1.785-1.783v-16.76c0-.984.8-1.783 1.785-1.783h16.772c.986 0 1.785.799 1.785 1.784v16.759c0 .984-.8 1.783-1.785 1.783zM38.423 120.871h13.203V107.68H38.423v13.192zm14.987 3.567H36.638a1.784 1.784 0 0 1-1.785-1.783v-16.76c0-.984.8-1.783 1.785-1.783H53.41c.986 0 1.785.799 1.785 1.784v16.759c0 .985-.799 1.783-1.785 1.783zm15.01-3.567h13.202V107.68H68.419v13.192zm14.987 3.567H66.634a1.784 1.784 0 0 1-1.784-1.783v-16.76c0-.984.799-1.783 1.784-1.783h16.773c.985 0 1.784.799 1.784 1.784v16.759c0 .985-.799 1.783-1.784 1.783zm15.008-3.567h13.203V107.68H98.415v13.192zm14.988 3.567H96.63a1.784 1.784 0 0 1-1.785-1.783v-16.76c0-.984.799-1.783 1.785-1.783h16.772c.985 0 1.785.799 1.785 1.784v16.759c0 .985-.8 1.783-1.785 1.783zm-74.98 30.274h13.203V141.52H38.423v13.192zm14.987 3.567H36.638a1.784 1.784 0 0 1-1.785-1.784v-16.758c0-.985.8-1.784 1.785-1.784H53.41c.986 0 1.785.799 1.785 1.784v16.758c0 .985-.799 1.784-1.785 1.784zm15.01-3.567h13.202V141.52H68.419v13.192zm14.987 3.567H66.634a1.784 1.784 0 0 1-1.784-1.784v-16.758c0-.985.799-1.784 1.784-1.784h16.773c.985 0 1.784.799 1.784 1.784v16.758c0 .985-.799 1.784-1.784 1.784z"/></g><path d="M-1 0h220v179H-1z"/></g></svg>