<svg width="25" height="27" viewBox="0 0 25 27" xmlns="http://www.w3.org/2000/svg"><title>Availability</title><path d="M22.993 23.533c-.006 1.126-.75 1.313-1.184 1.323l-18.506.004c-.35 0-.625-.097-.823-.29-.283-.283-.427-.81-.427-1.52V11.11H23c0 4.464.007 10.844-.007 12.423zM2.053 6.58c0-1.033.394-1.475 1.322-1.48l1.895-.002V6.55a.987.987 0 1 0 1.973 0V5.1h10.415v1.452a.987.987 0 1 0 1.974 0V5.1h1.98c.48.017.822.14 1.04.377.309.332.355.872.348 1.04v2.617H2.053V6.582zm22.92.025c.007-.273.007-1.499-.848-2.447-.408-.448-1.158-.99-2.48-1.034h-2.013V1.611a.987.987 0 1 0-1.974 0v1.512H7.243V1.611a.987.987 0 1 0-1.974 0v1.512h-1.9c-1.593.01-3.297.923-3.29 3.46 0 .162.007 15.462 0 16.461 0 1.269.335 2.252 1.007 2.922.572.569 1.335.869 2.21.869h.007l18.5-.004h.006c1.263 0 3.145-.874 3.158-3.286.02-2.437.007-16.26.007-16.94zM11.29 20.524a1.204 1.204 0 1 0 2.408 0 1.204 1.204 0 0 0-2.408 0zm-6.157 0a1.204 1.204 0 1 0 2.408 0 1.204 1.204 0 0 0-2.408 0zm12.315 0a1.204 1.204 0 1 0 2.408 0 1.204 1.204 0 0 0-2.408 0zm-6.158-5.433a1.204 1.204 0 1 0 2.408 0 1.204 1.204 0 0 0-2.408 0zm6.158 0a1.204 1.204 0 1 0 2.408 0 1.204 1.204 0 0 0-2.408 0z" fill="#B9B9C0" fill-rule="evenodd"/></svg>