<svg width="489" height="428" viewBox="0 0 489 428" xmlns="http://www.w3.org/2000/svg"><title>electronics</title><g fill="#EAEAEA"><path d="M287.396 186.317c23.845 23.845 23.845 62.505 0 86.35-23.845 23.845-62.505 23.845-86.35 0-23.845-23.845-23.845-62.505 0-86.35 23.845-23.845 62.505-23.845 86.35 0"/><path d="M427.397 61.581H385.21L354.666.522H133.76l-30.515 61.089-42.127.075C27.533 61.746.193 89.115.164 122.715L0 366.86c0 33.675 27.384 61.074 61.059 61.074h366.338c33.675 0 61.059-27.384 61.059-61.059V122.639c0-33.674-27.385-61.058-61.059-61.058zM244.22 351.61c-67.335 0-122.118-54.783-122.118-122.118s54.783-122.118 122.118-122.118 122.118 54.783 122.118 122.118S311.555 351.61 244.22 351.61z"/></g></svg>