<svg width="15" height="15" viewBox="0 0 15 15" xmlns="http://www.w3.org/2000/svg"><title>Group 3</title><g fill="none" fill-rule="evenodd"><circle fill="#EBDAD3" cx="7.5" cy="7.5" r="7.5"/><path d="M11.906 4.958l-.802-.794a.572.572 0 0 0-.803 0L6.543 7.86 4.772 6.128a.572.572 0 0 0-.803 0l-.803.793a.556.556 0 0 0 0 .793L5.34 9.842l.802.793c.222.22.58.22.803 0l.802-.793 4.16-4.092a.556.556 0 0 0 0-.792zM6.744 10.04a.285.285 0 0 1-.376.022c-.01-.008-.226-.221-.226-.221L3.768 7.516a.279.279 0 0 1 0-.397l.402-.396c.11-.11.29-.11.401 0l1.972 1.929 3.959-3.893a.287.287 0 0 1 .401 0l.402.397a.28.28 0 0 1 0 .397L6.744 10.04z" fill="#000" fill-rule="nonzero"/></g></svg>