<svg width="16" height="12" viewBox="0 0 16 12" xmlns="http://www.w3.org/2000/svg"><title>Shape</title><path d="M15.259 1.81L13.889.456a.977.977 0 0 0-1.37 0L6.102 6.763 3.079 3.807a.977.977 0 0 0-1.37 0L.337 5.161a.95.95 0 0 0 0 1.355l3.71 3.632 1.37 1.354a.977.977 0 0 0 1.37 0l1.37-1.354 7.1-6.985a.949.949 0 0 0 0-1.353zm-8.814 8.677a.487.487 0 0 1-.641.038 53.132 53.132 0 0 1-.386-.377L1.366 6.177a.476.476 0 0 1 0-.677l.686-.676a.489.489 0 0 1 .684 0l3.367 3.292 6.758-6.645a.489.489 0 0 1 .685 0l.685.677a.476.476 0 0 1 0 .677l-7.786 7.662z"/></svg>