<svg width="69" height="61" viewBox="0 0 69 61" xmlns="http://www.w3.org/2000/svg"><title>check-mark</title><g fill="none" fill-rule="evenodd"><circle fill="#EAD7C0" cx="30.5" cy="30.5" r="30.5"/><path d="M35.065 50.948c-2.811 2.736-7.372 2.736-10.182 0L9.108 35.59a6.878 6.878 0 0 1 0-9.91c2.81-2.737 7.37-2.737 10.182 0l9.399 9.148c.71.69 1.861.69 2.572 0l25.45-24.776c2.809-2.736 7.37-2.736 10.18 0A6.916 6.916 0 0 1 69 15.008a6.916 6.916 0 0 1-2.108 4.955L35.065 50.948z" fill="#CC9B5F" fill-rule="nonzero"/></g></svg>