<svg width="32" height="31" viewBox="0 0 32 31" xmlns="http://www.w3.org/2000/svg"><title>Shape</title><path d="M30.594 24.797l-9.897-9.558 9.558-9.897c1.257-1.302.31-2.432-.991-3.69C27.962.396 26.799-.51 25.542.792l-9.558 9.897L6.087 1.13c-1.302-1.257-2.432-.31-3.69.992C1.14 3.424.235 4.586 1.537 5.843l9.897 9.558-9.557 9.897c-1.258 1.302-.311 2.432.99 3.69 1.303 1.257 2.465 2.163 3.723.861l9.557-9.897 9.897 9.558c1.302 1.257 2.432.31 3.69-.991 1.257-1.302 2.163-2.465.861-3.722z" fill="#474A53" fill-rule="evenodd"/></svg>