<svg xmlns="http://www.w3.org/2000/svg" viewBox="0 0 48 48"><g fill="#010101"><path d="M48 15.9H30v-1.5c0-5 4-9 9-9s9 4 9 9v1.5zm-16-2h14c-.3-3.6-3.3-6.5-7-6.5s-6.7 2.9-7 6.5z"/><path d="M39 6c-1.2 0-2.2-1-2.2-2.2 0-1.2 1-2.2 2.2-2.2s2.2 1 2.2 2.2C41.2 5 40.2 6 39 6zm0-2.4c-.1 0-.2.1-.2.2 0 .2.4.2.4 0 0-.1-.1-.2-.2-.2zm-22.8 7.6c-3.1 0-5.6-2.5-5.6-5.6S13.1 0 16.2 0c3.1 0 5.6 2.5 5.6 5.6s-2.5 5.6-5.6 5.6zm0-9.2c-2 0-3.6 1.6-3.6 3.6s1.6 3.6 3.6 3.6 3.6-1.6 3.6-3.6S18.2 2 16.2 2zm7.2 46h-6.5V33.8H16V48H9.5V19.1h-.1L6.6 26c-.8 1.7-2 2.5-3.5 2.5-.4 0-.8-.1-1.1-.1-.7-.1-1.3-.5-1.6-1.1-.5-.8-.6-1.8-.2-2.8l3.3-9.9.1-.2c.8-2 4.3-2.8 7.4-2.8h2.7l2.6 7.6 2.6-7.6h2c.3 0 7.6 0 7.8 3 .1.3.4 1.8.7 3.1.1-.1.2-.1.3-.2.4-.3.8-.5 1.5-1 1.1-.8 2.8-.6 3.8.4.8.9.8 1.8.8 2.3-.1.8-.5 1.5-1.2 1.9-.8.6-2.6 2-3.8 2.9-.7.6-1.3 1-1.4 1.1l-.2-.1c-.6.3-1.1.4-1.7.4-1.3 0-2.5-.8-3-1.5l-.1-.2-1.1-3V48zm-4.5-2h2.5V17.1h2.9l2 5.7c.2.2.6.6 1.2.6.2 0 .5-.1.8-.2.2-.1.6-.5 1.2-.9 1.3-1 3-2.3 3.9-2.9.1-.1.3-.3.3-.6 0-.2-.1-.4-.3-.7-.2-.2-.8-.3-1.1-.1-.7.5-1.1.8-1.5 1.1-.4.3-.8.5-1.5 1l-1.1.9-.3-1.4c-.9-3.9-1.1-4.6-1.1-4.8-.4-.4-2.6-1.2-5.8-1.2h-.6l-4 11.8-4-11.8H11c-3.2 0-5.3.9-5.6 1.6-.2.7-.9 2.7-3.3 10-.1.5-.1.9 0 1.2.1.1.2.2.3.2.2 0 .4.1.7.1.5 0 1.1-.2 1.6-1.3L8 17.1h3.5V46H14V31.8h4.9V46z"/></g></svg>