<svg width="34" height="22" viewBox="0 0 34 22" xmlns="http://www.w3.org/2000/svg"><title>deal(1)</title><path d="M34 5.678c0-.506-.153-1.02-.488-1.444L30.818.85C30.367.288 29.68.001 28.994 0c-.408 0-.824.103-1.192.328l-2.626 1.604c-.277.173-.75.292-1.208.289-.355.001-.699-.069-.925-.179L20.47.82a3.147 3.147 0 0 0-1.342-.277c-.668.003-1.345.164-1.888.534l-.3.207-1.022-.5c-.498-.24-1.084-.336-1.676-.338-.534.001-1.068.082-1.537.277l-1.752.734c-.285.121-.739.2-1.19.198-.45.002-.903-.077-1.188-.198L6.821.72a2.594 2.594 0 0 0-1-.191c-.39 0-.778.076-1.139.22a2.59 2.59 0 0 0-.96.648L.529 4.908a2.01 2.01 0 0 0 .202 2.91l2.979 2.494-1.413 1.447a2.042 2.042 0 0 0 .072 2.927l.287.267c.27.252.594.412.934.497-.17.308-.264.645-.263.983 0 .544.22 1.094.655 1.499l.287.268c.409.38.94.57 1.462.57.28 0 .562-.055.826-.163.093.369.285.72.586 1l.288.27a2.158 2.158 0 0 0 2.636.222c.104.327.28.636.55.888l.288.269c.409.38.94.57 1.462.57a2.14 2.14 0 0 0 1.534-.64l1.249-1.28 1.696 1.541c.406.37.928.554 1.442.553a2.136 2.136 0 0 0 1.552-.658l.27-.285a2.04 2.04 0 0 0 .475-.843l.657.595c.407.369.928.552 1.442.552.565 0 1.137-.222 1.554-.66l.27-.285c.31-.326.485-.73.54-1.142.173.043.348.073.526.073.566 0 1.136-.222 1.553-.66l.27-.284a2.04 2.04 0 0 0 .564-1.408c0-.156-.022-.311-.058-.465.47-.06.925-.266 1.271-.631l.27-.285a2.044 2.044 0 0 0-.11-2.927l-.506-.459L33.4 7.266c.41-.446.6-1.021.6-1.588zM4.118 14.394a.971.971 0 0 1-.664-.258l-.287-.267a.924.924 0 0 1-.298-.682.92.92 0 0 1 .265-.648l2.893-2.965a.969.969 0 0 1 .699-.29c.241 0 .477.086.664.258l.286.268s.296.43.296.682a.924.924 0 0 1-.17.532L4.677 14.22a.987.987 0 0 1-.56.175zm2.311 2.957a.97.97 0 0 1-.697.29.97.97 0 0 1-.664-.258l-.288-.268a.924.924 0 0 1-.296-.682c0-.237.086-.467.263-.65 0 0 3.857-3.941 3.89-3.979a.968.968 0 0 1 .667-.264.97.97 0 0 1 .664.258l.288.268a.93.93 0 0 1 .296.682.926.926 0 0 1-.264.649L6.429 17.35zm3.162 1.676a.968.968 0 0 1-.697.29.97.97 0 0 1-.664-.258l-.289-.268a.923.923 0 0 1-.084-1.268l2.687-2.752a.966.966 0 0 1 .643-.245.97.97 0 0 1 .664.258l.289.268a.927.927 0 0 1 .032 1.33l-2.581 2.645zm5.104-.29l-1.63 1.67a.97.97 0 0 1-.698.29.97.97 0 0 1-.664-.259l-.287-.268a.927.927 0 0 1-.033-1.33l1.63-1.67a.97.97 0 0 1 .698-.29c.241 0 .478.085.664.258l.288.269a.926.926 0 0 1 .032 1.33zm14.16-4.53a.922.922 0 0 1-.256.639l-.27.285a.97.97 0 0 1-.707.298.968.968 0 0 1-.655-.25l-4.55-4.132-.788.827 4.872 4.43a.933.933 0 0 1 .05 1.331l-.27.285a.972.972 0 0 1-.706.298.97.97 0 0 1-.654-.25l-4.552-4.131-.787.827 4.04 3.668a.924.924 0 0 1 .04 1.317l-.27.284a.97.97 0 0 1-.707.3.972.972 0 0 1-.655-.25l-4.032-3.655h-.001l-.785.828.016.015 2.02 1.83a.923.923 0 0 1 .017 1.288l-.27.285a.969.969 0 0 1-.705.298.968.968 0 0 1-.654-.25l-1.759-1.598a2.04 2.04 0 0 0 .239-.936c0-.544-.22-1.093-.655-1.498l-.288-.269a2.14 2.14 0 0 0-1.461-.57c-.04 0-.082.01-.121.012l.002-.029c0-.544-.655-1.499-.655-1.499l-.287-.268a2.125 2.125 0 0 0-1.067-.533c.08-.222.126-.454.126-.685 0-.545-.22-1.094-.655-1.499l-.288-.268a2.14 2.14 0 0 0-1.461-.57c-.061 0-.122.011-.182.017a2.043 2.043 0 0 0-.649-1.434l-.286-.268a2.142 2.142 0 0 0-1.462-.571 2.14 2.14 0 0 0-1.534.64l-.683.7-3.026-2.534a.902.902 0 0 1-.09-1.302l3.193-3.51c.127-.14.314-.266.534-.354a1.93 1.93 0 0 1 .701-.135c.203 0 .393.036.546.1l1.752.735c.495.204 1.068.288 1.645.29.577-.002 1.15-.086 1.644-.29l1.752-.734c.27-.116.678-.187 1.083-.186.448-.003.897.088 1.158.219l.467.229-1.786 1.233a1.999 1.999 0 0 0-.471 2.876h-.001l.236.31c.448.586 1.147.886 1.845.888.395 0 .797-.098 1.155-.309l1.068-.63c.218-.13.548-.213.888-.212.4-.002.803.114 1.045.289l2.956 2.08c.658.463 1.73 1.322 2.324 1.862l3.422 3.106a.928.928 0 0 1 .305.69zm3.687-7.696l-4.559 4.949-2.07-1.878a30.349 30.349 0 0 0-2.434-1.95L20.524 5.55c-.502-.349-1.115-.5-1.722-.502-.516.002-1.036.112-1.485.375l-1.068.63a1.1 1.1 0 0 1-.557.146c-.359.001-.718-.163-.918-.43l-.235-.311v-.001a.891.891 0 0 1-.185-.54.899.899 0 0 1 .394-.74l3.16-2.18c.273-.193.759-.33 1.22-.326.321-.002.627.062.837.163l2.572 1.224c.439.206.934.29 1.432.292.64-.003 1.286-.14 1.82-.46l2.627-1.606c.167-.102.369-.155.579-.155.354-.001.71.157.91.414L32.6 4.928c.155.194.245.467.245.75 0 .318-.113.63-.303.833z" fill="#9A9A9F"/></svg>