<svg width="179" height="179" viewBox="0 0 179 179" xmlns="http://www.w3.org/2000/svg"><title>Group 2</title><g fill="none" fill-rule="evenodd"><path d="M.271 35.275L87.945 178.13c.002.003.006.004.008.008.147.235.354.417.586.563a1.7 1.7 0 0 0 .168.093c.244.12.507.206.793.206.286 0 .549-.087.793-.206a1.7 1.7 0 0 0 .168-.093c.232-.146.439-.328.586-.563.002-.004.006-.005.008-.008L178.73 35.275c.017-.028.009-.063.024-.092.144-.26.247-.545.247-.864 0-.013-.007-.023-.007-.036 0-.032-.017-.06-.019-.092a1.775 1.775 0 0 0-.268-.807c-.021-.035-.014-.08-.038-.114L155.854.778c-.029-.042-.078-.059-.11-.098-.046-.055-.068-.123-.121-.173-.083-.08-.186-.116-.278-.176-.079-.052-.147-.108-.232-.147a1.785 1.785 0 0 0-.632-.154c-.043-.003-.079-.03-.121-.03H24.644c-.037 0-.069.024-.106.026-.224.012-.44.063-.648.158-.085.039-.152.094-.23.146-.093.06-.196.097-.279.177-.053.05-.075.118-.121.173-.032.04-.082.056-.11.098L.331 33.27c-.024.034-.017.079-.038.114a1.775 1.775 0 0 0-.268.807c-.002.032-.018.06-.019.092 0 .013-.007.023-.007.036 0 .319.103.604.247.864.015.03.007.064.024.092z" fill="#000" fill-rule="nonzero"/><path fill="#FFF" d="M5.34 32.492L24.86 4.696l26.592 27.796zM28.92 3.653l26.86 28.08 29.325-28.08zm31.34 28.839L89.5 4.696l29.243 27.796zM94.034 3.653l29.189 28.08 26.861-28.08zm33.518 28.839l26.591-27.796 19.517 27.796zm-2.832 3.653h48.94L93.895 166.52zm-3.751 0l-31.467 133.09-31.467-133.09zm-115.629 0h48.943L85.105 166.52z"/></g></svg>