<svg width="179" height="150" viewBox="0 0 179 150" xmlns="http://www.w3.org/2000/svg"><title>iconfinder_3_3838838</title><path d="M11.097 150c-26.733-81.723 0-144.848 25.78-144.848 22.323 0 59.831-19.277 52.602 16.743C83.842 49.725 179 27.461 179 94.296c0 22.264-8.047 23.666 0 55.704h-19.823c0-16.607-6.91-28.191-4.092 0h-22.914c30.098-32.807-59.105-82.356-31.507 0H78.249C86.48 94.296-12.09-.414 22.327 150h-11.23zM35.603 37.642c-12.776-6.38-6.32-8.869.364-8.009 12.275 1.629 7.865 12.127-.364 8.01z" fill="#1A1A1A" fill-rule="evenodd"/></svg>