<svg height="512" viewBox="0 0 512 512" width="512" xmlns="http://www.w3.org/2000/svg"><path d="M445.625 248.359C458.836 234.832 467 216.355 467 195.998c0-41.355-33.645-75-75-75s-75 33.645-75 75c0 20.243 8.075 38.626 21.157 52.133a105.957 105.957 0 0 0-38.943 26.308c-23.668-24.602-62.785-24.575-86.428 0a105.967 105.967 0 0 0-38.943-26.307C186.924 234.625 195 216.242 195 195.998c0-41.355-33.645-75-75-75s-75 33.645-75 75c0 20.357 8.164 38.834 21.375 52.361C27.534 263.779 0 301.733 0 345.998v150c0 8.284 6.716 15 15 15h482c8.284 0 15-6.716 15-15v-150c0-44.265-27.534-82.219-66.375-97.639zM392 150.998c24.813 0 45 20.187 45 45s-20.187 45-45 45-45-20.187-45-45 20.187-45 45-45zm-136 135c16.542 0 30 13.458 30 30s-13.458 30-30 30-30-13.458-30-30 13.458-30 30-30zm-136-135c24.813 0 45 20.187 45 45s-20.187 45-45 45-45-20.187-45-45 20.187-45 45-45zm-90 195c0-41.355 33.645-75 75-75h31c24.439 0 47.477 12.129 61.437 31.989-3.942 17.751.323 36.062 11.538 50.209C183.597 365.232 166 391.095 166 420.998v60H30zm166 135v-60c0-24.813 20.187-45 45-45h30c24.813 0 45 20.187 45 45v60zm286 0H346v-60c0-29.904-17.597-55.766-42.975-67.802 11.204-14.134 15.483-32.441 11.538-50.208 13.96-19.862 36.995-31.99 61.437-31.99h31c41.355 0 75 33.645 75 75z"/><path d="M213.319 121.992c17.126 15.828 34.103 26.34 34.817 26.78a15.002 15.002 0 0 0 15.727 0c.715-.44 17.691-10.952 34.817-26.78C323.444 99.106 336 76.857 336 55.864c0-47.676-47.41-70.055-80-43.57-32.663-26.544-80-3.98-80 43.57 0 20.993 12.556 43.242 37.319 66.128zm30.055-79.241c5.901 9.199 19.36 9.185 25.252 0C282.368 21.323 306 31.321 306 55.864c0 20.459-28.028 46.833-49.965 62.152C237.602 105.01 206 78.114 206 55.864c0-24.473 23.59-34.602 37.374-13.113z"/></svg>