<svg xmlns="http://www.w3.org/2000/svg" viewBox="0 0 512.001 512.001"><path d="M257.048 349.706c18.025 0 32.69-14.664 32.69-32.688 0-18.025-14.664-32.69-32.69-32.69-18.024 0-32.688 14.664-32.688 32.69.001 18.024 14.665 32.688 32.688 32.688zm0-50.377c9.754 0 17.689 7.935 17.689 17.689 0 9.753-7.935 17.687-17.689 17.687-9.753 0-17.687-7.935-17.687-17.687 0-9.753 7.934-17.689 17.687-17.689zm145.011-190.981c29.872 0 54.175-24.302 54.175-54.173C456.235 24.302 431.931 0 402.059 0c-29.871 0-54.172 24.302-54.172 54.174 0 29.871 24.302 54.174 54.172 54.174zm0-93.347c21.601 0 39.174 17.573 39.174 39.173s-17.573 39.172-39.174 39.172c-21.599 0-39.171-17.572-39.171-39.172 0-21.6 17.572-39.173 39.171-39.173zm80.264 176.728a7.499 7.499 0 0 0-7.5 7.5v102.63a4.85 4.85 0 0 1-4.843 4.844h-18.3V174.311c0-4.143-3.357-7.5-7.5-7.5s-7.5 3.357-7.5 7.5v317.845a4.849 4.849 0 0 1-4.843 4.843h-17.431a4.85 4.85 0 0 1-4.844-4.843v-119.32a7.5 7.5 0 0 0-7.5-7.5 7.5 7.5 0 0 0-7.5 7.5v119.32a4.849 4.849 0 0 1-4.843 4.843h-17.431a4.849 4.849 0 0 1-4.843-4.843V174.311c0-4.143-3.357-7.5-7.5-7.5a7.499 7.499 0 0 0-7.5 7.5v132.393h-18.3a4.849 4.849 0 0 1-4.843-4.838V174.288c0-24.633 20.04-44.673 44.673-44.673h56.178c24.633 0 44.673 20.04 44.673 44.673 0 4.143 3.357 7.5 7.5 7.5s7.5-3.357 7.5-7.5c0-32.904-26.77-59.674-59.674-59.674H373.97c-32.904 0-59.674 26.77-59.674 59.674v127.581c.005 10.939 8.907 19.836 19.844 19.836h18.3v170.451c0 10.942 8.902 19.844 19.844 19.844h17.431c4.665 0 8.952-1.629 12.344-4.334 3.392 2.705 7.679 4.334 12.345 4.334h17.431c10.942 0 19.844-8.901 19.844-19.844V321.704h18.3c10.942 0 19.844-8.903 19.844-19.845v-102.63a7.498 7.498 0 0 0-7.5-7.5zm-382.17-37.534c29.872 0 54.175-24.302 54.175-54.173 0-29.872-24.303-54.174-54.175-54.174-29.871 0-54.172 24.302-54.172 54.174.001 29.871 24.301 54.173 54.172 54.173zm0-93.346c21.601 0 39.174 17.573 39.174 39.173s-17.573 39.172-39.174 39.172c-21.599 0-39.171-17.572-39.171-39.172.001-21.6 17.573-39.173 39.171-39.173zm24.667 100.388H75.491c-29.397 0-53.313 23.916-53.313 53.313v112.025c.003 10.108 8.229 18.331 18.339 18.331h.227l-5.192 47.254a7.5 7.5 0 0 0 7.455 8.319h12.665v93.183c0 10.112 8.228 18.339 18.339 18.339h15.306c4.057 0 7.798-1.34 10.839-3.579 3.041 2.239 6.781 3.579 10.84 3.579h15.306c10.112 0 18.339-8.227 18.339-18.339v-41.415c0-4.143-3.357-7.5-7.5-7.5s-7.5 3.357-7.5 7.5v41.415a3.341 3.341 0 0 1-3.338 3.338h-15.306a3.342 3.342 0 0 1-3.339-3.338v-80.111c0-4.143-3.357-7.5-7.5-7.5s-7.5 3.357-7.5 7.5v80.111A3.341 3.341 0 0 1 89.32 497H74.01a3.341 3.341 0 0 1-3.338-3.338v-93.183h58.966v27.76a7.5 7.5 0 0 0 7.5 7.5 7.5 7.5 0 0 0 7.5-7.5v-27.76h12.664a7.5 7.5 0 0 0 7.455-8.319l-5.192-47.254h.227c10.112 0 18.339-8.225 18.339-18.338V214.549c0-29.396-23.916-53.312-53.311-53.312zm38.311 165.33a3.343 3.343 0 0 1-3.339 3.337h-1.875l-13.731-124.956c-.453-4.116-4.159-7.076-8.275-6.636a7.5 7.5 0 0 0-6.636 8.274l19.658 178.891H51.377l19.658-178.891a7.5 7.5 0 0 0-14.911-1.638L42.393 329.904h-1.875a3.34 3.34 0 0 1-3.338-3.333V214.549c0-21.125 17.187-38.312 38.312-38.312h49.328c21.124 0 38.311 17.187 38.311 38.312v112.018z"/><path d="M313.891 324.76a19.971 19.971 0 0 0-14.023 6.332l-27.972 29.788h-28.955l-27.973-29.789c-7.589-8.078-20.335-8.479-28.419-.892-8.078 7.588-8.48 20.335-.894 28.417l32.431 34.536V492.4c0 10.808 8.793 19.6 19.601 19.6h39.461c10.808 0 19.599-8.792 19.599-19.6v-41.159c0-4.143-3.357-7.5-7.5-7.5a7.499 7.499 0 0 0-7.5 7.5V492.4a4.604 4.604 0 0 1-4.598 4.599h-12.584v-62.558c0-4.143-3.357-7.5-7.5-7.5a7.5 7.5 0 0 0-7.5 7.5v62.558h-11.877a4.605 4.605 0 0 1-4.6-4.599V390.182a7.505 7.505 0 0 0-2.032-5.134l-34.462-36.699a5.111 5.111 0 0 1 .226-7.214 5.111 5.111 0 0 1 7.214.227l30.193 32.154a7.5 7.5 0 0 0 5.468 2.366h35.447c2.071 0 4.05-.857 5.468-2.366l30.193-32.154a5.109 5.109 0 0 1 7.212-.228 5.11 5.11 0 0 1 .228 7.214l-34.464 36.699a7.497 7.497 0 0 0-2.033 5.134v36.057c0 4.142 3.357 7.5 7.5 7.5s7.5-3.358 7.5-7.5v-33.087l32.432-34.535c7.587-8.081 7.185-20.828-.895-28.418-3.912-3.675-9.019-5.596-14.392-5.438z"/></svg>