<svg width="45" height="45" viewBox="0 0 45 45" xmlns="http://www.w3.org/2000/svg"><title>family</title><path d="M4.046 4.018A4.015 4.015 0 0 1 8.057 0a4.015 4.015 0 0 1 4.012 4.018 4.015 4.015 0 0 1-4.012 4.018 4.015 4.015 0 0 1-4.011-4.018zm10.43 6.428s-3.932-.803-6.419-.803c-2.487 0-6.418.803-6.418.803-1.605.402-1.725 1.366-1.605 2.411l1.364 12.254c.048.399.232.768.522 1.045l.722.723c.298.287.483.672.521 1.085l1.444 15.428A1.766 1.766 0 0 0 6.413 45h3.289c.93.025 1.72-.678 1.805-1.607l1.364-15.428c.038-.413.223-.798.521-1.085l.763-.723a1.73 1.73 0 0 0 .48-1.045l1.445-12.254c.12-1.045.04-2.009-1.564-2.41h-.04zm8.022 9.241a3.212 3.212 0 0 0 3.21-3.214 3.212 3.212 0 0 0-3.21-3.214 3.212 3.212 0 0 0-3.209 3.214 3.212 3.212 0 0 0 3.21 3.214zm4.493.964a29.48 29.48 0 0 0-4.493-.562 29.48 29.48 0 0 0-4.492.562c-1.124.282-1.204.925-1.084 1.648l.923 8.437c.035.295.178.567.401.764l.482.482c.232.206.375.494.4.803l.963 11.13c.082.624.615 1.09 1.244 1.084h2.367a1.244 1.244 0 0 0 1.243-1.125l1.003-11.129c.035-.295.178-.567.401-.763l.482-.482c.2-.193.327-.448.36-.724l.963-8.437c.08-.763 0-1.406-1.123-1.688h-.04zM36.94 8.036a4.015 4.015 0 0 0 4.012-4.018A4.015 4.015 0 0 0 36.939 0a4.015 4.015 0 0 0-4.011 4.018 4.015 4.015 0 0 0 4.011 4.018zm6.419 2.41s-3.932-.803-6.419-.803c-2.487 0-6.418.803-6.418.803-1.604.402-1.725 1.366-1.604 2.411l1.363 12.254c.048.399.232.768.522 1.045l.722.723c.298.287.483.672.521 1.085l1.445 15.428A1.766 1.766 0 0 0 35.295 45h3.289a1.766 1.766 0 0 0 1.765-1.607l1.444-15.428c.039-.413.224-.798.522-1.085l.722-.723c.29-.277.474-.646.521-1.045l1.404-12.254c.12-1.045.04-2.009-1.564-2.41h-.04z"/></svg>