<svg width="34" height="32" viewBox="0 0 34 32" xmlns="http://www.w3.org/2000/svg"><title>fasilities</title><path d="M17.202.054a.24.24 0 0 0-.304 0c-2.032 1.756-7.675 7.853-1.365 14.383.091.092.455.37.516-.093v-.03l.97-6.468.972 6.406v.092c.09.4.364.216.485.123 6.371-6.498.759-12.565-1.274-14.413zM33.979 12.22v-.03a.248.248 0 0 0-.091-.309c-2.366-1.324-9.92-4.742-13.804 3.48-.03.124-.182.555.273.463l6.31-1.232-5.582 3.08-.09.03c-.365.216-.062.431.06.493 8.1 3.942 11.862-3.45 12.894-6.006l.03.031zM.06 12.25a.248.248 0 0 1 .09-.308c2.337-1.355 9.86-4.743 13.774 3.511.03.092.182.524-.273.462l-6.34-1.232 5.612 3.08h.06c.365.215.092.431-.03.523C4.824 22.228 1.062 14.837 0 12.25h.06zm28.67 19.71a.244.244 0 0 0 .242-.215c.243-2.71.212-11.087-8.768-11.364-.121 0-.546.061-.303.43l3.67 5.39-5.005-3.942-.06-.061c-.365-.247-.425.092-.456.246-.212 9.147 7.949 9.64 10.68 9.547v-.03zm-23.391 0h-.03a.244.244 0 0 1-.243-.215c-.213-2.71-.213-11.087 8.798-11.364.09 0 .546.061.303.43l-3.762 5.421 5.067-3.973.06-.061c.334-.247.425.092.425.246.212 9.147-7.949 9.64-10.649 9.547l.03-.03z" fill="#383838"/></svg>