<svg width="45" height="45" viewBox="0 0 45 45" xmlns="http://www.w3.org/2000/svg"><title>fitness</title><path d="M28.877 31.179L13.797 16.07l2.246-2.25 15.08 15.108-2.246 2.25zM2.086 4.419a1.614 1.614 0 0 0 2.286 0 1.621 1.621 0 0 0 0-2.29L2.767.522a1.614 1.614 0 0 0-2.286 0 1.621 1.621 0 0 0 0 2.29L2.086 4.42zM19.25 0l-3.208 3.214L12.834 0 0 12.857l3.209 3.214L0 19.286l3.249 3.254L22.5 3.254 19.251 0zm23.623 40.62a1.614 1.614 0 0 0-2.286 0 1.621 1.621 0 0 0 0 2.29l1.605 1.608a1.615 1.615 0 0 0 2.704-.726 1.621 1.621 0 0 0-.418-1.564l-1.605-1.607zm2.086-14.866L41.71 22.46 22.46 41.746 25.749 45l3.208-3.214L32.166 45 45 32.143l-3.209-3.214 3.169-3.175z" fill="#78B3AC"/></svg>