<svg width="12" height="16" viewBox="0 0 12 16" xmlns="http://www.w3.org/2000/svg"><title>Shape</title><path d="M8.455.451H7.97V14.96c0 .535.432.968.966.968h.967a.966.966 0 0 0 .965-.968V8.19S14.25 3.353 8.455.45zm1.449 14.026a.484.484 0 0 1-.967 0v-5.32h.967v5.32zm0-6.287h-.967V2.386s3.38 1.45.967 5.804zM4.589.45a.484.484 0 0 0-.483.484v2.902a1.45 1.45 0 0 1-.967 1.368V.935a.483.483 0 1 0-.965 0v4.27a1.45 1.45 0 0 1-.966-1.368V.935a.484.484 0 1 0-.966 0v2.902c0 .79.38 1.485.966 1.926v9.44c0 .4.325.725.724.725h1.45c.4 0 .724-.325.724-.726v-9.44a2.401 2.401 0 0 0 .966-1.925V.935A.483.483 0 0 0 4.59.451zM3.14 14.477a.483.483 0 1 1-.965 0v-8.27h.965v8.27z"/></svg>