<svg width="34" height="29" viewBox="0 0 34 29" xmlns="http://www.w3.org/2000/svg"><title>footanim</title><path d="M16.09 5.438c0 2.99-1.912 5.437-4.248 5.437-2.337 0-4.248-2.447-4.248-5.438C7.594 2.447 9.505 0 11.842 0c2.336 0 4.248 2.447 4.248 5.438zM22.158 0c-2.336 0-4.248 2.447-4.248 5.438 0 2.99 1.912 5.437 4.248 5.437 2.337 0 4.248-2.447 4.248-5.438 0-2.99-1.911-5.437-4.248-5.437zM2.588 9.485C.493 10.12-.539 12.808.28 15.527c.82 2.719 3.186 4.44 5.28 3.806 2.093-.634 3.125-3.323 2.306-6.041-.82-2.72-3.186-4.41-5.28-3.807zm23.575 3.807c-.819 2.718.213 5.437 2.307 6.041 2.093.635 4.43-1.087 5.249-3.776.82-2.688-.213-5.437-2.306-6.041-2.094-.635-4.43 1.057-5.25 3.776zM17 26.583c3.61 0 1.85 2.417 6.675 2.417 1.487-.06 3.308-1.601 3.338-4.833.03-4.17-3.762-10.271-10.013-10.573-6.25.302-10.043 6.404-10.013 10.573.03 3.232 1.85 4.773 3.338 4.833 4.824 0 3.064-2.417 6.675-2.417z" fill="#383838"/></svg>