<svg width="11" height="11" viewBox="0 0 11 11" xmlns="http://www.w3.org/2000/svg"><title>Shape</title><path d="M9.456.962H6.623a.566.566 0 0 0-.567.566v.567c0 .313.254.566.567.566h.498l-.899.899a.566.566 0 0 0 0 .801l.401.4c.222.222.58.222.801 0l.899-.898v.498c0 .313.253.567.566.567h.567a.566.566 0 0 0 .567-.567V1.528a.566.566 0 0 0-.567-.566zm0 3.116a.283.283 0 0 1-.567 0V2.495L7.224 4.161a.283.283 0 0 1-.4-.401l1.665-1.665H6.906a.283.283 0 0 1 0-.567h2.267c.156 0 .283.127.283.284v2.266zm-4.699 2.55l-.4-.401a.566.566 0 0 0-.802 0l-.898.899v-.498a.566.566 0 0 0-.567-.567h-.566a.567.567 0 0 0-.567.567V9.46c0 .314.254.567.567.567h2.833a.566.566 0 0 0 .566-.567v-.566a.566.566 0 0 0-.566-.567h-.498l.898-.898a.566.566 0 0 0 0-.801zm-.6.6L2.49 8.895h1.582a.283.283 0 0 1 0 .566H1.807a.283.283 0 0 1-.283-.283V6.911a.283.283 0 0 1 .566 0v1.582l1.666-1.665a.283.283 0 0 1 .4.4zm5.299-1.167h-.567a.566.566 0 0 0-.566.567v.498l-.899-.899a.566.566 0 0 0-.801 0l-.4.4a.566.566 0 0 0 0 .802l.898.898h-.498a.567.567 0 0 0-.567.567v.566c0 .314.254.567.567.567h2.833a.566.566 0 0 0 .567-.567V6.628a.566.566 0 0 0-.567-.567zm0 3.116a.283.283 0 0 1-.283.283H6.906a.283.283 0 0 1 0-.566H8.49L6.824 7.229a.283.283 0 0 1 .4-.4L8.89 8.492V6.911a.283.283 0 0 1 .567 0v2.266zM4.356.962H1.525a.566.566 0 0 0-.567.566v2.833c0 .313.253.567.567.567h.566a.566.566 0 0 0 .567-.567v-.498l.898.899c.222.221.58.221.802 0l.4-.4a.566.566 0 0 0 0-.802l-.898-.899h.498a.566.566 0 0 0 .566-.566v-.567a.567.567 0 0 0-.566-.566zm-.283 1.133H2.491L4.156 3.76a.283.283 0 0 1-.4.4L2.09 2.496v1.583a.283.283 0 0 1-.566 0V1.812c0-.156.127-.284.283-.284h2.266a.283.283 0 0 1 0 .567z"/></svg>