<svg xmlns="http://www.w3.org/2000/svg" viewBox="0 0 48 48"><g fill="#010101"><path d="M29.4 15.6c-2 0-3.7-1.7-3.7-3.7s1.7-3.7 3.7-3.7 3.7 1.7 3.7 3.7-1.7 3.7-3.7 3.7zm0-5.4c-.9 0-1.7.8-1.7 1.7 0 .9.8 1.7 1.7 1.7.9 0 1.7-.8 1.7-1.7 0-.9-.8-1.7-1.7-1.7zM29 48H13L8.4 29.9h25.2L29 48zm-14.4-2h12.8L31 31.9H11L14.6 46z"/><path d="M19.7 31.6c-.1-.4-1.4-9.8 3.5-13.5l1.2 1.6c-4 3-2.7 11.6-2.7 11.7l-2 .2z"/><path d="M16.7 27.7c-1.9 0-3.7-.5-5.1-1.5-4.3-2.8-4.4-6.7-4.5-8.8l-.1-2 1.5.8c1.2.6 2.2.9 3.2 1 6.2.3 9.6 3.9 10 7.1l-2 .3c-.3-2.4-3-5.1-8.2-5.3-.8-.1-1.6-.2-2.5-.5.2 1.9.8 4.1 3.5 5.9 1.9 1.3 4.8 1.5 7.4.5l.7 1.9c-1.2.3-2.6.6-3.9.6zm11.5-3.9c-.3 0-.6 0-.9-.1-2.2-.3-4-2.1-4.4-4.3-2.3 0-4.2-1.4-4.9-3.6-.8-2.4.1-4.9 2.1-6.2-.5-.9-.7-1.8-.7-2.8.1-1.4.7-2.7 1.7-3.6 1.4-1.3 3.4-1.7 5.3-1.2 1.1-1.5 3.1-2.3 5.1-2 2.2.3 4 2.1 4.4 4.3 2.3 0 4.2 1.4 4.9 3.6.8 2.4-.1 4.9-2.1 6.2 1.1 2 .8 4.7-1 6.4-1 .9-2.3 1.4-3.7 1.4-.5 0-1.1-.1-1.6-.2-1 1.3-2.5 2.1-4.2 2.1zM25 17.1l-.1 1.3c-.1 1.7 1.1 3.1 2.7 3.4h.6c1.3 0 2.4-.7 2.9-1.7l.4-.9.9.4c.5.2 1 .4 1.6.4.9 0 1.7-.3 2.3-.9 1.3-1.2 1.4-3.3.2-4.6l-1-1.1 1.4-.5c1.7-.6 2.6-2.5 2-4.2-.5-1.6-2.1-2.5-3.8-2.1l-1.2.2.1-1.3c.1-1.7-1.1-3.1-2.7-3.4h-.6c-1.3 0-2.4.7-2.9 1.7l-.4.9-.9-.4c-1.3-.6-2.8-.4-3.9.5-.6.6-1 1.3-1.1 2.2 0 .9.3 1.7.9 2.4l1 1.1-1.4.5c-1.7.6-2.6 2.5-2 4.2.5 1.6 2.1 2.5 3.8 2.1l1.2-.2z"/></g></svg>