<svg xmlns="http://www.w3.org/2000/svg" viewBox="0 0 511.999 511.999"><path d="M484.684 116.809h-71.022c11.595-12.57 18.694-29.348 18.694-47.757 0 0-.014-2.81-.041-3.612-.767-22.718-13.156-42.978-33.139-54.2-20.387-11.446-44.674-11.443-64.967.011l-32.3 18.229C281.68 40.897 265.849 58.105 256 78.339c-9.849-20.234-25.68-37.442-45.908-48.858l-32.3-18.231c-20.293-11.453-44.58-11.457-64.967-.011-19.983 11.221-32.372 31.482-33.139 54.2-.027.802-.041 3.612-.041 3.612 0 18.409 7.099 35.187 18.694 47.758H27.316C12.254 116.809 0 129.064 0 144.126v64.834c0 15.062 12.254 27.316 27.316 27.316h12.506v245.751c0 15.062 12.254 27.316 27.316 27.316h377.723c15.062 0 27.316-12.254 27.316-27.316V236.275h12.506c15.062 0 27.316-12.254 27.316-27.316v-64.834c.001-15.061-12.253-27.316-27.315-27.316zM313.093 49.297l32.3-18.229c13.309-7.512 29.25-7.506 42.642.014 12.99 7.293 21.041 20.424 21.537 35.127.018.546.027 2.843.027 2.843 0 26.334-21.424 47.758-47.758 47.758h-93.813c3.411-28.148 20.027-53.383 45.065-67.513zM102.427 66.208c.497-14.702 8.548-27.833 21.537-35.127 6.702-3.763 14.038-5.643 21.366-5.643 7.317 0 14.626 1.876 21.275 5.63l32.3 18.229c25.038 14.13 41.654 39.365 45.064 67.511h-93.813c-26.333 0-47.757-21.424-47.757-47.757.001.001.01-2.297.028-2.843zm102.374 204.68h-46.842c-6.284 0-11.378 5.095-11.378 11.378s5.094 11.378 11.378 11.378h46.842v192.943H67.138a4.564 4.564 0 0 1-4.56-4.559V236.275h142.223v34.613zm0-57.367H27.316a4.566 4.566 0 0 1-4.56-4.56v-64.834a4.565 4.565 0 0 1 4.56-4.561h177.485v73.955zm79.641 273.065h-56.885V139.564h56.885v347.022zm164.98-4.559a4.565 4.565 0 0 1-4.56 4.56H307.198V293.643h43.355c6.284 0 11.378-5.095 11.378-11.378s-5.094-11.378-11.378-11.378h-43.355v-34.612h142.225v245.752zm39.822-273.066a4.566 4.566 0 0 1-4.56 4.56H307.198v-73.956h177.487a4.566 4.566 0 0 1 4.56 4.561v64.835z"/><path d="M404.598 293.643h1.138c6.284 0 11.378-5.095 11.378-11.378s-5.094-11.378-11.378-11.378h-1.138c-6.284 0-11.378 5.095-11.378 11.378.001 6.283 5.094 11.378 11.378 11.378zm-301.82 0h1.138c6.284 0 11.378-5.095 11.378-11.378s-5.095-11.378-11.378-11.378h-1.138c-6.284 0-11.378 5.095-11.378 11.378s5.094 11.378 11.378 11.378z"/></svg>