<svg xmlns="http://www.w3.org/2000/svg" width="512" height="512" viewBox="0 0 128 128"><path d="M100.132 51.885a12.907 12.907 0 1 0-19.086-14.81c-.361-.03-.722-.055-1.09-.055a12.97 12.97 0 0 0-12.6 10.127 12.513 12.513 0 0 0-6.716 0 12.97 12.97 0 0 0-12.6-10.127c-.368 0-.729.025-1.089.055a12.91 12.91 0 1 0-19.087 14.81 15.5 15.5 0 0 0-8.743 13.928v13.749a1.751 1.751 0 0 0 1.75 1.75h11.67V88.6a1.751 1.751 0 0 0 1.75 1.75H48.5v7.92a1.751 1.751 0 0 0 1.75 1.75h27.5a1.75 1.75 0 0 0 1.75-1.75v-7.919h14.205a1.75 1.75 0 0 0 1.75-1.75v-7.289h11.67a1.75 1.75 0 0 0 1.75-1.75V65.813a15.5 15.5 0 0 0-8.743-13.928zm-6.756-20.4a9.417 9.417 0 1 1 0 18.833c-.174 0-.347-.011-.521-.021 0-.119.018-.235.018-.355a12.926 12.926 0 0 0-8.406-12.088 9.378 9.378 0 0 1 8.909-6.374zm-13.42 9.04a9.417 9.417 0 1 1-3.078 18.311 12.909 12.909 0 0 0-6.229-10.279 9.451 9.451 0 0 1 9.307-8.037zm-6.539 19.08A9.417 9.417 0 1 1 64 50.188a9.428 9.428 0 0 1 9.417 9.417zM57.351 48.552a12.907 12.907 0 0 0-6.228 10.279 9.415 9.415 0 1 1 6.228-10.279zM25.208 40.9a9.416 9.416 0 0 1 18.325-3.048 12.926 12.926 0 0 0-8.406 12.088c0 .12.015.236.018.355-.173.01-.347.021-.521.021a9.427 9.427 0 0 1-9.416-9.416zm-2.583 36.912v-12a12.013 12.013 0 0 1 12-12c.374 0 .748.022 1.121.057a12.961 12.961 0 0 0 5.543 7.054 15.5 15.5 0 0 0-8.743 13.928v2.96zm13.42 9.039v-12A11.973 11.973 0 0 1 51.659 63.42a12.97 12.97 0 0 0 5.585 7.173A15.5 15.5 0 0 0 48.5 84.521v2.33zM76 96.52H52v-12a12 12 0 1 1 24 0zm15.956-9.669H79.5v-2.33a15.5 15.5 0 0 0-8.743-13.928 12.969 12.969 0 0 0 5.585-7.174 11.976 11.976 0 0 1 15.613 11.433zm13.42-9.039h-9.92v-2.96a15.5 15.5 0 0 0-8.743-13.928 12.967 12.967 0 0 0 5.544-7.054c.372-.035.746-.057 1.12-.057a12.013 12.013 0 0 1 12 12z"/></svg>