<svg width="12" height="16" viewBox="0 0 12 16" xmlns="http://www.w3.org/2000/svg"><title>Group</title><path d="M10.737 1.455H8.802V.97a.484.484 0 0 0-.967 0v.484H3.966V.97a.484.484 0 0 0-.967 0v.484H1.064a.967.967 0 0 0-.967.967v12.575c0 .535.433.967.967.967h9.673a.966.966 0 0 0 .967-.967V2.422a.966.966 0 0 0-.967-.967zm0 13.542H8.802v-1.935H6.868v1.935H4.933v-1.935H3v1.935H1.064v-2.902h9.673v2.902zm0-3.87H1.064V2.423h9.673v8.706z"/><path d="M3.966 5.324h1v1h-1zm2.902 0h1v1h-1zM3.966 3.39h1v1h-1zm2.902 0h1v1h-1zm1.934 1.934h1v1h-1zm0-1.934h1v1h-1zm-6.77 1.934h1v1h-1zm0-1.934h1v1h-1zm1.934 5.803h1v1h-1zm2.902 0h1v1h-1zM3.966 7.259h1v1h-1zm2.902 0h1v1h-1zm1.934 1.934h1v1h-1zm0-1.934h1v1h-1zm-6.77 1.934h1v1h-1zm0-1.934h1v1h-1z"/></svg>