<svg xmlns="http://www.w3.org/2000/svg" viewBox="0 0 48 48"><g fill="#010101"><path d="M36.8 48H0V22.4l23.8-10.7 13 4.6V48zM2 46h32.8V17.6l-11-3.8L2 23.6V46z"/><path d="M22.7 13.5h2V47h-2zm-4.328 8.154l.592 1.91-14.232 4.41-.592-1.911zm.165 6.659l.413 1.956-14.187 2.995-.413-1.957zm.067 6.691l.21 1.99-14.22 1.5-.21-1.988zM4.5 41.8h14.2v2H4.5z"/><path d="M48 48H31.7v-2H46V6.5L32.4 2.1l-13 5.7v6.7h-2V6.6L32.2-.1 48 5.1z"/><path d="M40 8.8h2v3.9h-2zm0 7h2v3.9h-2zm0 7h2v4h-2zm0 7.1h2v3.9h-2zm0 7h2v3.9h-2z"/></g></svg>