<svg xmlns="http://www.w3.org/2000/svg" viewBox="0 0 48 48"><path fill="none" stroke="#010101" stroke-width="2" stroke-miterlimit="10" d="M1 8.6h46V47H1z"/><path d="M10.4 37.7H24V47H10.4zm13.6 0h13.6V47H24zM5.7 14.1h5v5.7h-5zm10.4 0h5v5.7h-5zm10.4 0h5v5.7h-5zm10.4 0h5v5.7h-5zM5.7 26h5v5.7h-5zm10.4 0h5v5.7h-5zm10.4 0h5v5.7h-5zm10.4 0h5v5.7h-5zM8.7 1h30.6v7.6H8.7z" fill="none" stroke="#010101" stroke-width="2" stroke-miterlimit="10"/><path d="M14.6 3.1v1.3h2.1V3.1h.9v3.3h-.9V5h-2.1v1.5h-.9V3.1h.9zm8.5 1.7c0 1.1-1 1.8-2.4 1.8s-2.3-.7-2.3-1.7 1-1.8 2.4-1.8 2.3.7 2.3 1.7zm-3.7 0c0 .7.5 1.2 1.4 1.2.9 0 1.4-.5 1.4-1.2 0-.6-.5-1.2-1.4-1.2-1 0-1.4.5-1.4 1.2zm5.2-1.2h-1.4v-.5H27v.5h-1.4v2.8h-.9V3.6zM30.3 5h-1.9v1h2.1v.5h-3V3.1h2.9v.5h-2v.9h1.9V5zm1.1-1.9h.9V6h2v.5h-3V3.1z" fill="#010101"/></svg>