<svg width="24" height="67" viewBox="0 0 24 67" xmlns="http://www.w3.org/2000/svg"><title>MouseIconDark</title><g stroke="#9A9A9F" fill="none" fill-rule="evenodd"><rect stroke-width="3" x="1.5" y="1.5" width="21" height="32" rx="10.5"/><path d="M12 7.577c.786 0 1.423.637 1.423 1.423v5.333a1.423 1.423 0 1 1-2.846 0V9c0-.786.637-1.423 1.423-1.423z" fill="#9A9A9F"/><path d="M11.65 56.562l.004 6.676-2.284-2.104a.62.62 0 0 0-.422-.159.618.618 0 0 0-.42.16l-.355.327a.522.522 0 0 0-.173.386c0 .146.061.284.173.387l3.907 3.606a.61.61 0 0 0 .42.159.612.612 0 0 0 .42-.16l3.907-3.605a.522.522 0 0 0 .173-.387.523.523 0 0 0-.173-.386l-.355-.328a.613.613 0 0 0-.418-.159c-.159 0-.3.056-.411.16l-2.297 2.127v-6.707c0-.302-.282-.555-.608-.555h-.502a.578.578 0 0 0-.586.562z" fill="#9A9A9F" fill-rule="nonzero"/></g></svg>