<svg width="20" height="30" viewBox="0 0 20 30" xmlns="http://www.w3.org/2000/svg"><title>Next-Buttons Copy</title><path d="M1.275 30c-.17 0-.334-.024-.492-.073a1.25 1.25 0 0 1-.419-.22C.121 29.51 0 29.277 0 29.003c0-.274.121-.508.364-.704l16.649-13.402L.619 1.73c-.243-.195-.364-.435-.364-.718 0-.284.121-.523.364-.719C.862.098 1.16 0 1.512 0s.65.098.892.293l17.232 13.9c.243.196.364.43.364.704 0 .274-.121.509-.364.704L2.149 29.707a1.25 1.25 0 0 1-.419.22 1.53 1.53 0 0 1-.455.073z" fill="#9A9A9F" fill-rule="evenodd"/></svg>