<svg width="18" height="26" viewBox="0 0 18 26" xmlns="http://www.w3.org/2000/svg"><title>10E</title><path d="M18 13.108a.847.847 0 0 0-.855-.844.847.847 0 0 0-.855.844c0 3.953-3.27 7.17-7.293 7.17-4.017 0-7.287-3.217-7.287-7.17a.847.847 0 0 0-.855-.844.847.847 0 0 0-.855.844c0 4.6 3.577 8.387 8.142 8.815v2.39H4.095a.853.853 0 0 0-.861.843c0 .466.385.844.861.844h9.81a.853.853 0 0 0 .861-.844.853.853 0 0 0-.861-.843H9.858v-2.39C14.423 21.495 18 17.707 18 13.108M6.763 3.749c0-1.137.94-2.062 2.095-2.062h.284c1.156 0 2.095.925 2.095 2.062v9.897c0 1.137-.94 2.062-2.095 2.062h-.284c-1.156 0-2.095-.925-2.095-2.062V3.75zm2.095 13.647h.284c2.101 0 3.805-1.682 3.805-3.75V3.75c0-2.068-1.704-3.75-3.805-3.75h-.284C6.757 0 5.047 1.682 5.047 3.75v9.896c0 2.068 1.71 3.75 3.811 3.75z" fill="#B9B9C0" fill-rule="evenodd"/></svg>