<svg width="20" height="22" viewBox="0 0 20 22" xmlns="http://www.w3.org/2000/svg"><title>icon-guests</title><path d="M9.521 9.929s-2.333-.715-1.166-2.024c1.166-1.31 1.866-2.976 1.4-4.762C9.288 1.357 8.005 1 7.188 1c-1.166 0-3.85.238-3.616 4.048 0 0 .233 1.785 1.166 3.095a1.1 1.1 0 0 1 0 1.19l-2.683 2.738C.89 13.261.89 16.238 1.122 18.62c0 0 0 1.905 1.983 2.024 1.867.119 4.2.119 5.6 0 .7 0 2.1 0 1.866-3.333-.233-3.334 0-3.691 0-3.691s0-1.667 2.217-2.738c.35-.12.467-.595.35-.952-.817-1.429-2.45-4.881.466-5.834 2.334-.833 3.5 1.548 3.617 3.095 0 .358-.117.953-.35 1.31-.467.595-1.167 1.786-1.167 2.024-.116.595.934 1.31 1.867 1.786.7.357 1.167.952 1.283 1.666.233 1.19.117 2.857.117 4.524 0 .714.233 1.548-1.517 2.381L12.321 21" stroke="#474A53" fill="none"/></svg>