<svg width="26" height="24" viewBox="0 0 26 24" xmlns="http://www.w3.org/2000/svg"><title>39. Heart</title><path d="M18.271 0a6.861 6.861 0 0 0-5.71 3.055A6.858 6.858 0 0 0 6.851 0C3.087 0 .02 3.04 0 6.784c0 4.573 6.202 12.808 12.103 16.424l.458.201.46-.2c5.9-3.618 12.102-11.852 12.102-16.426C25.103 3.04 22.037 0 18.27 0zm-5.71 22.153c-5.576-3.489-11.42-11.335-11.42-15.37.018-3.11 2.58-5.646 5.71-5.646 1.916 0 3.694.951 4.76 2.546l.95 1.424.952-1.424a5.71 5.71 0 0 1 4.758-2.546c3.131 0 5.693 2.535 5.71 5.652 0 4.03-5.844 11.875-11.42 15.364z" fill="#CCC" fill-rule="evenodd"/></svg>