<svg width="22" height="32" viewBox="0 0 22 32" xmlns="http://www.w3.org/2000/svg"><title>Voice-Invert</title><g fill="none" fill-rule="evenodd"><path d="M21.361 16.17a1.008 1.008 0 1 0-2.015 0c0 4.746-3.854 8.607-8.594 8.607-4.734 0-8.587-3.861-8.587-8.606a1.008 1.008 0 1 0-2.016 0c0 5.52 4.216 10.067 9.595 10.58v2.868h-4.77a1.014 1.014 0 1 0 0 2.025h11.561a1.014 1.014 0 1 0 0-2.025h-4.769v-2.868c5.38-.513 9.595-5.06 9.595-10.58M8.12 4.938a2.474 2.474 0 0 1 2.47-2.475h.333c1.363 0 2.47 1.11 2.47 2.475v11.88a2.474 2.474 0 0 1-2.47 2.474h-.334a2.474 2.474 0 0 1-2.47-2.475V4.938zm2.47 16.379h.333c2.477 0 4.485-2.018 4.485-4.5V4.938c0-2.481-2.008-4.5-4.485-4.5h-.334a4.501 4.501 0 0 0-4.492 4.5v11.88a4.502 4.502 0 0 0 4.492 4.499z" fill="#9A9A9F"/><path d="M21.361 16.17a1.008 1.008 0 1 0-2.015 0c0 4.746-3.854 8.607-8.594 8.607-4.734 0-8.587-3.861-8.587-8.606a1.008 1.008 0 1 0-2.016 0c0 5.52 4.216 10.067 9.595 10.58v2.868h-4.77a1.014 1.014 0 1 0 0 2.025h11.561a1.014 1.014 0 1 0 0-2.025h-4.769v-2.868c5.38-.513 9.595-5.06 9.595-10.58M8.12 4.938a2.474 2.474 0 0 1 2.47-2.475h.333c1.363 0 2.47 1.11 2.47 2.475v11.88a2.474 2.474 0 0 1-2.47 2.474h-.334a2.474 2.474 0 0 1-2.47-2.475V4.938zm2.47 16.379h.333c2.477 0 4.485-2.018 4.485-4.5V4.938c0-2.481-2.008-4.5-4.485-4.5h-.334a4.501 4.501 0 0 0-4.492 4.5v11.88a4.502 4.502 0 0 0 4.492 4.499z" fill="#FFF"/></g></svg>