<svg width="512" height="509" viewBox="0 0 512 509" xmlns="http://www.w3.org/2000/svg"><title>magnifier</title><path d="M500.836 442.988L369.949 311.652a10.048 10.048 0 0 0-7.832-2.925 10.05 10.05 0 0 0-7.332 4.02 189.203 189.203 0 0 1-10.683 13.042l-20.004-20.004c28.054-32.387 45.05-74.601 45.05-120.71C369.148 83.3 286.348.5 184.574.5 82.797.5 0 83.3 0 185.074c0 101.774 82.8 184.574 184.574 184.574 48.453 0 92.598-18.777 125.563-49.425l19.804 19.804a188.864 188.864 0 0 1-12.777 10.598 10.025 10.025 0 0 0-3.965 7.305 10.043 10.043 0 0 0 2.903 7.793l130.765 131.214c7.207 7.204 16.79 11.172 26.98 11.172 10.188 0 19.77-3.964 26.981-11.171 7.203-7.208 11.172-16.79 11.172-26.981 0-10.187-3.965-19.762-11.164-26.969zM20.078 185.074c0-90.703 73.793-164.496 164.496-164.496 90.707 0 164.496 73.793 164.496 164.496S275.277 349.57 184.574 349.57 20.078 275.777 20.078 185.074zm466.55 297.664a17.962 17.962 0 0 1-12.78 5.293 17.946 17.946 0 0 1-12.77-5.281L338.23 359.484a208.49 208.49 0 0 0 25.485-25.644l122.914 123.336a17.956 17.956 0 0 1 5.293 12.781c0 4.828-1.879 9.367-5.293 12.781z"/></svg>