<svg width="25" height="23" viewBox="0 0 25 23" xmlns="http://www.w3.org/2000/svg"><title>Favourite</title><path d="M19.09 13.873c-2.003 2.251-4.945 5.417-6.243 6.803-1.33-1.386-4.361-4.552-6.424-6.81-2.964-3.238-3.989-4.472-3.989-6.657 0-2.028 1.693-4.957 4.753-4.957 4.054.006 4.738 3.474 4.767 3.637l.008.024c.007.03.017.06.026.091.009.03.017.055.028.085.012.024.027.048.041.079.014.024.027.048.043.072.019.024.04.049.062.079.015.018.03.036.046.048.028.03.058.055.09.08.014.011.026.023.041.03.035.024.072.042.111.066l.043.018c.036.018.075.03.115.042.02.006.039.006.058.013.014.006.027.012.041.012.025.006.048 0 .073.006h.07c.037 0 .073 0 .11-.006h.048c.01 0 .018-.006.027-.006.035-.006.067-.019.1-.03.025-.007.051-.013.075-.025.03-.012.057-.03.085-.042a.375.375 0 0 0 .071-.043l.073-.054c.021-.018.043-.036.063-.055.022-.024.04-.048.06-.072.018-.018.036-.043.05-.06.018-.025.031-.055.046-.08.014-.03.028-.054.04-.078.01-.024.018-.055.026-.079.01-.03.02-.066.027-.097.001-.012.006-.018.007-.03.025-.145.645-3.62 4.615-3.625 2.964 0 4.603 2.93 4.603 4.957 0 2.19-1 3.425-3.885 6.664zM18.374.436c-2.864.006-4.588 1.428-5.528 2.911C11.883 1.864 10.118.442 7.188.436 3.308.436.605 4.006.605 7.209c0 2.996 1.585 4.733 4.464 7.874 2.71 2.966 7.082 7.5 7.126 7.548l.027.018c.004.006.005.012.01.018.008.006.017.006.025.012a.83.83 0 0 0 .262.164c.008.006.018.006.027.006.1.036.204.06.31.06a.947.947 0 0 0 .317-.06c.008 0 .017-.006.025-.006a.995.995 0 0 0 .267-.17c.008-.006.017-.012.023-.018.005 0 .006-.006.01-.012.008-.006.018-.012.027-.024.042-.043 4.299-4.576 6.937-7.542 2.8-3.147 4.343-4.878 4.343-7.868 0-3.202-2.642-6.773-6.432-6.773z" fill="#B9B9C0" fill-rule="evenodd"/></svg>