<svg xmlns="http://www.w3.org/2000/svg" viewBox="0 0 48 48"><g fill="#010101"><path d="M24 48.5l-.8-.9c-.7-.7-17.3-19.8-17.3-29.5C5.9 8.1 14 0 24 0s18.1 8.1 18.1 18.1c0 9.7-16.6 28.8-17.3 29.6l-.8.8zM24 2C15.1 2 7.9 9.2 7.9 18.1c0 7.8 12.8 23.5 16.1 27.4 3.3-3.9 16.1-19.5 16.1-27.4C40.1 9.2 32.9 2 24 2z"/><path d="M24 30.2c-6.7 0-12.1-5.4-12.1-12.1C11.9 11.4 17.3 6 24 6s12.1 5.4 12.1 12.1c0 6.7-5.4 12.1-12.1 12.1zM24 8c-5.6 0-10.1 4.5-10.1 10.1S18.4 28.2 24 28.2s10.1-4.5 10.1-10.1S29.6 8 24 8z"/></g></svg>