<svg width="25" height="28" viewBox="0 0 25 28" xmlns="http://www.w3.org/2000/svg"><title>SearchIcon</title><path d="M21.226 26.11c.792 0 1.439-.618 1.439-1.377 0-.758-.647-1.376-1.44-1.376-.792 0-1.438.618-1.438 1.376 0 .759.646 1.377 1.439 1.377zm0-4.503c1.804 0 3.268 1.4 3.268 3.126 0 1.721-1.464 3.127-3.268 3.127-1.8 0-3.269-1.406-3.269-3.127 0-1.726 1.47-3.126 3.269-3.126zM5.134 17.978c3.866 3.699 10.153 3.699 14.018 0 3.86-3.692 3.86-9.706 0-13.405-1.932-1.849-4.47-2.77-7.006-2.77-2.542 0-5.079.921-7.012 2.77-3.86 3.699-3.86 9.713 0 13.405zM3.841 3.337c4.58-4.375 12.025-4.375 16.604 0 4.573 4.38 4.573 11.503 0 15.884-2.293 2.187-5.299 3.278-8.299 3.278-3.006 0-6.012-1.09-8.305-3.278-4.573-4.381-4.573-11.503 0-15.884z" fill="#FFF" fill-rule="evenodd"/></svg>