<svg width="25" height="25" viewBox="0 0 25 25" xmlns="http://www.w3.org/2000/svg"><title>Informtion</title><path d="M12.44 10.577c.553 0 1.013.454 1.013 1.014v5.348a1.013 1.013 0 1 1-2.027 0v-5.348c0-.56.452-1.014 1.013-1.014zm0-3.616c.553 0 1.013.45 1.013 1.01v.009a1.013 1.013 0 1 1-2.027 0c0-.56.452-1.019 1.013-1.019zM22.648 20.79a1.69 1.69 0 0 1-1.69 1.689H3.912a1.695 1.695 0 0 1-1.689-1.69V3.746c0-.932.763-1.69 1.69-1.69h17.046c.933 0 1.69.758 1.69 1.69V20.79zM20.959.029H3.912A3.721 3.721 0 0 0 .196 3.744v17.044a3.722 3.722 0 0 0 3.716 3.716H20.96a3.722 3.722 0 0 0 3.717-3.716V3.745A3.721 3.721 0 0 0 20.959.028z" fill="#B9B9C0" fill-rule="evenodd"/></svg>