<svg width="27" height="28" viewBox="0 0 27 28" xmlns="http://www.w3.org/2000/svg"><title>Cart</title><path d="M21.768 24.354c.996 0 1.806.81 1.806 1.8a1.803 1.803 0 1 1-1.806-1.8zm-10.872 0c.99 0 1.8.81 1.8 1.8 0 .994-.81 1.804-1.8 1.804-.996 0-1.806-.81-1.806-1.805 0-.989.81-1.799 1.806-1.799zM15.516.578c.498 0 .9.399.9.893v2.7h2.718c.498 0 .9.398.9.893a.896.896 0 0 1-.9.893h-2.718v2.7a.896.896 0 0 1-.9.893c-.498 0-.9-.4-.9-.894V5.957h-2.718a.895.895 0 0 1-.9-.893c0-.495.402-.894.9-.894h2.718V1.471c0-.494.402-.893.9-.893zm7.434 20.059H9.384l-1.998-7.578 17.322.018-1.758 7.56zm3.594-9.008a.91.91 0 0 0-.708-.34l-18.924-.018-.576-2.192a.898.898 0 0 0-.87-.667H1.224c-.498 0-.9.4-.9.894s.402.893.9.893H4.77l.576 2.169c0 .018.006.03.006.041l2.466 9.348a.898.898 0 0 0 .87.667H23.67c.42 0 .78-.286.876-.691l2.166-9.347a.88.88 0 0 0-.168-.757z" fill="#B9B9C0" fill-rule="evenodd"/></svg>