<svg viewBox="0 0 648.249 113.467" xmlns="http://www.w3.org/2000/svg"><path d="M644.744 70.777h-1.796c-.556-14.053-2.695-36.522-10.67-37.391v-1.961c.015 0 .03.007.045.007 1.395 0 1.395-8.211 0-8.211s-2.526 1.838-2.526 4.105c0 1.4.433 2.633 1.092 3.374v2.65c-10.28-.104-44.477-1.801-64.461-2.693-7.804-.348-19.15-2.771-25.705-7.02l-24.259-16.58A43.869 43.869 0 0 0 492.603 0H118.707c-3.599 0-7.148.828-10.376 2.42-10.74 5.297-45.078 20.529-57.339 25.288a41.646 41.646 0 0 1-9.043 2.383l-29.591 5.457a8.536 8.536 0 0 0-7.298 8.253l-.613 26.976h-.942c-4.673 0-4.673 16.991 0 16.991h31.198c-.005.251-.019.5-.019.752v3h6v-3c0-16.104 13.101-29.204 29.205-29.204 16.103 0 29.204 13.101 29.204 29.204v3h6v-3c0-.252-.014-.501-.019-.752h446.911c-.005.251-.019.5-.019.752v3h6v-3c0-16.104 13.101-29.204 29.204-29.204 16.104 0 29.205 13.101 29.205 29.204v3h6v-3c0-.252-.014-.501-.019-.752h22.39c4.671 0 4.671-16.991-.002-16.991zm-7.982-4.297l-5.344-11.427h4.232c.472 3.489.853 7.357 1.112 11.427zm-5.505-27.127c1.501 1.48 2.875 6.152 3.92 12.541h-5.236l-5.939-12.699c3.088.092 5.579.148 7.255.158zm-531.818.572c0-1.181.966-2.147 2.147-2.147h17.937c1.181 0 2.147.966 2.147 2.147s-.966 2.147-2.147 2.147h-17.937a2.154 2.154 0 0 1-2.147-2.147zm73.402-8.026L175.816 7.8h257.183l2.975 24.099H172.841zm293.84 8.026c0-1.181.966-2.147 2.147-2.147h17.937c1.181 0 2.147.966 2.147 2.147s-.966 2.147-2.147 2.147h-17.937a2.153 2.153 0 0 1-2.147-2.147zM492.603 7.8c7.31 0 14.463 2.116 20.597 6.091l20.039 14.781a49.839 49.839 0 0 0 5.788 3.226h-96.021L437.361 7.8h55.242zM111.071 9.559a17.313 17.313 0 0 1 7.637-1.759h52.746l-5.645 24.099H92.928a17.732 17.732 0 0 1-10.759-3.637l-.931-.71c10.818-6.129 21.96-14.128 29.833-17.993z"/><path d="M94.725 86.21C93.558 73.516 82.888 63.574 69.89 63.574c-13 0-23.672 9.942-24.838 22.636-.071.76-.112 1.53-.112 2.31 0 13.777 11.169 24.946 24.949 24.946 13.777 0 24.944-11.17 24.944-24.946a25.17 25.17 0 0 0-.108-2.31zM69.89 104.716c-8.932 0-16.198-7.266-16.198-16.196 0-.473.024-.966.074-1.507.769-8.376 7.7-14.689 16.124-14.689 8.421 0 15.351 6.314 16.121 14.687.048.528.072 1.024.072 1.509 0 8.93-7.264 16.196-16.193 16.196z"/><path d="M69.89 81.075a7.399 7.399 0 0 0-7.411 6.75 7.424 7.424 0 0 0-.037.696c0 4.105 3.341 7.445 7.448 7.445 4.104 0 7.442-3.34 7.442-7.445 0-.216-.012-.452-.035-.708-.352-3.842-3.537-6.738-7.407-6.738zm542.117 5.135c-1.167-12.694-11.837-22.636-24.835-22.636-13 0-23.672 9.942-24.838 22.636-.071.76-.112 1.53-.112 2.31 0 13.777 11.169 24.946 24.949 24.946 13.777 0 24.944-11.17 24.944-24.946a25.17 25.17 0 0 0-.108-2.31zm-24.835 18.506c-8.932 0-16.198-7.266-16.198-16.196 0-.473.024-.966.074-1.507.769-8.376 7.701-14.689 16.124-14.689 8.421 0 15.351 6.314 16.121 14.687.048.528.072 1.024.072 1.509 0 8.93-7.264 16.196-16.193 16.196z"/><path d="M587.172 81.075a7.399 7.399 0 0 0-7.411 6.75 7.424 7.424 0 0 0-.037.696c0 4.105 3.341 7.445 7.448 7.445 4.104 0 7.442-3.34 7.442-7.445 0-.216-.012-.452-.035-.708-.353-3.842-3.538-6.738-7.407-6.738z"/></svg>