<svg viewBox="0 0 472.076 134.706" xmlns="http://www.w3.org/2000/svg"><path d="M61.916 62.199l.218 3.306-24.33 1.606 5.152 9.601-9.252.816 1.184 17.944 108.332 31.742 4.548-.309a8.437 8.437 0 0 1-1.242-3.905c-.251-3.801 1.931-7.193 6.705-10.295L109.53 98.326 95.779 81.624l4.858-1.388 3.738 2.907 9.414 11.435 45.453 14.955c3.92-1.723 8.766-3.359 14.584-4.931 15.746-4.255 37.06-7.571 60.016-9.338l.18-.013c5.115-.338 10.064 1.76 12.917 5.473 2.61 3.397 5.811 8.799 6.236 15.237.206 3.116-.268 6.074-1.052 8.72l56.476-4.103 24.998-3.848 28.076-4.322c19.242-1.519 110.953-15.047 110.401-23.404-.561-8.5-60.355-18.401-60.355-18.401s-13.135-12.176-20.713-17.037c-7.578-4.861-186.608 8.901-186.608 8.901l-84.045 7.414L44.24 0 4.226 4.538 32.15 56.575 0 58.696l2.284 3.169 2.937 4.075 56.695-3.741zm326.686-.503s9.393 5.783 11.593 10.38l-44.294 3.16-2.972-11.503 35.673-2.037zm-73.943 4.248l.727 11.018-10.389.686-.727-11.018 10.389-.686zm-17.787 1.173l.727 11.018-10.389.686-.727-11.018 10.389-.686zm-17.787 1.174l.727 11.018-10.389.686-.727-11.018 10.389-.686zm-39.509 2.607l.727 11.018-10.389.686-.727-11.018 10.389-.686zm-17.787 1.174l.727 11.018-10.389.686-.727-11.018 10.389-.686zm-17.787 1.174l.727 11.018-10.389.686-.727-11.018 10.389-.686z"/><path d="M204.536 103.546c-31.605 4.68-53.482 12.142-53.021 19.125.461 6.983 23.128 11.505 55.074 11.991l-2.053-31.116zm10.281-1.379a402.54 402.54 0 0 0-6.236.802l2.094 31.733c2.061.009 4.16-.001 6.287-.025l-2.145-32.51zm33.369 14.124c-.338-5.119-2.933-9.555-5.212-12.521-1.892-2.463-5.265-3.789-8.748-3.521a450.66 450.66 0 0 0-15.359 1.447l2.172 32.916a451.994 451.994 0 0 0 15.416-.584c3.488-.192 6.657-1.95 8.209-4.64 1.869-3.239 3.86-7.978 3.522-13.097z"/></svg>