<svg viewBox="0 0 854.414 305.945" xmlns="http://www.w3.org/2000/svg"><path d="M718.631 278.943c50.104-16.695 135.783-45.477 135.783-47.073 0-4.365-35.623-7.981-82.139-8.623.006-.006.006-.012.012-.018h-1.536c-3.213-.04-6.487-.061-9.79-.073v-29.923h-3.739v29.912c-1.885 0-3.752.008-5.609.018v-63.355h-3.739v63.385c-1.252.011-2.512.02-3.75.035H92.243a55.186 55.186 0 0 0-40.571 17.777l-13.486 14.626h206.328v3.963H34.532L5.874 290.677h640.44c24.58 0 48.997-3.963 72.317-11.734zM365.59 263.832a7.047 7.047 0 1 1 0-14.094 7.047 7.047 0 0 1 0 14.094zm78.857 0a7.047 7.047 0 1 1 0-14.094 7.047 7.047 0 0 1 0 14.094zm78.856 0a7.047 7.047 0 1 1 0-14.094 7.047 7.047 0 0 1 0 14.094zm78.856 0a7.047 7.047 0 1 1 0-14.094 7.047 7.047 0 0 1 0 14.094z"/><path d="M122.143 213.163h472.633l-43.378-13.881H422.163v-14.429h84.145l-19.473-6.232a137.136 137.136 0 0 0-36.958-6.44c-43.25-1.528-220.02.102-268.548.587a33.872 33.872 0 0 0-21.76 8.2l-37.426 32.195zm256.397-28.31h14.429v14.429H378.54v-14.429zm-29.096 0h14.429v14.429h-14.429v-14.429zm-29.095 0h14.429v14.429h-14.429v-14.429zm-29.096 0h14.429v14.429h-14.429v-14.429zm-29.096 0h14.429v14.429h-14.429v-14.429zm-29.095 0h14.429v14.429h-14.429v-14.429zm-29.096 0h14.429v14.429h-14.429v-14.429z"/><circle cx="307.916" cy="33.178" r="8.599"/><path d="M250.83 123.905v7.747c-12.041.136-22.523.278-29.905.384a31.214 31.214 0 0 0-19.911 7.551l-26.142 22.488h292.594l-80.064-25.62a101.72 101.72 0 0 0-15.758-3.677l-21.154-23.972h-17.365V53.354h-3.739v55.451h-5.609V0h-3.739v43.227l-50.658 80.678h-18.55zm21.272 26.601h-16.009v-6.208h16.009v6.208zm16.273 0v-6.208h16.009v6.208h-16.009zm32.281 0v-6.208h16.009v6.208h-16.009zm32.281 0v-6.208h16.009v6.208h-16.009zm-55.465-41.701v15.1h-17.315l39.881-63.514v48.414h-22.566zm22.566-62.757V57.57l-41.652 66.335h-7.234l48.886-77.857zM2.642 305.945h660.463a2.65 2.65 0 0 0 2.642-2.642v-2.769a2.65 2.65 0 0 0-2.642-2.642H2.642A2.65 2.65 0 0 0 0 300.534v2.769a2.65 2.65 0 0 0 2.642 2.642z"/><ellipse cx="344.642" cy="70.789" rx="8.599" ry="8.599" transform="rotate(-13.286 344.567 70.784)"/></svg>