<svg viewBox="0 0 55 55" xmlns="http://www.w3.org/2000/svg"><path d="M3.074 12.656l24 39.106s.002 0 .003.002a.494.494 0 0 0 .206.18.503.503 0 0 0 .217.056.492.492 0 0 0 .263-.082.49.49 0 0 0 .16-.154l.003-.002 24-39.106c.004-.007.002-.017.006-.025a.487.487 0 0 0 .068-.236l-.002-.01c0-.01-.004-.017-.005-.026a.486.486 0 0 0-.073-.22c-.006-.01-.004-.022-.01-.032l-6.246-8.894c-.008-.011-.021-.016-.03-.027-.013-.015-.019-.033-.033-.047-.023-.022-.051-.032-.077-.048-.021-.015-.04-.03-.063-.04a.489.489 0 0 0-.173-.043c-.012 0-.021-.008-.033-.008H9.746c-.01 0-.019.006-.029.007a.488.488 0 0 0-.177.043c-.024.011-.042.026-.063.04-.026.017-.054.027-.077.049-.014.014-.02.032-.033.047-.009.01-.022.016-.03.027L3.09 12.107c-.007.01-.005.022-.01.032a.486.486 0 0 0-.074.22c0 .01-.005.017-.005.026l-.002.01c0 .087.028.165.068.236.004.008.002.018.006.025zm6.731-8.37l7.28 7.609H4.462l5.343-7.61zm40.733 7.609H37.916l7.28-7.61 5.342 7.61zm-14.424 1L27.5 49.327l-8.613-36.432h17.227zm-16.618-1L27.5 4.194l8.005 7.7h-16.01zm17.645 1h13.466L28.703 48.584l8.438-35.69zm-.41-1.208L28.741 4h15.344l-7.354 7.687zm-18.461 0L10.916 4H26.26l-7.99 7.687zm-.41 1.208l8.437 35.689-21.904-35.69H17.86z"/></svg>