<svg id="Layer_1" viewBox="0 0 55 55" xmlns="http://www.w3.org/2000/svg"><style>.st0{fill:none;stroke:#000;stroke-linecap:round;stroke-linejoin:round;stroke-miterlimit:10}</style><path d="M51.286 52H3.714a.5.5 0 0 1-.5-.5v-7.356c0-8.437 6.864-15.3 15.3-15.3a.5.5 0 0 1 .354.146l8.632 8.632 8.632-8.632a.5.5 0 0 1 .353-.147c8.437 0 15.301 6.864 15.301 15.3V51.5a.5.5 0 0 1-.5.5zM4.214 51h46.572v-6.856c0-7.817-6.305-14.188-14.095-14.3l-8.837 8.838a.5.5 0 0 1-.708 0l-8.837-8.837c-7.79.11-14.095 6.482-14.095 14.299V51zm23.281-25.168c-6.113 0-11.19-4.864-11.404-11.02-.218-6.29 4.722-11.586 11.013-11.805 6.293-.229 11.585 4.721 11.805 11.012.218 6.291-4.722 11.587-11.013 11.805-.133.005-.268.008-.4.008zM27.505 4a11.5 11.5 0 0 0-.366.007c-5.74.199-10.247 5.03-10.048 10.77.198 5.74 5.024 10.233 10.77 10.048 5.74-.2 10.247-5.031 10.048-10.77C37.714 8.436 33.081 4 27.505 4z"/></svg>