<svg height="6.827in" viewBox="0 0 6.827 6.827" width="6.827in" xmlns="http://www.w3.org/2000/svg" shape-rendering="geometricPrecision" text-rendering="geometricPrecision" image-rendering="optimizeQuality" fill-rule="evenodd" clip-rule="evenodd"><defs><style>.fil1{fill:none}.fil0{fill:#000;fill-rule:nonzero}</style></defs><g id="Layer_x0020_1"><g id="_456326096"><path class="fil0" d="M1.072 2.592h4.683a.2.2 0 0 1 .2.2v2.5a.2.2 0 0 1-.2.2H1.072a.2.2 0 0 1-.2-.2v-2.5a.2.2 0 0 1 .2-.2zm4.683.084H1.072a.116.116 0 0 0-.117.116v2.5a.116.116 0 0 0 .117.117h4.683a.116.116 0 0 0 .117-.117v-2.5a.116.116 0 0 0-.117-.116z" id="_456327896"/><path class="fil0" d="M1.116 1.757h.562a.04.04 0 0 1 .041.041v.173a.184.184 0 0 0 .315.13.184.184 0 0 0 .054-.13v-.173c0-.023.019-.041.042-.041h2.567c.023 0 .042.018.042.041v.173a.184.184 0 0 0 .314.13.184.184 0 0 0 .055-.13v-.173a.04.04 0 0 1 .041-.041h.562A.243.243 0 0 1 5.955 2v.786a.042.042 0 0 1-.083-.003.116.116 0 0 0-.117-.108H1.072a.116.116 0 0 0-.117.111l-.041-.001.041.001a.042.042 0 0 1-.083-.003V2a.243.243 0 0 1 .244-.244zm.52.083h-.52a.16.16 0 0 0-.16.16v.63a.198.198 0 0 1 .116-.038h4.683c.044 0 .084.015.117.038V2a.16.16 0 0 0-.16-.16H5.19v.131a.267.267 0 0 1-.457.19.267.267 0 0 1-.078-.19V1.84H2.17v.131a.267.267 0 0 1-.456.19.267.267 0 0 1-.079-.19V1.84z" id="_456327584"/><path class="fil0" d="M1.904 1.335a.267.267 0 0 1 .267.268v.368a.267.267 0 0 1-.456.19.267.267 0 0 1-.079-.19v-.368a.267.267 0 0 1 .268-.268zm.13.137a.184.184 0 0 0-.315.13v.37a.184.184 0 0 0 .315.13.184.184 0 0 0 .054-.13v-.37c0-.05-.02-.096-.054-.13z" id="_456327560"/><path class="fil0" d="M4.923 1.335a.267.267 0 0 1 .268.268v.368a.267.267 0 0 1-.457.19.267.267 0 0 1-.078-.19v-.368a.267.267 0 0 1 .267-.268zm.13.137a.184.184 0 0 0-.314.13v.37a.184.184 0 0 0 .314.13.184.184 0 0 0 .055-.13v-.37a.184.184 0 0 0-.055-.13z" id="_456327680"/><path class="fil0" d="M1.309 4.494a.042.042 0 0 0 .083 0v-1.86a.042.042 0 0 0-.083 0v1.86z" id="_456326456"/><path class="fil0" d="M1.392 4.87a.042.042 0 0 0-.083 0v.151a.042.042 0 0 0 .083 0v-.15z" id="_456326384"/><path class="fil0" d="M4.828 3.41a.897.897 0 0 1 .9.9.897.897 0 0 1-.9.9.897.897 0 0 1-.9-.9.897.897 0 0 1 .9-.9zm.577.323a.814.814 0 0 0-1.155 0 .814.814 0 0 0 0 1.155.814.814 0 0 0 1.155 0 .814.814 0 0 0 0-1.155z" id="_456326912"/><path class="fil0" d="M4.828 3.934a.325.325 0 0 1 .069-.08.25.25 0 0 1 .164-.052.274.274 0 0 1 .275.275c0 .127-.062.251-.154.375a3.51 3.51 0 0 1-.325.355l-.03-.03.03.03a.042.042 0 0 1-.059 0 3.509 3.509 0 0 1-.325-.355c-.092-.124-.154-.248-.154-.375a.274.274 0 0 1 .275-.275c.112 0 .178.044.234.132zm.12-.014a.339.339 0 0 0-.082.114.042.042 0 0 1-.076.003c-.05-.101-.1-.152-.196-.152a.191.191 0 0 0-.192.192c0 .106.055.215.138.325.078.104.182.21.288.316.106-.106.21-.212.287-.316.083-.11.138-.219.138-.325a.191.191 0 0 0-.192-.192.171.171 0 0 0-.113.035z" id="_456327128"/><path class="fil0" d="M1.76 3.36h.31v-.308h-.31v.309zm.35.084h-.39a.042.042 0 0 1-.042-.042v-.391c0-.023.018-.042.041-.042h.392c.023 0 .041.019.041.042v.391a.042.042 0 0 1-.041.042z" id="_456326576"/><path class="fil0" d="M2.461 3.36h.308v-.308h-.308v.309zm.35.084h-.392a.042.042 0 0 1-.041-.042v-.391c0-.023.018-.042.041-.042h.392c.023 0 .042.019.042.042v.391a.042.042 0 0 1-.042.042z" id="_456326480"/><path class="fil0" d="M3.161 3.36h.309v-.308h-.31v.309zm.35.084H3.12a.042.042 0 0 1-.042-.042v-.391c0-.023.019-.042.042-.042h.391c.023 0 .042.019.042.042v.391a.042.042 0 0 1-.042.042z" id="_456326528"/><path class="fil0" d="M3.862 3.36h.308v-.308h-.308v.309zm.35.084H3.82a.042.042 0 0 1-.042-.042v-.391c0-.023.02-.042.042-.042h.392c.023 0 .041.019.041.042v.391a.042.042 0 0 1-.041.042z" id="_456326504"/><path class="fil0" d="M1.76 4.151h.31v-.308h-.31v.308zm.35.084h-.39a.042.042 0 0 1-.042-.042V3.8a.04.04 0 0 1 .041-.041h.392a.04.04 0 0 1 .041.041v.392a.042.042 0 0 1-.041.042z" id="_456326768"/><path class="fil0" d="M2.461 4.151h.308v-.308h-.308v.308zm.35.084h-.392a.042.042 0 0 1-.041-.042V3.8a.04.04 0 0 1 .041-.041h.392c.023 0 .042.018.042.041v.392a.042.042 0 0 1-.042.042z" id="_456326600"/><path class="fil0" d="M3.161 4.151h.309v-.308h-.31v.308zm.35.084H3.12a.042.042 0 0 1-.042-.042V3.8c0-.023.019-.041.042-.041h.391c.023 0 .042.018.042.041v.392a.042.042 0 0 1-.042.042z" id="_456326216"/><path class="fil0" d="M1.76 4.942h.31v-.308h-.31v.308zm.35.083h-.39a.042.042 0 0 1-.042-.041v-.392c0-.023.018-.042.041-.042h.392c.023 0 .041.019.041.042v.392a.042.042 0 0 1-.041.041z" id="_456326048"/><path class="fil0" d="M2.461 4.942h.308v-.308h-.308v.308zm.35.083h-.392a.042.042 0 0 1-.041-.041v-.392c0-.023.018-.042.041-.042h.392c.023 0 .042.019.042.042v.392a.042.042 0 0 1-.042.041z" id="_456326024"/></g></g><path class="fil1" d="M0 0h6.827v6.827H0z"/></svg>