<svg width="34" height="34" viewBox="0 0 34 34" xmlns="http://www.w3.org/2000/svg"><title>info</title><g fill="#383838"><path d="M13 23.294l1.313-5.312c.218-.833.25-1.173 0-1.173a9.119 9.119 0 0 0-2.75 1.173L11 17.056a15.069 15.069 0 0 1 7.406-3.644c1.157 0 1.344 1.328.782 3.397l-1.563 5.559c-.219 1.019-.094 1.328.156 1.328a5.966 5.966 0 0 0 2.563-1.236l.656.834C18.312 25.981 15.312 27 14.187 27c-1.124 0-2-.71-1.187-3.706zm8-15.132c-.034 1.545-1.311 2.78-2.875 2.78-1.375 0-2.188-.835-2.125-2.162 0-.743.3-1.455.835-1.977A2.83 2.83 0 0 1 18.844 6C20.28 6 21 6.988 21 8.162z"/><path d="M17 2.429c8.048 0 14.571 6.523 14.571 14.571S25.048 31.571 17 31.571 2.429 25.048 2.429 17 8.952 2.429 17 2.429M17 0C7.611 0 0 7.611 0 17s7.611 17 17 17 17-7.611 17-17S26.389 0 17 0z"/></g></svg>