<svg width="96" height="130" viewBox="0 0 96 130" xmlns="http://www.w3.org/2000/svg"><title>iconfinder_lock__private__pin__3588976</title><path d="M47.321 129.734a.996.996 0 0 0 1.358 0c.466-.43 46.564-43.483 46.564-82.49C95.243 21.193 74.05 0 48 0S.757 21.193.757 47.243c0 39.008 46.098 82.061 46.564 82.491zM2.757 47.244C2.757 22.295 23.053 2 48 2c24.947 0 45.243 20.296 45.243 45.243 0 19.875-12.455 40.818-22.903 54.887-9.793 13.186-19.7 22.961-22.34 25.493-2.64-2.532-12.547-12.307-22.34-25.493C15.212 88.061 2.757 67.118 2.757 47.243z"/><path d="M81.422 47.06c0-18.438-15-33.438-33.44-33.438-18.419 0-33.404 15-33.404 33.439 0 18.419 14.985 33.404 33.405 33.404 18.438 0 33.439-14.985 33.439-33.404zm-64.844 0c0-17.335 14.088-31.438 31.405-31.438 17.335 0 31.439 14.103 31.439 31.439 0 17.316-14.104 31.404-31.44 31.404-17.316 0-31.404-14.088-31.404-31.404z"/></svg>