<svg height="457pt" viewBox="-71 0 457 457.14286" width="457pt" xmlns="http://www.w3.org/2000/svg"><path d="M290.887 166.367h-34.883V99.031C256.004 44.426 211.582 0 156.977 0 102.37 0 57.945 44.426 57.945 99.031v67.336h-33.27c-13.57 0-24.605 11.035-24.605 24.598v241.574c0 13.566 11.035 24.606 24.606 24.606h266.21c13.571 0 24.606-11.04 24.606-24.606V190.965c0-13.563-11.035-24.598-24.605-24.598zM76.23 99.031c0-44.523 36.227-80.746 80.747-80.746 44.523 0 80.742 36.223 80.742 80.746v67.336H76.23zM297.207 432.54c0 3.484-2.836 6.316-6.32 6.316H24.676a6.324 6.324 0 0 1-6.32-6.316V190.965c0-3.485 2.835-6.313 6.32-6.313h266.21c3.485 0 6.321 2.828 6.321 6.313zm0 0"/><path d="M157.73 267.77c-16.707 0-30.3 13.636-30.3 30.398 0 13.566 8.957 24.95 21.207 28.852v19.578c0 5.05 4.093 9.144 9.144 9.144s9.145-4.094 9.145-9.144v-19.602c12.254-3.922 21.207-15.289 21.207-28.828 0-16.762-13.637-30.398-30.403-30.398zm0 42.515c-6.625 0-12.015-5.433-12.015-12.117 0-6.68 5.39-12.113 12.015-12.113 6.68 0 12.118 5.433 12.118 12.113 0 6.797-5.32 12.117-12.118 12.117zm0 0"/></svg>