<svg xmlns="http://www.w3.org/2000/svg" viewBox="0 0 48 48"><path fill="none" stroke="#000" stroke-width="2" stroke-miterlimit="10" d="M29.6 11.5l-7.3 3.8-10.7-5.5L1 15.3V47l10.6-5.5L22.3 47l10.6-5.5L43.5 47V17.3"/><path fill="none" stroke="#000" stroke-width="2" stroke-miterlimit="10" d="M47 9.7c0 4.8-8.8 14.4-8.8 14.4s-8.8-9.6-8.8-14.4 4-8.7 8.8-8.7S47 4.9 47 9.7z"/><ellipse fill="none" stroke="#000" stroke-width="2" stroke-miterlimit="10" cx="38.2" cy="9.7" rx="4.4" ry="4.4"/><g fill="none" stroke="#000" stroke-width="2" stroke-miterlimit="10"><path d="M4.6 36.3c.1-.5.3-.9.5-1.4"/><path stroke-dasharray="3.0539,3.0539" d="M6.9 32.4c1.2-1.3 2.7-2.3 4.3-2.8 5.8-1.8 12 1.8 18 .7 1.9-.3 3.6-1.1 5.1-2.3"/><path d="M35.4 27c.4-.4.7-.7 1-1.1"/></g></svg>