<svg width="16" height="21" viewBox="0 0 16 21" xmlns="http://www.w3.org/2000/svg"><title>03. Office</title><path d="M5.333 11.556H4.89a.445.445 0 0 0-.445.444v.444c0 .246.2.445.445.445h.444c.246 0 .445-.2.445-.445V12c0-.245-.2-.444-.445-.444zm4 6.666h.445a.444.444 0 0 0 .444-.444v-.445a.444.444 0 0 0-.444-.444h-.445a.444.444 0 0 0-.444.444v.445c0 .245.199.444.444.444zM3.111 8.89h-.444a.444.444 0 0 0-.445.444v.445c0 .245.2.444.445.444h.444a.445.445 0 0 0 .445-.444v-.445c0-.245-.2-.444-.445-.444zm2.222 8H4.89a.445.445 0 0 0-.445.444v.445c0 .245.2.444.445.444h.444a.444.444 0 0 0 .445-.444v-.445c0-.245-.2-.444-.445-.444zm0-2.667H4.89c-.245 0-.445.2-.445.445v.444c0 .245.2.445.445.445h.444c.246 0 .445-.2.445-.445v-.444c0-.246-.2-.445-.445-.445zm4 1.334h.445c.245 0 .444-.2.444-.445v-.444a.444.444 0 0 0-.444-.445h-.445c-.245 0-.444.2-.444.445v.444c0 .245.199.445.444.445zm-4-6.667H4.89a.445.445 0 0 0-.445.444v.445c0 .245.2.444.445.444h.444a.444.444 0 0 0 .445-.444v-.445c0-.245-.2-.444-.445-.444zm8 9.333h.445a.444.444 0 0 0 .444-.444v-.445a.444.444 0 0 0-.444-.444h-.445a.444.444 0 0 0-.444.444v.445c0 .245.199.444.444.444zM3.111 11.556h-.444a.444.444 0 0 0-.445.444v.444c0 .246.2.445.445.445h.444c.245 0 .445-.2.445-.445V12c0-.245-.2-.444-.445-.444zm10.222 4h.445c.245 0 .444-.2.444-.445v-.444a.444.444 0 0 0-.444-.445h-.445c-.245 0-.444.2-.444.445v.444c0 .245.199.445.444.445zM16 9.333h-.444V8h-2.667v1.333H11.11V12H8V8.444c0-.981-.796-1.777-1.778-1.777V4.889A.89.89 0 0 0 5.333 4h-.889V.444a.445.445 0 0 0-.888 0V4h-.89a.89.89 0 0 0-.888.889v1.778C.796 6.667 0 7.463 0 8.444v12h16V9.334zm-13.333-4c0-.245.199-.444.444-.444H4.89c.245 0 .444.199.444.444v1.334H2.667V5.333zM7.11 19.556H.89V8.444a.89.89 0 0 1 .889-.888h4.444a.89.89 0 0 1 .89.888v11.112zm4 0H8v-6.667h3.111v6.667zm4 0H12v-9.334h3.111v9.334zm-1.778-6.667h.445c.245 0 .444-.2.444-.445V12a.444.444 0 0 0-.444-.444h-.445a.444.444 0 0 0-.444.444v.444c0 .246.199.445.444.445zM3.111 14.222h-.444c-.246 0-.445.2-.445.445v.444c0 .245.2.445.445.445h.444c.245 0 .445-.2.445-.445v-.444c0-.246-.2-.445-.445-.445zm0 2.667h-.444a.444.444 0 0 0-.445.444v.445c0 .245.2.444.445.444h.444a.445.445 0 0 0 .445-.444v-.445c0-.245-.2-.444-.445-.444z" fill="#5D5D5D" fill-rule="evenodd"/></svg>