<svg width="513" height="513" viewBox="0 0 513 513" xmlns="http://www.w3.org/2000/svg"><title>shapes</title><path d="M75.612 75.48C27.26 123.833.633 188.12.633 256.5c0 41.218 10.033 82.189 29.016 118.485 10.945 20.929 24.88 40.324 41.153 57.515H.633v40h140v-140h-40v73.338c-38.075-39.887-60-93.411-60-149.338 0-119.102 96.896-216 215.999-216 6.632.001 13.317.304 19.87.901l3.628-39.836A260.164 260.164 0 0 0 256.635.5l-.002 20V.5C188.252.5 123.966 27.129 75.612 75.48zM256.632.5h.001zm135.434 424.276l25.101 31.145a258.108 258.108 0 0 0 31.315-29.92l-29.967-26.494a217.903 217.903 0 0 1-26.449 25.269zm-63.623 35.505l13.296 37.727a255.633 255.633 0 0 0 39.517-17.842l-19.497-34.926a215.468 215.468 0 0 1-33.316 15.041zm-71.81 12.219v40c14.47 0 28.986-1.22 43.145-3.624l-6.698-39.436a218.198 218.198 0 0 1-36.447 3.06zm183.708-102.33l33.993 21.082a255.911 255.911 0 0 0 19.629-38.618l-37.069-15.029a215.7 215.7 0 0 1-16.553 32.565zM312.481 47.783a215.221 215.221 0 0 1 34.365 12.395l16.727-36.335a255.154 255.154 0 0 0-40.777-14.706l-10.315 38.646zm118.487 81.163a216.608 216.608 0 0 1 19.047 31.213l35.788-17.867a256.703 256.703 0 0 0-22.574-36.994l-32.261 23.648zm-52.345-50.728a217.965 217.965 0 0 1 28.311 23.152l27.837-28.725a257.892 257.892 0 0 0-33.527-27.415l-22.621 32.988zm84.872 115.912a215.371 215.371 0 0 1 7.515 35.756l39.702-4.873a255.636 255.636 0 0 0-8.914-42.412l-38.303 11.529zm4.19 108.576l39.083 8.514a256.918 256.918 0 0 0 5.6-42.953l-39.959-1.809a216.978 216.978 0 0 1-4.724 36.248z"/></svg>