<svg xmlns="http://www.w3.org/2000/svg" viewBox="0 0 48 48"><path d="M25.5 38.5C17.5 38.5 11 32 11 24S17.5 9.5 25.5 9.5 40 16 40 24s-6.5 14.5-14.5 14.5zm0-27C18.6 11.5 13 17.1 13 24s5.6 12.5 12.5 12.5S38 30.9 38 24s-5.6-12.5-12.5-12.5z"/><path d="M25.5 33.4c-5.2 0-9.4-4.2-9.4-9.4s4.2-9.4 9.4-9.4 9.4 4.2 9.4 9.4-4.2 9.4-9.4 9.4zm0-16.8c-4.1 0-7.4 3.3-7.4 7.4 0 4.1 3.3 7.4 7.4 7.4 4.1 0 7.4-3.3 7.4-7.4 0-4.1-3.3-7.4-7.4-7.4zm19.9 23.3c-.9 0-1.7-.3-2.5-1-.3-.2-.4-.6-.4-.9l1.1-7.2c-1.1-.3-2.5-.9-2.6-2.2-.2-.9 1.3-16.2 4.1-19.5.7-.9 1.7-1.1 2.5-.6.3.2.5.5.5.9v28.8c0 .2-.1.5-.3.7 0 0-1 1-2.4 1zm-.8-2.3c.6.3 1.2.2 1.5 0V11.1c-1.7 3.5-3.2 15.5-3.1 17.3.2.2 1.1.6 1.9.7.5.1.9.6.8 1.1l-1.1 7.4zM5.8 21.8C2.6 21.8 0 18.7 0 15s2.6-6.8 5.8-6.8 5.8 3.1 5.8 6.8-2.6 6.8-5.8 6.8zm0-11.6C3.7 10.2 2 12.4 2 15s1.7 4.8 3.8 4.8c2.1 0 3.8-2.2 3.8-4.8s-1.7-4.8-3.8-4.8z"/><path d="M4.8 20.8h2v18h-2z"/></svg>