<svg width="29" height="34" viewBox="0 0 29 34" xmlns="http://www.w3.org/2000/svg"><title>security</title><path d="M26.583 12.336h-3.625V8.425C22.958 3.772 19.171 0 14.5 0S6.042 3.772 6.042 8.425v3.911H2.417A2.412 2.412 0 0 0 0 14.743v16.85A2.412 2.412 0 0 0 2.417 34h24.166A2.412 2.412 0 0 0 29 31.593v-16.85a2.412 2.412 0 0 0-2.417-2.407zM14.5 26.78a3.618 3.618 0 0 1-3.625-3.61 3.618 3.618 0 0 1 3.625-3.611 3.618 3.618 0 0 1 3.625 3.61 3.618 3.618 0 0 1-3.625 3.61zM8.458 12.336V8.425c0-3.324 2.705-6.018 6.042-6.018 3.337 0 6.042 2.694 6.042 6.018v3.911H8.458z" fill="#383838"/></svg>