<svg xmlns="http://www.w3.org/2000/svg" viewBox="0 0 48 48"><g fill="#010101"><path d="M1.7 33.9L.4 32.4c.6-.5 1.4-.9 2.1-1.2.4-.2.7-.3 1-.5 1.1-.6 2.2-1.1 3.5-1.2 2-.3 4.8-.7 7-.2 1.1.3 2.2.8 3.2 1.3.5.2 1 .5 1.5.7 1 .4 2.1.4 3.3.3h1c1.6 0 3.1-.6 4.6-1.2C29.3 29.7 31 29 33 29c1.9 0 3.3.1 5.1.8 1.6.6 3.2 1.1 4.7 1.5 1.3.3 2 .1 3.4-.4l.4-.1.6 1.9-.4.1c-1.5.5-2.6.8-4.5.4-1.6-.4-3.3-.9-4.9-1.5-1.4-.6-2.5-.7-4.3-.7-1.6 0-3.1.6-4.6 1.2-1.7.7-3.4 1.4-5.4 1.4h-.9c-1.4 0-2.7.1-4.1-.5-.5-.2-1.1-.5-1.7-.7-.9-.4-1.9-.9-2.8-1.1-1.8-.5-4.4-.1-6.3.2-1 .1-1.9.5-2.8 1-.4.2-.8.4-1.2.5-.7.3-1.3.5-1.6.9zm0 6.4L.4 38.8c.6-.5 1.4-.9 2.1-1.2.4-.2.7-.3 1-.5 1.1-.5 2.2-1.1 3.5-1.2 2-.3 4.8-.7 7-.2 1.1.3 2.2.8 3.2 1.2.5.2 1 .5 1.5.7 1 .4 2.1.4 3.3.3h1c1.6 0 3.1-.6 4.6-1.2 1.7-.7 3.4-1.4 5.4-1.4 1.9 0 3.3.1 5.1.8 1.6.6 3.2 1.1 4.7 1.5 1.3.3 2 .1 3.4-.4l.4-.1.6 1.9-.4.1c-1.5.5-2.6.8-4.5.4-1.6-.4-3.3-.9-4.9-1.5-1.5-.5-2.7-.6-4.4-.6-1.6 0-3.1.6-4.6 1.2-1.7.7-3.4 1.4-5.4 1.4h-.9c-1.3 0-2.7.1-4.1-.5-.5-.2-1.1-.5-1.7-.7-.9-.4-1.9-.9-2.8-1.1-1.8-.5-4.4-.1-6.3.2-1 .1-1.9.5-2.8 1-.4.2-.8.4-1.2.5-.6.3-1.2.5-1.5.9z"/><path d="M20.6 29.7h-2V13.3c0-1.1-.3-1.9-.9-2.6-1.3-1.2-3.4-1.2-3.4-1.2v-2c.1 0 3 0 4.9 1.8 1 1 1.5 2.4 1.5 4v16.4zM35 27.4h-2V13.3c0-1.1-.3-1.9-.9-2.6-1.3-1.2-3.4-1.2-3.4-1.2v-2c.1 0 3 0 4.9 1.8 1 1 1.5 2.4 1.5 4v14.1z"/><path d="M19.8 14.4h14v2h-14zm0 5h14v2h-14zm0 5h14v2h-14z"/></g></svg>