<svg width="16" height="16" viewBox="0 0 16 16" xmlns="http://www.w3.org/2000/svg"><title>Shape</title><path d="M3.616 12.095a.483.483 0 0 0 .484-.484v-.967a.484.484 0 0 0-.484-.484h-.965a.485.485 0 0 0-.484.484v.967c0 .267.218.484.484.484h.965zm2.9 0a.483.483 0 0 0 .482-.484v-.967a.484.484 0 0 0-.483-.484H5.55a.484.484 0 0 0-.483.484v.967c0 .267.217.484.483.484h.966zm8.211-3.516v5.934a.484.484 0 0 1-.482.484h-1.45v-4.111c0-.4-.324-.726-.725-.726H9.656c-.4 0-.725.325-.725.726v4.11H1.685a.483.483 0 0 1-.483-.483V8.579a.951.951 0 0 1-.966 0v6.418c0 .535.432.967.966.967h7.729c.966 0 .966-.967.966-.967v-3.87h1.931v3.87c0 .967.968.967.968.967h1.931a.966.966 0 0 0 .967-.967V8.579a.957.957 0 0 1-.966 0zm.967-4.706l-.967-.967V1.455a.966.966 0 0 0-.966-.967H2.167a.966.966 0 0 0-.965.967v1.45l-.966.968v1.935H.234s.009.954.009 1.45H.236c.018.484.477.484.477.484.496 0 .496-.484.496-.484v-.015c.105-.274.415-.468.724-.468.316 0 .63.202.732.483h-.01c.018.484.476.484.476.484.493 0 .493-.484.493-.484h-.006c.1-.281.415-.483.73-.483.316 0 .632.202.73.483.018.484.472.484.472.484.49 0 .483-.484.483-.484s.135-.483.73-.483c.598 0 .728.483.728.483 0 .478.474.484.474.484s.483 0 .483-.484c0-.483.643-.483.728-.483.698 0 .737.483.737.483.018.484.47.484.47.484.486 0 .48-.484.48-.484s.073-.483.731-.483.732.483.732.483h-.001c.018.484.47.484.47.484.49 0 .484-.484.484-.484s.121-.483.73-.483c.61 0 .73.483.73.483.018.484.472.484.472.484.49 0 .49-.484.49-.484 0-.496.008-1.45.008-1.45l-.015-1.935zM14.01 5.808c-.473 0-.9.194-1.208.507a1.682 1.682 0 0 0-1.208-.507c-.473 0-.901.194-1.207.507a1.687 1.687 0 0 0-2.416 0 1.682 1.682 0 0 0-1.207-.507c-.473 0-.902.194-1.207.507a1.687 1.687 0 0 0-2.417 0 1.682 1.682 0 0 0-1.207-.507c-.478 0-.532.08-.736.251.007-.035.005-.251.005-.251V4.357l.965-.968V1.94c0-.267.218-.484.484-.484h10.627c.266 0 .483.217.483.483V3.39l.966.968v1.45l.019.107s-.527-.106-.736-.106z"/></svg>