<svg width="472" height="390" viewBox="0 0 472 390" xmlns="http://www.w3.org/2000/svg"><title>swimming, swim, water, pool</title><g stroke="#000" stroke-width="15" fill="none" fill-rule="evenodd" stroke-linecap="round" stroke-linejoin="round"><path d="M464.129 306.926c-10.398-5.824-21.142-11.844-33.206-15.105a58.03 58.03 0 0 0-14.941-1.932c-20.266 0-39.898 9.944-56.708 19.265-13.347 7.367-25.795 11.102-37.011 11.102-5.677 0-11.03-.99-15.898-2.938-7.164-2.884-14.112-6.718-21.473-10.771-14.057-7.748-28.59-15.759-45.082-16.931a56.372 56.372 0 0 0-3.755-.127c-18.178 0-34.855 8.976-50.983 17.654-4.633 2.5-9.423 5.075-14.109 7.352-7.471 3.61-15.538 5.439-23.987 5.439-9.6 0-19.447-2.464-28.471-7.125a715.15 715.15 0 0 1-8.3-4.397l-.226-.121c-17.198-9.202-34.976-18.727-53.844-18.727-2.571 0-5.146.181-7.659.524-14.867 2.122-27.949 9.412-40.605 16.458m456.258 62.13c-10.398-5.827-21.142-11.845-33.206-15.105a58.074 58.074 0 0 0-14.941-1.932c-20.266 0-39.898 9.944-56.708 19.264-13.347 7.369-25.795 11.1-37.011 11.1-5.677 0-11.03-.987-15.898-2.939-7.164-2.885-14.112-6.713-21.473-10.77-14.057-7.75-28.59-15.761-45.082-16.929a53.795 53.795 0 0 0-3.755-.129c-18.178 0-34.855 8.979-50.983 17.657-4.633 2.498-9.423 5.07-14.109 7.349-7.471 3.614-15.538 5.442-23.987 5.442-9.6 0-19.447-2.469-28.471-7.127a685.825 685.825 0 0 1-8.3-4.399l-.226-.119c-17.198-9.205-34.976-18.729-53.844-18.729-2.571 0-5.146.182-7.659.529-14.867 2.116-27.949 9.407-40.605 16.455m346.771-84.563c7.486-6.538 13.62-12 15.302-13.311 11.047-8.568 13.062-24.46 4.498-35.51l-40.701-52.507-31.962-41.303c-.107-.143-.25-.25-.363-.388l-49.788-64.23L373.167 58.34c13.82-2.063 23.361-14.943 21.293-28.771-2.059-13.822-14.958-23.354-28.766-21.292L201.407 32.802a25.311 25.311 0 0 0-19.754 15.602 25.315 25.315 0 0 0 3.487 24.935l61.411 79.216L93.338 274.767"/><path d="M457.958 148.159c-.775 29.376-25.224 52.556-54.592 51.777-29.38-.78-52.562-25.229-51.783-54.604.784-29.374 25.229-52.555 54.604-51.774 29.37.78 52.556 25.226 51.771 54.601z"/></g></svg>