<svg xmlns="http://www.w3.org/2000/svg" viewBox="0 0 48 48"><path fill="none" stroke="#000" stroke-width="2" stroke-miterlimit="10" d="M5.9 16.6h39v-5H1v22.6h4.9z"/><path d="M10.3 20H9.2v-.4h2.7v.4h-1.1v3.2h-.5V20zm2.5-.4v3.6h-.5v-3.6h.5zm3.3 3.5c-.2.1-.5.2-1 .2-1 0-1.8-.6-1.8-1.8 0-1.1.8-1.9 1.9-1.9.5 0 .7.1.9.2l-.1.3c-.2-.1-.4-.2-.7-.2-.9 0-1.4.5-1.4 1.5 0 .9.5 1.5 1.4 1.5.3 0 .6-.1.8-.2v.4zm.6-3.5h.5v1.8c.1-.1.2-.3.3-.4l1.1-1.4h.6l-1.3 1.5 1.4 2.1h-.6l-1.2-1.8-.3.4v1.4h-.5v-3.6zm3.8.4h-1.1v-.4h2.7v.4H21v3.2h-.5V20z"/><path fill="none" stroke="#000" stroke-width="2" stroke-miterlimit="10" d="M37 28.4H22.1M37 32.2H22.1m21.6-11.4H37m6.7 3.8H37m10-8H5.9v19.8h33.2l7.9-6.7z"/><path fill="none" stroke="#000" stroke-width="2" stroke-linecap="round" stroke-linejoin="round" stroke-miterlimit="10" d="M39.4 36.2l7.3-6.3h-7.3z"/></svg>