<svg height="512" viewBox="0 0 512 512" width="512" xmlns="http://www.w3.org/2000/svg"><path d="M220.716 512c-50.951 0-99.868-21.715-134.208-59.576a7.515 7.515 0 0 1 11.133-10.098c31.497 34.728 76.356 54.645 123.075 54.645 26.573 0 53.009-6.431 76.447-18.596 22.669-11.765 42.639-28.903 57.749-49.562a15.705 15.705 0 0 0 2.864-11.757c-.648-4.173-2.882-7.845-6.291-10.339s-7.589-3.517-11.758-2.864a15.707 15.707 0 0 0-10.339 6.29c-25.285 34.567-65.91 55.204-108.672 55.204-74.186 0-134.541-60.355-134.541-134.541 0-25.694 7.263-50.666 21.003-72.218 13.388-21 32.269-37.863 54.601-48.764 5.793-2.829 9.367-9.085 8.829-15.522-.533-6.384-5.012-11.922-11.124-13.802a15.86 15.86 0 0 0-11.577.906 166.552 166.552 0 0 0-67.393 60.183c-16.983 26.638-25.961 57.488-25.961 89.218 0 31.47 8.877 62.121 25.67 88.641a7.514 7.514 0 0 1-2.328 10.369 7.513 7.513 0 0 1-10.369-2.328c-18.32-28.929-28.003-62.361-28.003-96.682 0-34.598 9.792-68.243 28.317-97.298 18.01-28.25 43.416-50.937 73.473-65.61 7.402-3.613 15.77-4.13 23.56-1.45 7.791 2.679 14.071 8.232 17.685 15.635 3.613 7.402 4.129 15.77 1.449 23.561-2.679 7.79-8.231 14.07-15.634 17.684a119.953 119.953 0 0 0-48.521 43.34c-12.199 19.133-18.647 41.311-18.647 64.138 0 65.899 53.613 119.512 119.512 119.512 37.986 0 74.076-18.336 96.541-49.048 4.864-6.65 12.025-11.007 20.166-12.269 8.135-1.263 16.286.72 22.935 5.586 6.649 4.863 11.006 12.024 12.268 20.164 1.263 8.141-.72 16.287-5.585 22.935-16.471 22.518-38.24 41.201-62.955 54.028C278.518 504.985 249.689 512 220.716 512zm32.2-415.974c-26.475 0-48.013-21.539-48.013-48.014C204.904 21.538 226.442 0 252.916 0c26.475 0 48.014 21.538 48.014 48.013 0 26.474-21.539 48.013-48.014 48.013zm0-80.997c-18.187 0-32.983 14.796-32.983 32.983 0 18.188 14.797 32.984 32.983 32.984 18.188 0 32.984-14.797 32.984-32.984.001-18.186-14.796-32.983-32.984-32.983z"/><path d="M439.566 366.168a7.517 7.517 0 0 1-7.042-4.89l-15.136-40.581c-4.424-12.068-15.996-20.151-28.808-20.152h-97.477a7.514 7.514 0 0 1-7.515-7.515v-71.143a7.514 7.514 0 0 1 7.515-7.515h91.071c8.743 0 15.856-7.114 15.856-15.857s-7.113-15.856-15.856-15.856h-91.071a7.514 7.514 0 0 1-7.515-7.515v-15.399c0-16.913-13.759-30.672-30.672-30.672-16.912 0-30.671 13.759-30.671 30.672v81.221c0 4.151-3.364 7.515-7.515 7.515s-7.515-3.364-7.515-7.515v-81.221c0-25.2 20.501-45.702 45.701-45.702s45.702 20.502 45.702 45.702v7.884h83.557c17.03 0 30.885 13.855 30.885 30.886s-13.855 30.887-30.885 30.887h-83.557v56.113h89.962c19.092.001 36.334 12.044 42.905 29.969l15.121 40.541a7.514 7.514 0 0 1-7.04 10.143z"/><path d="M441.561 461.828c-4.426 0-8.836-.964-12.97-2.88-7.485-3.47-13.171-9.646-16.012-17.391l-27.832-74.103c-4.431-12.085-16.003-20.167-28.815-20.167H252.918c-25.201 0-45.702-20.502-45.702-45.703v-30.559c0-4.151 3.364-7.515 7.515-7.515s7.515 3.364 7.515 7.515v30.559c0 16.913 13.76 30.673 30.673 30.673h103.015c19.091 0 36.334 12.043 42.906 29.968l27.832 74.103c3.029 8.264 12.16 12.493 20.366 9.484 3.977-1.458 7.148-4.377 8.929-8.219s1.958-8.149.5-12.125l-13.407-35.946a7.515 7.515 0 0 1 14.082-5.252l13.422 35.985c2.854 7.785 2.508 16.173-.961 23.658s-9.645 13.171-17.39 16.012a30.953 30.953 0 0 1-10.652 1.903z"/></svg>