<?xml version="1.0" standalone="no"?>
<!DOCTYPE svg PUBLIC "-//W3C//DTD SVG 1.1//EN" "http://www.w3.org/Graphics/SVG/1.1/DTD/svg11.dtd" >
<svg xmlns="http://www.w3.org/2000/svg" xmlns:xlink="http://www.w3.org/1999/xlink" version="1.1">
<metadata>
Created by FontForge 20170910 at Tue Jan  9 22:12:36 2018
 By Jimmy Wärting
Copyright (c) 2018 by Set Sail Studios LTD. All rights reserved.
</metadata>
<defs>
<font id="SilverSouthSerif" horiz-adv-x="816" >
  <font-face 
    font-family="Silver South Serif"
    font-weight="400"
    font-stretch="normal"
    units-per-em="1000"
    panose-1="0 0 0 0 0 0 0 0 0 0"
    ascent="802"
    descent="-198"
    x-height="799"
    cap-height="799"
    bbox="-1 -198 1134 1014.64"
    underline-thickness="50"
    underline-position="-100"
    unicode-range="U+000D-20AC"
  />
<missing-glyph horiz-adv-x="362" 
 />
    <glyph glyph-name=".notdef" horiz-adv-x="362" 
 />
    <glyph glyph-name="NULL" horiz-adv-x="0" 
 />
    <glyph glyph-name="NULL" horiz-adv-x="0" 
 />
    <glyph glyph-name="nonmarkingreturn" unicode="&#xd;" horiz-adv-x="362" 
 />
    <glyph glyph-name="space" unicode=" " horiz-adv-x="362" 
 />
    <glyph glyph-name="E" unicode="E" horiz-adv-x="769" 
d="M465 6q41 0 74 10t58.5 26t44.5 36.5t33 42.5q32 51 45 116h7l-29 -238h-7h-305h-349v7q34 0 57.5 3.5t37.5 14.5t20 30t6 51v577q0 3 -0.5 6t-0.5 6q0 55 -19.5 75.5t-69.5 23.5h-32v6h228h399h7v-210h-7v1q-8 33 -18.5 69t-32.5 65.5t-60 49t-100 19.5h-30h-158v-111
v-280h143q43 1 67.5 19.5t37 41.5t15.5 44t3 28v3h7v-136v-6v-137h-7v3q0 7 -3 29t-16 45.5t-38.5 41.5t-70.5 18h-7h-131v-274q1 -5 1 -18q0 -28 4.5 -46t15 -29t27.5 -16.5t42 -6.5h111v0z" />
    <glyph glyph-name="F" unicode="F" horiz-adv-x="673" 
d="M24 8q34 0 57 3.5t37 14.5t20 30t6 51v576v13q0 28 -4.5 46t-15 29t-28 16t-42.5 7h-31v8h228h399h7v-212h-7v2q-8 33 -18.5 68.5t-32.5 65t-60 49t-100 19.5h-30h-158v-110v-279h143q43 1 67.5 19t36.5 41t15.5 44t3.5 29v3h6v-136v-7v-136h-6v3q0 7 -3.5 29t-16 45
t-38 41t-70.5 18h-7h-131v-274v-18q0 -27 4.5 -45.5t15 -29.5t28 -16.5t42.5 -6.5h31v-7h-348v7v0z" />
    <glyph glyph-name="G" unicode="G" horiz-adv-x="822" 
d="M42 401q0 41 7 80t21 77q27 71 76 128q48 56 112 87q66 32 136 32q49 0 98 -19l2 -1l4 -2q7 -3 13.5 -6.5t13.5 -6.5q52 -25 82.5 -25t45.5 10q18 11 23 35h6v-291h-6q-10 72 -38 132q-25 53 -65 93q-39 37 -83 55q-37 16 -80 19v-1q-54 0 -101 -31t-82 -85t-55 -126
t-20 -154q0 -106 33 -194.5t88 -140.5q25 -23 48 -35.5t40 -18.5q22 -7 49 -7q40 1 79 17q32 14 64 38q4 4 12 12.5t16 22t14 32.5t6 43v93q0 22 -10.5 34.5t-28 18.5t-41.5 7t-51 1v8h320v-8q-23 0 -38.5 -1t-25.5 -5.5t-14.5 -14.5t-4.5 -27v-174v-48h-7
q-19 18 -45.5 16.5t-57 -12.5t-64 -26.5t-66.5 -24.5q-35 -9 -73 -9q-73 0 -136 31q-32 16 -60 37t-52 50q-49 57 -76 128q-14 38 -21 76.5t-7 80.5z" />
    <glyph glyph-name="H" unicode="H" horiz-adv-x="909" 
d="M538 801h344h4v-5l1 -1h-1v-1h-40q-45 -5 -62.5 -25t-17.5 -73v-13v-560v-17q0 -28 4.5 -46.5t15 -29.5t28 -16.5t42.5 -6.5h31v-7h-349v7q34 0 57.5 3.5t37.5 14.5t20 30t6 51v291h-404v-274v-17q0 -28 4.5 -46.5t15 -29.5t28 -16.5t42.5 -6.5h31v-7h-349v7
q34 0 57.5 3.5t37.5 14.5t20 30t6 51v576v13q0 28 -4.5 46t-15 29.5t-28 16.5t-42.5 7h-32v7h344h1h4v-5l1 -1h-1v-1h-41q-22 -2 -37 -8t-24.5 -17t-13.5 -29t-4 -44v-13v-279h404v278v13q0 55 -19.5 75.5t-69.5 23.5h-32v7z" />
    <glyph glyph-name="I" unicode="I" horiz-adv-x="421" 
d="M38 6q34 0 57.5 3.5t37.5 14.5t20 30t6 51v577v12q0 55 -19.5 75.5t-69.5 23.5h-32v6h344h4v-5h1h-1v-1h-40q-45 -5 -62.5 -25t-17.5 -73v-13v-560v-18q0 -28 4.5 -46t15 -29t28 -16.5t42.5 -6.5h31v-7h-349v7v0z" />
    <glyph glyph-name="J" unicode="J" horiz-adv-x="590" 
d="M23 153q-5 22 -6 48v7q0 27 19 46.5t46 19.5q28 0 47 -19.5t19 -46.5q0 -17 -6.5 -30t-17.5 -22q-17 -14 -27 -34t-8.5 -41t18 -39.5t52.5 -30.5q15 -4 31.5 -6t31.5 -3h11q24 0 41.5 9t30 23.5t20 33t12.5 38.5q11 46 8 105v465v15q0 33 -4.5 54.5t-15 35t-28 19.5
t-42.5 8h-31v8h344h4v-8h-41q-22 -2 -37 -9t-24.5 -20t-13.5 -34t-4 -52v-16v-466v-1q0 -43 -16 -82t-46 -70q-30 -29 -66.5 -44.5t-77.5 -17.5h-1h-7h-16q-21 0 -45.5 4.5t-42.5 12.5q-26 11 -45 29q-5 3 -9 7.5t-9 8.5q-4 5 -7 8.5t-6 7.5v1q-25 35 -35 77v1z" />
    <glyph glyph-name="K" unicode="K" horiz-adv-x="909" 
d="M550 9q12 1 24.5 3.5t20 8t7 15.5t-15.5 25l-300 321q-14 16 -20 20t-11 4h-1v-285v-18q0 -27 4.5 -45t15 -29t28 -16.5t42.5 -6.5h31v-8h-349v8q34 0 57.5 3.5t37.5 14t20 30t6 50.5v577q0 3 -0.5 6t-0.5 7q0 27 -4.5 45.5t-14.5 29.5t-27 16t-42 7h-32v6h344h4v-4v-2
h-40q-45 -5 -62.5 -25t-17.5 -73v-12v-269q5 0 11 2.5t21 16.5l192 169q8 6 12 10q46 40 70 70.5t27.5 52.5t-10.5 36.5t-44 24.5v7h309v-7q-47 0 -86 -11.5t-73 -30t-62.5 -40.5t-52.5 -43l-213 -186l383 -416q19 -21 37 -33t35 -18t35 -7t38 -1v-7h-360v7h27v0z" />
    <glyph glyph-name="L" unicode="L" horiz-adv-x="737" 
d="M678 -1h-297h-348v7q34 0 57 3.5t37 14.5t20 30t6 51v577v12q0 55 -20 75.5t-70 23.5h-31v6h344h4v-5h1h-1v-1h-41q-22 -2 -37 -8t-24.5 -17t-13.5 -29t-4 -44v-13v-560v-18q0 -28 4.5 -46t15 -29t27.5 -16.5t43 -6.5h100q41 0 74 10t58.5 26t44.5 36.5t33 42.5
q32 51 46 116h7l-29 -238h-6z" />
    <glyph glyph-name="M" unicode="M" horiz-adv-x="1062" 
d="M687 6q34 0 57 4t37 14.5t20 30t6 51.5v303v115.5v105.5t0.5 82.5t0.5 45.5l-307 -588h-8l-291 552v-592q0 -41 18.5 -65t44 -37.5t52 -17.5t41.5 -4h16v-6h-349v6h15q16 0 42.5 4t51.5 17.5t43.5 37.5t18.5 65v548q0 24 -1 45t-9.5 36.5t-27 24.5t-52.5 9h-32v7h209
l270 -515l269 515h212v-7h-40q-45 0 -62.5 -22t-17.5 -75v-591q0 -56 22 -77.5t68 -21.5h31v-6h-348v6v0z" />
    <glyph glyph-name="N" unicode="N" horiz-adv-x="1005" 
d="M973 799v-7h-15q-16 0 -42.5 -4.5t-51.5 -17t-43.5 -36.5t-18.5 -64v-671h-8l-588 736v-606q0 -41 18.5 -65t43.5 -36.5t51.5 -17t42.5 -4.5h15v-7h-171h-8h-171v7h15q16 0 42.5 4.5t51.5 17t43.5 36.5t18.5 65v569q0 24 -1 41.5t-9 29.5t-26.5 17.5t-53.5 5.5h-31v7h121
h8h85l503 -625v496q0 40 -18.5 64t-43.5 36.5t-51.5 17t-42.5 4.5h-15v7h171h8h171z" />
    <glyph glyph-name="O" unicode="O" 
d="M30 406q0 85 28 157q25 72 75 129q49 57 110 86q66 32 137 32h16h26h16q70 0 136 -32q64 -30 112 -86q50 -59 76 -129q27 -74 27 -157q0 -84 -27 -157q-26 -70 -76 -129q-48 -56 -112 -86q-66 -32 -136 -32h-16h-26h-16q-71 0 -137 32q-61 29 -110 86q-50 57 -75 129
q-28 72 -28 157zM139 406q0 -81 18.5 -153t55.5 -128q7 -12 15.5 -23t17.5 -20q31 -31 60.5 -46.5t47.5 -22.5q9 -2 19 -4t21 -2h8h22q11 0 20 2t20 4q17 7 46.5 22.5t61.5 46.5q8 9 16.5 20t16.5 23q37 56 56 128t19 153t-19 153t-56 128q-8 12 -16.5 23t-16.5 20
q-32 31 -61.5 46.5t-46.5 22.5q-11 2 -20 3.5t-20 1.5h-22h-8q-20 0 -40 -5q-18 -7 -47.5 -22.5t-60.5 -46.5q-9 -9 -17.5 -20t-15.5 -23q-37 -56 -55.5 -128t-18.5 -153z" />
    <glyph glyph-name="P" unicode="P" horiz-adv-x="674" 
d="M22 -1v7q34 0 57.5 3.5t37.5 14.5t20 30t6 51v577v12q0 55 -19.5 75.5t-69.5 23.5h-32v6h312h32h9h19h8q66 0 116 -15q47 -15 80 -43q30 -26 45.5 -62.5t15.5 -80.5q0 -90 -61 -143q-30 -27 -80 -43q-48 -16 -116 -16h-8h-106h-38v-274v-18q0 -28 4.5 -46t15 -29
t28 -16.5t42.5 -6.5h30h1l-1 -1v-6h-120h-107h-121zM250 402h38h106q49 0 85 25q11 8 22.5 20.5t20.5 29.5q13 24 20 54.5t7 66.5q0 86 -37 138q-41 57 -118 57h-19h-5h-40q-45 -5 -62.5 -25t-17.5 -73v-13v-280z" />
    <glyph glyph-name="Q" unicode="Q" horiz-adv-x="832" 
d="M793 406q0 -83 -27 -156t-76 -129q-50 -57 -112 -87q-32 -15 -66.5 -23.5t-70.5 -8.5h-15h-4l-149 -66q17 5 36 9t38 4q24 0 47 -6.5t46 -14t48 -13.5t54 -6q26 0 52.5 3.5t47.5 13.5t34 26t13 42h6v-5q0 -6 -0.5 -20t-5 -31t-14.5 -35t-28.5 -32.5t-47 -24t-69.5 -9.5
q-50 0 -91 17.5t-76 36.5t-65.5 30.5t-59.5 -1.5q-25 -15 -31 -35.5t-6 -47.5q0 -14 -10.5 -24.5t-24.5 -10.5t-24.5 10.5t-10.5 24.5q0 28 25.5 47t55.5 33q5 1 13 5l181 80h-6h-16q-36 0 -70.5 8.5t-67.5 23.5q-31 15 -58 37t-51 50q-50 56 -76 129q-14 37 -20.5 76
t-6.5 80v1q0 42 6.5 80.5t20.5 76.5q25 70 76 129q47 54 109 86q67 32 138 32h16h26h15q71 0 137 -32q32 -16 60 -37t52 -49q50 -59 76 -129q27 -75 27 -157v-1zM684 407q0 81 -19.5 153t-55.5 128q-17 24 -34 43q-31 31 -60.5 46.5t-46.5 22.5q-23 5 -40 5h-22h-8
q-19 0 -41 -5q-17 -7 -46.5 -22.5t-60.5 -46.5q-9 -10 -17.5 -20.5t-16.5 -22.5q-36 -56 -55 -128t-19 -153v-1q0 -80 19 -152t55 -128q8 -12 16.5 -23t17.5 -21q31 -30 60.5 -46t46.5 -22q19 -6 41 -6h8h22q19 0 40 6q17 6 46.5 22t60.5 46q9 10 17.5 21t16.5 23
q36 56 55.5 128t19.5 152v1z" />
    <glyph glyph-name="R" unicode="R" horiz-adv-x="851" 
d="M21 -1v7h1q34 0 57.5 3.5t37 14.5t19.5 30t6 51v577v12q0 55 -19.5 75.5t-69.5 23.5h-32v6h312h32h1h8h20h8q65 0 116 -15q45 -15 80 -43q30 -26 45.5 -62.5t15.5 -80.5q0 -90 -61 -143q-32 -27 -80 -43q-22 -8 -46.5 -11t-51.5 -5q20 -5 44.5 -21t53.5 -55l188 -261
q14 -19 33.5 -29.5t38 -16t32.5 -6.5t17 -1h1v-7h-78h-116h-6l-244 338q-15 20 -27.5 31.5t-24 17.5t-22.5 8t-23 2h-37v-274v-18q0 -28 4.5 -46t15 -29t27.5 -16.5t42 -6.5h31v-1v-6h-120h-108h-121zM250 402h37h107q48 0 84 25q11 8 22.5 20.5t21.5 29.5q12 24 19 54.5
t7 66.5q0 86 -37 138q-41 57 -117 57h-20h-4h-41q-22 -2 -37 -8t-24.5 -17t-13.5 -29t-4 -44v-13v-280z" />
    <glyph glyph-name="S" unicode="S" horiz-adv-x="608" 
d="M46 253h7h1q0 -21 5 -46.5t14 -51t22 -48.5t29 -37q32 -28 72 -43.5t85 -16.5h9q45 2 85 17q43 20 68 57t26.5 79.5t-23.5 85t-82 72.5l-126 65q-63 32 -100 70.5t-52.5 79t-11.5 80.5t24 75t53.5 62t76.5 43q20 8 40 11t41 3q47 0 90 -17q16 -6 34 -12t36 -7t34 6t28 27
h7v-214v-3h-8q0 21 -6.5 44t-17.5 44.5t-25 40t-28 31.5q-29 26 -66 39.5t-78 13.5q-17 0 -34.5 -2.5t-33.5 -7.5q-46 -15 -71.5 -48t-21 -76t44.5 -91.5t125 -96.5l115 -59q54 -29 87 -68.5t44 -82.5t1 -86t-41.5 -79.5t-83.5 -63t-125 -36.5h2q-8 -1 -14.5 -1.5
t-13.5 -0.5h-10q-45 0 -87 17v-1v1q-6 2 -10 4q-41 16 -66 15.5t-38.5 -8t-18.5 -18t-6 -13.5v-1h-7v253z" />
    <glyph glyph-name="T" unicode="T" horiz-adv-x="770" 
d="M718 592v2q-8 31 -18 64.5t-29.5 62.5t-53 49t-87.5 24h-9q-44 -4 -61.5 -24.5t-17.5 -72.5v-13v-560v-18q0 -27 4.5 -45.5t15 -29.5t27.5 -16.5t42 -6.5h31v-7h-348v7q34 0 57.5 3.5t37 14.5t19.5 30t6 51v576v13q0 28 -4.5 46t-15 29t-27.5 16t-42 7h-6q-54 -4 -87 -24
t-53 -49t-30 -62.5t-17 -64.5v-2h-7v210h680v-210h-7z" />
    <glyph glyph-name="U" unicode="U" horiz-adv-x="931" 
d="M554 801h349v-7h-15q-16 -1 -42 -5t-51.5 -17t-44 -37t-18.5 -64v-433q0 -51 -22 -95.5t-64 -78.5q-41 -32 -94 -49t-113 -17h-3h-1h-2q-58 0 -109 17t-91 49q-42 34 -64.5 79t-22.5 106v473q-3 39 -23 54.5t-65 17.5h-32v8h344h1h4v-5l1 -1h-1v-2h-41q-36 -3 -54 -17
t-23 -47v-474q0 -59 18 -110t53.5 -85t86.5 -47.5t117 2.5q61 16 110 54q38 29 60 73q23 43 23 95v438q-1 39 -20 62t-44 35t-51 16t-41 5h-15v7z" />
    <glyph glyph-name="V" unicode="V" horiz-adv-x="870" 
d="M472 134l215 538q12 30 9 50.5t-15 34t-30 21t-34.5 11t-28.5 4t-13 0.5v7h267v-7q-1 0 -17 -2t-38.5 -13.5t-47.5 -35.5t-43 -69l-270 -672h-8l-268 669q-18 45 -33 68.5t-29.5 35t-30.5 14t-35 5.5v7h328v-7q-36 -2 -62 -4.5t-38.5 -14t-11 -36t19.5 -69.5z" />
    <glyph glyph-name="W" unicode="W" horiz-adv-x="1136" 
d="M1110 793h-5q-9 0 -27.5 -3.5t-40.5 -15.5t-42.5 -35.5t-32.5 -64.5l-198 -673h-7l-198 665l-194 -665h-8l-200 674l-4 13q-12 40 -25.5 60.5t-29 29.5t-32.5 10.5t-36 4.5h-1v7h328v-7h-3q-26 0 -49 -1.5t-37 -12t-17 -34t11 -67.5l147 -500l147 500q-2 3 -2 5.5t-1 4.5
q-12 40 -25.5 60.5t-29 29.5t-33 10.5t-35.5 4.5h-1v7h328v-7h-3q-26 0 -48.5 -1t-37 -11.5t-17.5 -34t11 -68.5l147 -500l152 520q9 33 -3.5 51.5t-33.5 28.5t-43.5 12.5t-32.5 2.5h-6v7h268v-7z" />
    <glyph glyph-name="X" unicode="X" horiz-adv-x="886" 
d="M566 6q36 0 48 14.5t-8 46.5l-197 299l-131 -197q-26 -39 -35.5 -66t-8 -45t10.5 -28.5t20.5 -15.5t23 -6.5t17.5 -1.5v-7h-140h-8h-121v7h9q10 1 33 6t53.5 21.5t66 48.5t71.5 86l135 205l-225 341q-2 2 -4 6q-17 25 -35.5 39t-36 21.5t-33 10t-25.5 2.5h-8v6h317v-6
h-26q-35 0 -47.5 -16.5t8.5 -47.5l196 -299l136 208q35 55 37.5 86t-10 46.5t-31.5 19t-28 3.5v6h139h8h121v-6h-9q-10 -1 -32.5 -6t-52.5 -21t-65 -47t-70 -83l-139 -211l228 -347q16 -25 35 -39t36.5 -21.5t32.5 -9.5t25 -2h10v-7h-319v7h28v0z" />
    <glyph glyph-name="Y" unicode="Y" horiz-adv-x="893" 
d="M475 342v-220v-19q0 -55 20 -76t71 -21h31v-8h-349v8q34 0 57 3.5t37 14t20 30t6 50.5v238q-50 92 -84.5 155.5t-57.5 105.5t-35.5 65t-18.5 34.5t-7.5 14.5t-2.5 4q-14 25 -35 40t-42 22t-38 9t-24 2v6h311v-6h-17q-11 -1 -25 -3.5t-24 -9t-13.5 -18t7.5 -30.5l209 -384
l154 281q22 41 30.5 69t7 46t-9.5 27.5t-18.5 14t-21 5.5t-16.5 1v7h268v-7h-4q-10 0 -36 -5.5t-59 -22.5t-69 -49t-65 -86z" />
    <glyph glyph-name="Z" unicode="Z" horiz-adv-x="682" 
d="M34 562l29 238h4h3h472h128l-4 -7l-514 -786h246q41 0 74 10t58.5 26t44.5 36.5t33 42.5q32 51 45 116h7l-29 -238h-7h-599v7l513 786h-240q-41 0 -74 -10t-59 -26.5t-45.5 -37t-32.5 -42.5q-33 -51 -45 -115h-8z" />
    <glyph glyph-name="D" unicode="D" horiz-adv-x="870" 
d="M734 117q-51 -57 -119 -87q-73 -31 -153 -31h-81h-121h-107h-120v7q34 0 57 3.5t37 14.5t20 30t6 51v577v12q0 55 -20 75.5t-70 23.5h-31v6h344h2h39h22h12.5h10.5q84 0 153 -31q68 -30 119 -86q50 -55 76.5 -128t26.5 -155t-26.5 -154.5t-76.5 -127.5zM557 37
q25 15 47.5 36t41.5 48q38 55 59 126t21 152t-21 153t-59 126q-19 27 -41.5 48t-47.5 36q-48 28 -107 31h-70h-41q-22 -2 -37 -8t-24.5 -17t-13.5 -29t-4 -44v-13v-560q0 -4 0.5 -8.5t0.5 -9.5q0 -28 4.5 -46t14.5 -29t27 -16.5t43 -6.5h28h63q60 0 116 31z" />
    <glyph glyph-name="zero" unicode="0" horiz-adv-x="622" 
d="M570 232q-10 -37 -25 -68.5t-35 -58.5q-39 -54 -91 -83t-111 -29t-111 28.5t-91 82.5q-20 27 -35 58.5t-25 67.5q-12 39 -17.5 80t-5.5 85q0 56 8 104.5t23 92.5q2 7 4.5 13.5t5.5 12.5q8 20 19 38.5t23 35.5q20 26 42.5 45.5t48.5 32.5q50 28 111 28q59 0 111 -28
t91 -80q20 -27 35 -59t25 -69q12 -38 17.5 -79.5t5.5 -87.5q0 -44 -5.5 -84.5t-17.5 -78.5zM430 109q24 55 37.5 128t13.5 158q0 89 -13 162.5t-38 127.5q-24 51 -55.5 77.5t-66.5 26.5q-37 0 -66 -26q-33 -26 -56 -76q-25 -54 -38 -127.5t-13 -164.5q0 -43 3.5 -84
t11.5 -78q12 -73 36 -125q24 -53 55.5 -80.5t66.5 -27.5t66.5 27.5t55.5 81.5z" />
    <glyph glyph-name="one" unicode="1" horiz-adv-x="416" 
d="M33 6q34 0 57 3.5t37 14.5t20 30t6 51v477v12q0 55 -20 75t-70 23h-10v7h18q16 1 41 4.5t50.5 14.5t47 31t32.5 53l1 -2v2h17v-104v-116v-460q0 -4 0.5 -8.5t0.5 -9.5q0 -28 4.5 -46t14.5 -29t27 -16.5t43 -6.5h31v-7h-348v7v0z" />
    <glyph glyph-name="two" unicode="2" horiz-adv-x="550" 
d="M166 137q23 23 45 45.5t42 43.5q58 63 93 130t50.5 130.5t13.5 120.5t-18.5 100t-45 68t-65.5 25q-9 0 -18.5 -1t-18.5 -2q-44 -9 -64.5 -35.5t-27.5 -58t-5.5 -62.5t0.5 -48q-1 -19 -15 -32.5t-34 -13.5q-19 0 -32 13.5t-12 32.5v6q6 85 69 145q32 30 72.5 46t85.5 16
q91 0 153 -62q62 -63 60 -152q-2 -26 -8 -51.5t-19 -52.5q-11 -26 -27.5 -52t-38.5 -55q-42 -56 -101 -117t-130 -132q-18 -20 -38 -38h318q17 0 27 3.5t16 8t8 9t3 6.5v1h8l-19 -122h-4h-4h-445h-4h-5q35 36 69 70.5t66 66.5z" />
    <glyph glyph-name="three" unicode="3" horiz-adv-x="560" 
d="M378 10q-46 -19 -96 -19q-49 0 -92 16.5t-76 46.5q-32 30 -48.5 69t-16.5 83q0 18 11.5 30t29.5 12t31 -12t13 -30q1 -17 0.5 -49.5t9 -65.5t35.5 -59.5t79 -32.5q6 -1 12 -1h12h13.5t14.5 1q39 6 66 37.5t40 76t12.5 95t-17.5 95t-51 75.5t-86 36h-13l-3 1h-16l-64 -1v7
l64 1h16t16 2q47 7 77 36.5t43.5 70.5t12.5 86.5t-15.5 84t-42.5 64t-67 25.5q-11 0 -22 -1t-22 -4q-42 -9 -61.5 -34t-27 -54.5t-6.5 -57.5t0 -44q-1 -17 -14 -29.5t-30 -12.5t-29 13t-12 30q2 41 19.5 77.5t49.5 64.5q32 29 72 44t83 15q45 0 84 -12q18 -7 35 -16t31 -20
q4 -3 7 -6l7 -7q21 -24 32 -48q9 -22 12 -47q1 -6 1.5 -12t0.5 -12q0 -29 -9 -55.5t-26 -49.5q-16 -21 -39 -40q-14 -10 -22 -15q-23 -15 -49 -24.5t-54 -14.5q11 -1 21.5 -3t21.5 -4q8 -2 16 -4.5t16 -4.5q26 -8 47 -20.5t39 -28.5q31 -29 47.5 -66.5t16.5 -81.5
q0 -18 -3 -36.5t-10 -35.5q-16 -44 -55 -80q-31 -29 -72 -44z" />
    <glyph glyph-name="four" unicode="4" horiz-adv-x="669" 
d="M251 6q34 0 57.5 3.5t37.5 14.5t20 30t6 51v125h-331l432 573h6v-177v-44v-345h139v-7h-139v-108v-18q0 -28 4.5 -46t15 -29t28 -16.5t42.5 -6.5h31v-7h-349v7zM372 237v344v77l-318 -421h318z" />
    <glyph glyph-name="five" unicode="5" horiz-adv-x="558" 
d="M438 68q-36 -35 -81.5 -53.5t-96.5 -19.5h-2q-45 0 -84.5 16.5t-70.5 45.5q-31 31 -48 70.5t-17 84.5h1q-1 1 -1 3q0 18 12.5 31t30.5 13t31 -12.5t14 -30.5v-2v-35t3 -44.5t10.5 -46.5t21.5 -42t36.5 -31t56.5 -13q58 1 95 37.5t55 90t16.5 115.5t-20.5 115.5t-55.5 89
t-89.5 36.5q-42 0 -81 -15q-20 -7 -38 -16.5t-34 -23.5h-7l27 369h8h280q17 0 27.5 3.5t16.5 8t8 9t2 6.5v2h8l-19 -123h-4h-4h-323l-20 -265q16 11 33 20.5t36 16.5q21 7 42.5 11t44.5 4q51 0 97.5 -19t82.5 -54t55 -80.5t19 -95.5t-19 -95.5t-55 -80.5z" />
    <glyph glyph-name="six" unicode="6" horiz-adv-x="616" 
d="M498 68q-32 -35 -73.5 -53t-86.5 -18h-8q-75 1 -128.5 29.5t-90.5 82.5q-37 52 -57 126q-9 38 -13.5 79t-2.5 86q2 55 11.5 104t25.5 92q2 8 5 14l6 12q10 21 21 39.5t24 35.5q42 53 94 78q52 27 112 27q33 0 60 -7t48 -17.5t37 -23.5t27 -26q8 -9 14 -18t11 -19
q5 -6 5 -19q0 -18 -12.5 -31t-30.5 -13t-31 12.5t-13 30.5q0 25 -5.5 47.5t-18.5 39.5t-35.5 27t-55.5 10q-36 0 -67 -25q-32 -26 -58 -77q-25 -49 -40 -115t-20 -146q24 23 51 40t57 26q33 11 61.5 12t39.5 1q45 -1 83 -18.5t66 -50.5q15 -17 26.5 -37.5t18.5 -43.5
q8 -24 11.5 -51t2.5 -56q-2 -56 -21 -105q-18 -46 -50 -81zM330 3q37 2 64.5 24t46 57t28.5 79.5t10.5 90t-7 90t-24 79.5t-41 57t-57.5 24q-12 1 -36 -1t-52 -11q-62 -21 -111 -70q0 -6 -0.5 -11.5t-0.5 -10.5q-2 -44 0.5 -84.5t7.5 -77.5q6 -36 14 -68t19 -58
q10 -23 19.5 -40t20.5 -29t24.5 -20t32.5 -13t42 -7z" />
    <glyph glyph-name="seven" unicode="7" horiz-adv-x="573" 
d="M52 792h492v-14q0 -1 -9.5 -16t-25 -41t-36 -59.5t-43 -71t-46 -76.5t-45.5 -74q-19 -35 -32.5 -83.5t-20.5 -111.5q-5 -54 -5.5 -103t-0.5 -84v-21q1 -18 -11.5 -31t-30.5 -13t-31 12t-14 29v2v4q0 63 11.5 116t27.5 96t33.5 75.5t29.5 53.5q3 3 6 9q7 12 15.5 25.5
t17.5 27.5v1q19 31 39 64.5t40 66.5t39 64.5t35 58.5h-401q-17 0 -27 -3.5t-16 -8t-8 -9.5t-2 -7h-1h-8l19 122h4h5z" />
    <glyph glyph-name="eight" unicode="8" horiz-adv-x="595" 
d="M489 365q31 -29 47.5 -67t16.5 -81q0 -20 -3.5 -38t-9.5 -35q-9 -23 -22.5 -43t-31.5 -37q-14 -14 -32 -24.5t-38 -19.5l-3 -2h-2q-28 -11 -57 -17.5t-56 -6.5h-2q-27 0 -56.5 6.5t-56.5 17.5h-1l-3 2q-41 17 -70 44q-37 34 -54 80h-1q-12 33 -12 73q0 43 16 81t48 67
q33 30 86 49q15 6 32 9q11 2 21.5 4t21.5 3q-28 5 -54 15t-49 24q-5 4 -10.5 7t-11.5 8q-11 9 -21 19t-18 21v1q-35 47 -35 105v12t2 12q2 25 12 47q6 13 13.5 25.5t18.5 23.5l14 12q28 23 66 36q39 12 84 12h22h16q45 0 84 -12q40 -13 66 -36l14 -12q20 -21 33 -49
q9 -22 12 -47q1 -6 1 -12v-12q0 -58 -35 -105v-1q-15 -21 -39 -40q-5 -5 -10.5 -8t-11.5 -7q-45 -28 -103 -39q11 -1 22 -3t21 -4q19 -3 32 -9q53 -18 87 -49zM310 2q50 4 84 35.5t51.5 77t18 98t-16 98t-51.5 77.5t-89 37q-3 1 -9 1q-8 0 -11 -1q-53 -5 -87 -37
t-49.5 -77.5t-14 -98t18.5 -98t49.5 -77t78.5 -35.5l8 -1h10zM308 434q48 7 78.5 37t45 71t13.5 87t-18 84.5t-49 64t-78 25.5q-49 0 -82.5 -25.5t-51 -64t-19 -84.5t13.5 -87t46 -71t79 -37h12h10z" />
    <glyph glyph-name="nine" unicode="9" horiz-adv-x="602" 
d="M494 690q18 -27 32.5 -58.5t23.5 -68.5q9 -38 13.5 -79t2.5 -86q-3 -108 -37 -196q-5 -12 -11 -25q-9 -21 -20.5 -39.5t-24.5 -35.5q-20 -26 -44 -45.5t-50 -33.5q-54 -26 -112 -26q-33 0 -60 7t-48 17.5t-37 23.5t-27 25q-8 9 -14 18.5t-11 18.5q-3 5 -4 9.5t-1 9.5
q0 18 13 31.5t31 13.5t30.5 -13t12.5 -31q0 -24 5.5 -46.5t18.5 -40t35.5 -27.5t55.5 -10q37 0 67 27q17 12 31.5 31.5t27.5 44.5q24 49 39 115t20 145q-23 -23 -50.5 -39t-56.5 -26q-33 -11 -61.5 -12.5t-40.5 -0.5q-45 1 -83 19t-66 50q-32 35 -45 81q-8 24 -11.5 51
t-2.5 56q2 28 6.5 54.5t14.5 50.5q19 45 50 81q68 71 160 71h8q75 -1 128.5 -29.5t91.5 -82.5zM454 399q2 44 0 84.5t-8 78.5q-6 35 -14 66.5t-19 57.5q-20 46 -40 69.5t-57 34.5q-11 2 -20.5 3t-20.5 2q-49 -3 -82 -40t-50 -91.5t-18 -118t13 -118.5t43.5 -92.5t73.5 -40.5
q11 0 35.5 2t51.5 11q62 20 111 70q1 5 1 10.5v11.5z" />
    <glyph glyph-name="a" unicode="a" horiz-adv-x="868" 
d="M23 8q1 0 17.5 2t39 13.5t47.5 35.5t43 69l269 672h8l268 -670q18 -44 33 -67.5t30 -35t30.5 -14t35.5 -5.5v-7h-328v7q36 2 61.5 4.5t38.5 13.5t11 35.5t-20 70.5l-74 186h-279l-76 -189q-12 -30 -8.5 -50.5t15.5 -34t29.5 -21t34 -11t28.5 -4t13 -0.5v-7h-267v7z
M394 666l-137 -341h273z" />
    <glyph glyph-name="b" unicode="b" horiz-adv-x="759" 
d="M697 104q-6 -11 -14 -19t-16 -15q-3 -4 -11 -10q-38 -30 -90 -43q-55 -16 -131 -16h-8h-120h-45h-107h-121v7q34 0 57.5 3.5t37.5 14.5t20 30t6 51v576q-1 4 -1 13q0 28 -4.5 46t-14.5 29t-27 16t-42 7h-32v8h312h32h9h19h8q33 0 61.5 -4t54.5 -12q46 -14 80 -44
q61 -53 61 -143q0 -89 -61 -142q-17 -14 -36.5 -25t-43.5 -18q-11 -4 -23 -6.5t-24 -5.5q23 -1 43.5 -4.5t39.5 -8.5q55 -15 90 -43q69 -54 69 -143q0 -55 -28 -99zM262 405h38h101h5q50 0 85 24q11 8 22 20t21 29q26 49 26 121q0 87 -37 139q-39 56 -117 56h-19h-5h-40
q-45 -4 -62.5 -24.5t-17.5 -72.5v-13v-279zM559 65q42 51 42 138q0 85 -42 138q-45 57 -132 57h-13h-8h-5h-101h-38v-274v-18q0 -27 4.5 -45.5t15 -29.5t28 -16.5t42.5 -6.5h30h45q88 0 132 57z" />
    <glyph glyph-name="v" unicode="v" horiz-adv-x="870" 
d="M472 134l215 538q12 30 9 50.5t-15 34t-30 21t-34.5 11t-28.5 4t-13 0.5v7h267v-7q-1 0 -17 -2t-38.5 -13.5t-47.5 -35.5t-43 -69l-270 -672h-8l-268 669q-18 45 -33 68.5t-29.5 35t-30.5 14t-35 5.5v7h328v-7q-36 -2 -62 -4.5t-38.5 -14t-11 -36t19.5 -69.5z" />
    <glyph glyph-name="c" unicode="c" horiz-adv-x="722" 
d="M42 400v1h-4q0 41 7 80t21 77q28 74 76 128q24 27 51.5 49t59.5 37q64 32 137 32q53 0 98 -19h1q2 -2 4 -2l1 -1q7 -3 13.5 -6t13.5 -7q52 -25 82 -25t45 10q18 11 23 35h7v-291h-7q-5 37 -14.5 70t-22.5 62q-13 27 -29.5 50.5t-35.5 42.5q-36 36 -84 56q-37 15 -80 18
q-53 0 -100 -31t-82 -85t-55.5 -126.5t-20.5 -154.5q0 -106 33.5 -194t87.5 -141q26 -23 49 -35.5t40 -18.5q11 -4 23.5 -5.5t24.5 -1.5q21 2 40.5 6t39.5 12q45 18 83 56q20 18 35.5 41.5t28.5 50.5q14 29 23 62t15 70l7 -1q-11 -76 -39 -134q-26 -56 -65 -95
q-38 -36 -86 -56q-44 -19 -97 -19q-73 0 -137 32q-62 30 -111 86q-48 54 -76 128q-14 38 -21 77t-7 80h4z" />
    <glyph glyph-name="d" unicode="d" horiz-adv-x="870" 
d="M734 117q-51 -57 -119 -87q-73 -31 -153 -31h-81h-121h-107h-120v7q34 0 57 3.5t37 14.5t20 30t6 51v577v12q0 55 -20 75.5t-70 23.5h-31v6h344h2h39h22h12.5h10.5q84 0 153 -31q68 -30 119 -86q50 -55 76.5 -128t26.5 -155t-26.5 -154.5t-76.5 -127.5zM557 37
q25 15 47.5 36t41.5 48q38 55 59 126t21 152t-21 153t-59 126q-19 27 -41.5 48t-47.5 36q-48 28 -107 31h-70h-41q-22 -2 -37 -8t-24.5 -17t-13.5 -29t-4 -44v-13v-560q0 -4 0.5 -8.5t0.5 -9.5q0 -28 4.5 -46t14.5 -29t27 -16.5t43 -6.5h28h63q60 0 116 31z" />
    <glyph glyph-name="e" unicode="e" horiz-adv-x="769" 
d="M465 6q41 0 74 10t58.5 26t44.5 36.5t33 42.5q32 51 45 116h7l-29 -238h-7h-305h-349v7q34 0 57.5 3.5t37.5 14.5t20 30t6 51v577q0 3 -0.5 6t-0.5 6q0 55 -19.5 75.5t-69.5 23.5h-32v6h228h399h7v-210h-7v1q-8 33 -18.5 69t-32.5 65.5t-60 49t-100 19.5h-30h-158v-111
v-280h143q43 1 67.5 19.5t37 41.5t15.5 44t3 28v3h7v-136v-6v-137h-7v3q0 7 -3 29t-16 45.5t-38.5 41.5t-70.5 18h-7h-131v-274q1 -5 1 -18q0 -28 4.5 -46t15 -29t27.5 -16.5t42 -6.5h111v0z" />
    <glyph glyph-name="f" unicode="f" horiz-adv-x="673" 
d="M24 8q34 0 57 3.5t37 14.5t20 30t6 51v576v13q0 28 -4.5 46t-15 29t-28 16t-42.5 7h-31v8h228h399h7v-212h-7v2q-8 33 -18.5 68.5t-32.5 65t-60 49t-100 19.5h-30h-158v-110v-279h143q43 1 67.5 19t36.5 41t15.5 44t3.5 29v3h6v-136v-7v-136h-6v3q0 7 -3.5 29t-16 45
t-38 41t-70.5 18h-7h-131v-274v-18q0 -27 4.5 -45.5t15 -29.5t28 -16.5t42.5 -6.5h31v-7h-348v7v0z" />
    <glyph glyph-name="g" unicode="g" horiz-adv-x="822" 
d="M42 401q0 41 7 80t21 77q27 71 76 128q48 56 112 87q66 32 136 32q49 0 98 -19l2 -1l4 -2q7 -3 13.5 -6.5t13.5 -6.5q52 -25 82.5 -25t45.5 10q18 11 23 35h6v-291h-6q-10 72 -38 132q-25 53 -65 93q-39 37 -83 55q-37 16 -80 19v-1q-54 0 -101 -31t-82 -85t-55 -126
t-20 -154q0 -106 33 -194.5t88 -140.5q25 -23 48 -35.5t40 -18.5q22 -7 49 -7q40 1 79 17q32 14 64 38q4 4 12 12.5t16 22t14 32.5t6 43v93q0 22 -10.5 34.5t-28 18.5t-41.5 7t-51 1v8h320v-8q-23 0 -38.5 -1t-25.5 -5.5t-14.5 -14.5t-4.5 -27v-174v-48h-7
q-19 18 -45.5 16.5t-57 -12.5t-64 -26.5t-66.5 -24.5q-35 -9 -73 -9q-73 0 -136 31q-32 16 -60 37t-52 50q-49 57 -76 128q-14 38 -21 76.5t-7 80.5z" />
    <glyph glyph-name="h" unicode="h" horiz-adv-x="909" 
d="M538 801h344h4v-5l1 -1h-1v-1h-40q-45 -5 -62.5 -25t-17.5 -73v-13v-560v-17q0 -28 4.5 -46.5t15 -29.5t28 -16.5t42.5 -6.5h31v-7h-349v7q34 0 57.5 3.5t37.5 14.5t20 30t6 51v291h-404v-274v-17q0 -28 4.5 -46.5t15 -29.5t28 -16.5t42.5 -6.5h31v-7h-349v7
q34 0 57.5 3.5t37.5 14.5t20 30t6 51v576v13q0 28 -4.5 46t-15 29.5t-28 16.5t-42.5 7h-32v7h344h1h4v-5l1 -1h-1v-1h-41q-22 -2 -37 -8t-24.5 -17t-13.5 -29t-4 -44v-13v-279h404v278v13q0 55 -19.5 75.5t-69.5 23.5h-32v7z" />
    <glyph glyph-name="i" unicode="i" horiz-adv-x="421" 
d="M38 6q34 0 57.5 3.5t37.5 14.5t20 30t6 51v577v12q0 55 -19.5 75.5t-69.5 23.5h-32v6h344h4v-5h1h-1v-1h-40q-45 -5 -62.5 -25t-17.5 -73v-13v-560v-18q0 -28 4.5 -46t15 -29t28 -16.5t42.5 -6.5h31v-7h-349v7v0z" />
    <glyph glyph-name="j" unicode="j" horiz-adv-x="590" 
d="M23 153q-5 22 -6 48v7q0 27 19 46.5t46 19.5q28 0 47 -19.5t19 -46.5q0 -17 -6.5 -30t-17.5 -22q-17 -14 -27 -34t-8.5 -41t18 -39.5t52.5 -30.5q15 -4 31.5 -6t31.5 -3h11q24 0 41.5 9t30 23.5t20 33t12.5 38.5q11 46 8 105v465v15q0 33 -4.5 54.5t-15 35t-28 19.5
t-42.5 8h-31v8h344h4v-8h-41q-22 -2 -37 -9t-24.5 -20t-13.5 -34t-4 -52v-16v-466v-1q0 -43 -16 -82t-46 -70q-30 -29 -66.5 -44.5t-77.5 -17.5h-1h-7h-16q-21 0 -45.5 4.5t-42.5 12.5q-26 11 -45 29q-5 3 -9 7.5t-9 8.5q-4 5 -7 8.5t-6 7.5v1q-25 35 -35 77v1z" />
    <glyph glyph-name="k" unicode="k" horiz-adv-x="909" 
d="M550 9q12 1 24.5 3.5t20 8t7 15.5t-15.5 25l-300 321q-14 16 -20 20t-11 4h-1v-285v-18q0 -27 4.5 -45t15 -29t28 -16.5t42.5 -6.5h31v-8h-349v8q34 0 57.5 3.5t37.5 14t20 30t6 50.5v577q0 3 -0.5 6t-0.5 7q0 27 -4.5 45.5t-14.5 29.5t-27 16t-42 7h-32v6h344h4v-4v-2
h-40q-45 -5 -62.5 -25t-17.5 -73v-12v-269q5 0 11 2.5t21 16.5l192 169q8 6 12 10q46 40 70 70.5t27.5 52.5t-10.5 36.5t-44 24.5v7h309v-7q-47 0 -86 -11.5t-73 -30t-62.5 -40.5t-52.5 -43l-213 -186l383 -416q19 -21 37 -33t35 -18t35 -7t38 -1v-7h-360v7h27v0z" />
    <glyph glyph-name="l" unicode="l" horiz-adv-x="737" 
d="M678 -1h-297h-348v7q34 0 57 3.5t37 14.5t20 30t6 51v577v12q0 55 -20 75.5t-70 23.5h-31v6h344h4v-5h1h-1v-1h-41q-22 -2 -37 -8t-24.5 -17t-13.5 -29t-4 -44v-13v-560v-18q0 -28 4.5 -46t15 -29t27.5 -16.5t43 -6.5h100q41 0 74 10t58.5 26t44.5 36.5t33 42.5
q32 51 46 116h7l-29 -238h-6z" />
    <glyph glyph-name="m" unicode="m" horiz-adv-x="1062" 
d="M687 6q34 0 57 4t37 14.5t20 30t6 51.5v303v115.5v105.5t0.5 82.5t0.5 45.5l-307 -588h-8l-291 552v-592q0 -41 18.5 -65t44 -37.5t52 -17.5t41.5 -4h16v-6h-349v6h15q16 0 42.5 4t51.5 17.5t43.5 37.5t18.5 65v548q0 24 -1 45t-9.5 36.5t-27 24.5t-52.5 9h-32v7h209
l270 -515l269 515h212v-7h-40q-45 0 -62.5 -22t-17.5 -75v-591q0 -56 22 -77.5t68 -21.5h31v-6h-348v6v0z" />
    <glyph glyph-name="n" unicode="n" horiz-adv-x="1005" 
d="M973 799v-7h-15q-16 0 -42.5 -4.5t-51.5 -17t-43.5 -36.5t-18.5 -64v-671h-8l-588 736v-606q0 -41 18.5 -65t43.5 -36.5t51.5 -17t42.5 -4.5h15v-7h-171h-8h-171v7h15q16 0 42.5 4.5t51.5 17t43.5 36.5t18.5 65v569q0 24 -1 41.5t-9 29.5t-26.5 17.5t-53.5 5.5h-31v7h121
h8h85l503 -625v496q0 40 -18.5 64t-43.5 36.5t-51.5 17t-42.5 4.5h-15v7h171h8h171z" />
    <glyph glyph-name="o" unicode="o" 
d="M30 406q0 85 28 157q25 72 75 129q49 57 110 86q66 32 137 32h16h26h16q70 0 136 -32q64 -30 112 -86q50 -59 76 -129q27 -74 27 -157q0 -84 -27 -157q-26 -70 -76 -129q-48 -56 -112 -86q-66 -32 -136 -32h-16h-26h-16q-71 0 -137 32q-61 29 -110 86q-50 57 -75 129
q-28 72 -28 157zM139 406q0 -81 18.5 -153t55.5 -128q7 -12 15.5 -23t17.5 -20q31 -31 60.5 -46.5t47.5 -22.5q9 -2 19 -4t21 -2h8h22q11 0 20 2t20 4q17 7 46.5 22.5t61.5 46.5q8 9 16.5 20t16.5 23q37 56 56 128t19 153t-19 153t-56 128q-8 12 -16.5 23t-16.5 20
q-32 31 -61.5 46.5t-46.5 22.5q-11 2 -20 3.5t-20 1.5h-22h-8q-20 0 -40 -5q-18 -7 -47.5 -22.5t-60.5 -46.5q-9 -9 -17.5 -20t-15.5 -23q-37 -56 -55.5 -128t-18.5 -153z" />
    <glyph glyph-name="p" unicode="p" horiz-adv-x="674" 
d="M22 -1v7q34 0 57.5 3.5t37.5 14.5t20 30t6 51v577v12q0 55 -19.5 75.5t-69.5 23.5h-32v6h312h32h9h19h8q66 0 116 -15q47 -15 80 -43q30 -26 45.5 -62.5t15.5 -80.5q0 -90 -61 -143q-30 -27 -80 -43q-48 -16 -116 -16h-8h-106h-38v-274v-18q0 -28 4.5 -46t15 -29
t28 -16.5t42.5 -6.5h30h1l-1 -1v-6h-120h-107h-121zM250 402h38h106q49 0 85 25q11 8 22.5 20.5t20.5 29.5q13 24 20 54.5t7 66.5q0 86 -37 138q-41 57 -118 57h-19h-5h-40q-45 -5 -62.5 -25t-17.5 -73v-13v-280z" />
    <glyph glyph-name="q" unicode="q" horiz-adv-x="832" 
d="M793 406q0 -83 -27 -156t-76 -129q-50 -57 -112 -87q-32 -15 -66.5 -23.5t-70.5 -8.5h-15h-4l-149 -66q17 5 36 9t38 4q24 0 47 -6.5t46 -14t48 -13.5t54 -6q26 0 52.5 3.5t47.5 13.5t34 26t13 42h6v-5q0 -6 -0.5 -20t-5 -31t-14.5 -35t-28.5 -32.5t-47 -24t-69.5 -9.5
q-50 0 -91 17.5t-76 36.5t-65.5 30.5t-59.5 -1.5q-25 -15 -31 -35.5t-6 -47.5q0 -14 -10.5 -24.5t-24.5 -10.5t-24.5 10.5t-10.5 24.5q0 28 25.5 47t55.5 33q5 1 13 5l181 80h-6h-16q-36 0 -70.5 8.5t-67.5 23.5q-31 15 -58 37t-51 50q-50 56 -76 129q-14 37 -20.5 76
t-6.5 80v1q0 42 6.5 80.5t20.5 76.5q25 70 76 129q47 54 109 86q67 32 138 32h16h26h15q71 0 137 -32q32 -16 60 -37t52 -49q50 -59 76 -129q27 -75 27 -157v-1zM684 407q0 81 -19.5 153t-55.5 128q-17 24 -34 43q-31 31 -60.5 46.5t-46.5 22.5q-23 5 -40 5h-22h-8
q-19 0 -41 -5q-17 -7 -46.5 -22.5t-60.5 -46.5q-9 -10 -17.5 -20.5t-16.5 -22.5q-36 -56 -55 -128t-19 -153v-1q0 -80 19 -152t55 -128q8 -12 16.5 -23t17.5 -21q31 -30 60.5 -46t46.5 -22q19 -6 41 -6h8h22q19 0 40 6q17 6 46.5 22t60.5 46q9 10 17.5 21t16.5 23
q36 56 55.5 128t19.5 152v1z" />
    <glyph glyph-name="r" unicode="r" horiz-adv-x="851" 
d="M21 -1v7h1q34 0 57.5 3.5t37 14.5t19.5 30t6 51v577v12q0 55 -19.5 75.5t-69.5 23.5h-32v6h312h32h1h8h20h8q65 0 116 -15q45 -15 80 -43q30 -26 45.5 -62.5t15.5 -80.5q0 -90 -61 -143q-32 -27 -80 -43q-22 -8 -46.5 -11t-51.5 -5q20 -5 44.5 -21t53.5 -55l188 -261
q14 -19 33.5 -29.5t38 -16t32.5 -6.5t17 -1h1v-7h-78h-116h-6l-244 338q-15 20 -27.5 31.5t-24 17.5t-22.5 8t-23 2h-37v-274v-18q0 -28 4.5 -46t15 -29t27.5 -16.5t42 -6.5h31v-1v-6h-120h-108h-121zM250 402h37h107q48 0 84 25q11 8 22.5 20.5t21.5 29.5q12 24 19 54.5
t7 66.5q0 86 -37 138q-41 57 -117 57h-20h-4h-41q-22 -2 -37 -8t-24.5 -17t-13.5 -29t-4 -44v-13v-280z" />
    <glyph glyph-name="s" unicode="s" horiz-adv-x="608" 
d="M46 253h7h1q0 -21 5 -46.5t14 -51t22 -48.5t29 -37q32 -28 72 -43.5t85 -16.5h9q45 2 85 17q43 20 68 57t26.5 79.5t-23.5 85t-82 72.5l-126 65q-63 32 -100 70.5t-52.5 79t-11.5 80.5t24 75t53.5 62t76.5 43q20 8 40 11t41 3q47 0 90 -17q16 -6 34 -12t36 -7t34 6t28 27
h7v-214v-3h-8q0 21 -6.5 44t-17.5 44.5t-25 40t-28 31.5q-29 26 -66 39.5t-78 13.5q-17 0 -34.5 -2.5t-33.5 -7.5q-46 -15 -71.5 -48t-21 -76t44.5 -91.5t125 -96.5l115 -59q54 -29 87 -68.5t44 -82.5t1 -86t-41.5 -79.5t-83.5 -63t-125 -36.5h2q-8 -1 -14.5 -1.5
t-13.5 -0.5h-10q-45 0 -87 17v-1v1q-6 2 -10 4q-41 16 -66 15.5t-38.5 -8t-18.5 -18t-6 -13.5v-1h-7v253z" />
    <glyph glyph-name="t" unicode="t" horiz-adv-x="770" 
d="M718 592v2q-8 31 -18 64.5t-29.5 62.5t-53 49t-87.5 24h-9q-44 -4 -61.5 -24.5t-17.5 -72.5v-13v-560v-18q0 -27 4.5 -45.5t15 -29.5t27.5 -16.5t42 -6.5h31v-7h-348v7q34 0 57.5 3.5t37 14.5t19.5 30t6 51v576v13q0 28 -4.5 46t-15 29t-27.5 16t-42 7h-6q-54 -4 -87 -24
t-53 -49t-30 -62.5t-17 -64.5v-2h-7v210h680v-210h-7z" />
    <glyph glyph-name="u" unicode="u" horiz-adv-x="931" 
d="M554 801h349v-7h-15q-16 -1 -42 -5t-51.5 -17t-44 -37t-18.5 -64v-433q0 -51 -22 -95.5t-64 -78.5q-41 -32 -94 -49t-113 -17h-3h-1h-2q-58 0 -109 17t-91 49q-42 34 -64.5 79t-22.5 106v473q-3 39 -23 54.5t-65 17.5h-32v8h344h1h4v-5l1 -1h-1v-2h-41q-36 -3 -54 -17
t-23 -47v-474q0 -59 18 -110t53.5 -85t86.5 -47.5t117 2.5q61 16 110 54q38 29 60 73q23 43 23 95v438q-1 39 -20 62t-44 35t-51 16t-41 5h-15v7z" />
    <glyph glyph-name="w" unicode="w" horiz-adv-x="1136" 
d="M1110 793h-5q-9 0 -27.5 -3.5t-40.5 -15.5t-42.5 -35.5t-32.5 -64.5l-198 -673h-7l-198 665l-194 -665h-8l-200 674l-4 13q-12 40 -25.5 60.5t-29 29.5t-32.5 10.5t-36 4.5h-1v7h328v-7h-3q-26 0 -49 -1.5t-37 -12t-17 -34t11 -67.5l147 -500l147 500q-2 3 -2 5.5t-1 4.5
q-12 40 -25.5 60.5t-29 29.5t-33 10.5t-35.5 4.5h-1v7h328v-7h-3q-26 0 -48.5 -1t-37 -11.5t-17.5 -34t11 -68.5l147 -500l152 520q9 33 -3.5 51.5t-33.5 28.5t-43.5 12.5t-32.5 2.5h-6v7h268v-7z" />
    <glyph glyph-name="x" unicode="x" horiz-adv-x="886" 
d="M566 6q36 0 48 14.5t-8 46.5l-197 299l-131 -197q-26 -39 -35.5 -66t-8 -45t10.5 -28.5t20.5 -15.5t23 -6.5t17.5 -1.5v-7h-140h-8h-121v7h9q10 1 33 6t53.5 21.5t66 48.5t71.5 86l135 205l-225 341q-2 2 -4 6q-17 25 -35.5 39t-36 21.5t-33 10t-25.5 2.5h-8v6h317v-6
h-26q-35 0 -47.5 -16.5t8.5 -47.5l196 -299l136 208q35 55 37.5 86t-10 46.5t-31.5 19t-28 3.5v6h139h8h121v-6h-9q-10 -1 -32.5 -6t-52.5 -21t-65 -47t-70 -83l-139 -211l228 -347q16 -25 35 -39t36.5 -21.5t32.5 -9.5t25 -2h10v-7h-319v7h28v0z" />
    <glyph glyph-name="y" unicode="y" horiz-adv-x="893" 
d="M475 342v-220v-19q0 -55 20 -76t71 -21h31v-8h-349v8q34 0 57 3.5t37 14t20 30t6 50.5v238q-50 92 -84.5 155.5t-57.5 105.5t-35.5 65t-18.5 34.5t-7.5 14.5t-2.5 4q-14 25 -35 40t-42 22t-38 9t-24 2v6h311v-6h-17q-11 -1 -25 -3.5t-24 -9t-13.5 -18t7.5 -30.5l209 -384
l154 281q22 41 30.5 69t7 46t-9.5 27.5t-18.5 14t-21 5.5t-16.5 1v7h268v-7h-4q-10 0 -36 -5.5t-59 -22.5t-69 -49t-65 -86z" />
    <glyph glyph-name="z" unicode="z" horiz-adv-x="682" 
d="M34 562l29 238h4h3h472h128l-4 -7l-514 -786h246q41 0 74 10t58.5 26t44.5 36.5t33 42.5q32 51 45 116h7l-29 -238h-7h-599v7l513 786h-240q-41 0 -74 -10t-59 -26.5t-45.5 -37t-32.5 -42.5q-33 -51 -45 -115h-8z" />
    <glyph glyph-name="ampersand" unicode="&#x26;" horiz-adv-x="792" 
d="M737 615q29 -29 29 -69q0 -42 -30 -72q-13 -12 -29 -22.5t-39 -20.5l-60 -23h-1q-2 -2 -4 -2t-4 -1q13 -31 20 -64t7 -65q0 -40 -10 -76.5t-30 -68.5q-14 -23 -36 -47t-57 -43.5t-85.5 -32t-120.5 -12.5h-8q-51 0 -96 18q-41 16 -72 45q-37 34 -54 79q-6 18 -9.5 36
t-3.5 37q0 44 16 81.5t48 66.5q36 33 86 49q8 2 15.5 4.5t16.5 4.5q10 2 21 3.5t22 3.5q-57 9 -103 38q-12 8 -22 16q-23 19 -39 40q-35 47 -35 105v12t1 12q2 12 5 24t8 23q6 13 13.5 25t18.5 23q4 3 7 6t7 6q29 24 67 36q37 12 82 12t84.5 -14.5t70.5 -43.5q32 -29 50 -65
t20 -77q1 -18 -11.5 -30.5t-30.5 -12.5q-17 0 -30 12.5t-14 29.5q0 16 0.5 44t-6.5 57.5t-26.5 54.5t-60.5 34q-11 2 -22.5 3.5t-23.5 1.5q-39 0 -66.5 -25.5t-42.5 -64t-16 -84t13 -86.5t44 -70.5t77 -36.5q8 -2 16 -2h16l64 -1v-7l-64 1h-16h-2q-5 -1 -14 -1
q-52 -5 -86 -36t-51 -75t-17.5 -95t13 -95.5t40 -76t65.5 -37.5q8 -1 14 -1h14h7q21 0 33.5 1t29.5 3q80 13 131.5 49t82 78t42.5 82t13 62q-1 32 -7 63t-19 61q-32 -12 -64.5 -23t-59.5 -23t-45 -25t-20 -28q1 -4 1.5 -8.5t1.5 -8.5q9 -29 17.5 -30.5t18.5 8t23 22t32 12.5
h8q18 -3 28.5 -17.5t7.5 -32.5q-3 -17 -17 -28t-31 -10q-18 0 -35.5 7.5t-31.5 20.5q-14 14 -21.5 32t-8.5 38q0 40 31 71q12 12 28.5 23t39.5 20l60 23h1q32 12 67 24t64.5 25t49 26.5t21.5 29.5q0 5 -0.5 9t-1.5 9q-9 28 -17.5 29.5t-18.5 -7.5t-23.5 -21.5t-31.5 -12.5
h-8q-18 3 -28.5 17.5t-7.5 32.5q3 17 16.5 28t30.5 9q38 0 68 -28z" />
    <glyph glyph-name="cent" unicode="&#xa2;" horiz-adv-x="593" 
d="M329 12q61 3 117 39q29 19 53 46t42 59l5 -3q-37 -69 -96 -107q-56 -38 -121 -41v-82h-7v82h-6q-56 0 -106 25t-86 67q-38 45 -59 102t-21 120t21 120.5t59 102.5q39 43 86 67q53 25 106 25h6v84h7v-85q64 -3 121 -40q30 -20 54 -47t42 -60q5 -8 5 -18q1 -18 -11 -30
t-30 -12t-31 11.5t-13 29.5q0 26 -8.5 52t-24 48t-37.5 37.5t-50 20.5q-5 1 -9 1h-8v-614zM322 626q-41 -1 -73 -27.5t-54.5 -69.5t-34.5 -97.5t-13.5 -111.5t8.5 -111.5t31.5 -97.5t55 -69.5t80.5 -27.5v612z" />
    <glyph glyph-name="exclam" unicode="!" horiz-adv-x="246" 
d="M132 130q27 0 46.5 -19t19.5 -47q0 -27 -19.5 -46.5t-46.5 -19.5t-46.5 19.5t-19.5 46.5q0 28 19.5 47t46.5 19zM66 734v8q0 24 17.5 41t41.5 17t41 -17t17 -41q0 -6 -1 -8l-47 -484h-6z" />
    <glyph glyph-name="question" unicode="?" horiz-adv-x="521" 
d="M414 761q60 -50 60 -132q0 -36 -13 -68t-33.5 -60.5t-45.5 -53.5t-50 -49q-20 -19 -38.5 -37t-32.5 -35q-30 -40 -31 -71q1 0 1 -1h-1h-6q0 8 1 12t1 7.5v6.5q8 40 33.5 78t52.5 78.5t48.5 86t21.5 99.5q0 46 -8.5 79.5t-23 55t-34.5 32.5t-43 13h-8q-24 0 -43 -4
q-42 -9 -62 -34t-27.5 -54.5t-6.5 -58t0 -44.5q0 -17 -13 -29t-31 -12t-30 12.5t-11 29.5q1 41 19 77t50 65t71.5 44t83.5 15t83 -12q37 -14 66 -36zM230 134q27 0 46 -19t19 -47q0 -27 -19 -46.5t-46 -19.5h-1q-27 0 -46.5 19.5t-19.5 46.5q0 28 19.5 47t46.5 19h1z" />
    <glyph glyph-name="at" unicode="@" horiz-adv-x="820" 
d="M772 399q0 -33 -6 -64q-2 -10 -4 -19l-4 -18q-4 -12 -8 -22t-9 -21q-5 -9 -10 -17.5t-11 -16.5q-8 -12 -20 -24q-20 -20 -42 -30.5t-44 -10.5q-18 0 -37.5 3.5t-36.5 11t-29.5 20t-16.5 31.5q-18 -19 -40 -29q-38 -20 -84 -20q-17 0 -33 3q-53 9 -91 42q-38 36 -38 84
q0 65 38 103q31 31 88 40q30 4 64.5 1.5t69.5 -10.5q13 -3 25 -8v102q0 20 -1 44.5t-9 45.5t-25.5 35.5t-49.5 14.5q-36 0 -54.5 -16t-26 -38.5t-8 -45.5t-0.5 -37v-3v-1q-1 -17 -14 -29.5t-30 -12.5q-18 0 -30 12.5t-11 30.5q0 61 51 104q25 20 56.5 31t66.5 11t66.5 -11
t55.5 -31q25 -21 38.5 -48t13.5 -56v-311q2 -22 8.5 -39t23.5 -17q26 0 55 18q30 23 50 70.5t26.5 106.5t-2.5 124t-35.5 124t-73 105.5t-114.5 69.5q-27 8 -56 12t-60 4h-14.5t-14.5 -1q-69 -8 -121.5 -45.5t-87 -94.5t-51.5 -126.5t-16 -141.5t20 -140.5t56.5 -122.5
t93.5 -87.5t131 -35.5h4h6q10 0 31.5 1t50.5 7q23 4 43 10.5t39 14.5q49 22 80 53l5 -5q-34 -33 -83 -54q-39 -17 -82 -26q-28 -5 -49.5 -6.5t-32.5 -1.5h-8q-70 0 -138 31q-64 31 -113 88q-50 55 -76 128q-28 74 -28 157q0 84 28 158q25 71 76 128q50 56 113 87
q67 32 138 32q77 0 144 -26q66 -25 117 -76q44 -46 71 -108q2 -4 3.5 -8.5t3.5 -9.5q7 -17 11.5 -35.5t8.5 -38.5q8 -42 9 -87v-16zM451 199q24 12 42 30v5v187q-6 2 -12.5 4t-14.5 4q-45 12 -92 12q-30 0 -50 -19.5t-30.5 -48.5t-11 -62.5t9.5 -62.5t29.5 -48.5t49.5 -19.5
q45 0 80 19z" />
    <glyph glyph-name="sterling" unicode="&#xa3;" horiz-adv-x="609" 
d="M542 602q1 -17 -11 -29.5t-30 -12.5q-17 0 -30 12t-14 30q-1 16 0 44t-6.5 57t-27 54t-60.5 35q-23 5 -45 5q-88 -5 -113 -41q-20 -28 -12.5 -72.5t24.5 -104.5q11 -40 21.5 -84t15.5 -92h198v-6h-198q1 -11 1.5 -20.5t0.5 -20.5q-1 -71 -23 -134t-67 -120q-4 -6 -5 -8
h298q17 0 27.5 3.5t16.5 8t8 9t2 6.5l1 1h8l-20 -122h-4h-4h-416q-2 -2 -4 -2l-4 4q29 26 51.5 52t39.5 52q7 12 13 23q29 53 32 117v18.5t-2 18.5l-6 39q-3 20 -8.5 38t-11.5 37h-112v6h109q-5 14 -10.5 28.5t-11.5 28.5q-17 44 -30.5 84.5t-13.5 79.5q0 82 60 131
q26 23 66 36q39 12 83 12t84 -15t72 -43q65 -59 68 -143z" />
    <glyph glyph-name="dollar" unicode="$" horiz-adv-x="535" 
d="M293 450q76 -45 122 -90.5t66 -89t17.5 -83t-22 -73t-53.5 -59.5t-77 -42q-36 -13 -77 -15v-52h-7v52q-42 1 -80 15t-67 41q-15 13 -28.5 31t-24.5 38t-18 41.5t-8 42.5v1v2q1 17 12.5 28.5t28.5 11.5t29.5 -12t13.5 -29v-4q0 -24 1 -53.5t9 -57t26 -49.5t53 -32
q24 -7 53 -7v324q-18 10 -41 22q-63 32 -102.5 72t-58.5 82.5t-18.5 84.5t17 78.5t48 65t74.5 44.5q37 15 81 15v49h7v-49q40 -2 76.5 -16t65.5 -40q15 -13 29 -30.5t25 -38t18 -41.5t7 -42v-1v-3q0 -17 -11.5 -28t-28.5 -11q-18 0 -31 12t-13 29v4q0 24 -1 53.5t-9 57
t-26 49.5t-53 32q-23 6 -48 6v-323q13 -8 24 -13zM194 777q-44 -15 -66.5 -48t-17 -75.5t41.5 -91.5t110 -95v320q-17 0 -34 -2.5t-34 -7.5zM332 16q43 14 68 46.5t22.5 75t-38.5 91.5t-115 97v-320q17 0 32.5 2.5t30.5 7.5z" />
    <glyph glyph-name="Euro" unicode="&#x20ac;" horiz-adv-x="626" 
d="M543 250q17 0 30 -13t14 -31q0 -10 -3 -17q-33 -88 -91 -138q-60 -49 -131 -49q-56 0 -101 26q-49 28 -82 76q-62 94 -73 246h-62v6h62q-1 11 -1 21.5v21.5v24h-61v7h62q3 81 21 148.5t52 115.5q17 25 38 44.5t44 32.5q47 26 101 26q72 0 130 -49q29 -24 52 -58.5
t39 -78.5q2 -4 2.5 -7t0.5 -7q1 -18 -11 -30.5t-29 -12.5q-18 0 -31 12t-13 30q-2 2 0 2q0 37 -4 71.5t-18 60.5t-42 42t-76 18h-7q-31 -2 -56 -33t-43 -81t-29.5 -114t-15.5 -132h221v-7h-221q-1 -17 -1 -33.5v-33.5h222v-6h-222q1 -64 10 -123.5t26 -106.5t42 -77t59 -34
h15q25 0 49 6q31 9 49.5 28t27.5 44.5t11.5 56.5t2.5 64q0 17 12 29.5t29 12.5z" />
    <glyph glyph-name="percent" unicode="%" horiz-adv-x="694" 
d="M649 795l-598 -796h-8l598 796h8zM184 799q28 0 53.5 -11.5t44 -32t29.5 -47.5t11 -58t-11 -58t-29.5 -47.5t-44 -32t-53.5 -11.5q-29 0 -54 11.5t-44 32t-29.5 47.5t-10.5 58t10.5 58t29.5 47.5t44 32t54 11.5zM191 508q23 2 39 23t24 51.5t8 66t-7 66t-22.5 52.5
t-38.5 25q-4 1 -10 1h-3q-25 -2 -41 -23.5t-24 -52.5t-8 -67t8.5 -67.5t24.5 -52.5t41 -22h2h7zM522 304q28 0 53 -11.5t44 -32t29.5 -47.5t10.5 -58t-10.5 -58t-29.5 -47.5t-44 -32t-53 -11.5q-29 0 -54 11.5t-44 32t-30 47.5t-11 58t11 58t30 47.5t44 32t54 11.5zM530 13
q24 2 40 24.5t24 55t7 69t-10 67.5t-27.5 51t-45.5 18q-24 -2 -40.5 -23.5t-24.5 -53.5t-7.5 -68.5t9 -67.5t25.5 -51.5t42 -20.5h8z" />
    <glyph glyph-name="asterisk" unicode="*" horiz-adv-x="343" 
d="M283 688q-1 -1 -8 -3l-93 -27l93 -26q6 -2 8 -3q11 -6 14 -18t-3 -23t-18 -14t-23 3q-1 1 -2 1t-2 2q-2 2 -3 2l-68 65l22 -88q2 -4 2 -8q0 -13 -9 -21.5t-21 -8.5q-13 0 -21.5 8.5t-8.5 21.5v5q0 3 1 4l22 88l-68 -66q-3 0 -3 -2q-2 -2 -2.5 -2t-1.5 -1q-11 -6 -23 -3
t-18 14q-7 11 -3.5 23t13.5 18q6 2 8 3l93 26l-93 27q-2 1 -3.5 1t-3.5 2q-11 6 -14 18t3 23t18 14t23 -3q2 -2 4 -3l3 -3l69 -67l-23 94q-1 1 -1 4v5q0 12 8.5 21t21.5 9q12 0 21 -9t9 -21q0 -2 -2 -8l-23 -94l69 66l3 3q1 1 2 1.5t2 1.5q11 6 23 3t18 -14t3 -23t-14 -18z
" />
    <glyph glyph-name="parenleft" unicode="(" horiz-adv-x="334" 
d="M234 -35q36 -47 83 -73q1 0 1 -0.5t1 -0.5l-3 -6v1l-1 -1q0 1 -1 1q-29 13 -54.5 31.5t-49.5 42.5q-48 48 -85 117t-55 149q-20 86 -20 173q0 88 20 173q9 41 23 78t32 72q35 67 84 116q48 49 105 75v1h1l3 -7l-1 -1q-47 -24 -84 -72q-39 -48 -67 -116
q-30 -69 -45.5 -150t-15.5 -169t15.5 -168.5t45.5 -150.5q14 -33 31 -62t37 -53zM160 76l-1 2l2 -4z" />
    <glyph glyph-name="parenright" unicode=")" horiz-adv-x="321" 
d="M85 -35q39 48 68 115q30 70 45.5 150.5t15.5 168.5t-15.5 169t-45.5 150q-29 68 -67 116q-39 48 -84 72q0 1 -2 1l3 7h1l1 -1q28 -13 54.5 -31.5t50.5 -43.5q24 -24 45 -53.5t39 -62.5q35 -67 55 -150q20 -85 20 -173q0 -87 -20 -173q-10 -40 -23.5 -77.5t-31.5 -71.5
q-37 -69 -85 -117q-49 -49 -104 -74q-2 0 -2 -1l-1 1v-1l-3 6q1 0 1.5 0.5t1.5 0.5q45 27 83 73zM158 76l1 2q-1 -2 -1 -4v2z" />
    <glyph glyph-name="slash" unicode="/" horiz-adv-x="420" 
d="M40 0l325 800h17l-324 -800h-18v0z" />
    <glyph glyph-name="bracketleft" unicode="[" horiz-adv-x="254" 
d="M210 871v-7h-45q-21 0 -33 -3t-18 -8t-7 -11.5t-1 -14.5v-856q0 -8 1 -14.5t7 -11.5t18 -8t33 -3h12h31v-6h-102h-63v943h63h104z" />
    <glyph glyph-name="bracketright" unicode="]" horiz-adv-x="254" 
d="M147 871h63v-943h-63h-102v6h31h12q21 0 33 3t18 8t7 11.5t1 14.5v856q0 8 -1 14.5t-7 11.5t-18 8t-33 3h-45v7h104z" />
    <glyph glyph-name="backslash" unicode="\" horiz-adv-x="420" 
d="M382 0h-18l-324 800h17l325 -800v0z" />
    <glyph glyph-name="period" unicode="." horiz-adv-x="217" 
d="M112 122q26 0 43.5 -17.5t17.5 -42.5q0 -26 -17.5 -43.5t-43.5 -17.5t-43.5 17.5t-17.5 43.5q0 25 17.5 42.5t43.5 17.5z" />
    <glyph glyph-name="comma" unicode="," horiz-adv-x="195" 
d="M88 123q35 0 54 -31q19 -29 19 -73q0 -49 -35 -89q-14 -16 -32.5 -28t-38.5 -18l-1 6q18 6 36 17.5t32 27.5q10 12 20.5 32t11.5 47q-1 6 -5.5 6.5t-11 -2t-13.5 -6.5t-13 -6q-9 -5 -23 -5q-26 0 -43.5 17.5t-17.5 43.5q0 25 17.5 42.5t43.5 17.5v1v0z" />
    <glyph glyph-name="plus" unicode="+" horiz-adv-x="570" 
d="M308 637v-215h214v-47h-214v-213h-46v213h-215v47h215v215h46v0z" />
    <glyph glyph-name="equal" unicode="=" horiz-adv-x="586" 
d="M530 533v-47h-476v47h476zM54 276v46h476v-46h-476z" />
    <glyph glyph-name="hyphen" unicode="-" horiz-adv-x="410" 
d="M52 377v46h305v-46h-305v0z" />
    <glyph glyph-name="numbersign" unicode="#" horiz-adv-x="584" 
d="M438 654l-16 -135h103v-47h-109l-18 -147h127v-47h-132l-15 -132h-48l16 132h-148l-15 -132h-46l15 132h-102v47h108l17 147h-125v47h131l16 135h46l-16 -135h148l16 135h47zM352 325l18 147h-148l-18 -147h148z" />
    <glyph glyph-name="underscore" unicode="_" horiz-adv-x="654" 
d="M44 1v46h562v-46h-562v0z" />
    <glyph glyph-name="quotedbl" unicode="&#x22;" horiz-adv-x="364" 
d="M91 800q37 0 55 -31q18 -27 18 -73q0 -49 -34 -89q-14 -16 -33 -28t-39 -18l-1 6q38 12 68 45q11 12 21 32t12 48q-1 6 -6 6t-11.5 -2.5t-13.5 -6.5t-13 -7q-5 -2 -10.5 -3t-11.5 -1q-26 0 -43.5 18t-17.5 43t17.5 42.5t42.5 18.5zM258 800q36 0 55 -31q17 -28 17 -73
q0 -49 -34 -89q-14 -16 -32.5 -28t-38.5 -18l-2 6q19 6 36.5 17.5t31.5 27.5q11 12 21 32t12 48q-1 6 -5.5 6t-11 -2.5t-13.5 -6.5t-13 -7q-5 -2 -11 -3t-12 -1q-25 0 -42.5 18t-17.5 43t17 42.5t43 18.5z" />
    <glyph glyph-name="quotesingle" unicode="'" horiz-adv-x="230" 
d="M110 800q37 0 56 -31q17 -28 17 -73q0 -49 -34 -89q-30 -33 -71 -46l-2 6q19 6 36.5 17.5t31.5 27.5q11 12 21 32t12 48q-1 6 -5.5 6t-11 -2.5t-13.5 -6.5t-13 -7q-6 -2 -11.5 -3t-11.5 -1q-25 0 -43 18t-18 43t17.5 42.5t42.5 18.5z" />
    <glyph glyph-name="quotedblright" unicode="&#x201d;" horiz-adv-x="364" 
d="M91 800q37 0 55 -31q18 -27 18 -73q0 -49 -34 -89q-14 -16 -33 -28t-39 -18l-1 6q38 12 68 45q11 12 21 32t12 48q-1 6 -6 6t-11.5 -2.5t-13.5 -6.5t-13 -7q-5 -2 -10.5 -3t-11.5 -1q-26 0 -43.5 18t-17.5 43t17.5 42.5t42.5 18.5zM258 800q36 0 55 -31q17 -28 17 -73
q0 -49 -34 -89q-14 -16 -32.5 -28t-38.5 -18l-2 6q19 6 36.5 17.5t31.5 27.5q11 12 21 32t12 48q-1 6 -5.5 6t-11 -2.5t-13.5 -6.5t-13 -7q-5 -2 -11 -3t-12 -1q-25 0 -42.5 18t-17.5 43t17 42.5t43 18.5z" />
    <glyph glyph-name="quotedblleft" unicode="&#x201c;" horiz-adv-x="364" 
d="M270 800q26 -1 43 -18.5t17 -42.5t-17.5 -43t-42.5 -18q-6 0 -12 1t-11 3q-6 3 -13 7t-13.5 6.5t-11 2.5t-5.5 -6q2 -28 12 -48t21 -32q14 -16 31.5 -27.5t36.5 -17.5l-2 -6q-20 6 -38.5 18t-32.5 28q-34 40 -34 89q0 45 17 73q19 31 55 31zM104 800q26 -1 43 -18.5
t17 -42.5t-17.5 -43t-43.5 -18q-6 0 -11.5 1t-10.5 3q-6 3 -13 7t-13.5 6.5t-11 2.5t-5.5 -6q1 -28 11 -48t21 -32q14 -16 32 -27.5t36 -17.5l-1 -6q-42 13 -71 46q-35 40 -35 89q0 44 18 73q19 31 55 31z" />
    <glyph glyph-name="quoteright" unicode="&#x2019;" horiz-adv-x="230" 
d="M110 800q37 0 56 -31q17 -28 17 -73q0 -49 -34 -89q-30 -33 -71 -46l-2 6q19 6 36.5 17.5t31.5 27.5q11 12 21 32t12 48q-1 6 -5.5 6t-11 -2.5t-13.5 -6.5t-13 -7q-6 -2 -11.5 -3t-11.5 -1q-25 0 -43 18t-18 43t17.5 42.5t42.5 18.5z" />
    <glyph glyph-name="quoteleft" unicode="&#x2018;" horiz-adv-x="230" 
d="M123 800q26 -1 43 -18.5t17 -42.5t-17.5 -43t-43.5 -18q-6 0 -11.5 1t-10.5 3q-6 3 -13 7t-13.5 6.5t-11 2.5t-5.5 -6q1 -28 11.5 -48t21.5 -32q14 -16 31.5 -27.5t36.5 -17.5l-2 -6q-20 6 -38.5 18t-32.5 28q-35 40 -35 89q0 44 18 73q19 31 55 31z" />
    <glyph glyph-name="OE" unicode="&#x152;" horiz-adv-x="1175" 
d="M46 400q0 41 6.5 79.5t20.5 75.5q26 72 75 127q51 57 112 86q32 16 67 23.5t71 7.5h68h204h399h6v-210h-6v1h-1q-8 33 -18.5 69t-33 65.5t-60 49t-99.5 19.5h-30h-157v-111v-280h142q43 1 67.5 19.5t36.5 41.5t15 44t3 28v4h8v-137v-6v-136h-8v-1v1v2q0 8 -3 30t-16 45
t-38 41t-70 18h-6h-131v-274v-18q0 -28 4.5 -46t15 -29t27.5 -16.5t42 -6.5h111q41 0 73.5 10t58.5 26t45 36.5t33 42.5q33 51 46 116h6l-29 -238h-6h-307h-288h-108q-68 0 -136 31q-31 16 -59 37.5t-52 49.5q-49 57 -74 127q-14 38 -20.5 76.5t-6.5 78.5v1zM412 792
q-53 0 -100 -31t-82 -84t-55.5 -125t-20.5 -153q0 -106 33.5 -193t87.5 -140q26 -21 49 -33.5t39 -18.5q26 -8 49 -8h59q26 1 43.5 6.5t28 16.5t15 29.5t4.5 46.5v577v12q0 27 -4 45t-14 29t-26 16.5t-40 7.5h-66z" />
    <glyph glyph-name="AE" unicode="&#xc6;" horiz-adv-x="1210" 
d="M147 1h-96l1 7q1 0 17.5 2t41.5 13.5t53.5 35.5t53.5 69l342 612q-7 29 -27 40t-58 14h-32v7h178q2 -1 7 -1q4 0 6 1h37h399h8v-211h-8v1q-8 33 -18.5 68.5t-32.5 65.5t-60 49.5t-100 19.5h-29h-159l1 -111v-279h142q43 1 67.5 19t37 41t15.5 44t3 29v3h7v-136v-7v-136
h-7v3q0 7 -3 29t-16 45t-38 41t-70 18h-8h-130v-274v-17q0 -28 4.5 -46.5t15 -29.5t27.5 -16.5t43 -6.5h110q41 0 74 10t58.5 26t44.5 36.5t33 42.5q32 51 45 116h7l-28 -238h-8h-305h-349v7q34 0 57.5 3.5t37.5 14.5t20 30t6 51v212h-233l-106 -189q-17 -30 -16.5 -50.5
t10.5 -34t26.5 -21t32.5 -11t28 -4t13 -0.5l-2 -7h-163h-8zM336 325h229v357q0 3 -0.5 6t-0.5 7v18.5t-2 16.5z" />
    <glyph glyph-name="colon" unicode=":" horiz-adv-x="217" 
d="M110 288q26 0 43.5 -17.5t17.5 -43.5q0 -25 -17.5 -43t-43.5 -18q-25 0 -42.5 18t-17.5 43q0 26 17.5 43.5t42.5 17.5zM110 632q26 0 43.5 -17.5t17.5 -43.5q0 -25 -17.5 -43t-43.5 -18q-25 0 -42.5 18t-17.5 43q0 26 17.5 43.5t42.5 17.5z" />
    <glyph glyph-name="semicolon" unicode=";" horiz-adv-x="217" 
d="M110 632q26 0 43.5 -17.5t17.5 -43.5q0 -25 -17.5 -43t-43.5 -18q-25 0 -42.5 18t-17.5 43q0 26 17.5 43.5t42.5 17.5zM110 288q34 0 54 -31q18 -29 18 -73q0 -49 -34 -89q-30 -33 -71 -46l-2 6q19 5 36.5 17t31.5 28q11 12 21 32t11 47q-1 6 -5.5 6.5t-10.5 -2t-13 -6.5
t-13 -7q-9 -4 -23 -4q-26 0 -43.5 17.5t-17.5 42.5q0 26 17.5 43.5t43.5 17.5v1z" />
    <glyph glyph-name="questiondown" unicode="&#xbf;" horiz-adv-x="521" 
d="M100 50q-60 51 -60 132q0 36 13 68t33.5 60.5t45.5 53.5t50 49q44 39 72 73q29 37 30 70q-1 0 -1 1h1h6v-12q-1 -4 -1 -7.5t-1 -6.5q-8 -40 -33.5 -78t-52.5 -78.5t-48.5 -85.5t-21.5 -99q0 -93 31.5 -135t78.5 -45h8q11 0 21 0.5t21 2.5q42 9 62 34t27.5 54.5t6.5 58
t0 44.5q1 17 14 29.5t31 12.5q17 0 29 -13t12 -30q-2 -40 -19.5 -76.5t-49.5 -65.5t-72 -44t-83 -15q-45 0 -84 12q-18 7 -35 16t-31 20zM285 677q-27 0 -46.5 19t-19.5 47q0 27 19.5 46.5t46.5 19.5h1q27 0 46 -19.5t19 -46.5q0 -28 -19 -47t-46 -19q-1 0 -1 1v-1z" />
    <glyph glyph-name="exclamdown" unicode="&#xa1;" horiz-adv-x="246" 
d="M132 668q-27 0 -46.5 19.5t-19.5 46.5t19.5 46.5t46.5 19.5t46.5 -19.5t19.5 -46.5t-19.5 -46.5t-46.5 -19.5zM198 65v-8q0 -24 -17.5 -41.5t-41.5 -17.5t-41 17.5t-17 41.5q0 5 1 8l47 483h6z" />
    <glyph glyph-name="Agrave" unicode="&#xc0;" horiz-adv-x="868" 
d="M23 8q1 0 17.5 2t39 13.5t47.5 35.5t43 69l269 672h8l268 -670q18 -44 33 -67.5t30 -35t30.5 -14t35.5 -5.5v-7h-328v7q36 2 61.5 4.5t38.5 13.5t11 35.5t-20 70.5l-74 186h-279l-76 -189q-12 -30 -8.5 -50.5t15.5 -34t29.5 -21t34 -11t28.5 -4t13 -0.5v-7h-267v7z
M394 666l-137 -341h273zM370 929q-5 2 -10 5q-14 11 -16.5 28.5t7.5 31.5q11 14 28.5 16.5t31.5 -8.5q2 0 6 -4q1 -3 4 -4l136 -146l-7 -8z" />
    <glyph glyph-name="Aacute" unicode="&#xc1;" horiz-adv-x="868" 
d="M23 8q1 0 17.5 2t39 13.5t47.5 35.5t43 69l269 672h8l268 -670q18 -44 33 -67.5t30 -35t30.5 -14t35.5 -5.5v-7h-328v7q36 2 61.5 4.5t38.5 13.5t11 35.5t-20 70.5l-74 186h-279l-76 -189q-12 -30 -8.5 -50.5t15.5 -34t29.5 -21t34 -11t28.5 -4t13 -0.5v-7h-267v7z
M394 666l-137 -341h273zM341 843l-7 8l137 146q1 2 4 4.5t5 4.5q14 11 31.5 8t28.5 -17t8 -31.5t-17 -27.5q-5 -5 -10 -6z" />
    <glyph glyph-name="Acircumflex" unicode="&#xc2;" horiz-adv-x="868" 
d="M23 8q1 0 17.5 2t39 13.5t47.5 35.5t43 69l269 672h8l268 -670q18 -44 33 -67.5t30 -35t30.5 -14t35.5 -5.5v-7h-328v7q36 2 61.5 4.5t38.5 13.5t11 35.5t-20 70.5l-74 186h-279l-76 -189q-12 -30 -8.5 -50.5t15.5 -34t29.5 -21t34 -11t28.5 -4t13 -0.5v-7h-267v7z
M394 666l-137 -341h273zM316 837l-6 9l136 144l136 -144l-5 -9l-131 65z" />
    <glyph glyph-name="Atilde" unicode="&#xc3;" horiz-adv-x="868" 
d="M23 8q1 0 17.5 2t39 13.5t47.5 35.5t43 69l269 672h8l268 -670q18 -44 33 -67.5t30 -35t30.5 -14t35.5 -5.5v-7h-328v7q36 2 61.5 4.5t38.5 13.5t11 35.5t-20 70.5l-74 186h-279l-76 -189q-12 -30 -8.5 -50.5t15.5 -34t29.5 -21t34 -11t28.5 -4t13 -0.5v-7h-267v7z
M394 666l-137 -341h273zM373 905q-21 0 -40.5 -12.5t-23.5 -29.5h-8q13 74 94 74q22 0 61 -21q37 -20 57 -20t40 18.5t29 39.5h8q-9 -39 -32.5 -65t-61.5 -26q-24 0 -63 21t-60 21z" />
    <glyph glyph-name="Adieresis" unicode="&#xc4;" horiz-adv-x="868" 
d="M23 8q1 0 17.5 2t39 13.5t47.5 35.5t43 69l269 672h8l268 -670q18 -44 33 -67.5t30 -35t30.5 -14t35.5 -5.5v-7h-328v7q36 2 61.5 4.5t38.5 13.5t11 35.5t-20 70.5l-74 186h-279l-76 -189q-12 -30 -8.5 -50.5t15.5 -34t29.5 -21t34 -11t28.5 -4t13 -0.5v-7h-267v7z
M394 666l-137 -341h273zM358 858q-24 0 -41 16.5t-17 40.5t17 41t41 17t40.5 -17t16.5 -41t-16.5 -40.5t-40.5 -16.5zM532 858q-24 0 -41 16.5t-17 40.5t17 41t41 17t41 -17t17 -41t-17 -40.5t-41 -16.5z" />
    <glyph glyph-name="Aring" unicode="&#xc5;" horiz-adv-x="868" 
d="M23 8q1 0 17.5 2t39 13.5t47.5 35.5t43 69l269 672h8l268 -670q18 -44 33 -67.5t30 -35t30.5 -14t35.5 -5.5v-7h-328v7q36 2 61.5 4.5t38.5 13.5t11 35.5t-20 70.5l-74 186h-279l-76 -189q-12 -30 -8.5 -50.5t15.5 -34t29.5 -21t34 -11t28.5 -4t13 -0.5v-7h-267v7z
M394 666l-137 -341h273zM441 833q-26 0 -43.5 17.5t-17.5 43.5t17.5 43.5t43.5 17.5h1h5q23 -2 39 -19.5t16 -41.5t-16 -41.5t-39 -19.5h-5h-1zM421 933q-10 -16 -10 -39t10 -39q8 -15 21 -15q4 0 6 1q5 1 8 5t7 9q9 16 9 39q0 22 -9 39q-8 12 -15 14q-2 1 -6 1
q-13 0 -21 -15z" />
    <glyph glyph-name="Ccedilla" unicode="&#xc7;" horiz-adv-x="722" 
d="M424 -58q28 0 44 -19t11 -46q-4 -28 -26.5 -47.5t-49.5 -19.5q-25 0 -41 18l4 4q14 -16 38 -16q19 0 31.5 19t16 41.5t-3 41.5t-25.5 19q-24 0 -45 -18h-6l11 78q-34 1 -66.5 8.5t-63.5 23.5q-62 30 -111 86q-48 54 -76 128q-14 38 -21 77t-7 80h4v1h-4q0 41 7 80t21 77
q28 74 76 128q24 27 51.5 49t59.5 37q64 32 137 32q53 0 98 -19h1q2 -2 4 -2l1 -1q7 -3 13.5 -6t13.5 -7q52 -25 82 -25t45 10q18 11 23 35h7v-291h-7q-5 37 -14.5 70t-22.5 62q-13 27 -29.5 50.5t-35.5 42.5q-36 36 -84 56q-37 15 -80 18q-53 0 -100 -31t-82 -85
t-55.5 -126.5t-20.5 -154.5q0 -106 33.5 -194t87.5 -141q26 -23 49 -35.5t40 -18.5q11 -4 23.5 -5.5t24.5 -1.5q21 2 40.5 6t39.5 12q45 18 83 56q20 18 35.5 41.5t28.5 50.5q14 29 23 62t15 70l7 -1q-11 -76 -39 -134q-26 -56 -65 -95q-38 -36 -86 -56q-44 -19 -97 -19
l-11 -70q21 15 45 15z" />
    <glyph glyph-name="Egrave" unicode="&#xc8;" horiz-adv-x="769" 
d="M465 6q41 0 74 10t58.5 26t44.5 36.5t33 42.5q32 51 45 116h7l-29 -238h-7h-305h-349v7q34 0 57.5 3.5t37.5 14.5t20 30t6 51v577q0 3 -0.5 6t-0.5 6q0 55 -19.5 75.5t-69.5 23.5h-32v6h228h399h7v-210h-7v1q-8 33 -18.5 69t-32.5 65.5t-60 49t-100 19.5h-30h-158v-111
v-280h143q43 1 67.5 19.5t37 41.5t15.5 44t3 28v3h7v-136v-6v-137h-7v3q0 7 -3 29t-16 45.5t-38.5 41.5t-70.5 18h-7h-131v-274q1 -5 1 -18q0 -28 4.5 -46t15 -29t27.5 -16.5t42 -6.5h111zM340 929q-5 2 -10 5q-14 11 -17 28.5t8 31.5t28.5 16.5t31.5 -8.5q3 0 5 -4l4 -4
l136 -146l-6 -8z" />
    <glyph glyph-name="Eacute" unicode="&#xc9;" horiz-adv-x="769" 
d="M465 6q41 0 74 10t58.5 26t44.5 36.5t33 42.5q32 51 45 116h7l-29 -238h-7h-305h-349v7q34 0 57.5 3.5t37.5 14.5t20 30t6 51v577q0 3 -0.5 6t-0.5 6q0 55 -19.5 75.5t-69.5 23.5h-32v6h228h399h7v-210h-7v1q-8 33 -18.5 69t-32.5 65.5t-60 49t-100 19.5h-30h-158v-111
v-280h143q43 1 67.5 19.5t37 41.5t15.5 44t3 28v3h7v-136v-6v-137h-7v3q0 7 -3 29t-16 45.5t-38.5 41.5t-70.5 18h-7h-131v-274q1 -5 1 -18q0 -28 4.5 -46t15 -29t27.5 -16.5t42 -6.5h111zM330 843l-6 8l137 146q1 2 3.5 4.5t5.5 4.5q14 11 31.5 8t28.5 -17t8 -31.5
t-17 -27.5q-4 -4 -11 -6z" />
    <glyph glyph-name="Ecircumflex" unicode="&#xca;" horiz-adv-x="769" 
d="M465 6q41 0 74 10t58.5 26t44.5 36.5t33 42.5q32 51 45 116h7l-29 -238h-7h-305h-349v7q34 0 57.5 3.5t37.5 14.5t20 30t6 51v577q0 3 -0.5 6t-0.5 6q0 55 -19.5 75.5t-69.5 23.5h-32v6h228h399h7v-210h-7v1q-8 33 -18.5 69t-32.5 65.5t-60 49t-100 19.5h-30h-158v-111
v-280h143q43 1 67.5 19.5t37 41.5t15.5 44t3 28v3h7v-136v-6v-137h-7v3q0 7 -3 29t-16 45.5t-38.5 41.5t-70.5 18h-7h-131v-274q1 -5 1 -18q0 -28 4.5 -46t15 -29t27.5 -16.5t42 -6.5h111zM305 841l-6 9l136 144l136 -144l-5 -9l-131 65z" />
    <glyph glyph-name="Edieresis" unicode="&#xcb;" horiz-adv-x="769" 
d="M465 6q41 0 74 10t58.5 26t44.5 36.5t33 42.5q32 51 45 116h7l-29 -238h-7h-305h-349v7q34 0 57.5 3.5t37.5 14.5t20 30t6 51v577q0 3 -0.5 6t-0.5 6q0 55 -19.5 75.5t-69.5 23.5h-32v6h228h399h7v-210h-7v1q-8 33 -18.5 69t-32.5 65.5t-60 49t-100 19.5h-30h-158v-111
v-280h143q43 1 67.5 19.5t37 41.5t15.5 44t3 28v3h7v-136v-6v-137h-7v3q0 7 -3 29t-16 45.5t-38.5 41.5t-70.5 18h-7h-131v-274q1 -5 1 -18q0 -28 4.5 -46t15 -29t27.5 -16.5t42 -6.5h111zM334 858q-24 0 -41 16.5t-17 40.5t17 41t41 17t40.5 -17t16.5 -41t-16.5 -40.5
t-40.5 -16.5zM508 858q-24 0 -41 16.5t-17 40.5t17 41t41 17t41 -17t17 -41t-17 -40.5t-41 -16.5z" />
    <glyph glyph-name="Igrave" unicode="&#xcc;" horiz-adv-x="421" 
d="M38 6q34 0 57.5 3.5t37.5 14.5t20 30t6 51v577v12q0 55 -19.5 75.5t-69.5 23.5h-32v6h344h4v-5h1h-1v-1h-40q-45 -5 -62.5 -25t-17.5 -73v-13v-560v-18q0 -28 4.5 -46t15 -29t28 -16.5t42.5 -6.5h31v-7h-349v7zM142 929q-5 2 -10 5q-14 11 -16.5 28.5t7.5 31.5
q11 14 28.5 16.5t31.5 -8.5q2 0 6 -4q1 -3 4 -4l136 -146l-7 -8z" />
    <glyph glyph-name="Iacute" unicode="&#xcd;" horiz-adv-x="421" 
d="M38 6q34 0 57.5 3.5t37.5 14.5t20 30t6 51v577v12q0 55 -19.5 75.5t-69.5 23.5h-32v6h344h4v-5h1h-1v-1h-40q-45 -5 -62.5 -25t-17.5 -73v-13v-560v-18q0 -28 4.5 -46t15 -29t28 -16.5t42.5 -6.5h31v-7h-349v7zM118 843l-7 8l137 146q1 2 4 4.5t5 4.5q14 11 31.5 8
t28.5 -17t8 -31.5t-17 -27.5q-5 -5 -10 -6z" />
    <glyph glyph-name="Icircumflex" unicode="&#xce;" horiz-adv-x="421" 
d="M38 6q34 0 57.5 3.5t37.5 14.5t20 30t6 51v577v12q0 55 -19.5 75.5t-69.5 23.5h-32v6h344h4v-5h1h-1v-1h-40q-45 -5 -62.5 -25t-17.5 -73v-13v-560v-18q0 -28 4.5 -46t15 -29t28 -16.5t42.5 -6.5h31v-7h-349v7zM85 841l-6 9l136 144l136 -144l-5 -9l-131 65z" />
    <glyph glyph-name="Idieresis" unicode="&#xcf;" horiz-adv-x="421" 
d="M38 6q34 0 57.5 3.5t37.5 14.5t20 30t6 51v577v12q0 55 -19.5 75.5t-69.5 23.5h-32v6h344h4v-5h1h-1v-1h-40q-45 -5 -62.5 -25t-17.5 -73v-13v-560v-18q0 -28 4.5 -46t15 -29t28 -16.5t42.5 -6.5h31v-7h-349v7zM128 858q-24 0 -41 16.5t-17 40.5t17 41t41 17t41 -17
t17 -41t-17 -40.5t-41 -16.5zM302 858q-24 0 -40.5 16.5t-16.5 40.5t16.5 41t40.5 17t41 -17t17 -41t-17 -40.5t-41 -16.5z" />
    <glyph glyph-name="Ntilde" unicode="&#xd1;" horiz-adv-x="1005" 
d="M973 799v-7h-15q-16 0 -42.5 -4.5t-51.5 -17t-43.5 -36.5t-18.5 -64v-671h-8l-588 736v-606q0 -41 18.5 -65t43.5 -36.5t51.5 -17t42.5 -4.5h15v-7h-171h-8h-171v7h15q16 0 42.5 4.5t51.5 17t43.5 36.5t18.5 65v569q0 24 -1 41.5t-9 29.5t-26.5 17.5t-53.5 5.5h-31v7h121
h8h85l503 -625v496q0 40 -18.5 64t-43.5 36.5t-51.5 17t-42.5 4.5h-15v7h171h8h171zM438 905q-21 0 -41 -12.5t-23 -29.5h-8q12 74 94 74q20 0 61 -21q36 -20 57 -20q20 0 40 18.5t29 39.5h8q-9 -39 -32.5 -65t-61.5 -26q-24 0 -63 21t-60 21z" />
    <glyph glyph-name="Ograve" unicode="&#xd2;" 
d="M30 406q0 85 28 157q25 72 75 129q49 57 110 86q66 32 137 32h16h26h16q70 0 136 -32q64 -30 112 -86q50 -59 76 -129q27 -74 27 -157q0 -84 -27 -157q-26 -70 -76 -129q-48 -56 -112 -86q-66 -32 -136 -32h-16h-26h-16q-71 0 -137 32q-61 29 -110 86q-50 57 -75 129
q-28 72 -28 157zM139 406q0 -81 18.5 -153t55.5 -128q7 -12 15.5 -23t17.5 -20q31 -31 60.5 -46.5t47.5 -22.5q9 -2 19 -4t21 -2h8h22q11 0 20 2t20 4q17 7 46.5 22.5t61.5 46.5q8 9 16.5 20t16.5 23q37 56 56 128t19 153t-19 153t-56 128q-8 12 -16.5 23t-16.5 20
q-32 31 -61.5 46.5t-46.5 22.5q-11 2 -20 3.5t-20 1.5h-22h-8q-20 0 -40 -5q-18 -7 -47.5 -22.5t-60.5 -46.5q-9 -9 -17.5 -20t-15.5 -23q-37 -56 -55.5 -128t-18.5 -153zM351 929q-5 2 -10 5q-14 11 -17 28.5t8 31.5t28.5 16.5t31.5 -8.5q2 0 6 -4q1 -3 4 -4l136 -146
l-7 -8z" />
    <glyph glyph-name="Oacute" unicode="&#xd3;" 
d="M30 406q0 85 28 157q25 72 75 129q49 57 110 86q66 32 137 32h16h26h16q70 0 136 -32q64 -30 112 -86q50 -59 76 -129q27 -74 27 -157q0 -84 -27 -157q-26 -70 -76 -129q-48 -56 -112 -86q-66 -32 -136 -32h-16h-26h-16q-71 0 -137 32q-61 29 -110 86q-50 57 -75 129
q-28 72 -28 157zM139 406q0 -81 18.5 -153t55.5 -128q7 -12 15.5 -23t17.5 -20q31 -31 60.5 -46.5t47.5 -22.5q9 -2 19 -4t21 -2h8h22q11 0 20 2t20 4q17 7 46.5 22.5t61.5 46.5q8 9 16.5 20t16.5 23q37 56 56 128t19 153t-19 153t-56 128q-8 12 -16.5 23t-16.5 20
q-32 31 -61.5 46.5t-46.5 22.5q-11 2 -20 3.5t-20 1.5h-22h-8q-20 0 -40 -5q-18 -7 -47.5 -22.5t-60.5 -46.5q-9 -9 -17.5 -20t-15.5 -23q-37 -56 -55.5 -128t-18.5 -153zM313 843l-7 8l137 146q1 2 4 4.5t5 4.5q14 11 31.5 8t28.5 -17t8 -31.5t-17 -27.5q-5 -5 -10 -6z" />
    <glyph glyph-name="Ocircumflex" unicode="&#xd4;" 
d="M30 406q0 85 28 157q25 72 75 129q49 57 110 86q66 32 137 32h16h26h16q70 0 136 -32q64 -30 112 -86q50 -59 76 -129q27 -74 27 -157q0 -84 -27 -157q-26 -70 -76 -129q-48 -56 -112 -86q-66 -32 -136 -32h-16h-26h-16q-71 0 -137 32q-61 29 -110 86q-50 57 -75 129
q-28 72 -28 157zM139 406q0 -81 18.5 -153t55.5 -128q7 -12 15.5 -23t17.5 -20q31 -31 60.5 -46.5t47.5 -22.5q9 -2 19 -4t21 -2h8h22q11 0 20 2t20 4q17 7 46.5 22.5t61.5 46.5q8 9 16.5 20t16.5 23q37 56 56 128t19 153t-19 153t-56 128q-8 12 -16.5 23t-16.5 20
q-32 31 -61.5 46.5t-46.5 22.5q-11 2 -20 3.5t-20 1.5h-22h-8q-20 0 -40 -5q-18 -7 -47.5 -22.5t-60.5 -46.5q-9 -9 -17.5 -20t-15.5 -23q-37 -56 -55.5 -128t-18.5 -153zM279 841l-5 9l136 144l136 -144l-6 -9l-130 65z" />
    <glyph glyph-name="Otilde" unicode="&#xd5;" 
d="M30 406q0 85 28 157q25 72 75 129q49 57 110 86q66 32 137 32h16h26h16q70 0 136 -32q64 -30 112 -86q50 -59 76 -129q27 -74 27 -157q0 -84 -27 -157q-26 -70 -76 -129q-48 -56 -112 -86q-66 -32 -136 -32h-16h-26h-16q-71 0 -137 32q-61 29 -110 86q-50 57 -75 129
q-28 72 -28 157zM139 406q0 -81 18.5 -153t55.5 -128q7 -12 15.5 -23t17.5 -20q31 -31 60.5 -46.5t47.5 -22.5q9 -2 19 -4t21 -2h8h22q11 0 20 2t20 4q17 7 46.5 22.5t61.5 46.5q8 9 16.5 20t16.5 23q37 56 56 128t19 153t-19 153t-56 128q-8 12 -16.5 23t-16.5 20
q-32 31 -61.5 46.5t-46.5 22.5q-11 2 -20 3.5t-20 1.5h-22h-8q-20 0 -40 -5q-18 -7 -47.5 -22.5t-60.5 -46.5q-9 -9 -17.5 -20t-15.5 -23q-37 -56 -55.5 -128t-18.5 -153zM340 905q-21 0 -40.5 -12.5t-23.5 -29.5h-8q13 74 94 74q22 0 61 -21q37 -20 57 -20t40.5 18.5
t29.5 39.5h8q-9 -39 -33 -65t-62 -26q-24 0 -63 21t-60 21z" />
    <glyph glyph-name="Odieresis" unicode="&#xd6;" 
d="M30 406q0 85 28 157q25 72 75 129q49 57 110 86q66 32 137 32h16h26h16q70 0 136 -32q64 -30 112 -86q50 -59 76 -129q27 -74 27 -157q0 -84 -27 -157q-26 -70 -76 -129q-48 -56 -112 -86q-66 -32 -136 -32h-16h-26h-16q-71 0 -137 32q-61 29 -110 86q-50 57 -75 129
q-28 72 -28 157zM139 406q0 -81 18.5 -153t55.5 -128q7 -12 15.5 -23t17.5 -20q31 -31 60.5 -46.5t47.5 -22.5q9 -2 19 -4t21 -2h8h22q11 0 20 2t20 4q17 7 46.5 22.5t61.5 46.5q8 9 16.5 20t16.5 23q37 56 56 128t19 153t-19 153t-56 128q-8 12 -16.5 23t-16.5 20
q-32 31 -61.5 46.5t-46.5 22.5q-11 2 -20 3.5t-20 1.5h-22h-8q-20 0 -40 -5q-18 -7 -47.5 -22.5t-60.5 -46.5q-9 -9 -17.5 -20t-15.5 -23q-37 -56 -55.5 -128t-18.5 -153zM326 858q-24 0 -40.5 16.5t-16.5 40.5t16.5 41t40.5 17t41 -17t17 -41t-17 -40.5t-41 -16.5zM501 858
q-24 0 -41 16.5t-17 40.5t17 41t41 17t40.5 -17t16.5 -41t-16.5 -40.5t-40.5 -16.5z" />
    <glyph glyph-name="Oslash" unicode="&#xd8;" 
d="M268 18l-25 11q-63 31 -110 86q-50 57 -75 129q-28 74 -28 157v1q0 41 7 80t21 76q26 74 75 129q49 56 110 87q32 15 66.5 23.5t70.5 8.5h58q35 0 69.5 -8.5t66.5 -23.5l1 -1l9 22h17l-12 -29q54 -30 97 -79q49 -56 76 -129q27 -74 27 -156v-1q0 -82 -27 -157
q-26 -70 -76 -129q-24 -28 -52 -49t-60 -37q-66 -32 -136 -32h-58q-51 0 -97 15l-6 -17h-18zM139 401q0 -81 18.5 -153t55.5 -128q7 -12 15.5 -22.5t17.5 -20.5q8 -8 17 -15.5t17 -14.5l280 690q-29 25 -54.5 38t-41.5 19q-11 3 -20 4t-20 1h-30q-11 0 -21 -1t-19 -4
q-18 -6 -47.5 -22t-60.5 -46q-9 -10 -17.5 -21t-15.5 -23q-37 -56 -55.5 -128t-18.5 -152v-1zM605 682q-8 12 -16.5 22.5t-16.5 20.5l-278 -687q18 -12 33.5 -19t26.5 -11q9 -2 19 -4t21 -2h30q11 0 20 2t20 4q17 7 46.5 22.5t61.5 46.5q8 10 16.5 20.5t16.5 22.5
q37 56 56 128t19 153v1q0 80 -19 152t-56 128z" />
    <glyph glyph-name="Ugrave" unicode="&#xd9;" horiz-adv-x="931" 
d="M554 801h349v-7h-15q-16 -1 -42 -5t-51.5 -17t-44 -37t-18.5 -64v-433q0 -51 -22 -95.5t-64 -78.5q-41 -32 -94 -49t-113 -17h-3h-1h-2q-58 0 -109 17t-91 49q-42 34 -64.5 79t-22.5 106v473q-3 39 -23 54.5t-65 17.5h-32v8h344h1h4v-5l1 -1h-1v-2h-41q-36 -3 -54 -17
t-23 -47v-474q0 -59 18 -110t53.5 -85t86.5 -47.5t117 2.5q61 16 110 54q38 29 60 73q23 43 23 95v438q-1 39 -20 62t-44 35t-51 16t-41 5h-15v7zM369 929q-3 1 -11 5q-14 11 -16.5 28.5t8.5 31.5t28 16.5t32 -8.5q3 0 5 -4l4 -4l136 -146l-6 -8z" />
    <glyph glyph-name="Uacute" unicode="&#xda;" horiz-adv-x="931" 
d="M554 801h349v-7h-15q-16 -1 -42 -5t-51.5 -17t-44 -37t-18.5 -64v-433q0 -51 -22 -95.5t-64 -78.5q-41 -32 -94 -49t-113 -17h-3h-1h-2q-58 0 -109 17t-91 49q-42 34 -64.5 79t-22.5 106v473q-3 39 -23 54.5t-65 17.5h-32v8h344h1h4v-5l1 -1h-1v-2h-41q-36 -3 -54 -17
t-23 -47v-474q0 -59 18 -110t53.5 -85t86.5 -47.5t117 2.5q61 16 110 54q38 29 60 73q23 43 23 95v438q-1 39 -20 62t-44 35t-51 16t-41 5h-15v7zM370 843l-6 8l137 146q1 2 3.5 4.5t5.5 4.5q14 11 31.5 8t28.5 -17t8 -31.5t-17 -27.5q-4 -4 -11 -6z" />
    <glyph glyph-name="Ucircumflex" unicode="&#xdb;" horiz-adv-x="931" 
d="M554 801h349v-7h-15q-16 -1 -42 -5t-51.5 -17t-44 -37t-18.5 -64v-433q0 -51 -22 -95.5t-64 -78.5q-41 -32 -94 -49t-113 -17h-3h-1h-2q-58 0 -109 17t-91 49q-42 34 -64.5 79t-22.5 106v473q-3 39 -23 54.5t-65 17.5h-32v8h344h1h4v-5l1 -1h-1v-2h-41q-36 -3 -54 -17
t-23 -47v-474q0 -59 18 -110t53.5 -85t86.5 -47.5t117 2.5q61 16 110 54q38 29 60 73q23 43 23 95v438q-1 39 -20 62t-44 35t-51 16t-41 5h-15v7zM330 841l-5 9l136 144l136 -144l-6 -9l-130 65z" />
    <glyph glyph-name="Udieresis" unicode="&#xdc;" horiz-adv-x="931" 
d="M554 801h349v-7h-15q-16 -1 -42 -5t-51.5 -17t-44 -37t-18.5 -64v-433q0 -51 -22 -95.5t-64 -78.5q-41 -32 -94 -49t-113 -17h-3h-1h-2q-58 0 -109 17t-91 49q-42 34 -64.5 79t-22.5 106v473q-3 39 -23 54.5t-65 17.5h-32v8h344h1h4v-5l1 -1h-1v-2h-41q-36 -3 -54 -17
t-23 -47v-474q0 -59 18 -110t53.5 -85t86.5 -47.5t117 2.5q61 16 110 54q38 29 60 73q23 43 23 95v438q-1 39 -20 62t-44 35t-51 16t-41 5h-15v7zM374 858q-24 0 -41 16.5t-17 40.5t17 41t41 17t40.5 -17t16.5 -41t-16.5 -40.5t-40.5 -16.5zM548 858q-24 0 -41 16.5
t-17 40.5t17 41t41 17t41 -17t17 -41t-17 -40.5t-41 -16.5z" />
    <glyph glyph-name="Yacute" unicode="&#xdd;" horiz-adv-x="893" 
d="M475 342v-220v-19q0 -55 20 -76t71 -21h31v-8h-349v8q34 0 57 3.5t37 14t20 30t6 50.5v238q-50 92 -84.5 155.5t-57.5 105.5t-35.5 65t-18.5 34.5t-7.5 14.5t-2.5 4q-14 25 -35 40t-42 22t-38 9t-24 2v6h311v-6h-17q-11 -1 -25 -3.5t-24 -9t-13.5 -18t7.5 -30.5l209 -384
l154 281q22 41 30.5 69t7 46t-9.5 27.5t-18.5 14t-21 5.5t-16.5 1v7h268v-7h-4q-10 0 -36 -5.5t-59 -22.5t-69 -49t-65 -86zM348 843l-6 8l136 146q1 2 4 4.5t5 4.5q14 11 31.5 8t28.5 -17t8.5 -31.5t-17.5 -27.5q-5 -5 -10 -6z" />
    <glyph glyph-name="germandbls" unicode="&#xdf;" horiz-adv-x="838" 
d="M156 1h-121v7q34 0 57.5 3.5t37.5 14t20 30t6 50.5v549q0 31 12 59t32.5 48.5t48 32.5t59.5 12h23h327h48l-187 -403h11q54 0 95 -10h1q8 -2 15.5 -4t15.5 -4q25 -9 47 -21t39 -29q31 -29 47 -66.5t16 -80.5q0 -39 -12 -73q-19 -47 -55 -79q-16 -14 -34 -25.5t-38 -19.5
q-44 -18 -97 -18q-48 0 -91.5 16t-75.5 47q-32 30 -48.5 68.5t-16.5 83.5q0 17 12 29t29 12t30 -12t14 -29v-30t1.5 -41t8 -44.5t20 -42t36 -33t58.5 -16.5q6 -1 11.5 -1h11.5h14.5t13.5 1q39 6 66 37.5t40.5 76t13 95t-17.5 95t-51 75.5t-87 36h-12l-4 1h-16h-64h-56
l188 403h-258h-2h-16q-20 -1 -32 -13.5t-18 -33.5t-8 -49.5t-2 -61.5v-642h-18h-88z" />
    <glyph glyph-name="Ydieresis" unicode="&#x178;" horiz-adv-x="893" 
d="M475 342v-220v-19q0 -55 20 -76t71 -21h31v-8h-349v8q34 0 57 3.5t37 14t20 30t6 50.5v238q-50 92 -84.5 155.5t-57.5 105.5t-35.5 65t-18.5 34.5t-7.5 14.5t-2.5 4q-14 25 -35 40t-42 22t-38 9t-24 2v6h311v-6h-17q-11 -1 -25 -3.5t-24 -9t-13.5 -18t7.5 -30.5l209 -384
l154 281q22 41 30.5 69t7 46t-9.5 27.5t-18.5 14t-21 5.5t-16.5 1v7h268v-7h-4q-10 0 -36 -5.5t-59 -22.5t-69 -49t-65 -86zM376 858q-24 0 -41 16.5t-17 40.5t17 41t41 17t41 -17t17 -41t-17 -40.5t-41 -16.5zM550 858q-24 0 -40.5 16.5t-16.5 40.5t16.5 41t40.5 17t41 -17
t17 -41t-17 -40.5t-41 -16.5z" />
    <glyph glyph-name="oe" unicode="&#x153;" horiz-adv-x="1175" 
d="M46 400q0 41 6.5 79.5t20.5 75.5q26 72 75 127q51 57 112 86q32 16 67 23.5t71 7.5h68h204h399h6v-210h-6v1h-1q-8 33 -18.5 69t-33 65.5t-60 49t-99.5 19.5h-30h-157v-111v-280h142q43 1 67.5 19.5t36.5 41.5t15 44t3 28v4h8v-137v-6v-136h-8v-1v1v2q0 8 -3 30t-16 45
t-38 41t-70 18h-6h-131v-274v-18q0 -28 4.5 -46t15 -29t27.5 -16.5t42 -6.5h111q41 0 73.5 10t58.5 26t45 36.5t33 42.5q33 51 46 116h6l-29 -238h-6h-307h-288h-108q-68 0 -136 31q-31 16 -59 37.5t-52 49.5q-49 57 -74 127q-14 38 -20.5 76.5t-6.5 78.5v1zM412 792
q-53 0 -100 -31t-82 -84t-55.5 -125t-20.5 -153q0 -106 33.5 -193t87.5 -140q26 -21 49 -33.5t39 -18.5q26 -8 49 -8h59q26 1 43.5 6.5t28 16.5t15 29.5t4.5 46.5v577v12q0 27 -4 45t-14 29t-26 16.5t-40 7.5h-66z" />
    <glyph glyph-name="agrave" unicode="&#xe0;" horiz-adv-x="868" 
d="M23 8q1 0 17.5 2t39 13.5t47.5 35.5t43 69l269 672h8l268 -670q18 -44 33 -67.5t30 -35t30.5 -14t35.5 -5.5v-7h-328v7q36 2 61.5 4.5t38.5 13.5t11 35.5t-20 70.5l-74 186h-279l-76 -189q-12 -30 -8.5 -50.5t15.5 -34t29.5 -21t34 -11t28.5 -4t13 -0.5v-7h-267v7z
M394 666l-137 -341h273zM370 929q-5 2 -10 5q-14 11 -16.5 28.5t7.5 31.5q11 14 28.5 16.5t31.5 -8.5q2 0 6 -4q1 -3 4 -4l136 -146l-7 -8z" />
    <glyph glyph-name="aacute" unicode="&#xe1;" horiz-adv-x="868" 
d="M23 8q1 0 17.5 2t39 13.5t47.5 35.5t43 69l269 672h8l268 -670q18 -44 33 -67.5t30 -35t30.5 -14t35.5 -5.5v-7h-328v7q36 2 61.5 4.5t38.5 13.5t11 35.5t-20 70.5l-74 186h-279l-76 -189q-12 -30 -8.5 -50.5t15.5 -34t29.5 -21t34 -11t28.5 -4t13 -0.5v-7h-267v7z
M394 666l-137 -341h273zM341 843l-7 8l137 146q1 2 4 4.5t5 4.5q14 11 31.5 8t28.5 -17t8 -31.5t-17 -27.5q-5 -5 -10 -6z" />
    <glyph glyph-name="acircumflex" unicode="&#xe2;" horiz-adv-x="868" 
d="M23 8q1 0 17.5 2t39 13.5t47.5 35.5t43 69l269 672h8l268 -670q18 -44 33 -67.5t30 -35t30.5 -14t35.5 -5.5v-7h-328v7q36 2 61.5 4.5t38.5 13.5t11 35.5t-20 70.5l-74 186h-279l-76 -189q-12 -30 -8.5 -50.5t15.5 -34t29.5 -21t34 -11t28.5 -4t13 -0.5v-7h-267v7z
M394 666l-137 -341h273zM316 837l-6 9l136 144l136 -144l-5 -9l-131 65z" />
    <glyph glyph-name="atilde" unicode="&#xe3;" horiz-adv-x="868" 
d="M23 8q1 0 17.5 2t39 13.5t47.5 35.5t43 69l269 672h8l268 -670q18 -44 33 -67.5t30 -35t30.5 -14t35.5 -5.5v-7h-328v7q36 2 61.5 4.5t38.5 13.5t11 35.5t-20 70.5l-74 186h-279l-76 -189q-12 -30 -8.5 -50.5t15.5 -34t29.5 -21t34 -11t28.5 -4t13 -0.5v-7h-267v7z
M394 666l-137 -341h273zM373 905q-21 0 -40.5 -12.5t-23.5 -29.5h-8q13 74 94 74q22 0 61 -21q37 -20 57 -20t40 18.5t29 39.5h8q-9 -39 -32.5 -65t-61.5 -26q-24 0 -63 21t-60 21z" />
    <glyph glyph-name="adieresis" unicode="&#xe4;" horiz-adv-x="868" 
d="M23 8q1 0 17.5 2t39 13.5t47.5 35.5t43 69l269 672h8l268 -670q18 -44 33 -67.5t30 -35t30.5 -14t35.5 -5.5v-7h-328v7q36 2 61.5 4.5t38.5 13.5t11 35.5t-20 70.5l-74 186h-279l-76 -189q-12 -30 -8.5 -50.5t15.5 -34t29.5 -21t34 -11t28.5 -4t13 -0.5v-7h-267v7z
M394 666l-137 -341h273zM358 858q-24 0 -41 16.5t-17 40.5t17 41t41 17t40.5 -17t16.5 -41t-16.5 -40.5t-40.5 -16.5zM532 858q-24 0 -41 16.5t-17 40.5t17 41t41 17t41 -17t17 -41t-17 -40.5t-41 -16.5z" />
    <glyph glyph-name="aring" unicode="&#xe5;" horiz-adv-x="868" 
d="M23 8q1 0 17.5 2t39 13.5t47.5 35.5t43 69l269 672h8l268 -670q18 -44 33 -67.5t30 -35t30.5 -14t35.5 -5.5v-7h-328v7q36 2 61.5 4.5t38.5 13.5t11 35.5t-20 70.5l-74 186h-279l-76 -189q-12 -30 -8.5 -50.5t15.5 -34t29.5 -21t34 -11t28.5 -4t13 -0.5v-7h-267v7z
M394 666l-137 -341h273zM441 833q-26 0 -43.5 17.5t-17.5 43.5t17.5 43.5t43.5 17.5h1h5q23 -2 39 -19.5t16 -41.5t-16 -41.5t-39 -19.5h-5h-1zM421 933q-10 -16 -10 -39t10 -39q8 -15 21 -15q4 0 6 1q5 1 8 5t7 9q9 16 9 39q0 22 -9 39q-8 12 -15 14q-2 1 -6 1
q-13 0 -21 -15z" />
    <glyph glyph-name="ae" unicode="&#xe6;" horiz-adv-x="1210" 
d="M147 1h-96l1 7q1 0 17.5 2t41.5 13.5t53.5 35.5t53.5 69l342 612q-7 29 -27 40t-58 14h-32v7h178q2 -1 7 -1q4 0 6 1h37h399h8v-211h-8v1q-8 33 -18.5 68.5t-32.5 65.5t-60 49.5t-100 19.5h-29h-159l1 -111v-279h142q43 1 67.5 19t37 41t15.5 44t3 29v3h7v-136v-7v-136
h-7v3q0 7 -3 29t-16 45t-38 41t-70 18h-8h-130v-274v-17q0 -28 4.5 -46.5t15 -29.5t27.5 -16.5t43 -6.5h110q41 0 74 10t58.5 26t44.5 36.5t33 42.5q32 51 45 116h7l-28 -238h-8h-305h-349v7q34 0 57.5 3.5t37.5 14.5t20 30t6 51v212h-233l-106 -189q-17 -30 -16.5 -50.5
t10.5 -34t26.5 -21t32.5 -11t28 -4t13 -0.5l-2 -7h-163h-8zM336 325h229v357q0 3 -0.5 6t-0.5 7v18.5t-2 16.5z" />
    <glyph glyph-name="ccedilla" unicode="&#xe7;" horiz-adv-x="722" 
d="M424 -58q28 0 44 -19t11 -46q-4 -28 -26.5 -47.5t-49.5 -19.5q-25 0 -41 18l4 4q14 -16 38 -16q19 0 31.5 19t16 41.5t-3 41.5t-25.5 19q-24 0 -45 -18h-6l11 78q-34 1 -66.5 8.5t-63.5 23.5q-62 30 -111 86q-48 54 -76 128q-14 38 -21 77t-7 80h4v1h-4q0 41 7 80t21 77
q28 74 76 128q24 27 51.5 49t59.5 37q64 32 137 32q53 0 98 -19h1q2 -2 4 -2l1 -1q7 -3 13.5 -6t13.5 -7q52 -25 82 -25t45 10q18 11 23 35h7v-291h-7q-5 37 -14.5 70t-22.5 62q-13 27 -29.5 50.5t-35.5 42.5q-36 36 -84 56q-37 15 -80 18q-53 0 -100 -31t-82 -85
t-55.5 -126.5t-20.5 -154.5q0 -106 33.5 -194t87.5 -141q26 -23 49 -35.5t40 -18.5q11 -4 23.5 -5.5t24.5 -1.5q21 2 40.5 6t39.5 12q45 18 83 56q20 18 35.5 41.5t28.5 50.5q14 29 23 62t15 70l7 -1q-11 -76 -39 -134q-26 -56 -65 -95q-38 -36 -86 -56q-44 -19 -97 -19
l-11 -70q21 15 45 15z" />
    <glyph glyph-name="egrave" unicode="&#xe8;" horiz-adv-x="769" 
d="M465 6q41 0 74 10t58.5 26t44.5 36.5t33 42.5q32 51 45 116h7l-29 -238h-7h-305h-349v7q34 0 57.5 3.5t37.5 14.5t20 30t6 51v577q0 3 -0.5 6t-0.5 6q0 55 -19.5 75.5t-69.5 23.5h-32v6h228h399h7v-210h-7v1q-8 33 -18.5 69t-32.5 65.5t-60 49t-100 19.5h-30h-158v-111
v-280h143q43 1 67.5 19.5t37 41.5t15.5 44t3 28v3h7v-136v-6v-137h-7v3q0 7 -3 29t-16 45.5t-38.5 41.5t-70.5 18h-7h-131v-274q1 -5 1 -18q0 -28 4.5 -46t15 -29t27.5 -16.5t42 -6.5h111zM340 929q-5 2 -10 5q-14 11 -17 28.5t8 31.5t28.5 16.5t31.5 -8.5q3 0 5 -4l4 -4
l136 -146l-6 -8z" />
    <glyph glyph-name="eacute" unicode="&#xe9;" horiz-adv-x="769" 
d="M465 6q41 0 74 10t58.5 26t44.5 36.5t33 42.5q32 51 45 116h7l-29 -238h-7h-305h-349v7q34 0 57.5 3.5t37.5 14.5t20 30t6 51v577q0 3 -0.5 6t-0.5 6q0 55 -19.5 75.5t-69.5 23.5h-32v6h228h399h7v-210h-7v1q-8 33 -18.5 69t-32.5 65.5t-60 49t-100 19.5h-30h-158v-111
v-280h143q43 1 67.5 19.5t37 41.5t15.5 44t3 28v3h7v-136v-6v-137h-7v3q0 7 -3 29t-16 45.5t-38.5 41.5t-70.5 18h-7h-131v-274q1 -5 1 -18q0 -28 4.5 -46t15 -29t27.5 -16.5t42 -6.5h111zM330 843l-6 8l137 146q1 2 3.5 4.5t5.5 4.5q14 11 31.5 8t28.5 -17t8 -31.5
t-17 -27.5q-4 -4 -11 -6z" />
    <glyph glyph-name="ecircumflex" unicode="&#xea;" horiz-adv-x="769" 
d="M465 6q41 0 74 10t58.5 26t44.5 36.5t33 42.5q32 51 45 116h7l-29 -238h-7h-305h-349v7q34 0 57.5 3.5t37.5 14.5t20 30t6 51v577q0 3 -0.5 6t-0.5 6q0 55 -19.5 75.5t-69.5 23.5h-32v6h228h399h7v-210h-7v1q-8 33 -18.5 69t-32.5 65.5t-60 49t-100 19.5h-30h-158v-111
v-280h143q43 1 67.5 19.5t37 41.5t15.5 44t3 28v3h7v-136v-6v-137h-7v3q0 7 -3 29t-16 45.5t-38.5 41.5t-70.5 18h-7h-131v-274q1 -5 1 -18q0 -28 4.5 -46t15 -29t27.5 -16.5t42 -6.5h111zM305 841l-6 9l136 144l136 -144l-5 -9l-131 65z" />
    <glyph glyph-name="edieresis" unicode="&#xeb;" horiz-adv-x="769" 
d="M465 6q41 0 74 10t58.5 26t44.5 36.5t33 42.5q32 51 45 116h7l-29 -238h-7h-305h-349v7q34 0 57.5 3.5t37.5 14.5t20 30t6 51v577q0 3 -0.5 6t-0.5 6q0 55 -19.5 75.5t-69.5 23.5h-32v6h228h399h7v-210h-7v1q-8 33 -18.5 69t-32.5 65.5t-60 49t-100 19.5h-30h-158v-111
v-280h143q43 1 67.5 19.5t37 41.5t15.5 44t3 28v3h7v-136v-6v-137h-7v3q0 7 -3 29t-16 45.5t-38.5 41.5t-70.5 18h-7h-131v-274q1 -5 1 -18q0 -28 4.5 -46t15 -29t27.5 -16.5t42 -6.5h111zM334 858q-24 0 -41 16.5t-17 40.5t17 41t41 17t40.5 -17t16.5 -41t-16.5 -40.5
t-40.5 -16.5zM508 858q-24 0 -41 16.5t-17 40.5t17 41t41 17t41 -17t17 -41t-17 -40.5t-41 -16.5z" />
    <glyph glyph-name="igrave" unicode="&#xec;" horiz-adv-x="421" 
d="M38 6q34 0 57.5 3.5t37.5 14.5t20 30t6 51v577v12q0 55 -19.5 75.5t-69.5 23.5h-32v6h344h4v-5h1h-1v-1h-40q-45 -5 -62.5 -25t-17.5 -73v-13v-560v-18q0 -28 4.5 -46t15 -29t28 -16.5t42.5 -6.5h31v-7h-349v7zM142 929q-5 2 -10 5q-14 11 -16.5 28.5t7.5 31.5
q11 14 28.5 16.5t31.5 -8.5q2 0 6 -4q1 -3 4 -4l136 -146l-7 -8z" />
    <glyph glyph-name="iacute" unicode="&#xed;" horiz-adv-x="421" 
d="M38 6q34 0 57.5 3.5t37.5 14.5t20 30t6 51v577v12q0 55 -19.5 75.5t-69.5 23.5h-32v6h344h4v-5h1h-1v-1h-40q-45 -5 -62.5 -25t-17.5 -73v-13v-560v-18q0 -28 4.5 -46t15 -29t28 -16.5t42.5 -6.5h31v-7h-349v7zM118 843l-7 8l137 146q1 2 4 4.5t5 4.5q14 11 31.5 8
t28.5 -17t8 -31.5t-17 -27.5q-5 -5 -10 -6z" />
    <glyph glyph-name="icircumflex" unicode="&#xee;" horiz-adv-x="421" 
d="M38 6q34 0 57.5 3.5t37.5 14.5t20 30t6 51v577v12q0 55 -19.5 75.5t-69.5 23.5h-32v6h344h4v-5h1h-1v-1h-40q-45 -5 -62.5 -25t-17.5 -73v-13v-560v-18q0 -28 4.5 -46t15 -29t28 -16.5t42.5 -6.5h31v-7h-349v7zM85 841l-6 9l136 144l136 -144l-5 -9l-131 65z" />
    <glyph glyph-name="idieresis" unicode="&#xef;" horiz-adv-x="421" 
d="M38 6q34 0 57.5 3.5t37.5 14.5t20 30t6 51v577v12q0 55 -19.5 75.5t-69.5 23.5h-32v6h344h4v-5h1h-1v-1h-40q-45 -5 -62.5 -25t-17.5 -73v-13v-560v-18q0 -28 4.5 -46t15 -29t28 -16.5t42.5 -6.5h31v-7h-349v7zM128 858q-24 0 -41 16.5t-17 40.5t17 41t41 17t41 -17
t17 -41t-17 -40.5t-41 -16.5zM302 858q-24 0 -40.5 16.5t-16.5 40.5t16.5 41t40.5 17t41 -17t17 -41t-17 -40.5t-41 -16.5z" />
    <glyph glyph-name="ntilde" unicode="&#xf1;" horiz-adv-x="1005" 
d="M973 799v-7h-15q-16 0 -42.5 -4.5t-51.5 -17t-43.5 -36.5t-18.5 -64v-671h-8l-588 736v-606q0 -41 18.5 -65t43.5 -36.5t51.5 -17t42.5 -4.5h15v-7h-171h-8h-171v7h15q16 0 42.5 4.5t51.5 17t43.5 36.5t18.5 65v569q0 24 -1 41.5t-9 29.5t-26.5 17.5t-53.5 5.5h-31v7h121
h8h85l503 -625v496q0 40 -18.5 64t-43.5 36.5t-51.5 17t-42.5 4.5h-15v7h171h8h171zM438 905q-21 0 -41 -12.5t-23 -29.5h-8q12 74 94 74q20 0 61 -21q36 -20 57 -20q20 0 40 18.5t29 39.5h8q-9 -39 -32.5 -65t-61.5 -26q-24 0 -63 21t-60 21z" />
    <glyph glyph-name="ograve" unicode="&#xf2;" 
d="M30 406q0 85 28 157q25 72 75 129q49 57 110 86q66 32 137 32h16h26h16q70 0 136 -32q64 -30 112 -86q50 -59 76 -129q27 -74 27 -157q0 -84 -27 -157q-26 -70 -76 -129q-48 -56 -112 -86q-66 -32 -136 -32h-16h-26h-16q-71 0 -137 32q-61 29 -110 86q-50 57 -75 129
q-28 72 -28 157zM139 406q0 -81 18.5 -153t55.5 -128q7 -12 15.5 -23t17.5 -20q31 -31 60.5 -46.5t47.5 -22.5q9 -2 19 -4t21 -2h8h22q11 0 20 2t20 4q17 7 46.5 22.5t61.5 46.5q8 9 16.5 20t16.5 23q37 56 56 128t19 153t-19 153t-56 128q-8 12 -16.5 23t-16.5 20
q-32 31 -61.5 46.5t-46.5 22.5q-11 2 -20 3.5t-20 1.5h-22h-8q-20 0 -40 -5q-18 -7 -47.5 -22.5t-60.5 -46.5q-9 -9 -17.5 -20t-15.5 -23q-37 -56 -55.5 -128t-18.5 -153zM351 929q-5 2 -10 5q-14 11 -17 28.5t8 31.5t28.5 16.5t31.5 -8.5q2 0 6 -4q1 -3 4 -4l136 -146
l-7 -8z" />
    <glyph glyph-name="oacute" unicode="&#xf3;" 
d="M30 406q0 85 28 157q25 72 75 129q49 57 110 86q66 32 137 32h16h26h16q70 0 136 -32q64 -30 112 -86q50 -59 76 -129q27 -74 27 -157q0 -84 -27 -157q-26 -70 -76 -129q-48 -56 -112 -86q-66 -32 -136 -32h-16h-26h-16q-71 0 -137 32q-61 29 -110 86q-50 57 -75 129
q-28 72 -28 157zM139 406q0 -81 18.5 -153t55.5 -128q7 -12 15.5 -23t17.5 -20q31 -31 60.5 -46.5t47.5 -22.5q9 -2 19 -4t21 -2h8h22q11 0 20 2t20 4q17 7 46.5 22.5t61.5 46.5q8 9 16.5 20t16.5 23q37 56 56 128t19 153t-19 153t-56 128q-8 12 -16.5 23t-16.5 20
q-32 31 -61.5 46.5t-46.5 22.5q-11 2 -20 3.5t-20 1.5h-22h-8q-20 0 -40 -5q-18 -7 -47.5 -22.5t-60.5 -46.5q-9 -9 -17.5 -20t-15.5 -23q-37 -56 -55.5 -128t-18.5 -153zM313 843l-7 8l137 146q1 2 4 4.5t5 4.5q14 11 31.5 8t28.5 -17t8 -31.5t-17 -27.5q-5 -5 -10 -6z" />
    <glyph glyph-name="ocircumflex" unicode="&#xf4;" 
d="M30 406q0 85 28 157q25 72 75 129q49 57 110 86q66 32 137 32h16h26h16q70 0 136 -32q64 -30 112 -86q50 -59 76 -129q27 -74 27 -157q0 -84 -27 -157q-26 -70 -76 -129q-48 -56 -112 -86q-66 -32 -136 -32h-16h-26h-16q-71 0 -137 32q-61 29 -110 86q-50 57 -75 129
q-28 72 -28 157zM139 406q0 -81 18.5 -153t55.5 -128q7 -12 15.5 -23t17.5 -20q31 -31 60.5 -46.5t47.5 -22.5q9 -2 19 -4t21 -2h8h22q11 0 20 2t20 4q17 7 46.5 22.5t61.5 46.5q8 9 16.5 20t16.5 23q37 56 56 128t19 153t-19 153t-56 128q-8 12 -16.5 23t-16.5 20
q-32 31 -61.5 46.5t-46.5 22.5q-11 2 -20 3.5t-20 1.5h-22h-8q-20 0 -40 -5q-18 -7 -47.5 -22.5t-60.5 -46.5q-9 -9 -17.5 -20t-15.5 -23q-37 -56 -55.5 -128t-18.5 -153zM279 841l-5 9l136 144l136 -144l-6 -9l-130 65z" />
    <glyph glyph-name="otilde" unicode="&#xf5;" 
d="M30 406q0 85 28 157q25 72 75 129q49 57 110 86q66 32 137 32h16h26h16q70 0 136 -32q64 -30 112 -86q50 -59 76 -129q27 -74 27 -157q0 -84 -27 -157q-26 -70 -76 -129q-48 -56 -112 -86q-66 -32 -136 -32h-16h-26h-16q-71 0 -137 32q-61 29 -110 86q-50 57 -75 129
q-28 72 -28 157zM139 406q0 -81 18.5 -153t55.5 -128q7 -12 15.5 -23t17.5 -20q31 -31 60.5 -46.5t47.5 -22.5q9 -2 19 -4t21 -2h8h22q11 0 20 2t20 4q17 7 46.5 22.5t61.5 46.5q8 9 16.5 20t16.5 23q37 56 56 128t19 153t-19 153t-56 128q-8 12 -16.5 23t-16.5 20
q-32 31 -61.5 46.5t-46.5 22.5q-11 2 -20 3.5t-20 1.5h-22h-8q-20 0 -40 -5q-18 -7 -47.5 -22.5t-60.5 -46.5q-9 -9 -17.5 -20t-15.5 -23q-37 -56 -55.5 -128t-18.5 -153zM340 905q-21 0 -40.5 -12.5t-23.5 -29.5h-8q13 74 94 74q22 0 61 -21q37 -20 57 -20t40.5 18.5
t29.5 39.5h8q-9 -39 -33 -65t-62 -26q-24 0 -63 21t-60 21z" />
    <glyph glyph-name="odieresis" unicode="&#xf6;" 
d="M30 406q0 85 28 157q25 72 75 129q49 57 110 86q66 32 137 32h16h26h16q70 0 136 -32q64 -30 112 -86q50 -59 76 -129q27 -74 27 -157q0 -84 -27 -157q-26 -70 -76 -129q-48 -56 -112 -86q-66 -32 -136 -32h-16h-26h-16q-71 0 -137 32q-61 29 -110 86q-50 57 -75 129
q-28 72 -28 157zM139 406q0 -81 18.5 -153t55.5 -128q7 -12 15.5 -23t17.5 -20q31 -31 60.5 -46.5t47.5 -22.5q9 -2 19 -4t21 -2h8h22q11 0 20 2t20 4q17 7 46.5 22.5t61.5 46.5q8 9 16.5 20t16.5 23q37 56 56 128t19 153t-19 153t-56 128q-8 12 -16.5 23t-16.5 20
q-32 31 -61.5 46.5t-46.5 22.5q-11 2 -20 3.5t-20 1.5h-22h-8q-20 0 -40 -5q-18 -7 -47.5 -22.5t-60.5 -46.5q-9 -9 -17.5 -20t-15.5 -23q-37 -56 -55.5 -128t-18.5 -153zM326 858q-24 0 -40.5 16.5t-16.5 40.5t16.5 41t40.5 17t41 -17t17 -41t-17 -40.5t-41 -16.5zM501 858
q-24 0 -41 16.5t-17 40.5t17 41t41 17t40.5 -17t16.5 -41t-16.5 -40.5t-40.5 -16.5z" />
    <glyph glyph-name="oslash" unicode="&#xf8;" 
d="M268 18l-25 11q-63 31 -110 86q-50 57 -75 129q-28 74 -28 157v1q0 41 7 80t21 76q26 74 75 129q49 56 110 87q32 15 66.5 23.5t70.5 8.5h58q35 0 69.5 -8.5t66.5 -23.5l1 -1l9 22h17l-12 -29q54 -30 97 -79q49 -56 76 -129q27 -74 27 -156v-1q0 -82 -27 -157
q-26 -70 -76 -129q-24 -28 -52 -49t-60 -37q-66 -32 -136 -32h-58q-51 0 -97 15l-6 -17h-18zM139 401q0 -81 18.5 -153t55.5 -128q7 -12 15.5 -22.5t17.5 -20.5q8 -8 17 -15.5t17 -14.5l280 690q-29 25 -54.5 38t-41.5 19q-11 3 -20 4t-20 1h-30q-11 0 -21 -1t-19 -4
q-18 -6 -47.5 -22t-60.5 -46q-9 -10 -17.5 -21t-15.5 -23q-37 -56 -55.5 -128t-18.5 -152v-1zM605 682q-8 12 -16.5 22.5t-16.5 20.5l-278 -687q18 -12 33.5 -19t26.5 -11q9 -2 19 -4t21 -2h30q11 0 20 2t20 4q17 7 46.5 22.5t61.5 46.5q8 10 16.5 20.5t16.5 22.5
q37 56 56 128t19 153v1q0 80 -19 152t-56 128z" />
    <glyph glyph-name="ugrave" unicode="&#xf9;" horiz-adv-x="931" 
d="M554 801h349v-7h-15q-16 -1 -42 -5t-51.5 -17t-44 -37t-18.5 -64v-433q0 -51 -22 -95.5t-64 -78.5q-41 -32 -94 -49t-113 -17h-3h-1h-2q-58 0 -109 17t-91 49q-42 34 -64.5 79t-22.5 106v473q-3 39 -23 54.5t-65 17.5h-32v8h344h1h4v-5l1 -1h-1v-2h-41q-36 -3 -54 -17
t-23 -47v-474q0 -59 18 -110t53.5 -85t86.5 -47.5t117 2.5q61 16 110 54q38 29 60 73q23 43 23 95v438q-1 39 -20 62t-44 35t-51 16t-41 5h-15v7zM369 929q-3 1 -11 5q-14 11 -16.5 28.5t8.5 31.5t28 16.5t32 -8.5q3 0 5 -4l4 -4l136 -146l-6 -8z" />
    <glyph glyph-name="uacute" unicode="&#xfa;" horiz-adv-x="931" 
d="M554 801h349v-7h-15q-16 -1 -42 -5t-51.5 -17t-44 -37t-18.5 -64v-433q0 -51 -22 -95.5t-64 -78.5q-41 -32 -94 -49t-113 -17h-3h-1h-2q-58 0 -109 17t-91 49q-42 34 -64.5 79t-22.5 106v473q-3 39 -23 54.5t-65 17.5h-32v8h344h1h4v-5l1 -1h-1v-2h-41q-36 -3 -54 -17
t-23 -47v-474q0 -59 18 -110t53.5 -85t86.5 -47.5t117 2.5q61 16 110 54q38 29 60 73q23 43 23 95v438q-1 39 -20 62t-44 35t-51 16t-41 5h-15v7zM370 843l-6 8l137 146q1 2 3.5 4.5t5.5 4.5q14 11 31.5 8t28.5 -17t8 -31.5t-17 -27.5q-4 -4 -11 -6z" />
    <glyph glyph-name="ucircumflex" unicode="&#xfb;" horiz-adv-x="931" 
d="M554 801h349v-7h-15q-16 -1 -42 -5t-51.5 -17t-44 -37t-18.5 -64v-433q0 -51 -22 -95.5t-64 -78.5q-41 -32 -94 -49t-113 -17h-3h-1h-2q-58 0 -109 17t-91 49q-42 34 -64.5 79t-22.5 106v473q-3 39 -23 54.5t-65 17.5h-32v8h344h1h4v-5l1 -1h-1v-2h-41q-36 -3 -54 -17
t-23 -47v-474q0 -59 18 -110t53.5 -85t86.5 -47.5t117 2.5q61 16 110 54q38 29 60 73q23 43 23 95v438q-1 39 -20 62t-44 35t-51 16t-41 5h-15v7zM330 841l-5 9l136 144l136 -144l-6 -9l-130 65z" />
    <glyph glyph-name="udieresis" unicode="&#xfc;" horiz-adv-x="931" 
d="M554 801h349v-7h-15q-16 -1 -42 -5t-51.5 -17t-44 -37t-18.5 -64v-433q0 -51 -22 -95.5t-64 -78.5q-41 -32 -94 -49t-113 -17h-3h-1h-2q-58 0 -109 17t-91 49q-42 34 -64.5 79t-22.5 106v473q-3 39 -23 54.5t-65 17.5h-32v8h344h1h4v-5l1 -1h-1v-2h-41q-36 -3 -54 -17
t-23 -47v-474q0 -59 18 -110t53.5 -85t86.5 -47.5t117 2.5q61 16 110 54q38 29 60 73q23 43 23 95v438q-1 39 -20 62t-44 35t-51 16t-41 5h-15v7zM374 858q-24 0 -41 16.5t-17 40.5t17 41t41 17t40.5 -17t16.5 -41t-16.5 -40.5t-40.5 -16.5zM548 858q-24 0 -41 16.5
t-17 40.5t17 41t41 17t41 -17t17 -41t-17 -40.5t-41 -16.5z" />
    <glyph glyph-name="yacute" unicode="&#xfd;" horiz-adv-x="893" 
d="M475 342v-220v-19q0 -55 20 -76t71 -21h31v-8h-349v8q34 0 57 3.5t37 14t20 30t6 50.5v238q-50 92 -84.5 155.5t-57.5 105.5t-35.5 65t-18.5 34.5t-7.5 14.5t-2.5 4q-14 25 -35 40t-42 22t-38 9t-24 2v6h311v-6h-17q-11 -1 -25 -3.5t-24 -9t-13.5 -18t7.5 -30.5l209 -384
l154 281q22 41 30.5 69t7 46t-9.5 27.5t-18.5 14t-21 5.5t-16.5 1v7h268v-7h-4q-10 0 -36 -5.5t-59 -22.5t-69 -49t-65 -86zM348 843l-6 8l136 146q1 2 4 4.5t5 4.5q14 11 31.5 8t28.5 -17t8.5 -31.5t-17.5 -27.5q-5 -5 -10 -6z" />
    <glyph glyph-name="ydieresis" unicode="&#xff;" horiz-adv-x="893" 
d="M475 342v-220v-19q0 -55 20 -76t71 -21h31v-8h-349v8q34 0 57 3.5t37 14t20 30t6 50.5v238q-50 92 -84.5 155.5t-57.5 105.5t-35.5 65t-18.5 34.5t-7.5 14.5t-2.5 4q-14 25 -35 40t-42 22t-38 9t-24 2v6h311v-6h-17q-11 -1 -25 -3.5t-24 -9t-13.5 -18t7.5 -30.5l209 -384
l154 281q22 41 30.5 69t7 46t-9.5 27.5t-18.5 14t-21 5.5t-16.5 1v7h268v-7h-4q-10 0 -36 -5.5t-59 -22.5t-69 -49t-65 -86zM376 858q-24 0 -41 16.5t-17 40.5t17 41t41 17t41 -17t17 -41t-17 -40.5t-41 -16.5zM550 858q-24 0 -40.5 16.5t-16.5 40.5t16.5 41t40.5 17t41 -17
t17 -41t-17 -40.5t-41 -16.5z" />
    <glyph glyph-name="A" unicode="A" horiz-adv-x="868" 
d="M23 8q1 0 17.5 2t39 13.5t47.5 35.5t43 69l269 672h8l268 -670q18 -44 33 -67.5t30 -35t30.5 -14t35.5 -5.5v-7h-328v7q36 2 61.5 4.5t38.5 13.5t11 35.5t-20 70.5l-74 186h-279l-76 -189q-12 -30 -8.5 -50.5t15.5 -34t29.5 -21t34 -11t28.5 -4t13 -0.5v-7h-267v7z
M394 666l-137 -341h273z" />
    <glyph glyph-name="B" unicode="B" horiz-adv-x="759" 
d="M697 104q-6 -11 -14 -19t-16 -15q-3 -4 -11 -10q-38 -30 -90 -43q-55 -16 -131 -16h-8h-120h-45h-107h-121v7q34 0 57.5 3.5t37.5 14.5t20 30t6 51v576q-1 4 -1 13q0 28 -4.5 46t-14.5 29t-27 16t-42 7h-32v8h312h32h9h19h8q33 0 61.5 -4t54.5 -12q46 -14 80 -44
q61 -53 61 -143q0 -89 -61 -142q-17 -14 -36.5 -25t-43.5 -18q-11 -4 -23 -6.5t-24 -5.5q23 -1 43.5 -4.5t39.5 -8.5q55 -15 90 -43q69 -54 69 -143q0 -55 -28 -99zM262 405h38h101h5q50 0 85 24q11 8 22 20t21 29q26 49 26 121q0 87 -37 139q-39 56 -117 56h-19h-5h-40
q-45 -4 -62.5 -24.5t-17.5 -72.5v-13v-279zM559 65q42 51 42 138q0 85 -42 138q-45 57 -132 57h-13h-8h-5h-101h-38v-274v-18q0 -27 4.5 -45.5t15 -29.5t28 -16.5t42.5 -6.5h30h45q88 0 132 57z" />
    <glyph glyph-name="C" unicode="C" horiz-adv-x="722" 
d="M42 400v1h-4q0 41 7 80t21 77q28 74 76 128q24 27 51.5 49t59.5 37q64 32 137 32q53 0 98 -19h1q2 -2 4 -2l1 -1q7 -3 13.5 -6t13.5 -7q52 -25 82 -25t45 10q18 11 23 35h7v-291h-7q-5 37 -14.5 70t-22.5 62q-13 27 -29.5 50.5t-35.5 42.5q-36 36 -84 56q-37 15 -80 18
q-53 0 -100 -31t-82 -85t-55.5 -126.5t-20.5 -154.5q0 -106 33.5 -194t87.5 -141q26 -23 49 -35.5t40 -18.5q11 -4 23.5 -5.5t24.5 -1.5q21 2 40.5 6t39.5 12q45 18 83 56q20 18 35.5 41.5t28.5 50.5q14 29 23 62t15 70l7 -1q-11 -76 -39 -134q-26 -56 -65 -95
q-38 -36 -86 -56q-44 -19 -97 -19q-73 0 -137 32q-62 30 -111 86q-48 54 -76 128q-14 38 -21 77t-7 80h4z" />
    </font>
</defs>
</svg>
