<svg width="10" height="11" viewBox="0 0 10 11" xmlns="http://www.w3.org/2000/svg"><title>Group</title><path d="M8.497.982H.564a.567.567 0 0 0-.566.567V9.48c0 .313.254.566.566.566h7.933a.567.567 0 0 0 .566-.566V1.549a.567.567 0 0 0-.566-.567zm-2.833.567h1.133v1.133H5.664V1.549zm-1.7 0h1.133v1.133H3.964V1.549zm-1.7 0h1.133v1.133H2.264V1.549zm-1.7 0h1.134v1.133H.564V1.549zM1.698 9.48H.564V8.348h1.134V9.48zm1.7 0H2.263V8.348h1.133V9.48zm1.7 0H3.963V8.348h1.133V9.48zm1.699 0H5.664V8.348h1.133V9.48zm1.7 0H7.363V8.348h1.134V9.48zm0-1.7H.564V3.248h7.933v4.533zm0-5.1H7.363V1.55h1.134v1.133z"/><path d="M3.964 3.815v3.4l1.7-1.7z"/></svg>