<svg xmlns="http://www.w3.org/2000/svg" viewBox="0 0 512 512"><path d="M364.936 0c-46.552 0-84.426 37.874-84.426 84.426v185.191a8.17 8.17 0 0 0 8.17 8.17h13.617v198.809c0 19.521 15.883 35.404 35.404 35.404s35.404-15.883 35.404-35.404V8.17A8.169 8.169 0 0 0 364.936 0zm-8.17 476.596c0 10.511-8.553 19.064-19.064 19.064s-19.064-8.553-19.064-19.064V310.468h38.128v166.128zm0-182.468h-38.128v-16.34h38.128v16.34zm0-32.681h-59.915V84.426c0-34.779 26.209-63.55 59.915-67.598v244.619zM245.106 0a8.17 8.17 0 0 0-8.17 8.17v89.872h-16.34V8.17a8.17 8.17 0 0 0-16.34 0v89.872h-16.34V8.17a8.17 8.17 0 0 0-16.34 0v89.872h-16.34V8.17a8.17 8.17 0 0 0-16.34 0v155.234c0 22.211 12.914 42.297 32.681 51.676v272.409c0 13.516 10.995 24.511 24.511 24.511s24.511-10.995 24.511-24.511V215.08c19.766-9.379 32.681-29.464 32.681-51.676V8.17A8.175 8.175 0 0 0 245.106 0zm-8.17 163.404c0 17.279-10.945 32.759-27.234 38.518a8.17 8.17 0 0 0-5.447 7.703V487.49c0 4.506-3.665 8.17-8.17 8.17-4.506 0-8.17-3.665-8.17-8.17V209.625a8.17 8.17 0 0 0-5.447-7.703c-16.289-5.758-27.234-21.238-27.234-38.518v-49.021h16.34v2.723a8.17 8.17 0 0 0 16.34 0v-2.723h16.34v2.723a8.17 8.17 0 0 0 16.34 0v-2.723h16.34v49.021z"/></svg>