<svg width="178" height="179" viewBox="0 0 178 179" xmlns="http://www.w3.org/2000/svg"><title>iconfinder_beauty-spa-50_1494396</title><path d="M89.035 170.091C70.191 177.393 62.135 179 42.031 179c-16.602 0-18.109-1.747-31.628-9.293-2.837-1.747-2.242-10.411-2.242-10.411.98-10.761 50.472-19.565 54.185-21.906 1.225-.873 10.052-13.73 10.052-23.897 0-10.271-5.219-15.582-5.219-26.482-2.242 14.464-5.954 20.158-11.769 32.421-3.117 6.673-30.367 25.854-36.321 27.705C15.236 148.36 0 144.552 0 140.325c0-6.184.245-16.456 1.226-19.914 2.732.873 3.362 2.83 3.467 4.087.14 2.48.63 8.42 2.732 9.887 3.853 2.725 7.426 2.236 10.543 2.097 3.853 0 27.39-21.522 28.51-25.749 2.488-9.398 5.815-44.79 13.626-48.772 3.713-1.852 19.334-5.8 20.945-6.673 1.611-.978.876-9.538.876-9.538-1.471-.384-2.347-1.223-3.608-2.725-15.376-19.04-1.611-37.383 6.2-36.894-4.974-8.175 13.905-8.175 8.931 0 7.811-.489 21.436 17.818 6.06 36.894-1.121 1.502-2.102 2.34-3.468 2.725 0 0-.875 8.525.736 9.538 1.61.873 17.372 4.821 21.085 6.673 7.81 3.948 11.033 39.339 13.52 48.772 1.226 4.192 24.798 25.749 28.51 25.749 3.223.14 6.69.628 10.649-2.097 1.996-1.502 2.591-7.441 2.732-9.887 0-1.223.63-3.214 3.362-4.087 1.12 3.458 1.366 13.73 1.366 19.914 0 4.192-15.236 8.035-19.089 6.812-6.06-1.851-33.344-21.032-36.462-27.705-5.709-12.263-9.421-17.957-11.768-32.421 0 10.9-5.219 16.21-5.219 26.482 0 10.132 8.791 23.024 10.052 23.897 3.713 2.34 53.204 11.145 54.185 21.906.14 0 .735 8.664-2.242 10.41-13.45 7.547-14.816 9.294-31.418 9.294-20.104 0-28.265-1.607-47.004-8.909z" fill="#231F20" fill-rule="evenodd"/></svg>