<svg width="34" height="34" viewBox="0 0 34 34" xmlns="http://www.w3.org/2000/svg"><title>spoon</title><path d="M10.959.273l1.184 10.656A3.643 3.643 0 0 1 8.5 14.57H7.407L8.44 32.725A1.214 1.214 0 0 1 7.225 34H4.918a1.214 1.214 0 0 1-1.214-1.275l1.032-18.154H3.643A3.643 3.643 0 0 1 0 10.93L1.184.273A.304.304 0 0 1 1.488 0h.637c.168 0 .304.136.304.304V6.07c0 .671.543 1.215 1.214 1.215H5.1L5.464.304C5.464.136 5.6 0 5.768 0h.607c.168 0 .304.136.304.304l.364 6.982H8.5c.67 0 1.214-.544 1.214-1.215V.304c0-.168.136-.304.304-.304h.637c.157 0 .288.118.304.273zm4.827 4.584V19.43h2.428l-1.153 13.296A1.214 1.214 0 0 0 18.275 34h2.307a1.214 1.214 0 0 0 1.214-1.275L21.857 0h-1.214a4.857 4.857 0 0 0-4.857 4.857zM34 7.286C34 3.248 31.814 0 29.143 0c-2.672 0-4.857 3.279-4.857 7.286 0 3.339 1.518 6.132 3.521 6.982l-1.032 18.457A1.214 1.214 0 0 0 27.989 34h2.307a1.214 1.214 0 0 0 1.215-1.275l-1.032-18.457C32.513 13.418 34 10.625 34 7.286z" fill="#383838"/></svg>