<svg width="45" height="39" viewBox="0 0 45 39" xmlns="http://www.w3.org/2000/svg"><title>swim</title><path d="M.294 25.674c.207-.384.566-.661.987-.762a1.51 1.51 0 0 1 1.22.234c8.43 6.094 13.85 3.657 20.072.894 5.821-2.64 12.364-5.566 21.517-.569a1.84 1.84 0 0 1 .723 2.397 1.574 1.574 0 0 1-.907.89c-.413.155-.87.127-1.261-.077-7.828-4.347-13.167-1.95-18.867.61-3.493 1.584-7.066 3.209-11.24 3.209A19.928 19.928 0 0 1 .776 28.112a1.884 1.884 0 0 1-.482-2.438zm43.756 6.297c-9.113-5.037-15.656-2.03-21.477.57-6.222 2.803-11.641 5.24-20.071-.895a1.511 1.511 0 0 0-1.244-.256 1.528 1.528 0 0 0-1.004.785 1.884 1.884 0 0 0 .481 2.437A19.927 19.927 0 0 0 12.578 39c4.134 0 7.707-1.625 11.24-3.21 5.62-2.56 10.999-4.956 18.827-.65.39.204.848.232 1.26.078.413-.155.742-.478.908-.89a1.84 1.84 0 0 0-.723-2.357h-.04zM36.945 16.25c2.66 0 4.817-2.183 4.817-4.876 0-2.692-2.157-4.875-4.817-4.875s-4.818 2.183-4.818 4.875c0 2.693 2.157 4.876 4.818 4.876zm-14.372 6.5c2.89-1.34 6.102-2.844 9.554-3.331 0 0-1.605-3.576-2.73-5.648L22.173 1.907C21.168.16 19.162-.53 16.752.445L8.003 4.06a2.529 2.529 0 0 0-1.406 3.168A2.425 2.425 0 0 0 7.91 8.617a2.382 2.382 0 0 0 1.899-.006l7.065-3.047a1.596 1.596 0 0 1 2.007.69l2.409 5.363L6.436 22.75c7.065 3.982 10.557 2.56 16.177 0h-.04z" fill="#78B3AC"/></svg>