<svg xmlns="http://www.w3.org/2000/svg" viewBox="0 0 48 48"><g fill="#010101"><path d="M39 20.2c-3.6 0-6.6-3-6.6-6.6S35.4 7 39 7s6.6 3 6.6 6.6-3 6.6-6.6 6.6zM39 9c-2.5 0-4.6 2.1-4.6 4.6s2.1 4.6 4.6 4.6 4.6-2.1 4.6-4.6S41.5 9 39 9zM14.4 28.3c-2.7 0-4-2-4.3-3l-.2-.7 10.6-7.8c-3-1.5-6.6-1.8-9.3-1.8-.6 0-1.6 0-2.6.1-1.8.3-3.4-1-3.7-2.8-.3-1.8 1-3.5 2.8-3.7.9-.2 16.1-1.9 22.4 8.3 0 .1.1.2.3.4 5.5 8.3 5.3 9.4 4.3 10.1l-.1.1c-.2.1-.4.1-.6.1-.7 0-1.4-.4-3-1.3-1.9-1.1-4.6-2.7-6.8-2.9h-.4c-1.8 0-3.6 1.5-5.2 2.7-1.5 1.1-2.8 2.1-4.2 2.2zm-2-3c.3.5.9 1 2 1 .7 0 1.9-1 3-1.9 2-1.6 4.3-3.4 7-3.1 2.6.2 5.5 1.9 7.6 3.2.2.1.5.3.7.4-.5-1.1-1.7-3.1-4-6.6-.2-.3-.3-.5-.3-.5-4-6.5-12.4-7.4-17.1-7.4-2 0-3.2.2-3.3.2-.8.1-1.3.7-1.2 1.5.1.8.7 1.3 1.5 1.2h.2c1.1-.3 2.1-.3 2.8-.3 3.3 0 8.1.5 11.7 2.9l1.2.8-11.8 8.6z"/><path d="M36.6 33.7c-3.7 0-5.4-1.6-6.9-3.1-1.3-1.3-2.4-2.3-4.8-2.3-2.5 0-3.7 1.2-5.1 2.5-1.5 1.4-3.1 2.9-6.1 2.9-2.8 0-4.5-1.4-6.1-2.7-1.7-1.4-3.3-2.7-6.6-2.7v-2c4 0 6 1.7 7.9 3.2 1.5 1.2 2.7 2.2 4.8 2.2 2.2 0 3.3-1.1 4.7-2.4 1.5-1.4 3.3-3 6.5-3s4.8 1.5 6.2 2.9c1.4 1.4 2.7 2.5 5.5 2.5s3.6-1 4.6-2.4c1.1-1.4 2.3-3 5.8-3v2c-2.5 0-3.2 1-4.2 2.2-1.1 1.5-2.5 3.2-6.2 3.2z"/><path d="M36.6 41c-3.7 0-5.4-1.6-6.9-3.1-1.3-1.3-2.4-2.3-4.8-2.3-2.5 0-3.7 1.2-5.1 2.5-1.5 1.4-3.1 2.9-6.1 2.9-2.8 0-4.5-1.4-6.1-2.7-1.7-1.4-3.3-2.7-6.6-2.7v-2c4 0 6 1.7 7.9 3.2 1.5 1.2 2.7 2.2 4.8 2.2 2.2 0 3.3-1.1 4.7-2.4 1.5-1.4 3.3-3 6.5-3s4.8 1.5 6.2 2.9c1.4 1.4 2.7 2.5 5.5 2.5s3.6-1 4.6-2.4c1.1-1.4 2.3-3 5.8-3v2c-2.5 0-3.2 1-4.2 2.2-1.1 1.5-2.5 3.2-6.2 3.2z"/></g></svg>