<svg width="16" height="16" viewBox="0 0 16 16" xmlns="http://www.w3.org/2000/svg"><title>Shape</title><path d="M14.527.415H.985a.967.967 0 0 0-.967.968V12.99c0 .535.433.967.967.967v1.451c0 .267.217.484.484.484h1.934a.484.484 0 0 0 .484-.484v-1.45h7.738v1.45c0 .267.217.484.484.484h1.934a.484.484 0 0 0 .484-.484v-1.45a.967.967 0 0 0 .967-.968V1.383a.967.967 0 0 0-.967-.968zM.985 1.866c0-.266.217-.483.484-.483h4.353v5.803H.985v-5.32zm13.542 10.64a.484.484 0 0 1-.484.484H1.47a.484.484 0 0 1-.484-.484V8.153h13.542v4.353zm0-5.32H6.79V1.383h7.254c.267 0 .484.217.484.483v5.32zm-8.222 2.902h2.902a.484.484 0 0 0 0-.967H6.305a.484.484 0 0 0 0 .967zm0 1.935h2.902a.484.484 0 0 0 0-.968H6.305a.484.484 0 0 0 0 .968zm-3.869 0h1.935a.484.484 0 0 0 .483-.484V9.604a.484.484 0 0 0-.483-.483H2.436a.484.484 0 0 0-.483.483v1.935c0 .267.216.484.483.484zm.484-1.935h.967v.967H2.92v-.967zm8.222 1.935h1.934a.484.484 0 0 0 .484-.484V9.604a.484.484 0 0 0-.484-.483h-1.934a.484.484 0 0 0-.484.483v1.935c0 .267.217.484.484.484zm.483-1.935h.968v.967h-.968v-.967z"/></svg>