<svg width="178" height="213" viewBox="0 0 178 213" xmlns="http://www.w3.org/2000/svg"><title>user(1)</title><path d="M87.5 103c14.15 0 26.4-5.075 36.414-15.088C133.924 77.9 139 65.65 139 51.498c0-14.147-5.075-26.398-15.088-36.413C113.9 5.075 101.648 0 87.5 0 73.349 0 61.1 5.075 51.088 15.087 41.077 25.098 36 37.35 36 51.498c0 14.152 5.077 26.404 15.088 36.415C61.102 97.923 73.353 103 87.5 103zM59.949 23.947C67.631 16.265 76.642 12.53 87.5 12.53c10.856 0 19.87 3.735 27.553 11.417 7.681 7.683 11.417 16.696 11.417 27.551 0 10.859-3.736 19.87-11.417 27.554C107.369 86.735 98.356 90.47 87.5 90.47c-10.855 0-19.866-3.736-27.551-11.418C52.266 71.37 48.53 62.357 48.53 51.498c0-10.855 3.736-19.868 11.419-27.551zm117.62 139.89c-.288-4.146-.871-8.669-1.729-13.445-.866-4.812-1.981-9.36-3.316-13.518a66.687 66.687 0 0 0-5.573-12.607c-2.404-4.221-5.23-7.897-8.4-10.921-3.317-3.164-7.376-5.708-12.07-7.563-4.679-1.846-9.863-2.781-15.409-2.781-2.178 0-4.284.89-8.352 3.532a1130.059 1130.059 0 0 1-8.7 5.594c-2.795 1.776-6.58 3.44-11.257 4.947-4.563 1.472-9.196 2.22-13.77 2.22-4.57 0-9.203-.748-13.769-2.22-4.671-1.505-8.459-3.169-11.249-4.945a1193.627 1193.627 0 0 1-8.708-5.597C51.202 103.89 49.096 103 46.918 103c-5.547 0-10.73.937-15.407 2.784-4.69 1.852-8.752 4.396-12.07 7.564-3.172 3.026-5.997 6.7-8.4 10.919-2.316 4.066-4.191 8.308-5.572 12.608-1.333 4.158-2.448 8.705-3.314 13.517-.86 4.77-1.44 9.294-1.729 13.45A181.606 181.606 0 0 0 0 176.407c0 11.107 3.54 20.1 10.522 26.73C17.417 209.683 26.539 213 37.635 213h102.73c11.093 0 20.215-3.318 27.112-9.862C174.46 196.51 178 187.516 178 176.405c0-4.287-.146-8.516-.431-12.568zm-18.713 30.267c-4.556 4.324-10.605 6.427-18.493 6.427H37.635c-7.89 0-13.938-2.103-18.493-6.426-4.468-4.242-6.64-10.032-6.64-17.698 0-3.987.133-7.924.396-11.703.257-3.708.783-7.781 1.563-12.11.77-4.274 1.75-8.285 2.915-11.916a54.39 54.39 0 0 1 4.535-10.252c1.805-3.166 3.882-5.882 6.174-8.07 2.144-2.047 4.846-3.723 8.03-4.98 2.944-1.162 6.253-1.798 9.846-1.894.438.232 1.217.676 2.48 1.497 2.57 1.67 5.533 3.576 8.808 5.663 3.692 2.347 8.448 4.467 14.13 6.297 5.81 1.873 11.735 2.824 17.616 2.824s11.808-.95 17.614-2.823c5.687-1.833 10.442-3.951 14.138-6.302 3.352-2.136 6.231-3.987 8.802-5.659 1.263-.82 2.042-1.265 2.48-1.497 3.594.096 6.904.732 9.85 1.895 3.182 1.256 5.884 2.933 8.028 4.979 2.292 2.187 4.369 4.902 6.174 8.071 1.893 3.32 3.42 6.77 4.536 10.249 1.167 3.636 2.149 7.646 2.917 11.917.778 4.336 1.306 8.411 1.563 12.112v.004c.265 3.764.399 7.7.4 11.698-.001 7.667-2.173 13.456-6.64 17.697z" fill="#FFF"/></svg>