<svg xmlns="http://www.w3.org/2000/svg" viewBox="0 0 48 48"><g fill="#010101"><path d="M24 42.5c-3 0-5.5-2.5-5.5-5.5s2.5-5.5 5.5-5.5 5.5 2.5 5.5 5.5-2.5 5.5-5.5 5.5zm0-9c-1.9 0-3.5 1.6-3.5 3.5s1.6 3.5 3.5 3.5 3.5-1.6 3.5-3.5-1.6-3.5-3.5-3.5zm-10.4-4.8l-1.4-1.4c3.1-3.1 7.3-4.9 11.8-4.9 4.4 0 8.6 1.7 11.8 4.9l-1.4 1.4c-2.8-2.8-6.4-4.3-10.3-4.3-4.1 0-7.7 1.5-10.5 4.3z"/><path d="M40.1 23c-8.9-8.9-23.3-8.9-32.2 0l-1.4-1.4c9.7-9.7 25.4-9.7 35 0L40.1 23z"/><path d="M46.3 16.8C34 4.5 14 4.5 1.7 16.8L.3 15.4c13.1-13.1 34.3-13.1 47.4 0l-1.4 1.4z"/></g></svg>