<svg width="45" height="39" viewBox="0 0 45 39" xmlns="http://www.w3.org/2000/svg"><title>wifi</title><g fill="#78B3AC"><ellipse cx="22.5" cy="33.5" rx="4.5" ry="5.5"/><path d="M44.308 6.699A38.15 38.15 0 0 0 22.5 0 38.15 38.15 0 0 0 .692 6.699 1.612 1.612 0 0 0 .29 8.945c.51.73 1.517.91 2.25.401A34.974 34.974 0 0 1 22.5 3.209a34.974 34.974 0 0 1 19.96 6.137 1.617 1.617 0 0 0 2.534-1.186 1.613 1.613 0 0 0-.686-1.461zm-12.29 14.319a22.076 22.076 0 0 0-19.036 0 1.603 1.603 0 0 0-.63 2.062 1.607 1.607 0 0 0 1.995.826 18.899 18.899 0 0 1 16.306 0 1.607 1.607 0 0 0 1.995-.826 1.603 1.603 0 0 0-.63-2.062z"/><path d="M39.178 13.665c-10.037-6.22-22.32-6.22-32.356 0-.506.317-.82.904-.822 1.542-.003.638.306 1.229.809 1.55a1.51 1.51 0 0 0 1.63.008c9.037-5.588 20.085-5.588 29.122 0a1.51 1.51 0 0 0 1.63-.008c.503-.321.812-.912.809-1.55-.003-.638-.316-1.225-.822-1.542z"/></g></svg>