<?xml version="1.0" standalone="no"?>
<!DOCTYPE svg PUBLIC "-//W3C//DTD SVG 1.1//EN" "http://www.w3.org/Graphics/SVG/1.1/DTD/svg11.dtd" >
<svg>
<metadata>
Created by FontForge 20090622 at Wed Aug 15 12:25:41 2018
 By deploy user
Copyright (c) 2018 by Set Sail Studios LTD. All rights reserved.
</metadata>
<defs>
<font id="SilverSouthScript" horiz-adv-x="547" >
  <font-face 
    font-family="Silver South Script"
    font-weight="400"
    font-stretch="normal"
    units-per-em="1000"
    panose-1="0 0 0 0 0 0 0 0 0 0"
    ascent="800"
    descent="-200"
    x-height="348"
    cap-height="703"
    bbox="-304 -380.4 1442.12 912.533"
    underline-thickness="50"
    underline-position="-50"
    unicode-range="U+000D-U+2212"
  />
<missing-glyph horiz-adv-x="219" 
 />
    <glyph glyph-name=".notdef" horiz-adv-x="219" 
 />
    <glyph glyph-name="NULL" horiz-adv-x="0" 
 />
    <glyph glyph-name="NULL" horiz-adv-x="0" 
 />
    <glyph glyph-name="nonmarkingreturn" unicode="&#xd;" horiz-adv-x="219" 
 />
    <glyph glyph-name="space" unicode=" " horiz-adv-x="219" 
 />
    <glyph glyph-name="e" unicode="e" horiz-adv-x="238" 
d="M6 266q-4 -6 -6.5 -15t-3.5 -19t1.5 -18.5t8.5 -13.5q25 -10 49 -1t44 18q32 15 55 32q20 12 39 26l38 28l12.5 10t14.5 3q4 -10 -3.5 -16t-12.5 -11q-7 -6 -14.5 -11t-12.5 -10q-18 -14 -39 -28.5l-44 -29.5q-22 -14 -45.5 -27.5t-51.5 -16.5t-47 10.5t-22 39.5
q-2 18 2 32t9 27q-3 5 -9 8t-6 11q5 5 11 2.5l11 -4.5q13 19 32 40.5t45 27.5q11 2 20.5 -3t12.5 -16q1 -16 -6.5 -28.5t-17.5 -20.5q-12 -11 -27.5 -18t-36.5 -8zM20 292q17 7 30 17q6 5 12 11.5t5 14.5q-16 -6 -27.5 -18t-19.5 -25z" />
    <glyph glyph-name="f" unicode="f" horiz-adv-x="203" 
d="M158 597q-9 -1 -11 6.5t-3 13.5q-4 22 -8.5 44t-16.5 35q-10 -8 -15 -19.5l-10 -22.5q-32 -82 -48 -182.5t-25 -206.5l68 29.5t81 21.5q4 0 13 1t18 1t16.5 -1.5t7.5 -7.5q1 -8 -7 -9t-17 -3q-24 -2 -45.5 -7.5t-40.5 -12.5q-26 -10 -50 -20.5t-47 -24.5q-2 -27 -3 -54
t-1 -56q17 -38 27 -92t8 -117q-1 -12 -1.5 -25.5t-3.5 -24.5t-9 -19t-18 -8h-3q-15 6 -19.5 22t-8.5 33q-10 51 -11.5 113t-1.5 123q-3 8 -8 14l-10 12.5t-9 13.5t-5 17q2 20 14 29.5t23 21.5q8 104 23 202.5t44 183.5q9 28 20.5 54t32.5 44q3 1 5 2.5t5 2.5q1 0 1 0.5
t1 0.5q18 0 27.5 -11.5t13.5 -28.5t5 -37t3 -36q1 -4 2 -8.5t-3 -6.5zM-25 181q0 2 0.5 5t-1.5 4q-4 -6 1 -9z" />
    <glyph glyph-name="g" unicode="g" horiz-adv-x="375" 
d="M204 146q-2 -1 -1 -1t1 1l46 51.5t48 49.5l38.5 35t39.5 34l14 11.5t18 1.5q2 -7 -3 -9.5t-7 -6.5q-12 -9 -23 -18.5l-22 -19.5l-28.5 -27.5l-28.5 -27.5l-52 -58.5l-51 -60.5q-16 -67 -35.5 -129.5t-48.5 -116.5q-10 -18 -22 -33.5t-33 -22.5h-13q-3 2 -6 3.5t-6 3.5
q-9 10 -10 25q1 25 6 45t13 38t17.5 34l18.5 32q20 32 42.5 60.5l45.5 57.5l17 79t12 86q1 14 0.5 30t-9.5 26q-22 -2 -34.5 -13t-27.5 -21l-55.5 -49.5t-58.5 -49.5q-6 -5 -14 -11t-16.5 -9.5t-17.5 -4t-17 5.5q-11 11 -7 27.5t9 27.5q13 28 26 45q14 21 34 39
q9 8 21.5 16.5t27.5 7.5q14 -2 20.5 -12t11.5 -23q5 2 9.5 5.5l9.5 7.5q17 14 36.5 27t48.5 13q5 -2 9.5 -4.5t8.5 -4.5q12 -18 14.5 -42.5t-0.5 -51t-8 -52.5t-8 -47zM52 310q-16 -2 -31.5 -18t-24.5 -30q-24 -35 -33 -68q32 18 58 42.5l52 48.5q-5 7 -8 15t-13 10zM145 39
q-17 -22 -32 -45.5t-29 -49.5q-14 -24 -26.5 -52.5t-10.5 -64.5q14 6 21 18.5t16 23.5q20 39 35 82t28 90q0 1 -1 1q0 -1 -0.5 -1t-0.5 -2z" />
    <glyph glyph-name="h" unicode="h" horiz-adv-x="285" 
d="M27 175q20 44 42 84.5t48 76.5l19 23.5t26 16.5q6 -2 9 -2q9 -7 14 -18.5t7 -25t3 -28t3 -29.5q2 -14 4.5 -27t5.5 -27q3 -12 7 -26t10 -21q5 -4 10.5 -4t7.5 -8q-3 -8 -9 -9.5t-12 1t-11.5 7t-8.5 9.5q-10 17 -16 40t-10 48t-7.5 50t-7.5 46q-17 -11 -29 -30l-24 -37
q-25 -40 -47 -87.5t-37 -101.5q-4 -14 -7 -39q-2 -16 -7.5 -27t-22.5 -2q-5 8 -4.5 18.5t0.5 21.5q2 35 2.5 69t2.5 67q8 119 21 235t43 217q4 13 9 24t19 4q3 -3 3 -9t2 -10q-5 -14 -7.5 -28t-4.5 -29q-18 -101 -28 -210.5t-18 -222.5z" />
    <glyph glyph-name="i" unicode="i" horiz-adv-x="172" 
d="M46 431q-8 -4 -16 -4q-6 6 -6 11q0 6 5 8.5t10 1.5t8 -5.5t-1 -11.5zM16 112q18 4 29.5 16t21.5 25q11 13 20.5 26t18.5 27q10 14 18.5 27.5l17.5 27.5l9.5 15t9.5 13t8.5 14.5t14.5 6.5q4 -7 -2.5 -13.5t-9.5 -12.5q-11 -21 -24 -40.5t-25 -40.5l-33.5 -52t-38.5 -48
q-8 -7 -18 -13.5t-27 -3.5q-6 4 -10 6q-12 10 -17 31.5t-5 47t3.5 51.5t7.5 44l5 21.5t8 22.5t12.5 14t18.5 -3q4 -8 4 -17q0 -5 -3 -5.5t-4 -3.5q-7 -20 -11 -42t-7 -48q-2 -23 -2.5 -49.5t10.5 -43.5z" />
    <glyph glyph-name="j" unicode="j" horiz-adv-x="173" 
d="M3 506q-5 -3 -8.5 -3t-8.5 -2q-10 3 -11 10q-1 8 4 12.5t11 5t11 -4t4 -14.5q-1 -1 -1 -2t-1 -2zM44 201l65.5 55t69.5 54q4 2 10 7t11 -1q3 -8 -3 -12.5t-11 -9.5l-10.5 -8.5t-10.5 -7.5l-61 -51.5l-59 -52.5q1 -79 -11.5 -147.5t-35.5 -125.5t-54.5 -105.5t-83.5 -76.5
q-10 -4 -20.5 -7t-24.5 -1q-23 3 -36.5 17.5t-18.5 35t-3.5 44.5t8.5 46q14 45 39 82.5t49 69.5q36 43 76 82.5l80 79.5q0 35 -3 67t-11 61q-6 8 -6.5 22.5t12.5 16.5h6.5t5.5 -1q12 -9 16 -25.5t7 -33.5t5 -36t3 -38zM-15 116l-68.5 -72t-62.5 -77q-16 -22 -31.5 -47.5
t-26.5 -54.5q-5 -14 -9 -33.5t-3.5 -38.5t7.5 -33.5t24 -17.5q7 0 17 2q25 6 44 26t33 40q46 62 70.5 146t29.5 182h-2v-1q-5 -5 -11 -10t-11 -11z" />
    <glyph glyph-name="k" unicode="k" horiz-adv-x="283" 
d="M26 311q7 4 11.5 10t10.5 11l35 32t38 30q3 3 9.5 6t12.5 3.5t11 -1t7 -7.5q1 -8 -3 -13t-10.5 -9l-12.5 -8t-9 -8q-29 -23 -56 -49.5t-52 -55.5q-2 -15 -3.5 -31t-3.5 -30q38 -2 69 9t58 24l53 28l53 28l16.5 10l16.5 10t15 12.5t18 3.5q1 -11 -8.5 -18.5t-16.5 -12.5
q-24 -18 -52 -33l-56 -30l-37.5 -20.5t-39 -18.5t-43 -14t-48.5 -7q-2 -18 -3.5 -40.5t-3.5 -44.5q-2 -13 -2.5 -23t4.5 -18q-1 -11 -2.5 -20.5t-3.5 -20.5q-2 -9 -5.5 -19t-14.5 -8q-10 2 -10 16v25q1 40 1.5 82t4.5 75q-9 4 -16.5 9.5t-9.5 16.5q0 13 4 23t9.5 18
t11.5 15.5l12 15.5q5 34 9.5 69.5t10 69.5t13 65.5t19.5 59.5q4 7 14.5 10t14.5 -6q2 -15 -3.5 -27.5t-7.5 -26.5q-10 -39 -16.5 -81.5z" />
    <glyph glyph-name="l" unicode="l" horiz-adv-x="230" 
d="M43 -132q11 6 17 17.5t11 23.5q17 35 30.5 74l26.5 78l35 105t38 100q3 5 6.5 12l7.5 15q3 5 6.5 12.5t11.5 4.5q5 -2 3 -7t-4 -7q-26 -54 -45 -115l-40 -123q-16 -45 -29.5 -91t-33.5 -88q-7 -14 -15 -26t-23 -16q-7 -4 -13 0q-8 2 -12.5 7.5l-9.5 11.5q-20 43 -23.5 97
t-3.5 114q0 177 20 337.5t54 302.5q1 7 5 16t9.5 15.5t12.5 8t15 -6.5q3 -5 1.5 -11.5t0.5 -11.5q-1 -4 -3 -6t-2 -6q-28 -143 -49.5 -297t-21.5 -326q0 -57 1.5 -112t15.5 -102z" />
    <glyph glyph-name="m" unicode="m" horiz-adv-x="442" 
d="M175 195q14 10 23 25.5l18 31.5l19.5 31.5t19.5 29.5q5 5 10.5 9.5t14.5 5.5q17 -3 23.5 -16.5t9.5 -30t5.5 -33t12.5 -26.5q31 13 52 34.5t44 41.5q8 6 14 14.5t18 10.5q10 -3 10.5 -9t-4 -13t-10.5 -13l-9 -9l-44 -46.5t-46 -40.5q-5 -1 -13 -5q-21 -4 -32.5 5
t-18.5 25t-9.5 35t-5.5 36q-4 -2 -6.5 -6t-4.5 -8q-8 -12 -15.5 -25t-15.5 -25q-9 -13 -20 -32.5t-28 -27.5q-9 -5 -18 -2.5t-16 9.5q-10 18 -14 41t-5.5 49t-2.5 52.5t-4 51.5q-17 -35 -27 -76.5l-21 -83.5q-5 -21 -9.5 -42.5t-10 -42.5t-12.5 -40t-17 -34q-5 -2 -8 -4.5
t-10 -1.5q-9 1 -14.5 9.5t-8.5 20.5t-4 25t-1 23q-2 54 2.5 100t14.5 91q4 21 11 42q4 9 9 17.5t15 10.5q14 -2 17 -17.5t6 -29.5q2 -5 3.5 -9.5t-3.5 -6.5q-8 -1 -9.5 5t-3.5 11l-4 10.5t-4 9.5q-9 -27 -15 -60t-9 -68.5t-3 -72t5 -70.5q11 30 20.5 66.5t18.5 75t19.5 76
t23.5 69.5q5 13 13.5 26.5t25.5 9.5q9 -7 14 -18t7 -24.5t2 -28t1 -29.5q2 -29 4.5 -58t9.5 -51z" />
    <glyph glyph-name="n" unicode="n" horiz-adv-x="320" 
d="M17 211h-1q0 -2 0.5 -1.5t0.5 1.5q7 16 13 32.5t14 30.5q4 6 7.5 14t8 16t10.5 14t14 7q9 1 15 -4t11 -11q7 -15 10 -33.5t8 -37.5q4 -18 9 -35t21 -24q17 2 29.5 10t23.5 16q12 9 22.5 18l21.5 19q11 9 21.5 19l21.5 20q5 4 10 8.5l11 9.5l12 9.5t13 -1.5q1 -8 -5.5 -13
t-11.5 -10q-17 -15 -32.5 -31t-32.5 -30q-11 -9 -22 -19t-24 -19q-14 -11 -32.5 -21.5t-39.5 -2.5q-16 9 -23.5 26t-12 37t-8.5 40.5t-13 37.5q-15 -16 -24.5 -37t-17.5 -44l-7.5 -20.5l-8.5 -24.5l-8.5 -24t-15.5 -14q-8 0 -12.5 6t-6.5 15.5t-2 20.5v20q1 35 5 63t9 57
q1 7 3 14.5t5 13.5t7.5 10t10.5 3q9 -1 12.5 -14t4.5 -20q-2 -4 -6 -3.5t-6 0.5q-4 -28 -7 -56t-5 -58z" />
    <glyph glyph-name="o" unicode="o" horiz-adv-x="164" 
d="M58 322v0q11 -13 19.5 -35t11 -46t-1.5 -46.5t-19 -36.5q-10 -8 -22 -14.5t-26 -6.5q-24 0 -38 15.5t-16 38.5q-2 32 9 58.5t22 47.5q-5 18 -0.5 33.5t21.5 17.5q5 0 9 -2.5t7 -2.5q5 0 9 2.5t7 2.5q11 0 18 -8t3 -18q-6 -6 -13 0zM16 326q1 -3 1 -0.5t-1 0.5zM37 307
q-10 -17 -21.5 -41t-13.5 -51q-2 -14 0.5 -27t11.5 -18t18.5 -1.5t16.5 8.5q12 12 15 30t0.5 37.5t-9.5 37t-16 27.5q0 1 -1 0t-1 -2z" />
    <glyph glyph-name="p" unicode="p" horiz-adv-x="246" 
d="M37 168q-14 -20 -16 -49.5t-4 -63.5l-4 -70l-4 -72q0 -8 -0.5 -16.5t-2 -16.5t-5.5 -14t-12 -8h-2q-8 0 -12 6.5t-5.5 15t-1.5 18.5v18q0 16 1 32t3 33t5 32t5 29q2 21 2 40t2 37q2 45 5.5 92t6.5 95q0 11 1.5 19.5t9.5 9.5q9 1 13.5 -3.5t6.5 -11.5t2 -15.5v-14.5
q0 -17 -1.5 -37t-3.5 -38q3 -3 3 -7.5v-8.5q6 3 7.5 10t5.5 12q20 39 42.5 76.5t57.5 62.5q8 5 19 4.5t18 -6.5q8 -8 12 -17.5t3 -26.5q-2 -31 -15.5 -57.5t-32.5 -46.5q-19 -21 -46 -32.5t-63 -9.5zM153 338q-21 -8 -36 -26.5t-27 -37.5q-12 -18 -22 -37t-18 -38
q26 2 45 13.5t33 29.5q6 7 12.5 18.5t11.5 24.5t7 27t-1 26h-5z" />
    <glyph glyph-name="q" unicode="q" horiz-adv-x="305" 
d="M157 374q5 -15 -2 -27t-10 -25q-15 -35 -28 -72.5l-25 -75.5q54 26 105.5 61l103.5 67l14.5 10t16.5 -2q-2 -10 -10 -16l-16 -12l-47 -31.5t-47 -32.5q-32 -21 -65 -40.5l-66 -39.5q-1 -3 -1 -5.5t-1 -4.5q34 -15 57.5 -41t31.5 -69q4 -25 1 -51t-11 -50
q-7 -21 -15.5 -41t-19.5 -39t-28 -36.5t-43 -19.5q-5 1 -8 2t-8 3q-14 11 -20 32t-7 46t2 51t6 47q6 41 14 77t17 69q-8 3 -17.5 1.5t-18.5 -2.5t-15 1t-7 13q1 9 9 10.5t14 3.5q13 4 25 10.5t23 11.5q8 29 17 56l18 53q-4 2 -7.5 4.5t-6.5 6.5q-20 -18 -36.5 -34.5
t-39.5 -31.5q-5 -3 -13.5 -7.5t-17 -6.5t-16 0.5t-11.5 11.5q-7 14 0 30.5t13 28.5q11 20 23 35q12 17 27.5 33t34.5 21t31.5 -4t15.5 -26q6 3 11.5 10l11.5 15t12.5 15.5t12.5 10.5q9 3 16 -4zM29 313q-17 -16 -30.5 -38.5t-21.5 -45.5q28 16 51.5 35t44.5 42q-2 7 -3.5 14
t-6.5 11q-11 -1 -19 -6.5t-15 -11.5zM112 308q-10 -8 -15 -16q2 -2 3 -4.5t3 -3.5l9 24v0zM72 100l-25 -107t-13 -119q0 -20 3 -40t17 -28q14 0 23 9.5t17 19.5t14.5 21t11.5 22q11 26 20 53t8 59q0 42 -22 72t-54 40v-2z" />
    <glyph glyph-name="r" unicode="r" horiz-adv-x="297" 
d="M14 325q7 -3 9 -10t3 -15.5l2 -16.5t5 -13q8 11 20.5 22.5t35.5 5.5q11 -2 22 -7.5t22 -8.5q17 -5 35.5 -8.5t40.5 -1.5q34 2 55 18.5t41 36.5q10 1 11.5 -2t-0.5 -8.5t-6.5 -11t-7.5 -8.5q-16 -17 -37 -30t-48 -17q-29 -4 -58 1t-52 13q-8 3 -17 7t-17 2q-9 -2 -15 -15
l-10 -22q-11 -24 -16.5 -45.5t-13.5 -48.5q-3 -11 -9 -23.5t-17 -12.5q-7 0 -10.5 5.5t-4.5 13.5t-0.5 16.5t0.5 16.5q2 35 5.5 63.5t8.5 59.5l2 14.5t3 14t6 11t12 4.5zM14 224q3 10 7.5 19.5t6.5 18.5q-4 -2 -6.5 1t-4.5 4q0 -11 -2 -22t-1 -21z" />
    <glyph glyph-name="s" unicode="s" horiz-adv-x="344" 
d="M115 379q-19 -8 -34.5 -22.5t-29.5 -29.5q-14 -20 -26 -41t-10 -56q1 -22 9 -41t18 -36.5t20.5 -34t16.5 -33.5q8 6 16 14l16 16t17 15t17 15l33.5 31t34.5 29l60 52t66 48q4 2 9.5 6t10.5 -2q1 -7 -4.5 -10.5l-10.5 -6.5q-5 -4 -9.5 -7t-9.5 -6q-28 -21 -54 -43.5
l-52 -44.5l-67 -62t-64 -65q11 -26 17.5 -58t-6.5 -60q-9 -21 -32 -40t-52 -20q-14 0 -26 7q-3 2 -9 8q-2 3 -3.5 6.5t-2.5 8.5q-1 29 10 49t24 37q11 15 22.5 28l22.5 26q-10 21 -23 41t-25 42q-12 21 -22 45.5t-10 53.5q0 35 13.5 61.5t30.5 48.5q16 19 40 37
q7 5 16.5 10.5t19 9t19.5 3.5t18 -7q3 -2 4 -9.5t0 -15.5t-3 -14t-5 -6q-4 0 -5.5 2.5t-2 6.5l-1 8t-2.5 6zM20 -19q-5 -5 -8.5 -12l-8.5 -17q-3 -6 -5 -14t-1.5 -15t5.5 -10.5t17 -1.5q20 6 37 21t19 41q2 18 -2.5 33t-9.5 29q-1 1 -1 0l-22 -26t-20 -28z" />
    <glyph glyph-name="t" unicode="t" horiz-adv-x="111" 
d="M52 535q103 10 211 23.5t223 14.5q28 1 55.5 -1.5t51.5 -7.5q6 -2 15 -4t8 -11q-5 -8 -13.5 -5t-15.5 5q-29 6 -61.5 7t-66 -0.5t-66.5 -4.5t-62 -6q-72 -6 -142 -14.5l-138 -17.5q-3 -40 -4.5 -81t-3.5 -83q-1 -42 -1.5 -83.5t-2.5 -84.5q-3 -74 -3 -146t-2 -145
q0 -9 -2 -17.5t-13 -9.5q-11 0 -13 9t-3 18q-2 30 -2.5 61.5t-1.5 60.5l-2 84t-1 83q0 84 4 167l8 161q-57 -7 -117 -18t-120 -19q-9 -1 -19.5 -2l-21.5 -2q-12 -1 -23 1.5t-11 10.5q1 8 8.5 8.5t15.5 -1.5q75 9 144.5 22.5t144.5 21.5q2 21 3.5 44t3.5 46l4 43.5t15 34.5
q7 2 12.5 0t7.5 -7q2 -37 0.5 -77t-3.5 -78z" />
    <glyph glyph-name="u" unicode="u" horiz-adv-x="300" 
d="M205 30q-11 1 -13.5 11l-4.5 18q-5 28 -4.5 61.5t1.5 65.5q1 45 4 91t7 91q-26 -41 -48 -81t-53 -75l-24 -23.5t-31 -14.5q-8 -1 -17 2.5t-14 7.5q-21 20 -23 63v25t2 29t7 25t14 13q18 2 26.5 -8t4.5 -27q-1 -4 -5.5 -3.5t-6.5 0.5q-1 -8 -2 -20t-2 -22q0 -14 2.5 -31.5
t11.5 -19.5q5 -2 14 4.5t14 11.5q18 17 32.5 38l28.5 41q15 22 26.5 43.5t25.5 44.5q3 4 6 10t7.5 10.5t10 5.5t11.5 -4q5 -4 6.5 -14.5t1 -24t-2 -26.5t-1.5 -21q-2 -29 -4 -50.5t-3 -44.5q-2 -47 -3 -92t2 -87l4 -14t-8 -9z" />
    <glyph glyph-name="v" unicode="v" horiz-adv-x="204" 
d="M228 457q1 -11 -4.5 -14.5t-8.5 -10.5q-13 -16 -23.5 -33.5l-21.5 -35.5q-32 -53 -60.5 -110.5t-54.5 -116.5q-5 -9 -9.5 -19.5t-9.5 -19.5q-5 -8 -12 -16.5t-18 -9.5h-2q-10 1 -15.5 7t-8.5 15t-4.5 20t-1.5 21q-2 57 3.5 111t14.5 103l4 19.5t12 11.5q8 -1 11.5 -7
t4.5 -13.5t0 -16.5t-1 -16q-2 -50 -5.5 -99t-2.5 -100q21 36 40 74l39.5 76.5l42 76t46.5 70.5l16 21t17 17q9 1 12 -5z" />
    <glyph glyph-name="w" unicode="w" horiz-adv-x="453" 
d="M41 426q2 -13 0.5 -29t2.5 -29q0 -5 -3.5 -5.5t-4.5 -4.5q-5 -62 -9.5 -125t-1.5 -131l22 68.5l22 68.5q6 17 11 34t13 33q3 6 6 14.5t6.5 17t9.5 15t15 6.5q14 1 20 -11.5t10 -26.5q5 -20 9.5 -42l9 -43t11 -40t16.5 -33q14 19 21 44.5l15 52.5l6.5 24.5t7.5 26.5
q1 6 3 13t4.5 13.5t6 11.5t8.5 5q10 2 15 -6l9 -15q12 -21 32.5 -36t52.5 -13q18 1 33 8.5t28 15.5q4 2 8.5 4.5t9.5 -5.5q-3 -13 -13.5 -18t-19.5 -11q-13 -10 -31 -13t-36 -1t-34.5 8t-26.5 15q-15 15 -23 31q-12 -32 -19.5 -71t-20.5 -73q-5 -14 -13.5 -27t-28.5 -11
q-21 11 -30.5 33.5t-15.5 47.5q-7 25 -12.5 51.5t-11.5 51.5q-23 -51 -38.5 -108l-32.5 -117q-2 -9 -4.5 -19t-6.5 -19.5t-9 -17t-12 -10.5q-6 -3 -14.5 -1.5t-13.5 5.5q-6 5 -9.5 15.5t-5 23.5t-2 27.5t-0.5 26.5q0 57 3.5 108t9.5 101q3 25 7 48.5t12 43.5q5 5 14 5t13 -6
z" />
    <glyph glyph-name="x" unicode="x" horiz-adv-x="304" 
d="M63 184q4 -9 9.5 -16.5t15.5 -10.5q34 3 59 16.5t47 28.5q22 16 41.5 33.5l39.5 34.5l13.5 12t13.5 11q2 1 5 4.5t7 7.5t8 6.5t9 1.5q9 -2 8.5 -7t-5 -11t-10.5 -12l-9 -9l-70.5 -66.5t-80.5 -57.5q-16 -8 -38 -18t-46 -7q-14 2 -25 9.5t-18 18.5l-43.5 -55.5
t-38.5 -60.5q1 -9 -2 -14t-7.5 -5t-8 4.5t-2.5 14.5q1 7 4 13t5 11q17 31 39 59l41 53q-11 21 -18 55t-11 69q-1 8 -2 18.5t0 19t5 13.5t15 3q8 -1 10.5 -7t6.5 -11q7 -29 11 -61.5t12 -61.5l51.5 57t58.5 58q8 8 19.5 18.5t22.5 13.5q10 4 13 -7q-1 -10 -7 -13.5t-11 -9.5
l-70.5 -69.5t-66.5 -73.5z" />
    <glyph glyph-name="y" unicode="y" horiz-adv-x="332" 
d="M205 190l32.5 40.5t35.5 40.5q8 10 17.5 19.5t19.5 18.5l10.5 8t10.5 9q5 3 11 7.5t13 -0.5q2 -5 -2 -7.5t-6 -4.5q-45 -33 -80 -77t-68 -90q-16 -86 -41 -172t-58 -161q-11 -25 -25 -47q-7 -11 -15.5 -21.5t-19.5 -15.5q-17 -7 -27 2.5t-12 25.5q-1 35 5.5 63.5
t17.5 56.5q24 66 57.5 121.5t69.5 108.5l28.5 129.5t17.5 141.5q-8 -5 -13.5 -14l-10.5 -18q-28 -45 -51.5 -92.5t-52.5 -92.5l-9.5 -16t-12.5 -18t-15.5 -16t-17.5 -9q-4 -1 -7.5 -0.5t-8.5 0.5q-5 2 -8 5.5t-7 6.5q-9 16 -12 37.5t-2 44.5t5 45t10 40q4 12 10 23t19 13
q13 -1 15 -13.5t1 -24.5q-2 -3 -6 -2.5t-6 0.5l-7 -34.5t-6.5 -40t-1.5 -40.5t7 -36q19 8 31.5 25t23.5 35q26 43 51 89.5t54 90.5q2 4 5.5 9.5t7.5 10.5t8.5 8.5t8.5 3.5q13 -2 15.5 -16t2.5 -30q2 -37 -2.5 -84.5t-9.5 -85.5zM43 -124q-8 -24 -14 -49.5t-2 -54.5
q37 62 63 138t47 154v1q-28 -42 -52 -89t-42 -100z" />
    <glyph glyph-name="z" unicode="z" horiz-adv-x="281" 
d="M-22 127q65 12 130.5 27.5t140.5 20.5q18 1 36.5 0t35.5 -4q5 -2 11 -3t5 -8q-1 -8 -7.5 -7t-11.5 2q-44 6 -90.5 0t-84.5 -13l-46 -10l-45 -10q-23 -5 -46 -11.5t-47 -5.5q-9 3 -11 9.5t0.5 13.5t7 14.5t8.5 12.5q42 51 92.5 95.5t91.5 92.5q-30 -11 -56.5 -23.5
l-53.5 -26.5q-8 -5 -17.5 -10t-20.5 -5q-12 6 -12.5 13t5.5 14t15 13.5l15 10.5q12 8 23 14.5t21 11.5q24 12 49 23t55 17q25 3 35 -14q4 -9 2.5 -18t-5.5 -16q-9 -16 -24.5 -30.5l-29.5 -27.5l-87.5 -81t-83.5 -81z" />
    <glyph glyph-name="a_b" horiz-adv-x="570" 
d="M372 271q6 12 14 25.5t18 27t21 25t24 19.5q17 11 36 6t21 -28q-2 -38 -17.5 -65.5t-35.5 -50.5q-19 -23 -41 -43.5t-48 -36.5q-2 -7 -2.5 -16t-1.5 -16.5t-4.5 -13.5t-10.5 -7q-8 -2 -12.5 2t-6 11t-1 15.5t1.5 16.5q-3 5 -7.5 7t-6.5 7q-4 8 -4 18t3.5 19.5t9 16.5
t11.5 10q6 91 15.5 178.5t20.5 175.5l-40 -121.5l-40 -122.5q-20 -60 -43 -116.5t-61 -100.5q-6 -3 -10.5 -6.5t-12.5 -3.5q-11 0 -17 10t-9 23.5t-3.5 28.5t-0.5 26q-1 32 -1.5 61t-5.5 51q-4 -1 -7.5 -5.5t-5.5 -9.5q-11 -12 -20 -25t-19 -25l-28 -32.5t-31 -28.5
q-6 -2 -11.5 -5.5t-16.5 -1.5q-18 5 -21 31q1 39 15.5 77.5t38.5 58.5q7 5 17 10.5t21 4.5q18 -1 28.5 -16t3.5 -35q9 7 16 18.5t24 12.5q16 -3 19.5 -19.5t4.5 -36.5q1 -18 0.5 -39t0 -41.5t2 -39t7.5 -31.5q16 8 26 23.5t18 30.5q27 48 45.5 101l38.5 110q22 63 41.5 129
l38.5 135l6 23t12 13q8 0 11.5 -6t4 -15t0 -19.5t-1.5 -18.5q-7 -91 -15.5 -181t-15.5 -179zM409 282q-12 -22 -20.5 -45.5t-15.5 -46.5q15 13 30 28t29 32q13 16 25.5 36t17.5 41q4 13 0 21h-2q-22 -8 -37.5 -27.5t-26.5 -38.5zM69 301q2 14 -8 21h-4q-10 -2 -15 -7
q-19 -17 -31 -50t-14 -64q20 11 35 28t29 35q-6 4 -6 8t2.5 8.5t6 9.5t5.5 11z" />
    <glyph glyph-name="ff_f" horiz-adv-x="500" 
d="M148 638q-20 -10 -31.5 -28.5t-20.5 -37.5q-29 -60 -45.5 -133t-25.5 -151q51 11 97.5 27t85.5 40t70 56t50 76q2 14 5 27t8 25q1 6 4 12t7.5 9.5t10 4t11.5 -4.5q-1 -9 -3.5 -18t-4.5 -18q-5 -28 -8 -58t-7 -62q-9 -80 -15 -164q24 0 45 5.5t40 14t35.5 19l33.5 20.5
q5 4 11 7t11 7t10 9t13 2q4 -6 2.5 -11t-6 -10t-10 -8.5t-9.5 -6.5q-10 -8 -21 -14.5t-21 -11.5q-20 -14 -43 -24t-49 -19l-21.5 -4t-22.5 -3q-4 -14 0 -28t6 -28q8 -45 7.5 -98.5t-8.5 -99.5q-2 -10 -4 -23t-7 -23.5t-13 -15t-21 2.5q-11 12 -11.5 32t-0.5 41q0 51 3 100.5
t8 99.5q1 10 3 23t-3 18t-14 4.5t-13 2.5q-5 4 -10 7.5t-6 11.5q0 9 6 13t14 4.5t16 -2.5t13 -8l10 98t13 96q-4 -1 -7 -6.5t-6 -9.5q-4 -4 -7 -8t-7 -8q-14 -15 -29 -29q-96 -81 -244 -113q0 -9 -1 -18t-2 -20q0 -9 -1.5 -19t0.5 -19q1 -8 6.5 -17t9.5 -17q18 -43 26 -99
t3 -118q-1 -11 -1.5 -22.5t-3.5 -22t-8 -18t-15 -9.5h-1q-9 2 -15.5 8.5t-10 15.5t-6 19.5l-4.5 19.5q-13 60 -16.5 132t-1.5 142l-8.5 12.5l-10.5 14.5q-5 6 -12 13.5t-5 15.5q1 11 15 13t25 5q7 58 17 112.5t26 104.5q8 23 17 46.5t20 46.5q13 24 30.5 46t43.5 32
q1 0 1 0.5t1 0.5q22 0 31.5 -14t11 -35t-1 -45.5t-3.5 -43.5q0 -10 1 -21t-10 -13q-6 1 -8 6t-2.5 11.5t0.5 13.5t1 13q0 3 -0.5 6t-0.5 7q0 12 0.5 24.5t0 24t-3 21.5t-8.5 16zM-17 256q-2 2 -6 0.5t-7 -1.5q5 -8 12 -14v8t1 7zM34 -80q9 54 4.5 112t-22.5 100
q2 -57 4.5 -111t13.5 -101z" />
    <glyph glyph-name="l_l" horiz-adv-x="421" 
d="M274 -148q-7 0 -10.5 4.5t-5 11t-1.5 13.5v13q-2 45 0 89.5l4 85.5q2 55 7.5 110l10.5 107q11 109 24 214l26 210q-30 -60 -55.5 -124.5t-48.5 -130.5l-47 -133.5l-45 -135.5l-22.5 -65t-29.5 -63q-6 -11 -15 -21t-25 -7q-14 3 -21.5 19t-12.5 33q-6 26 -9 55.5t-3.5 61
t0 64t1.5 62.5q2 60 6 120.5t15 115.5q1 7 3.5 16.5t6 18.5t8 15.5t11.5 6.5q6 0 9 -3.5t6 -7.5q2 -4 1 -7t-2 -7q-2 -5 -1.5 -9t-0.5 -7q-1 -4 -4 -6t-3 -5q-14 -88 -19 -187.5t-3 -202.5q0 -33 3.5 -64t15.5 -54q17 14 26.5 35.5l18.5 42.5q26 66 49 135l47 136l50 134.5
l52 132.5q9 20 17 42t25 38q16 4 20.5 -12.5t3.5 -35.5q-2 -43 -7 -83l-10 -79q-13 -108 -24 -216.5t-19 -219.5q-4 -57 -9 -112t-5 -112q0 -11 1 -20t-10 -12z" />
    <glyph glyph-name="t_t" horiz-adv-x="469" 
d="M382 535q13 1 24 1t25 1q4 0 11 1t14 1.5t12 -0.5t6 -5q2 -6 -2 -9.5t-11 -4.5t-15 -1.5t-13 -0.5q-14 -2 -27 -3l-26 -2q-14 -93 -21 -193.5t-12 -208.5q-4 -79 -4 -158.5t-2 -162.5q-1 -12 -1.5 -24.5t-1.5 -27.5q-1 -8 -2.5 -16.5t-4.5 -14t-8.5 -6.5t-12.5 6
q-2 5 -1 8.5t1 8.5q2 26 0.5 51.5t-2.5 51.5t-1 52t-1 52q-3 153 8.5 298t28.5 280q-14 1 -27.5 -1t-27.5 -3q-44 -91 -85 -186l-84 -190q-11 -28 -29 -62q-7 -14 -17 -29.5t-21 -23.5q-10 -8 -22 -6.5t-21 12.5q-13 18 -15.5 48.5t-3.5 59.5q-2 93 7.5 178t19.5 163
q-16 -3 -36 -5t-37 -5q-3 -1 -7.5 -2t-8 -1.5t-6.5 1.5t-4 7q0 8 7 9.5t13 3.5l40.5 8.5t41.5 6.5q2 14 5 28.5t7 28.5t8.5 26t21.5 12q6 -1 9.5 -4.5t6.5 -8.5q0 -9 -1.5 -17t-2.5 -17q-1 -8 0 -17.5t-3 -16.5q-5 -3 -7 0t-4 5q1 -4 -0.5 -6.5t-0.5 -6.5l105 14.5t107 13.5
l51 105.5t48 108.5q4 6 7.5 15.5t8.5 20.5q4 8 9 20.5t13 13.5q9 1 12.5 -3t4.5 -11t-0.5 -15t-2.5 -15l-21 -116t-19 -115zM298 528q24 3 48 3q5 42 13 82.5t14 78.5q-18 -42 -37.5 -82t-37.5 -82zM55 476q-7 -50 -13 -103.5t-9 -108.5q-4 -54 -7 -112t10 -111
q11 8 19 22.5t16 27.5l48.5 102l47.5 103l44.5 98l43.5 96l4 6t0 6l-102.5 -12t-101.5 -14z" />
    <glyph glyph-name="i_l" horiz-adv-x="398" 
d="M298 647q-32 -65 -62 -134.5l-60 -138.5l-46.5 -102t-52.5 -96l-21.5 -29t-31.5 -17q-14 3 -20.5 15t-9 29t-2.5 36.5t1 37.5q1 14 1.5 29t2.5 28l4 27t13 16q7 1 13 -4.5t5 -10.5t-4.5 -5t-7.5 -2q-1 -20 -2.5 -41.5t-1.5 -43.5t2 -42.5t8 -37.5q9 5 14.5 14l10.5 17
q12 18 21 36q30 55 56 113.5l52 118.5l35 79t35 78q8 20 17 39.5l18 39.5q4 11 8.5 20t8.5 20q5 9 9 19.5t15 12.5q12 1 17 -5t6.5 -15.5t0 -21.5t-3.5 -23q-13 -94 -23 -190.5t-18 -193.5q-8 -89 -13.5 -171t-9.5 -172q0 -13 -0.5 -28.5t-0.5 -31.5q0 -10 1 -21.5t0 -21
t-4 -16.5t-12 -8h-1q-14 1 -16.5 12.5t-3.5 22.5q-3 39 -1 81.5t3 78.5q5 158 18.5 308.5t32.5 294.5zM24 439q-4 1 -7.5 2.5t-4.5 6.5q0 3 1.5 5.5t2.5 7.5q1 4 0.5 7.5t0.5 5.5q2 4 5.5 5t6.5 1q8 -1 11 -7.5t2 -14t-6 -13.5t-12 -6z" />
    <glyph glyph-name="i_t" horiz-adv-x="392" 
d="M301 539q26 1 57.5 5.5t60.5 4.5q6 0 14 -1t14 -4t7.5 -8t-5.5 -12q-5 -1 -7 1.5t-7 3.5q-8 2 -17.5 1t-17.5 -2q-25 -3 -51 -6.5t-50 -5.5q-13 -137 -20.5 -282l-14.5 -289q0 -8 -0.5 -19t-1.5 -21q0 -10 -0.5 -20t-13.5 -11h-2q-9 3 -9 13t-1 20q0 29 -1.5 60.5
t-1.5 62.5q1 41 3 82l4 80q5 81 11 161t14 157q-14 -1 -28 -3t-26 -6l-62 -150.5t-65 -152.5q-7 -12 -12.5 -23.5t-12.5 -24.5q-6 -10 -15 -22t-22 -12q-11 1 -16 7.5l-10 13.5q-5 22 -5.5 51.5t1.5 60.5q1 12 1 28t2 30.5t7 25t16 10.5q17 0 18.5 -13t3.5 -28
q-1 -2 -4.5 -1.5t-5.5 0.5q-1 -36 -4.5 -74.5t0.5 -73.5q15 17 25.5 37.5l20.5 41.5q30 63 58.5 130.5l54.5 134.5l-62.5 -10.5l-63.5 -11.5q-3 -1 -9 -2.5t-12 -2.5t-10.5 0t-5.5 6q-1 4 3 7t10 5t12.5 3.5l10.5 2.5q33 9 67.5 16t67.5 12q11 22 20.5 44.5l19.5 45.5
l18 45.5t26 40.5q14 6 21 -0.5t9 -19.5t1.5 -29t-1.5 -29q-2 -24 -3 -44.5t-3 -36.5zM221 527q12 2 23 3t23 3q3 29 5.5 58t4.5 57q-17 -29 -29.5 -59.5t-26.5 -61.5zM51 579q-6 5 -6.5 12t2.5 13t9.5 8.5t15.5 -0.5q3 -2 9 -10q2 -14 -8.5 -21t-21.5 -2z" />
    <glyph glyph-name="a_m" horiz-adv-x="680" 
d="M345 225v0l34 83t36 81q7 11 13.5 24t25.5 14q7 -1 10.5 -4.5t6.5 -8.5q6 -20 7.5 -44t0.5 -49.5t-3 -51t-2 -48.5q7 12 14 26.5t15 29.5q3 6 6.5 14.5t8 16t10.5 12.5t14 5q10 0 15.5 -8t7.5 -19.5t2.5 -25t1.5 -24.5l2 -23t3.5 -22.5t7 -19t11.5 -12.5q5 -2 9 -2t9 -6
q1 -11 -5.5 -13.5t-17.5 -1.5q-32 12 -42 46t-11 78q-9 -13 -16.5 -30.5t-15.5 -32.5q-9 -16 -16 -33t-27 -22q-6 0 -9.5 2.5l-6.5 4.5q-5 9 -5 24q-2 23 1 48t5 51t3 51t-1 51q-33 -59 -59.5 -129.5l-52.5 -138.5q-3 -9 -8 -18.5t-16 -10.5q-14 1 -14 12.5t2 24.5
q8 53 18 105l19 100l-34.5 -55.5l-34.5 -57.5l-17.5 -25t-20.5 -28q-13 -14 -29.5 -27t-40.5 -8q-18 10 -27 29.5t-14.5 43t-9 48.5t-9.5 47q-4 -2 -8 -8.5l-7 -11.5q-3 -10 -3 -22t-8 -17q-9 0 -7 10q-11 -12 -19.5 -26t-19.5 -26q-5 -5 -11 -13t-13.5 -15t-16.5 -10.5
t-19 0.5q-6 2 -9 8t-5 13q2 48 18.5 80t38.5 60q6 5 13 10t16 7q17 1 25 -5.5t13 -16.5q7 5 11.5 10.5t15.5 3.5q10 -2 15.5 -11t9 -22t5 -28t3.5 -27q2 -14 4 -26t6 -24q4 -11 9 -23.5t14 -14.5q11 -2 16.5 4.5t13.5 9.5q23 22 40 48.5l35 53.5l24 42.5t25 41.5
q5 6 9.5 12.5t13.5 8.5q9 -3 12.5 -11t3.5 -18.5t-2 -21t-3 -19.5q-3 -20 -7 -39.5t-6 -36.5v-2v-1zM62 294q-2 6 -5 11t-10 7q-5 -1 -8 -3l-6 -4q-20 -17 -33.5 -50.5t-18.5 -65.5q25 20 43.5 48.5z" />
    <glyph glyph-name="a_n" horiz-adv-x="649" 
d="M399 261l13 29l15 32l8.5 15t11 15t15 11t19.5 3q5 -2 8.5 -4.5t7.5 -4.5q15 -21 22.5 -49t13.5 -58t14 -58t23 -49q5 2 5.5 8t7.5 7q4 1 6.5 -2t3.5 -6.5t0 -8t-3 -6.5q-3 -10 -12 -15t-20 1q-20 17 -31 42.5t-19 54.5t-15 58.5t-18 55.5q-11 -8 -17 -21t-13 -25
q-5 -13 -11 -26t-11 -27l-10 -27l-10 -28t-9.5 -28t-20.5 -16q-9 -1 -13 5.5t-4.5 16.5t1 20.5t2.5 18.5l10.5 93.5t9.5 91.5q-15 -21 -29.5 -45l-29.5 -48.5t-31.5 -48.5t-35.5 -44q-11 -13 -28 -25.5t-37 -14.5q-23 -1 -36.5 16t-20.5 36q-7 21 -10 44l-6 46
q-19 -23 -37.5 -51t-41.5 -51q-11 -12 -23 -22t-34 -8q-12 5 -16.5 17.5t-3.5 27.5q2 20 9 39t15 36q9 17 19.5 31.5t24.5 22.5q5 1 10 2.5t10 -0.5q14 -5 19 -18.5t4 -32.5q6 6 10.5 13.5t10 14.5t12 12.5t16.5 7.5q11 -2 16.5 -10.5t8 -21.5t3 -27.5t2.5 -26.5
q3 -24 10.5 -46.5t27.5 -26.5q23 4 39.5 19.5t31.5 33.5q29 36 53 77l49 83q6 11 13.5 22t21.5 6q14 -10 14 -33t-2 -43l-4 -42t-4 -40zM41 247l8.5 10.5t5.5 10.5q1 9 -3.5 25t-10.5 21q-3 -3 -7 -5q-18 -17 -29.5 -49t-13.5 -64q14 8 26.5 22.5z" />
    <glyph glyph-name="u_l" horiz-adv-x="563" 
d="M447 653q-45 -93 -84 -194.5l-79 -202.5q-6 -16 -13 -32.5t-15 -32.5l-18.5 -31t-26.5 -19q-11 0 -17.5 6.5t-11 15.5t-7 19.5t-5.5 18.5q-6 20 -9.5 42t-11.5 39q-7 -2 -10 -8.5t-6 -11.5q-17 -29 -32 -61.5t-34 -63.5l-7.5 -12t-10.5 -12.5t-13 -9t-15 -1.5
q-15 3 -22 17t-9 33t-1.5 39.5t2.5 36.5q1 36 8 70q1 8 2 17.5t3 17t6.5 13t12.5 6.5q6 0 8.5 -3.5t4 -9t2.5 -11t3 -9.5q-1 -4 -4 -5.5t-4 -6.5q-4 -38 -7 -81t3 -86q9 7 16.5 18.5t12.5 22.5q14 23 25.5 46.5t27.5 45.5q6 11 13.5 21.5t21.5 14.5h2q11 -2 17 -9t10 -16.5
t6 -21t4 -21.5q4 -23 8.5 -44.5t16.5 -35.5q17 9 24.5 26.5t16.5 33.5q7 18 14.5 35t14.5 36l55.5 141.5l57.5 141.5q10 20 21.5 50t23.5 54q4 8 9.5 18t15.5 12q8 -2 11.5 -8t4.5 -13.5t-0.5 -15.5t-2.5 -14q-3 -46 -8 -88.5l-10 -87.5q-14 -119 -22.5 -240t-7.5 -255
q1 -54 -0.5 -111.5t3.5 -117.5q0 -11 -1.5 -17t-9.5 -8q-7 2 -10.5 7.5t-4.5 12.5t-1 15v14l-6 91.5t-4 92.5q-2 63 0.5 123t5.5 117q5 117 18.5 229t28.5 218z" />
    <glyph glyph-name="a_t" horiz-adv-x="507" 
d="M400 484q53 1 108.5 3.5t101.5 -11.5q5 -3 12 -4.5t6 -10.5q-5 -5 -11.5 -3t-11.5 4q-21 6 -47.5 7.5t-54.5 0.5t-55.5 -3t-50.5 -3q-10 -62 -19.5 -127.5t-15.5 -134t-7 -139t5 -141.5q1 -5 3.5 -7t1.5 -8q-3 -12 -14 -13q-8 0 -12 5.5t-6.5 14t-4 18.5t-2.5 18
q-2 18 -4.5 36.5t-2.5 35.5q0 119 12.5 228t28.5 209q-11 0 -22.5 -1.5t-22.5 -3.5l-56 -112.5t-61 -110.5l-22.5 -34.5t-29.5 -26.5q-8 -4 -22 -4q0 1 -1 1q-14 6 -19.5 22t-6 36t1.5 41.5t2 39.5q-4 -5 -7 -10.5l-6 -10.5q0 -5 1.5 -9t-0.5 -9q-3 -2 -6.5 -1t-5.5 3
l-18.5 -27.5t-20.5 -27.5l-21.5 -24.5t-26.5 -19.5q-9 -4 -20 -2q-25 7 -20 42q3 21 13 41.5t22 38.5t27 33t34 19q3 -1 7.5 0t6.5 -1q8 -2 11.5 -5.5l8.5 -8.5q7 9 12.5 19.5t19.5 12.5q10 -2 14 -8.5t5 -15.5t0 -19.5t-2 -19.5l-4 -54t5 -48q10 3 16 10.5t11 14.5
q5 8 10.5 15t9.5 16q30 46 55 97l51 102l-61.5 -8.5t-64.5 -6.5q-11 -2 -22 -3t-18 7q2 11 14.5 12.5t22.5 3.5l70 10l71 10q19 35 39.5 78l41.5 84q3 5 6.5 13.5t8 17t10 14.5t12.5 6q11 1 15 -5.5t4.5 -15.5t-1.5 -19.5t-3 -17.5l-14.5 -73.5t-13.5 -71.5zM326 477
q10 1 19 1.5t19 1.5q5 30 11 59.5t11 57.5l-30.5 -59.5t-29.5 -60.5zM55 310q-14 -3 -25.5 -16.5t-19.5 -27.5q-9 -14 -16 -30t-9 -30q23 19 42.5 45.5t36.5 52.5l-4 4t-5 2z" />
    <glyph glyph-name="a_l" horiz-adv-x="469" 
d="M388 588q-29 -53 -56 -111.5l-54 -115.5q-20 -41 -39.5 -86t-44.5 -84q-10 -16 -22.5 -31.5t-35.5 -16.5q-16 8 -23 25.5t-9.5 39t-2.5 45.5t-2 46q-19 -26 -37 -56t-42 -53l-15.5 -11t-21.5 -2q-8 4 -11 11t-5 15q-2 24 3.5 44t12.5 37t16 32t26 22q21 3 31 -8.5
t16 -25.5q4 3 7 8.5t6.5 10t7.5 8t11 3.5q9 0 13 -9.5t5.5 -23t1 -27.5t-0.5 -23q1 -29 3 -52.5t14 -35.5q15 7 24.5 20t17.5 27q24 42 44.5 87l40.5 90q26 60 55.5 119l57.5 117q10 14 16.5 32t20.5 29q6 2 11 0q10 -6 9 -17t-3 -20q-6 -30 -13 -61.5t-13 -61.5
q-23 -123 -33 -261.5t-8 -284.5q2 -5 5 -6t4 -6q2 -5 -2 -14t-6 -17q-2 -11 -4.5 -17.5t-11.5 -6.5t-12 9t-4 22q-4 37 -5 77.5t-0.5 81.5t3 81.5t5.5 76.5q7 91 19.5 172.5t29.5 156.5zM28 235l6 10t7 10q3 5 8 11t5 11q0 7 -8.5 18t-13.5 14q-10 -6 -16 -18t-12 -26
q-6 -17 -10 -32.5t-1 -30.5q12 5 19.5 14.5t15.5 18.5z" />
    <glyph glyph-name="t_h" horiz-adv-x="601" 
d="M78 591q36 3 75.5 5.5t78.5 6.5q5 0 12.5 1.5t14 1.5t11.5 -1.5t5 -6.5t-4.5 -8t-11.5 -4.5t-14.5 -2t-12.5 -1.5q-39 -5 -77.5 -8.5t-80.5 -6.5q-20 -116 -34.5 -238t-21.5 -254q-2 -42 -1.5 -88t10.5 -85q5 2 8 8t6 11q20 42 36 86.5l32 90.5l99 267t108 261
q3 8 7 17.5t9 19.5q5 8 11.5 16.5t14.5 8.5q14 0 17 -17t1 -34q-2 -51 -8.5 -96l-12.5 -90q-9 -63 -16 -123t-13 -124l30.5 51t33.5 51q6 8 13 15.5t18 9.5q10 -2 15 -8t8 -15t4.5 -19.5t4.5 -20.5q2 -7 5 -16.5t7 -18t10 -14.5t14 -7q14 -2 24 7t18 15q18 17 32.5 32.5
l31.5 32.5q4 3 8 8t9 8q4 3 11 5t9 -7q2 -7 -4 -7t-8 -4l-23.5 -27t-26.5 -28l-25 -28t-28 -23q-11 -6 -24.5 -7.5t-24.5 4.5q-24 13 -33.5 44t-15.5 63q-5 -4 -9 -9.5t-6 -10.5l-22 -33.5t-19 -34.5q-14 -21 -26 -46q-6 -11 -12 -24.5t-20 -15.5q-8 2 -11.5 8.5t-4 15
t0.5 18t1 16.5q2 62 9.5 121t16.5 116l18 113.5t15 114.5q-23 -44 -43 -91l-40 -95t-38.5 -97l-36.5 -97q-28 -72 -52.5 -149.5t-52.5 -152.5q-5 -12 -9 -24t-10 -24q-8 -16 -16.5 -30.5t-28.5 -16.5q-8 1 -12 5t-7 9q-9 16 -11.5 36.5t-4.5 42.5q-5 68 -3 137t8 132
q8 86 18.5 168.5t23.5 160.5q-16 -1 -34.5 -2t-37.5 -3q-8 0 -17.5 -1.5t-18.5 -1t-15.5 3.5t-8.5 11q0 13 10.5 13.5t21.5 0.5q25 -2 53 0.5t51 3.5l7 37l8.5 42.5t10 43t11.5 39.5q2 7 5 16t7.5 16t11 10.5t15.5 0.5q7 -2 10 -9t3 -16q0 -14 -9.5 -25t-14.5 -19
q-8 -32 -14.5 -65t-11.5 -68z" />
    <glyph glyph-name="n_t" horiz-adv-x="531" 
d="M435 458q54 4 111.5 6t115.5 0q7 0 15 -0.5t9 -9.5q-2 -8 -10.5 -7.5t-16.5 0.5q-57 -2 -114 -3t-111 -6q-4 -64 -5 -131l-2 -135l-2 -136t-4 -133q-1 -8 -1 -18t-1 -19q-1 -8 -2.5 -16t-11.5 -9h-3q-10 2 -10 11.5v17.5q0 140 -2.5 285t7.5 280q-13 -1 -25.5 -1.5
t-24.5 -2.5l-24.5 -59l-25 -62.5t-27 -62t-30.5 -57.5q-10 -16 -24 -35.5t-31 -24.5q-6 -2 -13.5 -1.5t-12.5 2.5q-9 4 -14.5 12.5t-9.5 19.5t-7 23t-5 23q-5 26 -9 50.5t-12 44.5q-11 -14 -18.5 -32l-15.5 -37q-7 -19 -13.5 -38.5l-12.5 -38.5q-5 -11 -9.5 -24t-21.5 -14
q-15 1 -18.5 19.5t-4.5 37.5q-2 38 1.5 74.5t8.5 70.5q1 10 3 20.5t6 17.5t10.5 9.5t16.5 -3.5q6 -8 5.5 -18.5t-2.5 -21.5q-4 -31 -6.5 -63t-4.5 -64q8 17 15.5 35.5l15.5 38.5q7 17 16.5 35.5t29.5 24.5q13 -2 19 -12.5t9 -22.5q8 -24 11 -52t9 -54q3 -12 7.5 -24
t14.5 -17q20 7 30.5 23.5l21.5 32.5q30 51 53.5 107.5l46.5 114.5q-42 -2 -84 -7t-87 -5h-14.5t-16.5 0.5t-14 3t-6 7.5t6 7.5t14.5 3t17.5 0t15 -0.5q45 1 89 6t88 7l34 87.5l33 90.5q5 14 9.5 29t15.5 27q7 2 11.5 -1t7.5 -6q6 -25 2.5 -57t-5.5 -61q-2 -26 -3 -51t-3 -51
zM355 453q11 0 21.5 1t21.5 1q2 35 6 70.5t6 68.5l-27.5 -70.5z" />
    <glyph glyph-name="n_l" horiz-adv-x="586" 
d="M499 730q-53 -104 -99.5 -219.5l-93.5 -229.5l-16 -37t-18 -37q-9 -17 -19.5 -34t-31.5 -22h-1q-15 2 -23 12.5t-13 22.5q-11 24 -18 52t-15 55l-9.5 26.5t-13.5 20.5q-11 -8 -18.5 -20t-14.5 -25q-14 -26 -25.5 -53t-25.5 -55q-6 -11 -15.5 -25t-24.5 -15q-5 0 -8.5 2
t-7.5 5q-7 10 -9 22.5t-2 27t2.5 28.5t4.5 27q5 27 14 50q5 11 11.5 21t18.5 11q10 -2 14.5 -11t2.5 -19q-3 -5 -8 -2.5l-7 3.5q-7 -26 -11.5 -54t-6.5 -59q9 15 17.5 33l17 36.5l18 37.5t20.5 35q5 7 12.5 15t16.5 12.5t19 4t20 -9.5q15 -13 23 -38t14 -49q7 -26 13 -50.5
t17 -42.5q8 4 13 11t10 15q14 23 25 48l22 51q45 101 86 206t86 205q10 19 18 40.5t28 31.5q13 0 18.5 -8.5t7 -21.5t0 -28t-2.5 -27q-8 -91 -17.5 -183t-16.5 -184q-4 -54 -7 -108l-6 -108q-1 -26 -3 -54t-2 -56q0 -29 -2 -57.5t3 -54.5q1 -7 3 -12t-3 -13l-4 -2t-4 -1
q-14 2 -17 14t-5 24q-5 38 -5 83.5t1 87.5q1 57 4 112.5t8 108.5q8 110 18.5 216.5t22.5 210.5z" />
    <glyph glyph-name="o_v" horiz-adv-x="500" 
d="M324 121q15 50 28 102.5t30 102.5q2 6 5 13t12 7q6 -2 9 -6q0 -9 -3 -17.5t-5 -16.5q-14 -57 -27 -118t-29 -117q-5 -5 -9.5 -10t-13.5 -4t-15 10.5t-10.5 22t-7 26t-4.5 21.5q-16 71 -25.5 151.5t-11.5 161.5q-5 -3 -9 -8l-8 -10q-5 -5 -8.5 -10.5t-8.5 -9.5
q-26 -29 -57.5 -52t-70.5 -39q15 -22 17.5 -51t-4.5 -56.5t-22.5 -49t-37.5 -27.5q-11 -3 -19.5 0.5t-16.5 8.5q-12 14 -16.5 34t-4 42t5 44.5t9.5 41.5q5 20 13 39.5t27 24.5h1q11 -1 15 -9t5 -19q4 -2 6.5 -3.5t6.5 -3.5q31 9 55 24.5t46 34.5q23 17 39 40.5t36 43.5
q8 2 13 -1t7.5 -9.5t3.5 -15t2 -15.5q10 -84 21 -166.5t31 -151.5zM28 317q-6 -23 -12 -53t-4 -59q1 -11 4 -22t12 -16q18 5 30 22.5t17 40t2 45.5t-16 39q-9 -2 -18.5 -0.5t-14.5 6.5v-3z" />
    <glyph glyph-name="c_t" horiz-adv-x="484" 
d="M375 506q30 2 64 5t68 5q4 0 10.5 1t12 1t9.5 -2t4 -7t-3.5 -8t-9 -4t-12 -1.5t-11.5 -0.5q-32 -5 -66.5 -8.5t-66.5 -7.5q-9 -109 -15 -225t-11 -234l-2 -58t-1 -60q0 -15 -0.5 -29.5t5.5 -22.5q-1 -9 -1 -20t-0.5 -20t-4 -16t-11.5 -9q-12 0 -14 10t-3 20
q-7 74 -5.5 156.5t4.5 157.5q5 89 10.5 176t13.5 170q-24 -2 -46.5 -5.5t-45.5 -6.5l-37.5 -80.5l-37 -83.5t-39 -82.5t-43.5 -77.5q-6 -10 -14.5 -22.5t-18.5 -24.5t-21.5 -21.5t-24.5 -13.5q-5 -2 -10 -2h-10q0 1 -2 1q-10 3 -16 9t-11 14q-2 6 -4 8q-11 38 -5.5 80
t15.5 74q11 35 27.5 63.5t43.5 44.5q15 7 28 3.5t21 -17.5q3 -6 5.5 -15.5t2.5 -18.5t-3 -16t-10 -7q-8 -1 -12 3.5t-6.5 11t-3.5 14t-4 13.5q-12 -3 -20.5 -13t-15.5 -21t-12 -23l-10 -25q-10 -26 -16.5 -56t-4.5 -63q1 -11 4.5 -24.5t14.5 -15.5q16 -2 27 10.5t19 20.5
q9 10 16.5 21l15.5 23q45 70 79.5 149l70.5 157q-51 -5 -109 -15.5t-115 -14.5q-14 -1 -26 -1t-12 14q-1 5 1.5 7t4.5 5q8 4 16.5 3t17.5 0q58 3 116.5 13.5t116.5 15.5q15 29 28 60t27 61q8 14 15 29.5l13.5 30.5t15 28.5t19.5 24.5q9 2 14.5 -1t8.5 -9.5t4 -15l2 -16.5
q3 -42 -1.5 -89.5t-6.5 -83.5zM259 491q20 3 41 5t41 6q2 48 8 94.5t6 94.5q-28 -47 -50.5 -98z" />
    <glyph glyph-name="c_l" horiz-adv-x="469" 
d="M366 643l-61 -131t-62 -131q-32 -65 -70.5 -122.5t-90.5 -102.5q-8 -7 -18.5 -13.5t-22.5 -10t-24 -2.5t-22 8q-21 14 -26 41.5t0.5 57.5t18.5 57t28 40q8 6 18.5 11t23.5 1q15 -5 22 -22q3 -7 4.5 -17t-8.5 -14q-6 1 -9 4.5t-5 8t-4.5 8t-6.5 3.5q-6 0 -11.5 -4.5
t-10.5 -11.5t-8.5 -14l-5.5 -11q-13 -31 -16 -59q-1 -19 3.5 -36.5t16.5 -20.5q11 -3 22 3.5l19 11.5q26 17 45 40l38 47q48 66 84.5 141l72.5 152l18 39t17 39q5 8 9.5 17.5l9.5 20.5q5 10 9.5 21.5t15.5 14.5q15 -1 17 -12.5t2 -22.5q0 -12 -1.5 -25t-2.5 -24l-13.5 -147
t-12.5 -150q-5 -75 -7 -154t-1 -159q1 -26 1.5 -52t3.5 -50q2 -11 3.5 -23t-12.5 -13q-12 0 -15.5 10t-5.5 21q-6 33 -6.5 72.5t-1.5 76.5q-1 157 10.5 302.5t28.5 285.5z" />
    <glyph glyph-name="o_l" horiz-adv-x="313" 
d="M252 680q6 -11 4.5 -22.5t-3.5 -22.5q-9 -82 -15.5 -167t-10.5 -174q-3 -89 -4.5 -177.5t-6.5 -177.5q0 -12 -1.5 -24.5t-12.5 -13.5q-9 0 -11 9t-3 21q2 72 1 144.5t1 142.5l7.5 161t11.5 153q-23 -51 -51 -100.5t-65 -90.5q12 -13 14 -32t-1.5 -39.5t-11 -38.5
t-14.5 -30l-14 -23t-16.5 -22t-21.5 -17t-30 -9q-13 3 -20.5 13.5t-10.5 24.5q-1 49 10.5 85t25.5 72q7 9 11.5 19t19.5 12q8 1 12.5 -2.5t7.5 -7.5q4 2 9 3t10 0q47 48 79.5 108t55.5 130q3 11 7.5 23t6.5 25l4 25t10 22q9 3 16 -2zM59 215q7 11 13 24t9.5 27.5t3.5 29
t-6 27.5h-2q-7 -5 -14 -11.5t-16 -10.5q0 -11 -6 -9.5t-11 4.5q-10 -29 -20 -61.5t-5 -70.5q17 5 30.5 19.5t23.5 31.5z" />
    <glyph glyph-name="o_t" horiz-adv-x="414" 
d="M330 467l49.5 4.5t52.5 6.5q6 1 16.5 3.5t12.5 -5.5q2 -10 -8 -11.5t-18 -3.5q-25 -5 -52.5 -9.5t-54.5 -6.5q-21 -143 -29.5 -298t-12.5 -313q-2 -2 -5 -4.5t-8 -1.5q-10 1 -12.5 9.5t-3.5 16.5q-4 29 -3.5 59.5t0.5 59.5q0 125 9.5 241.5t25.5 225.5q-13 -1 -27.5 -3
l-28.5 -4q-27 -34 -58 -63t-69 -52q5 -16 3.5 -31t-6 -28.5t-11 -26t-11.5 -23.5q-14 -16 -27.5 -34t-35.5 -26q-22 -7 -33 8.5t-13 35.5q-2 23 2 46.5t9 45.5t12.5 41t18.5 31q5 3 9.5 6t12.5 2q9 -1 14.5 -10t-0.5 -18q11 2 22.5 2t19.5 -6q34 19 61 43t50 53
q-54 -9 -107.5 -17t-104.5 -19q-6 3 -9 10q4 14 19.5 18t29.5 6q47 8 96 14t95 13q17 21 30.5 44.5t25.5 48.5q8 13 17.5 35l17.5 42q2 8 5.5 15.5t11.5 8.5q10 -1 14 -7t5 -14t-0.5 -18t-2.5 -20q-3 -29 -7.5 -61.5zM250 457q10 2 20 3l21 2q4 22 7.5 45t5.5 44
l-26.5 -47.5zM58 224q11 16 20.5 36.5t7.5 46.5q-1 0 0 1l-1 1q-11 -5 -27 -9t-29 2q1 -5 -2 -7t-5 -5q-7 -23 -13.5 -53t-0.5 -59q16 6 28 19t22 27z" />
    <glyph glyph-name="r_r" horiz-adv-x="641" 
d="M357 317q-12 -6 -22.5 -14.5t-21.5 -15t-23.5 -11t-29.5 -2.5t-33.5 10.5t-29.5 16.5l-16 10.5t-17 10t-19 6t-20 -1.5q-25 -15 -37 -41.5t-23 -57.5q-4 -14 -8 -29.5t-9 -32.5q-2 -6 -4 -14.5t-5.5 -15.5t-9 -12t-13.5 -4t-11.5 7t-5.5 15t-2.5 19.5t-0.5 19.5
q-2 40 0.5 78.5t7.5 73.5q1 8 2.5 17t4.5 16.5t8 12.5t13 6q6 0 10.5 -8.5t2.5 -14.5q-2 -5 -4.5 -5.5t-5.5 -2.5q-4 -37 -5 -76t-1 -80l14 41.5t16 39.5t20 35.5t27 28.5q24 13 44 7t39 -18t37.5 -25.5t38.5 -15.5q23 -2 37.5 6.5t28.5 19.5q7 5 15 11.5t15 6.5t11.5 -6
t7 -14.5t3.5 -18.5t2 -18l4 -35.5l4 -36.5l29.5 60t34.5 56q19 26 39.5 50t49.5 40q19 8 34 0t21 -22q3 -7 4.5 -16.5t-9.5 -11.5q-6 1 -8.5 5t-5 9t-5 9t-8.5 5q-7 1 -11 -1t-9 -4q-29 -21 -49.5 -49t-38.5 -60q-9 -15 -16.5 -32.5l-15.5 -34.5l-15.5 -34.5t-24.5 -24.5
q-11 2 -17 9t-9 16.5t-4 21.5l-2 23q-2 24 -1 49.5t1 48.5z" />
    <glyph glyph-name="o_m" horiz-adv-x="636" 
d="M241 218l34 65.5t39 66.5q8 11 17 22t25 10q16 -5 22 -19.5t7 -34.5t-0.5 -42t0.5 -41q7 4 14 13l14.5 18t16 16.5t19.5 9.5q10 3 17.5 -0.5t13.5 -9.5t10.5 -13t10.5 -12q17 -14 44.5 -18.5t48.5 9.5q6 4 13 12t14 6t7 -6.5t-3 -10t-7.5 -10l-5.5 -5.5q-10 -9 -25 -14.5
t-31.5 -6.5t-33 3t-28.5 13q-13 6 -21 17t-19 19q-12 -5 -20 -14t-15.5 -19t-16.5 -18.5t-21 -13.5q-11 -1 -16 5t-7.5 16t-2.5 21.5v21.5q0 23 0.5 44.5t-3.5 35.5q-13 -8 -22 -22.5t-17 -29.5q-22 -36 -39 -75t-34 -84l-8 -16.5t-13 -8.5q-5 0 -8 3l-6 6q-3 24 -0.5 48
t4.5 47l6 45.5t7 45.5l16 89t9 92q-15 -7 -26.5 -17.5l-23.5 -21.5l-22.5 -21.5l-22.5 -21.5l-45.5 -43.5l-45.5 -42.5q2 -12 5.5 -23t4.5 -25q1 -21 -3.5 -43t-13 -40.5t-20.5 -32.5t-26 -20q-26 -12 -42 3t-18 39q-2 27 5 48.5t16 41.5q10 20 22 36.5t26 27.5q5 2 9 4t9 3
q5 0 8.5 -1.5t6.5 -3.5q51 42 96 87l46.5 45.5t51.5 40.5q6 2 10.5 -0.5t7.5 -4.5q9 -16 7.5 -42.5t-4.5 -49.5q-5 -48 -12 -98.5t-12 -99.5zM17 190q7 10 13 22t10.5 26.5t5.5 30t-3 31.5q-2 4 -5.5 6.5t-7.5 4.5q-8 -7 -16.5 -21t-14.5 -29q-7 -17 -11.5 -35.5t-4.5 -39.5
q2 -4 2 -8.5t4 -6.5q11 2 16.5 8t11.5 11z" />
    <glyph glyph-name="o_n" horiz-adv-x="500" 
d="M261 241q8 14 16 29.5t17 30.5l7.5 14.5t9.5 16t12 12.5t15 5q15 -1 20.5 -16t8.5 -29q5 -31 11 -58q8 -29 21.5 -51.5t28.5 -42.5q5 2 9 2t6 -4q5 -8 -1 -13.5t-12 -6.5q-7 0 -13 3.5t-10.5 9t-8.5 11t-7 8.5q-25 29 -38 68t-19 84q-20 -24 -35.5 -58l-31.5 -67
q-3 -5 -6 -12.5t-8 -13.5t-11 -8t-15 3q-8 14 -4 32t6 34q5 35 11.5 66.5t11.5 66.5q3 17 5 35t-4 33q-21 -5 -36.5 -17.5l-30.5 -23.5q-17 -11 -32.5 -22.5t-30.5 -24.5q6 -25 1.5 -50t-14.5 -48t-24 -42.5t-27 -33.5q-6 -6 -15.5 -13t-20 -11.5t-22 -5t-21.5 7.5
q-10 11 -13 27.5t-1.5 34.5t6.5 37t10 35q4 12 10.5 24.5t15.5 21.5t21 11.5t27 -6.5q9 9 21.5 19.5t32.5 4.5q33 22 63.5 47t66.5 45q11 5 21.5 1t15.5 -15q7 -17 4 -43.5l-6 -52.5l-7.5 -50t-6.5 -41zM67 216q14 20 25.5 46.5t10.5 59.5v1q-8 -4 -14 -8.5t-14 -6.5
q-2 -10 -9 -11q-8 2 -14.5 7.5t-16.5 4.5q-9 -6 -14.5 -18t-9.5 -26q-4 -11 -7.5 -24t-5 -27t-0.5 -27t6 -23q20 6 35.5 20.5t27.5 31.5z" />
    <glyph glyph-name="o_o" horiz-adv-x="523" 
d="M132 307q45 1 86.5 10.5t80.5 20.5q4 1 11.5 4t15 5t14.5 2t10 -4t2.5 -11t-1.5 -12q29 -2 50.5 -23t22.5 -51q1 -18 -4.5 -31.5t-14.5 -24.5t-20.5 -19.5t-23.5 -14.5l-15.5 -4t-15.5 0q-19 3 -28.5 16.5t-12 32.5t2 39.5t12.5 35.5q-1 8 0.5 13t3.5 10q5 8 14 13t11 16
q-24 -5 -47 -12t-47 -13.5t-49.5 -11.5t-54.5 -6q-1 -32 -7 -60.5t-20 -52.5q-12 -21 -31.5 -38.5t-44.5 -23.5h-19q0 1 -1 1q-21 5 -30 22t-9.5 39.5t4 47t10.5 44.5q9 35 23 60q9 19 21 33.5t37 15.5q29 1 43.5 -20.5t20.5 -47.5zM76 314q13 -4 29 -6q-2 13 -8.5 24.5
t-18.5 16.5q1 -10 -0.5 -18.5t-1.5 -16.5zM59 326q0 5 -0.5 10t-1.5 10q-4 -1 -5.5 -4.5t-0.5 -7t3 -6.5t5 -2zM33 314v-2q-8 -17 -14.5 -38.5t-11.5 -44.5q-2 -11 -4 -24t-1 -25.5t5 -22.5t13 -15q21 2 36.5 14.5t25.5 28.5q13 20 20.5 45t5.5 56l-17.5 2t-16.5 3l-3.5 -7
t-6.5 -3q-8 1 -8 17q-6 2 -12 7.5t-11 8.5zM341 296q-9 -18 -15 -39.5t-6 -49.5q2 -8 5.5 -13.5t11.5 -7.5q21 3 40 20t19 41q0 20 -15 36t-37 13h-3z" />
    <glyph glyph-name="c_k" horiz-adv-x="468" 
d="M264 648q6 -9 6 -19.5t-1 -21.5q-4 -75 -14 -150t-15 -150q5 2 7.5 5.5t6.5 7.5l48.5 47t52.5 46q5 5 10 8.5t10 7.5q5 5 13.5 6t10.5 -7q1 -8 -4 -10t-10 -6l-76.5 -74.5t-72.5 -79.5q-2 -17 -2.5 -33.5t-2.5 -33.5q26 1 55 5t57 9q4 1 8.5 2t9 1t8 -1.5t4.5 -6.5
q-1 -11 -9.5 -14l-16.5 -6q-26 -8 -57 -12t-61 -7l-8 -103.5t-9 -105.5q0 -8 -0.5 -19.5t-3 -21.5t-7.5 -15.5t-14 -0.5q-5 2 -6 9.5t-1 16.5t1 18.5t1 16.5q2 51 3.5 104.5t5.5 99.5q-13 2 -23.5 7t-12.5 17q1 15 5.5 25.5t11.5 19.5t14.5 17t13.5 17q6 66 13 130.5
t15 127.5l-25 -74.5l-27 -80t-31 -79t-37 -71.5q-13 -20 -29.5 -41.5t-39.5 -30.5q-15 -5 -28.5 -1.5t-21.5 14.5q-8 10 -11.5 24t-4 29t1.5 30.5t5 29.5q8 27 19 50t28 39q10 8 25 10t23 -12q2 -4 2.5 -10t1.5 -11t1.5 -11.5t-4.5 -8.5q-11 1 -13 10t-8 14q-14 -8 -22 -24
t-14 -34q-7 -18 -12 -38t-4 -41q1 -13 4.5 -23.5t12.5 -15.5q21 1 34.5 15t24.5 29q28 36 49.5 82.5t37.5 93.5q20 55 38 114l35 119q2 8 4.5 16.5t7.5 14.5q3 2 7 1.5t6 -1.5zM186 192q4 -2 8 -2q0 5 1 10t0 8q-2 -4 -5 -7.5t-4 -8.5z" />
    <glyph glyph-name="g_h" horiz-adv-x="632" 
d="M368 173q19 32 38.5 69t49.5 61l8.5 3.5t9.5 1.5q13 0 21 -6t13 -17q7 -14 12.5 -31t9.5 -35.5t7.5 -36.5t7.5 -33q1 -3 3.5 -8t3 -9.5t-1 -8t-7.5 -4.5q-8 -1 -13.5 5.5t-7.5 11.5q-4 8 -6.5 17.5t-4.5 18.5q-6 27 -14 55.5t-22 48.5q-13 -6 -20.5 -18l-14.5 -23
q-14 -23 -25.5 -47.5l-23.5 -52.5l-6.5 -15.5t-8.5 -15.5t-12 -11.5t-17 -2.5q-12 2 -16.5 15.5t-5 31.5t1 37l2.5 32q5 98 13.5 194.5t12.5 195.5q-48 -106 -91 -215l-89 -218q-6 -91 -21 -172.5t-44 -150.5q-5 -9 -10 -19.5t-13 -21.5q-7 -9 -19 -19.5t-26 -4.5
q-8 3 -11 14t-2 25q2 23 9 46l14 44q21 63 46.5 125l48.5 119q5 51 5 109t-4 111q-6 -8 -11.5 -20.5l-10.5 -23.5q0 -5 1.5 -11t2 -12.5t-0.5 -11.5t-4 -8q-7 -2 -9.5 3t-5.5 8q-10 -17 -20 -36t-23 -36q-14 -20 -30 -39.5t-43 -24.5q-17 1 -25 14.5t-8 30.5q0 28 9 55.5
t22 51.5q6 12 13 24t16 22t20 17t25 8q26 1 45 -23q10 14 16.5 32.5t24.5 25.5h2q12 -1 15 -11.5t5 -21.5q4 -35 4 -75t1 -78l78 188.5l78 195.5q4 13 11.5 31t19.5 20q7 -1 11.5 -5.5t6.5 -11t2.5 -14.5t0.5 -15q3 -49 0.5 -98t-4.5 -95q-5 -63 -8.5 -126t-6.5 -125z
M68 340q-2 0 -2 -1q-16 -8 -27.5 -27t-19.5 -38t-14.5 -39.5t-5.5 -41.5q32 25 53.5 59.5t41.5 71.5q-5 5 -10 11t-16 5zM87 -60q-5 -17 -11.5 -34t-11.5 -34l-10 -35.5t-3 -38.5q8 3 12 9.5l8 13.5q29 50 43 115.5t25 131.5l-1 1q-27 -63 -51 -129z" />
    <glyph glyph-name="o_f" horiz-adv-x="437" 
d="M323 650q3 -27 -9.5 -45.5t-21.5 -37.5q-20 -67 -33.5 -138.5t-22.5 -148.5q18 5 39 9t42.5 7.5t41.5 9t37 13.5q5 2 10 5t10 -2q1 -7 -4.5 -10.5t-10.5 -5.5q-14 -8 -32.5 -12.5l-36.5 -8.5q-25 -6 -49.5 -10.5t-47.5 -11.5q-2 -5 -2 -10.5t-1 -11.5q15 -11 29 -23
t23 -29q15 -23 20.5 -58t3.5 -72t-10.5 -70.5t-21.5 -53.5q-5 -9 -15.5 -17t-26.5 -3q-8 3 -13.5 9.5t-9 15t-6 18l-4.5 17.5q-12 59 -10.5 129t5.5 133q0 5 -3 7t-3 7t3.5 8t5.5 8q7 61 17 117.5t24 110.5q-37 -42 -80 -81t-88 -76q3 -7 5 -16t0 -17q11 -12 19.5 -30
t10.5 -41q2 -26 -5 -49t-16 -40q-8 -10 -15 -20.5t-16 -18.5t-21.5 -13.5t-29.5 -5.5q-9 3 -18 8q-3 4 -6 7.5t-5 8.5q-11 28 -7 63.5t12 64.5q4 15 9.5 32t13 32t17.5 27.5t23 18.5q6 2 13 0q47 36 91.5 74.5t82.5 85.5q5 7 11.5 13.5t9.5 12.5q4 8 6 16.5l4 16.5
q8 23 17.5 45.5t25.5 38.5q12 7 19 -2zM54 320q2 -1 3 -2t3 -1q1 3 -2 5.5t-4 -2.5zM12 231q-5 -20 -9.5 -42t-2.5 -45q1 -6 3.5 -14t7.5 -10q7 -2 15.5 5l13.5 11q12 12 20 25q8 12 13.5 29t7 34.5t-2.5 34t-14 28.5q-5 5 -11 10t-14 10q-2 -2 -2 -3q-8 -15 -14 -34
t-11 -39zM230 212q-2 -32 -3 -67t1 -69t5 -65.5t14 -55.5q15 24 24 62t8.5 77t-12 72.5t-37.5 48.5v-3z" />
    <glyph glyph-name="e_l" horiz-adv-x="430" 
d="M289 463q-30 -77 -64.5 -152t-83.5 -135q-16 -20 -36.5 -37t-48.5 -22q-27 0 -42.5 14.5t-22.5 37.5t-6.5 50.5t4.5 53.5q-7 2 -14 3.5t-6 11.5q1 8 9 7t14 1q10 35 22.5 68t41.5 50q5 0 9.5 0.5t9.5 -0.5q11 -6 13.5 -16t0.5 -20.5t-7 -20.5t-9 -17q-20 -33 -49 -55
q-3 -17 -5 -38.5t-0.5 -41.5t8.5 -35.5t22 -21.5q28 3 45 19.5t33 34.5q37 44 64.5 98.5t50.5 108.5l29 76.5t27 81.5q6 21 10 43.5t7.5 45t8 45t12.5 42.5q2 2 4 4.5t5 4.5q12 3 16 -2t4.5 -14t-2 -19t-3.5 -16q-8 -32 -13.5 -68l-10.5 -71q-16 -117 -22.5 -249.5
t1.5 -265.5q2 -27 3 -52.5t6 -46.5l2.5 -7.5t1.5 -9t-1.5 -8t-6.5 -4.5q-8 -2 -13.5 2t-8.5 11t-5 15.5t-3 16.5q-8 53 -9.5 105.5t-3.5 106.5q-4 75 1.5 146.5zM36 329l16.5 24t11.5 29q0 1 -2 1q-8 -11 -15.5 -25.5t-10.5 -28.5z" />
    <glyph glyph-name="e_t" horiz-adv-x="445" 
d="M362 511q32 3 65 5t67 6q4 0 10 1.5t12 1.5t10.5 -1t5.5 -5q1 -5 -3 -8t-9.5 -4.5t-12 -2t-10.5 -1.5q-32 -6 -67.5 -8.5t-69.5 -6.5q-10 -99 -13 -208t-9 -215l-4 -71.5t2 -68.5q2 -8 2.5 -17t-10.5 -11q-10 -2 -15 3.5t-7 14.5t-2.5 19t-0.5 18q-2 60 0 117.5t5 114.5
q4 78 7 152.5t10 148.5q-5 0 -12.5 -1t-14.5 -1q-13 -26 -23.5 -52t-22.5 -52t-24.5 -50.5l-25.5 -48.5q-19 -32 -42.5 -67.5t-54.5 -60.5q-8 -6 -19 -12t-22.5 -8.5t-23 -0.5t-20.5 11q-20 21 -26.5 54t-3 68.5t14.5 68t26 51.5q8 8 20 14t27 1q10 -5 17 -17q5 -16 2.5 -32
t-10.5 -30t-19.5 -25t-23.5 -16q-5 -2 -10.5 -3l-10.5 -2q-2 -16 -2.5 -34t2 -34.5t9 -29t18.5 -17.5q29 3 46.5 21t32.5 37q45 56 78.5 124.5t63.5 139.5q-17 0 -36 -1.5t-40 -3t-42 -2t-41 2.5q-6 1 -14 3t-14 6t-7 9t6 12q6 2 11 0t11 -4q20 -5 42.5 -4l45.5 2
q23 0 45.5 1t42.5 3q16 35 29.5 74l27.5 78q4 12 7.5 25t12.5 23q11 2 19 -6q5 -11 3.5 -23t-3.5 -23q-5 -35 -8 -71t-7 -71zM307 506q5 0 10 0.5t10 1.5q1 18 3.5 35.5t3.5 34.5q-6 -19 -13.5 -36t-13.5 -36zM29 301q13 7 26 22t15 33v8t-4 7q-18 -9 -24.5 -29.5z" />
    <glyph glyph-name="ss_t" horiz-adv-x="469" 
d="M363 668q8 -10 6.5 -23t-3.5 -25q-4 -38 -6 -78.5l-4 -80.5q29 2 62 1.5t62 -3.5q8 -1 18 -2t11 -11q-2 -11 -12.5 -9.5t-19.5 2.5q-29 2 -61.5 1.5t-60.5 -2.5q-5 -72 -7 -148.5l-4 -153.5q-2 -56 -3.5 -113.5t-1.5 -114.5q0 -8 1 -18t0 -19.5t-4 -17t-11 -8.5h-2
q-9 2 -10.5 10.5t-2.5 16.5q-5 64 -5 131.5v131.5q0 77 4.5 153t7.5 148q-8 2 -16.5 0.5t-16.5 -0.5q-78 -168 -171 -321q-3 -13 -7.5 -23.5l-9.5 -21.5q-6 -10 -11 -20.5t-18 -13.5q-7 2 -9 6t-1 8.5t3.5 9t4.5 8.5q4 8 9 16t9 16q8 16 11.5 36t1.5 40q-2 26 -14 44t-29 29
q-8 7 -23 13t-27.5 13.5t-19 18.5t1.5 29q6 12 18 22.5t25 18.5q14 8 29 14.5t32 6.5q14 0 22 -5t9 -19q0 -5 -3 -8.5t-5 -6.5t-6 -5.5t-7.5 -2.5t-6 2.5t-1.5 9.5q-24 -5 -41.5 -17t-31.5 -27l38 -23t33.5 -28t23 -38t8.5 -53q39 62 75 130.5t69 139.5q-48 -2 -95.5 -5.5
t-98.5 -2.5q-8 0 -16 0.5t-14.5 2.5t-10 7t-0.5 13q1 0 1 2q5 4 10 2.5t11 -2.5q27 -3 55.5 -1t57.5 3q28 2 55.5 2.5t53.5 2.5q12 24 22 50t19 52q5 13 9.5 26.5t8.5 28.5q3 14 4.5 29t11.5 25q10 2 14 -1zM293 459q7 0 12.5 0.5t12.5 0.5q2 17 3.5 36t1.5 36
q-7 -19 -14.5 -37z" />
    <glyph glyph-name="s_l" horiz-adv-x="476" 
d="M358 619q-57 -108 -121 -206.5l-127 -199.5q7 -13 12 -25t7 -29q2 -32 -9.5 -57t-24.5 -43q-8 -8 -16 -17t-17 -17t-20.5 -13t-27.5 -5q-3 2 -7 4q-9 11 -6.5 27.5t7.5 27.5l10.5 24t11.5 23q11 24 24 45.5l26 43.5q-9 13 -20.5 23.5t-25.5 20.5l-16 11.5t-16.5 14.5
t-11 18t-0.5 24q2 8 8 16t12 15q14 14 36 28t40 19q18 6 36 -1q7 -5 12 -19t-1 -22q-5 0 -7.5 2.5t-4 6t-3 6.5t-4.5 5q-20 -1 -31 -9t-24 -16q-10 -10 -21 -19t-16 -23q9 -17 25.5 -27.5t30.5 -24.5l10 -10l10 -10l65.5 101.5l66.5 102t64 105.5t58 111q4 8 8 17t10 11
q0 2 2 2q5 1 8 0t6 -3q7 -9 7 -21.5t-1 -23.5q-5 -85 -12 -169t-11 -172q-5 -100 -5.5 -198t4.5 -198q-3 -4 -6 -7t-9 -3q-9 0 -14 8.5t-6.5 20.5t-2 25t-0.5 23q-5 74 -4.5 145t3.5 142q5 99 11.5 190.5t17.5 178.5zM52 110l-18 -37t-11 -42q16 8 32.5 23.5t28 35t15 43
t-5.5 48.5q0 1 -1 1q-11 -17 -20.5 -35z" />
    <glyph glyph-name="r_e" horiz-adv-x="594" 
d="M382 284q-8 -27 1.5 -50.5t22.5 -37.5q16 -17 44.5 -23t55.5 5q8 3 16.5 9t15.5 -3q-1 -11 -10.5 -16.5t-20.5 -9.5q-23 -9 -49 -7.5t-44 12.5q-26 17 -44 44t-16 72q-31 -2 -57 2.5t-51 12.5q-23 8 -46 17.5t-46 13.5q-13 2 -21 -1.5t-13.5 -10.5t-8.5 -16t-6 -19
q-9 -28 -15 -58t-11 -64q-1 -9 -2 -20t-3.5 -21t-7.5 -16.5t-14 -6.5q-15 4 -18.5 20t-5.5 33q-6 43 -9.5 86t-8.5 89q-1 8 -1 17.5t8 10.5q4 1 7 -3t4.5 -9.5t2.5 -12t2 -10.5q6 -32 10 -66t9 -67l8.5 45t10 44t13.5 40t20 34q10 8 23 12.5t32 0.5q24 -4 48 -13.5t48.5 -18
t51.5 -13.5t57 0l13 17.5t15.5 18t19 14.5t22.5 7q20 3 28 -14q2 -11 -1 -20t-8 -14q-12 -14 -31.5 -22.5t-39.5 -13.5zM402 320q11 4 21.5 9.5t15.5 15.5q-14 -2 -22 -9.5t-15 -15.5z" />
    <glyph glyph-name="s_s" horiz-adv-x="500" 
d="M178 374q-3 -4 -7 -7q-7 -1 -9.5 1.5t-7.5 3.5q-13 2 -24 -3l-20 -9q-11 -5 -19 -10l-16 -10q-15 -11 -31 -26t-21 -34q-2 -11 0.5 -23t6.5 -21q8 -21 21 -41.5l26 -41.5t24.5 -42.5t17.5 -43.5l77.5 96l76.5 97q2 29 16.5 50.5t36.5 33.5q6 4 14.5 5.5t10.5 -8.5
q1 -6 -2 -11t-7.5 -9.5t-9 -8.5t-5.5 -8q-4 -9 -14 -17t-12 -19q-2 -5 -0.5 -11.5t3.5 -11.5q9 -23 28.5 -42t29.5 -39q20 20 37.5 41.5t37.5 41.5q9 11 19 20t20 20q6 4 11 9t11 9q4 5 9.5 10.5t13.5 0.5q3 -8 -2.5 -13.5l-10.5 -10.5q-5 -6 -10.5 -10.5t-10.5 -9.5
l-19.5 -21l-20.5 -21q-18 -23 -37 -44.5t-37 -44.5q8 -20 4.5 -39.5t-13 -35.5t-24 -27.5t-29.5 -15.5q-12 -4 -21.5 -0.5t-12.5 14.5q0 21 9.5 32t17.5 24q9 12 19 23t18 24q-6 14 -15 25.5l-18 23t-17 23.5t-14 27l-76 -95.5l-74 -96.5q8 -32 5.5 -63t-13.5 -57t-28.5 -46
t-39.5 -30q-12 -5 -25.5 -2t-16.5 14q-1 29 10.5 50.5t23.5 41.5q11 20 24.5 38t25.5 38q-12 46 -37.5 86t-48.5 80q-11 18 -20 42t-1 53q6 23 22.5 40t34.5 29q39 28 89 35q17 1 30.5 -3t15.5 -19zM314 60q12 8 21.5 19.5t11.5 28.5q-8 -12 -16.5 -23.5t-16.5 -24.5zM95 4
q-11 -15 -20 -30.5t-19 -30.5q-7 -17 -17 -33.5t-9 -38.5q17 6 30.5 19t22.5 31t13 40t1 45q-1 0 -1 -1t-1 -1z" />
    <glyph glyph-name="s_h" 
d="M347 572l1 1q0 1 -0.5 0.5t-0.5 -1.5q-93 -206 -200 -400l25.5 -34t9.5 -46q-2 -19 -11 -33t-21 -28q-14 -16 -30.5 -28.5t-41.5 -14.5q-9 4 -13.5 11t-2.5 21q1 17 9 35l16 35t17 33t16 30q-16 16 -36.5 27.5t-39.5 24t-34.5 29t-22.5 42.5q2 37 21.5 56.5t45.5 34.5
q17 10 36 17.5t40 6.5q11 -1 20.5 -5.5t13.5 -12.5q3 -6 3 -19.5t-7 -13.5q-4 0 -5 2t-1.5 5.5l-1 7t-2.5 5.5q-9 8 -21 6t-22 -6q-10 -3 -19.5 -7.5t-17.5 -9.5q-17 -11 -32 -24.5t-20 -34.5q4 -23 22 -36l34 -24q35 -23 61 -43q61 107 116.5 219.5t104.5 230.5l6.5 15
t11.5 12q8 0 11 -4.5t4 -10.5t-0.5 -13l-2.5 -12q-2 -12 -5 -24.5t-5 -22.5q-17 -72 -28.5 -147t-13.5 -159l10.5 30t12.5 29q4 6 7 13.5t7 14.5t9.5 11.5t15.5 4.5q12 -4 16 -16t6 -24q10 -38 21 -74t27 -66q2 -3 7.5 -3.5t4.5 -6.5q3 -12 -8 -14q-6 -1 -10.5 3t-8.5 10
t-7 12l-5 10q-6 12 -10 23.5t-9 22.5q-10 25 -16.5 52l-12.5 51q-9 -11 -15.5 -24.5t-12.5 -28.5q-11 -31 -17.5 -65.5t-10.5 -73.5q-1 -9 -1 -19t-1.5 -19t-5.5 -16t-11 -10h-4q-15 4 -15.5 21t0.5 31q3 118 13 226.5t37 199.5v2zM126 40q9 11 16.5 22t11.5 25
q4 18 -3.5 32t-17.5 23q0 1 -1 1q0 -1 -0.5 -1t-0.5 -2q-8 -14 -15.5 -29t-13.5 -31l-14.5 -32.5t-5.5 -37.5q13 2 23.5 11t20.5 19z" />
    <glyph glyph-name="e_p" horiz-adv-x="523" 
d="M282 142q3 -60 3 -121v-123v-19t-1.5 -21.5t-5 -18t-11.5 -7.5q-10 0 -15 11t-7 26t-2.5 31t-1.5 25q-3 37 -5 77t-2 80t3 78t11 70q2 6 3.5 11.5t2.5 10.5q2 12 0 25t-4 24q-2 12 -4 22.5t-7 18.5q-16 -9 -26 -23.5t-22 -27.5l-53 -57.5t-63 -50.5q-8 -4 -18 -8.5
t-20.5 -7t-21 -1t-18.5 8.5q-6 3 -9 9t-7 11q-8 33 0.5 64.5t17.5 55.5q6 9 11 19.5t11.5 19.5t15.5 15t23 6h3q15 -9 16.5 -25t-3.5 -32.5t-15.5 -31.5t-19.5 -23q-7 -6 -15.5 -10t-20.5 -2q-2 -8 -2.5 -18t0 -19t4 -15.5t10.5 -9.5q13 -5 29 2t27 13q35 21 63 50.5
t52 57.5q12 13 21.5 27.5t29.5 19.5q10 -2 15 -8.5t8 -15.5t4.5 -20t3.5 -21q9 16 20 32t24.5 30.5t31 25t39.5 15.5q26 2 40 -8.5t22 -27.5q8 -28 -1.5 -51t-21.5 -41q-27 -39 -65.5 -70t-76.5 -57zM398 286q8 11 15 26t5 32q-3 23 -32 21q-32 -8 -55.5 -37t-37.5 -59
q-5 -11 -9.5 -23t-6.5 -23q-1 -14 1.5 -26t2.5 -26l29 22.5t32 27.5t30.5 31.5t25.5 33.5zM10 270q10 2 16.5 10.5t11.5 16.5q7 11 12 23t4 28q0 1 -1 1q-17 -14 -26 -35t-17 -44z" />
    <glyph glyph-name="o_p" horiz-adv-x="539" 
d="M298 181q-7 -26 -8 -54.5t0.5 -59l3 -62.5t-0.5 -63q-1 -15 -4 -28t-15 -14q-11 0 -16 12t-6.5 28.5t-1 34t0.5 28.5q1 16 1.5 31t2.5 29l4 29t3 28q2 16 0.5 32t-1.5 31l-4 59.5t-7 58.5l-2.5 12t-4 14t-6 12t-7.5 6q-9 2 -19.5 -5l-17.5 -12l-18 -11t-14 -11
q4 -28 -2 -53.5t-18 -45.5q-7 -11 -17.5 -21.5t-23.5 -18t-28 -8.5t-31 8q-26 14 -38 49t-13 77q0 11 2.5 24.5t17.5 13.5q8 -2 10.5 -9.5t4.5 -15.5q4 3 7 7t8 9q11 12 25.5 23t34.5 15h17q2 -1 5 -2t6 -1q20 -12 28 -33q19 10 34.5 23t43.5 15q0 -1 1 -0.5t2 -0.5
q15 -9 22.5 -24.5t11 -34.5t5.5 -40t5 -41l18 61t21.5 57t30 49t42.5 37l12 3q27 0 40 -15t16 -37t-1.5 -45.5t-13.5 -40.5q-14 -26 -32 -49.5t-41 -40.5q-14 -11 -34.5 -20.5t-40.5 1.5zM346 205q26 17 48 44.5t34 54.5q5 12 7.5 27t2 29t-6 26t-16.5 17q-8 0 -10 -1
q-7 -2 -11 -5t-9 -6q-35 -34 -53 -85t-29 -106q11 -9 22.5 -4.5t20.5 9.5zM92 333q-20 -10 -34 -24q-9 -9 -17.5 -21t-8.5 -29q17 -1 30 6l25 14q6 4 12 7t12 7q6 5 12 8.5t10 8.5q-2 15 -13.5 22.5t-27.5 0.5zM17 294q2 0 2 1t1 2h-3v-3zM76 189q29 11 44 37t16 63
q-10 -6 -21 -13.5t-23 -14.5q-15 -9 -30.5 -16.5t-35.5 -5.5q3 -9 6.5 -18.5t9 -16.5t13.5 -11t21 -4z" />
    <glyph glyph-name="e_e" horiz-adv-x="561" 
d="M251 253q-5 16 -4.5 32t5 30.5t11.5 27.5t15 23q14 18 30 32t38 19q33 3 36 -25q-5 -26 -18.5 -46t-28.5 -37l-26 -29.5t-27 -28.5q19 -29 61 -32q42 -2 74.5 12.5t58.5 28.5q21 11 41 23t39 26q6 5 12 11t14 3q6 -10 -1.5 -16.5l-13.5 -11.5q-19 -16 -41.5 -30
t-44.5 -25q-17 -12 -42.5 -23.5t-53.5 -17.5t-56 -3.5t-50 18.5l-9 9t-8 10q-19 -17 -40 -33.5t-46 -30.5q-23 -13 -51.5 -24.5t-61.5 -11.5q-41 1 -62 29.5t-18 74.5q-1 3 -5 4t-4 6q0 8 5.5 10t7.5 7q11 45 36 89q12 20 26.5 38t32.5 28q8 5 18.5 6t18.5 -5q4 -3 5.5 -7.5
t3.5 -9.5q-2 -31 -16 -49l-28 -37q-15 -17 -32.5 -32l-34.5 -30q-4 -15 -3.5 -34.5t6.5 -31.5q8 -14 20.5 -22t35.5 -6q26 2 51 12.5t47 23.5q23 13 42.5 27.5t34.5 28.5zM30 300q1 -3 2 -1t2 2q9 8 16.5 16.5t15.5 16.5l16 21.5t15 22.5q1 5 2 8.5t3 7.5q-2 2 -1 2
q0 1 -1 1q-26 -17 -41 -42.5t-29 -54.5zM352 397q-17 -4 -29.5 -15.5t-23.5 -25.5q-11 -17 -19.5 -36.5t-5.5 -44.5q13 11 25.5 25t23.5 28q11 16 23 30t14 37q-4 2 -8 2z" />
    <glyph glyph-name="n_n" horiz-adv-x="649" 
d="M13 227q-1 0 -1 -1t0.5 -0.5t0.5 1.5q19 39 39.5 76t49.5 67q7 4 11.5 8t15.5 2q14 -2 20 -17.5t8 -29.5q4 -17 6 -33.5t5 -31.5q3 -17 6.5 -33t9 -29.5t13.5 -24t19 -16.5q21 1 34 13l24 23l21.5 26l21.5 27q11 13 20.5 27t20.5 27q5 8 10 14t10 13q6 6 10 13.5t15 9.5
q8 -2 11.5 -8t4.5 -15t0 -18.5t-1 -18.5q-1 -19 -0.5 -38t-1.5 -36q8 14 16 31l16 34l7.5 15t10 18t12 15.5t13.5 7.5q18 2 23.5 -11.5t10.5 -27.5q8 -23 13.5 -40.5l12.5 -40.5l3 -9t3.5 -13t0.5 -12t-6 -6q-8 -1 -12.5 10t-6.5 18q-11 29 -19.5 54t-19.5 50
q-20 -24 -33 -56.5t-28 -62.5q-5 -9 -9.5 -21t-18.5 -12q-9 0 -13 8t-5 19t-0.5 23t1.5 22q1 24 2.5 45.5t3.5 39.5q-13 -15 -26.5 -33.5l-28 -38l-29.5 -38.5t-30 -35q-11 -11 -24 -21.5t-28 -13.5q-17 -2 -26.5 3.5t-17.5 11.5q-15 17 -23.5 41t-14.5 51q-5 26 -8 55
t-13 52q-11 -5 -17 -13.5l-12 -16.5q-19 -26 -34 -55t-29 -59q-12 -30 -23 -64.5t-19 -69.5q-2 -11 -6 -23t-16 -14q-12 -1 -16 7.5t-4 20.5t2.5 24.5t4.5 19.5q10 61 23 119l25 113q0 4 -3.5 4.5t-1.5 5.5q1 13 4 30.5t15 19.5q13 1 16.5 -10.5t2.5 -25.5q-1 -38 -10 -73.5
t-14 -66.5v-2z" />
    <glyph glyph-name="c_h" horiz-adv-x="641" 
d="M323 190q17 52 36.5 103t51.5 89q8 10 23.5 14.5t28.5 -5.5q19 -18 27.5 -45.5l16.5 -55.5l16 -57t19 -54q3 2 5 5.5t8 1.5q8 -2 8 -10t-2 -16q-4 -5 -7.5 -10t-11.5 -5q-6 0 -11.5 5.5t-10 13t-8 15t-5.5 12.5q-12 30 -21.5 59t-18.5 60q-5 16 -10.5 31t-14.5 25
q-11 -5 -17.5 -14t-12.5 -19q-29 -48 -48 -106t-33 -121l-4.5 -25t-4.5 -27l-2 -12.5t-4 -12t-7.5 -9t-13.5 -2.5q-8 4 -11 12.5t-3.5 18.5t1 20.5t1.5 19.5q7 143 15.5 284.5t22.5 276.5l-40 -115.5l-41 -115t-45 -110.5t-52 -103q-10 -13 -20.5 -29t-22.5 -31t-25.5 -28
t-29.5 -20q-10 -5 -24 -6t-25 6q-15 10 -21.5 27t-8 37t0.5 42t6 41q8 42 25 78.5t51 50.5q16 6 30.5 -3t21.5 -22.5t3.5 -26t-24.5 -13.5q-4 3 -2 7t3 8q-5 5 -8.5 9.5t-11.5 6.5q-11 -2 -18 -11t-12 -19q-5 -11 -8.5 -22t-7.5 -22q-7 -24 -12 -50.5t-3 -54.5
q1 -13 4.5 -23.5t13.5 -15.5q22 3 38 17t29 29q38 45 67.5 102t53.5 116q28 70 53 143l50 148q3 10 6.5 20t11.5 17q9 3 13.5 -3t6 -16t0.5 -21t-1 -19q-5 -113 -13 -233t-10 -232z" />
    <glyph glyph-name="d" unicode="d" horiz-adv-x="332" 
d="M206 523l-42.5 -108.5t-43.5 -108.5q0 -6 -1 -12.5t-3 -11.5t-6 -8.5t-7 -7.5q-4 -7 -6 -15t-6 -16q-15 -36 -31.5 -71.5t-37.5 -68.5l-10.5 -15t-12.5 -14.5t-15 -10.5t-18 -2q-14 2 -20 13t-8 26.5t-0.5 32t4.5 30.5q11 63 38 114t64 86q8 6 18 10.5t24 2.5
q8 -4 14.5 -8t10.5 -12q29 66 58.5 143l56.5 151q3 10 7.5 23.5t12.5 15.5q6 2 9.5 -1t6.5 -8q0 -25 -4.5 -50t-8.5 -51q-12 -74 -18.5 -154t-5.5 -164q1 -85 6 -166.5t11 -163.5q1 -12 1 -26.5v-29.5q0 -6 0.5 -13t-0.5 -13.5t-4.5 -11t-10.5 -4.5t-10 4.5t-4 11t-1.5 13
t-3.5 11.5q1 21 -1.5 44.5t-4.5 47.5q-5 68 -9 140t-5 144.5t2.5 143.5t14.5 138zM30 285q-10 -14 -17.5 -29t-13.5 -29q-14 -33 -23 -68.5t-4 -73.5q11 5 19 17.5l15 23.5q8 11 14.5 24l13.5 26q10 18 19.5 38.5t17.5 40.5q3 7 7 14t5 13q5 28 -5 49q0 1 -1 1
q-14 -5 -26.5 -19.5t-20.5 -27.5z" />
    <glyph glyph-name="A" unicode="A" horiz-adv-x="402" 
d="M305 319q20 2 43 1.5t46 0.5q6 0 13 1t9 -7q-2 -7 -9.5 -6.5t-14.5 -0.5q-20 -1 -43.5 -2t-43.5 -3q2 -134 9 -264.5t13 -263.5q0 -8 1 -18t0 -19.5t-4 -16.5t-10 -10h-4q-11 2 -11.5 11t-1.5 17q-11 135 -23.5 274t-10.5 286q-47 -3 -90.5 -8.5t-86.5 -12.5
q-15 -46 -29 -95t-22 -102q-2 -7 -2.5 -14.5t-7.5 -11.5q-8 1 -11 7t-3 14t1.5 16.5l2.5 14.5q6 45 17 86l22 79q-17 -2 -35 -5.5t-36 -6.5q-5 -1 -11 -2t-9 4q-2 8 4.5 10t11.5 4q18 5 39.5 8.5l40.5 6.5q27 81 58.5 157t69.5 147l14 28.5t15 26.5t18.5 21t24.5 12
q2 0 6 0.5t8 -0.5q17 -9 22 -29t7 -43q5 -70 3 -145t0 -147zM91 295q43 6 85.5 11t86.5 9q-2 81 -1 163.5t-5 159.5q0 1 -1 1q-54 -74 -93 -161.5t-72 -182.5z" />
    <glyph glyph-name="B" unicode="B" horiz-adv-x="565" 
d="M80 463v0q-2 -1 -2.5 -4t-1 -5.5t-1.5 -4.5t-5 -1q-5 2 -3.5 10t3.5 13q2 8 4 13.5l4 10.5q5 14 7.5 26.5t14.5 14.5q10 -2 14 -10t4 -19t-2.5 -23t-3.5 -21l-6.5 -41.5t-5.5 -40.5q20 51 45.5 101t58.5 97q23 32 51 61.5t63 51.5q8 5 18.5 10t21.5 8t21.5 1.5t18.5 -8.5
l5.5 -9.5t4.5 -10.5q-1 -20 -6.5 -35t-13 -27.5t-17 -23.5l-18.5 -22q-27 -34 -58 -64l-63 -58.5l-65 -56.5l-65 -57q-2 -7 -4.5 -13.5t-4.5 -12.5q48 -5 95 -7t92 -9q44 -6 82.5 -18t70.5 -31q32 -18 56 -46t27 -73q4 -46 -14 -81t-38 -66q-44 -57 -99.5 -102.5
t-120.5 -81.5q-30 -17 -64.5 -33.5t-77.5 -27.5q-21 -5 -44 -8t-46 1q-29 4 -58 16t-38 35q-6 13 -3 24t10 19.5t17.5 14.5t19.5 10q11 4 24.5 8t19.5 -7q1 -8 -5 -9.5t-11 -3.5l-11.5 -4l-10.5 -4l-18.5 -12t-11.5 -18q0 -8 5.5 -13.5t13.5 -10t17.5 -7l17.5 -4.5
q30 -7 59 -4.5t55.5 10.5t50 19.5l43.5 21.5q122 62 206 150q30 32 52 68q11 19 19.5 40.5t8.5 49.5q0 32 -15 53.5t-35 36.5q-31 22 -71 35t-85.5 20t-94.5 10l-98 6q-13 -94 -22.5 -194.5t-4.5 -207.5q1 -5 5 -8t4 -9q0 -4 -3 -8t-8 -5q-12 -2 -17.5 7.5t-6.5 20.5
q-2 -5 -1.5 -12.5t-6.5 -8.5q-5 1 -4.5 5t0.5 6q-6 52 -4 109t8 105q4 26 9 51.5t9 51.5q4 28 6 55.5t6 54.5q-1 5 -4 9.5t-3 10.5q0 10 5.5 18l9.5 14q4 30 9 59t9 59zM334 598q8 9 15 18t13 20q5 10 12 22t4 26q-5 4 -12 3q-12 0 -23.5 -5.5t-22.5 -13t-20.5 -15.5
l-16.5 -14q-51 -47 -88.5 -106t-66.5 -128l106.5 92t99.5 101z" />
    <glyph glyph-name="C" unicode="C" horiz-adv-x="503" 
d="M399 465q6 14 10.5 33.5t6.5 39.5q3 20 1.5 41t-18.5 29q-29 1 -46.5 -11.5t-34.5 -23.5q-49 -44 -88.5 -100.5t-69.5 -121.5q-31 -65 -55.5 -136.5t-34.5 -153.5q-6 -50 -1 -90.5t23 -69.5t50.5 -44.5t80.5 -13.5q42 2 82 11.5t75 21.5q71 24 134 56l37.5 20.5
t35.5 23.5q17 12 31.5 26.5t22.5 35.5q3 9 0 19t4 15q8 0 11.5 -6t4.5 -14t-1 -16.5t-4 -14.5q-8 -20 -24.5 -36t-35.5 -30t-39 -25.5l-38 -22.5q-52 -27 -109 -48.5t-122 -36.5q-34 -8 -70.5 -10t-67.5 7q-60 16 -90 68q-15 27 -21 60.5t-5 69t7.5 71t14.5 65.5
q17 63 38 119.5t47 108.5q22 42 45.5 81t52.5 74l28 31t33 33t39 27.5t45 14.5q22 3 37.5 -6.5t23.5 -25.5q7 -18 8.5 -39t-1.5 -42t-8 -41t-11 -35q-6 -10 -11 -20.5t-21 -10.5q-4 -1 -8 3t-7.5 9.5t-5.5 11.5t0 10q2 5 7.5 6t11.5 3z" />
    <glyph glyph-name="D" unicode="D" horiz-adv-x="595" 
d="M58 -207q1 0 2 -1q26 -3 44.5 8t35.5 25q35 26 67 61t59 70q39 48 73.5 99.5t66.5 108.5q31 57 58 117.5t49 128.5q11 33 20.5 69t15.5 76q3 20 4.5 43t-0.5 43.5t-9 36.5t-22 22q-5 2 -11.5 3t-15.5 2q-20 0 -39.5 -7t-37.5 -15q-50 -21 -96.5 -52.5t-84.5 -64.5
l-22 -117t-19 -124t-12 -126.5t-1 -125.5q0 -17 1 -33.5t6 -30.5q2 -6 7.5 -11t4.5 -13q-1 -7 -5.5 -9t-10 -1t-11 4.5t-8.5 7.5q-7 8 -10 24.5t-5 32.5q-5 49 -2 105t7 110q6 78 18 145.5t26 128.5q-1 2 -3.5 -0.5l-4.5 -4.5l-4 -4t-4 -5q-13 -12 -26.5 -27l-27.5 -32
l-25.5 -35t-17.5 -39q-2 -10 -0.5 -17.5t-4.5 -9.5q-10 -2 -11 10t1 22t6 19t7 15q23 46 57.5 81.5l66.5 69.5q2 11 3 22.5t11 13.5q13 0 16 -12q56 47 117 83q16 8 31.5 17t33 16.5t36 12t40.5 4.5q32 0 50.5 -14.5t27 -38.5t9.5 -55t-3 -63t-11 -62t-13 -53
q-23 -81 -54 -153t-64 -135q-35 -67 -76 -126t-86 -113q-22 -26 -46.5 -51.5t-51.5 -47.5q-12 -11 -26 -22t-30 -19t-35 -13.5t-41 2.5q-10 5 -16.5 13l-12.5 16q-8 17 -12 39.5t1 48.5q2 7 5 14t12 5q4 -1 5 -6.5t0.5 -13.5t-1.5 -16t0 -14q2 -22 8.5 -37t20.5 -25z" />
    <glyph glyph-name="E" unicode="E" horiz-adv-x="405" 
d="M220 305q-26 -3 -54 -4t-53 3.5t-43.5 15.5t-25.5 32q-5 17 -4 33t5.5 31t11.5 28.5t14 24.5q32 52 75 98t85 82q20 14 44.5 33.5t54.5 21.5q27 2 40.5 -15.5t17.5 -42.5q2 -29 -3.5 -51t-13.5 -42l-5 -12.5t-11 -4.5q-8 2 -5 10t5 14q6 19 10 45.5t-2 46.5
q-3 8 -7.5 14.5t-12.5 9.5h-2q-33 -4 -52.5 -21t-40.5 -32l-37.5 -35t-35.5 -38q-23 -26 -48.5 -58t-42.5 -70q-5 -13 -9 -31.5t4 -32.5q10 -13 30.5 -18t45 -5t50 2.5t46.5 5.5q7 1 15.5 2.5t16 1.5t13 -3t6.5 -11q2 -12 -6.5 -18t-16.5 -11q-25 -15 -46.5 -32t-41.5 -36
q-29 -23 -53 -50.5t-46 -57.5q-20 -29 -38.5 -63.5t-31.5 -73.5q-6 -18 -10.5 -41.5t-3.5 -46.5t9 -42t26 -28q21 -9 42.5 -8.5t42 6.5t38.5 15l33 17q35 17 67 36.5t64 36.5l92.5 58.5t97.5 57.5q8 4 16 7t20 8q2 1 8 3t12 3t11 1t7 -4q1 -4 -3 -7t-9.5 -5t-11 -3.5
t-8.5 -2.5q-29 -11 -52.5 -26l-47.5 -29l-126 -80.5t-130 -76.5l-43 -21.5t-48 -17.5q-32 -8 -57.5 -3.5t-44 19.5t-28.5 38t-11 53q-1 29 5.5 56t15.5 52q34 93 94 163.5t131 125.5z" />
    <glyph glyph-name="F" unicode="F" horiz-adv-x="360" 
d="M111 612q50 11 100.5 24.5t103 24.5t109 17t119.5 2q7 -1 16 -2t11 -9q-2 -9 -11.5 -8t-15.5 1q-63 3 -120 -3.5t-110.5 -18t-104 -26t-101.5 -26.5l-19.5 -136t-17.5 -138q11 3 19.5 6.5t19.5 7.5q119 41 260 56q3 0 9.5 1t13.5 1t12 -2.5t4 -9.5q-1 -9 -16 -11.5
t-24 -3.5q-82 -12 -159 -29.5t-143 -49.5q-12 -122 -22.5 -241.5t-5.5 -226.5q8 -4 13 -8.5t5 -12.5q-4 -17 -18 -15.5t-21 13.5q-5 11 -6 24.5l-2 27.5q-3 48 -1.5 101t5.5 107.5t8.5 108.5t7.5 104q-3 0 -8 -3t-9 -5q-3 -16 -17 -19q-11 0 -17.5 8t-3.5 17q2 8 9.5 13
t17 9l18.5 7.5t13 8.5q7 71 15.5 140t19.5 138q-13 -2 -20.5 -9t-20.5 -9q-8 3 -8.5 8.5t2.5 10.5t8.5 9t10.5 5q8 3 16 5.5t16 5.5q5 39 14 78t11 74q3 9 12 12q5 2 13 -2q13 -8 12 -24q-5 -32 -11 -63t-11 -65z" />
    <glyph glyph-name="G" unicode="G" horiz-adv-x="476" 
d="M317 554q5 -2 12.5 -2.5t6.5 -9.5q-1 -6 -6 -7t-11 0l-9 -3.5t-9 0.5q-14 3 -17 16.5t-5 27.5t-3.5 30t-2.5 30q-1 16 -2.5 31t-4.5 28.5t-8.5 24.5t-15.5 17q-25 -2 -41.5 -17.5t-30.5 -32.5q-42 -49 -69.5 -113t-45.5 -136q-9 -33 -16.5 -72.5t-12 -82t-5 -86
t6.5 -85.5q2 -13 5 -24.5t8 -23.5q5 -14 14.5 -24.5t27.5 -5.5q20 5 35.5 22l28.5 32q14 17 26 34l23 34l48 70l47 70q-40 -5 -81 -9t-83 -9l-12 -2.5t-14.5 -1.5t-13.5 2t-8 8q2 7 10 8t14 2q48 4 100 9.5l102 10.5q6 5 12 12.5t17 7.5q8 -1 12 -5t8 -11q26 3 58.5 4
t62.5 -1q8 -1 18.5 -1t13.5 -8q-3 -8 -13.5 -7t-18.5 1q-30 0 -61 -1t-57 -3q-6 -131 -5 -266t7 -263q4 3 6.5 8t10.5 1q8 -3 4.5 -12l-5.5 -14q-5 -9 -11 -17t-18 -1q-9 5 -12.5 24.5t-4.5 33.5q-7 57 -10 121t-3 129t2.5 128.5t5.5 120.5q-4 -2 -6.5 -5.5l-5.5 -7.5
q-19 -25 -37.5 -52l-35.5 -53q-22 -30 -42 -61t-44 -58q-11 -13 -25 -26t-32 -21q-21 -8 -41.5 -2.5t-31.5 21.5q-16 23 -24.5 53.5t-11.5 65t-1.5 71t5.5 70.5q7 69 22 132t36 117q21 55 47.5 105t67.5 88q9 8 21 16.5t26.5 14t29.5 5.5t29 -10q18 -12 26 -36t11 -52.5
t4 -59t6 -56.5z" />
    <glyph glyph-name="H" unicode="H" horiz-adv-x="505" 
d="M335 315q17 0 37 1.5t41 2t41.5 -0.5t38.5 -4q10 -2 21 -7.5t5 -18.5q-2 -4 -9.5 -3.5t-11.5 1.5q-39 5 -82 3t-81 -6q-5 -72 -3 -146t-1 -149q-1 -10 -1 -23.5t-1.5 -25.5t-6 -20t-14.5 -8q-14 -1 -17 14.5t-4 30.5q-1 17 -1 33v33q-23 64 -74.5 98.5t-119.5 52.5
q-4 -48 -5 -98.5t1 -100.5q2 -4 5.5 -5t4.5 -6q1 -9 2 -20t0.5 -22t-3.5 -20t-10 -12q-2 0 -5 -0.5t-5 1.5q-8 3 -9 11t-3 16q-9 59 -8 129.5t-1 134.5q-28 7 -61.5 11t-66.5 7q-10 2 -20.5 2.5t-15.5 9.5q0 14 11.5 17.5t20.5 6.5q31 10 66.5 17.5t69.5 13.5
q11 111 25.5 217.5t38.5 206.5q1 5 3 11.5t10 6.5q8 -1 11 -6t4 -12t0 -14t-2 -13q-5 -42 -12 -82.5t-13 -81.5q-8 -56 -14.5 -112.5t-11.5 -112.5q47 7 94.5 16t95.5 17q2 98 8.5 193t14.5 187q1 7 1.5 14t0.5 14q0 5 1 11.5t6 9.5q17 4 20 -12t3 -35q0 -93 -5 -189.5
t-4 -184.5zM96 244q-2 -13 -2.5 -26.5t-1.5 -27.5q32 -9 60 -20.5t53 -26.5q18 -12 34.5 -25.5t29.5 -30.5l9 -12q2 -4 4 -6q1 -1 2 -3.5t2 0.5q-1 53 1 106t0 103l-95.5 -15.5zM-55 216q30 -3 57.5 -7.5t54.5 -9.5q1 9 1.5 20t0.5 19q-29 -5 -58.5 -9.5t-55.5 -12.5z" />
    <glyph glyph-name="I" unicode="I" horiz-adv-x="341" 
d="M251 626q-6 -157 -13.5 -315t-26.5 -307q-2 -11 -2.5 -20t-2.5 -22l-5 -19.5t-11 -11.5q-11 0 -11 12v21q4 73 11.5 144t2.5 148q-6 85 -31.5 146t-76.5 99q-14 12 -30.5 20.5t-24.5 25.5q-3 16 4.5 27.5t18.5 18.5q15 10 36 16.5t41 13.5q43 15 83 26q-2 10 3 17t12 9
t13.5 -1.5t8.5 -13.5l113 26t121 17q31 1 53 -9q5 -2 10 -8t8 -14t1.5 -15t-10.5 -10q-10 0 -12 8t-8 11q-36 8 -73.5 3t-70.5 -12q-34 -7 -66.5 -15zM211 615q-31 -10 -65.5 -18t-66.5 -18q-10 -3 -19.5 -8.5t-12.5 -16.5q3 -11 11.5 -16t16.5 -12l16 -11.5t15 -12.5
q46 -40 69 -101t30 -139q3 87 4.5 177t4.5 176q-1 2 -1.5 1t-1.5 -1zM682 -118q-8 0 -9 6t-6 9q-7 4 -21 5t-25 1q-39 2 -79.5 0.5t-75.5 -3.5q-103 -5 -195 -14.5t-185 -23.5l-68 -10.5t-72 -8.5q-10 -1 -22 -1t-16 13q3 9 12.5 10.5t17.5 3.5q101 19 205 32.5t219 20.5
q42 3 83.5 3.5t84.5 2.5q21 1 52 0t53 -3l23 -4t20 -7q4 -2 7.5 -5.5t5 -8t0 -9.5t-8.5 -9z" />
    <glyph glyph-name="J" unicode="J" horiz-adv-x="365" 
d="M324 620l159 35t170 29q5 0 12 0.5t14 0.5q5 0 12 -0.5t7 -8.5q1 -8 -6.5 -8.5t-12.5 -0.5q-46 -2 -87.5 -12l-81.5 -19l-95 -21t-92 -23q-2 -112 -11.5 -219.5t-29.5 -204.5q-14 -72 -33.5 -140t-55.5 -120q-12 -17 -27 -31.5t-38 -19.5q-5 -2 -10.5 -1t-10.5 0
q-20 6 -35 18.5t-25.5 30t-17.5 38t-12 42.5q-5 20 -9.5 44.5t-7.5 48.5q-2 11 -3 24.5t1 25.5q1 10 6 20.5t18 6.5q5 -8 0.5 -13.5t-5.5 -13.5q-2 -17 1 -34l6 -34q8 -46 22.5 -90t41.5 -70q7 -5 14.5 -9t19.5 -1q18 8 29.5 23.5t21.5 32.5q29 51 45 115t28 132
q17 91 25.5 190t12.5 199q-94 -22 -184.5 -52l-178.5 -61q-6 -2 -12.5 -4.5t-13.5 -4.5q-5 -2 -12.5 -3.5t-12.5 6.5q0 8 7 10.5t13 5.5q91 42 191.5 72.5l204.5 59.5q2 35 2.5 70.5t9.5 63.5q3 2 5 5t6 5q8 1 17 -1.5t11 -9.5q2 -8 -3.5 -9.5t-7.5 -6.5q0 -27 -0.5 -54
t-1.5 -54z" />
    <glyph glyph-name="K" unicode="K" horiz-adv-x="342" 
d="M94 305q20 17 40.5 36.5t43.5 37.5q45 36 92 67.5t101 59.5l25.5 13t28.5 13q6 3 14 6t16 4t15.5 -1.5t12.5 -9.5q2 -8 -1 -14l-6 -12q-2 -5 -3.5 -12t-9.5 -8q-7 8 -1 18t6 19q-17 0 -31 -7l-28 -14q-93 -49 -172.5 -110.5t-145.5 -137.5q-3 -41 -5.5 -82t-5.5 -83
q53 -4 106.5 -4t104.5 -3q104 -8 183 -36q11 -5 25 -9t28 -11q12 -6 24 -13.5t17 -18.5t-1.5 -22t-20.5 -6q-4 3 -3.5 8t2.5 9q-40 27 -94.5 40t-116.5 18t-128 6t-128 4q-4 -29 -6.5 -58.5t-7.5 -58.5q2 2 5.5 6.5t9.5 1.5q4 -8 0 -15t-8 -15l-7.5 -15t-12.5 -7
q-6 1 -8.5 11.5t-2.5 23t1 25t1 18.5q0 23 0.5 45.5t0.5 41.5q-26 8 -46.5 22.5t-20.5 44.5q1 23 10.5 42.5t20.5 36.5t23.5 32l23.5 29q6 121 16.5 235.5l21.5 229.5q3 10 15 11t16 -9q4 -27 2 -53.5t-5 -53.5q-8 -78 -14.5 -156.5t-11.5 -159.5zM12 114q8 -16 33 -21
q2 27 3 55.5l2 54.5l-25.5 -38.5t-12.5 -50.5z" />
    <glyph glyph-name="L" unicode="L" horiz-adv-x="226" 
d="M49 -94q-15 6 -24 18.5t-13.5 30t-5 38t-0.5 41.5q1 25 3.5 50.5t6.5 48.5q20 130 47.5 250t62.5 235l7.5 21.5t3.5 22.5q-1 4 -2.5 4t-4.5 2q-2 2 -4 9q1 9 7 13t14 4t15 -4t9 -10q8 -24 0 -47.5t-13 -44.5q-34 -117 -61.5 -235.5t-44.5 -251.5q-3 -20 -5 -43t-3 -48
v-24.5t2 -24t6 -20t12 -11.5q16 -5 40.5 -2.5t41.5 5.5q55 8 101 20t99 22q3 1 8 1t7 -5q1 -4 -2.5 -6.5t-8 -4.5t-9.5 -3.5t-8 -2.5q-27 -8 -54 -14.5t-53 -13.5q-18 -5 -36 -8.5l-37 -7.5q-25 -4 -53 -7.5t-51 3.5z" />
    <glyph glyph-name="M" unicode="M" horiz-adv-x="710" 
d="M529 -149q2 5 9 5t11 -2q6 186 20.5 368.5t20.5 370.5q1 26 0.5 53t-8.5 50q-14 -9 -22.5 -23.5l-17.5 -28.5l-16.5 -29l-16.5 -30q-35 -63 -66 -138.5l-62 -147.5l-22 -47.5t-27 -41.5q-7 -7 -14.5 -11t-18.5 -6h-2q-13 3 -22.5 11.5t-16 19.5t-12 23.5t-9.5 24.5
q-21 50 -37.5 101.5l-32.5 105.5q-8 28 -14.5 55t-17.5 51q-12 -29 -18.5 -63.5t-11.5 -71.5q-12 -91 -19 -185l-15 -192q-1 -18 -5 -37q-2 -8 -4.5 -15.5t-12.5 -8.5q-12 2 -11 12.5t1 19.5q4 122 13.5 235.5t26.5 223.5q3 19 6.5 37.5t8.5 37.5q2 7 5.5 16.5t8.5 17.5
t11.5 13t15.5 4q16 -1 26 -15q14 -18 21 -44.5t15 -52.5l15 -54l13 -50q13 -37 24.5 -76t25.5 -75l10 -22.5t16 -18.5q16 8 24.5 23.5l16.5 31.5q40 81 75 165t77 162q18 30 34.5 61t41.5 54q16 7 26.5 0t16.5 -21t8.5 -32.5t3.5 -35.5q1 -61 0 -118q-7 -161 -16 -315
t-17 -313q-1 -14 -1 -28t-3 -25t-10 -19t-20 -10q-9 1 -13.5 7.5t-7.5 13.5q-2 7 -7 14t-1 15z" />
    <glyph glyph-name="N" unicode="N" horiz-adv-x="527" 
d="M167 578q-10 -12 -14.5 -27l-9.5 -31q-23 -79 -36.5 -168.5t-21.5 -186.5q-3 -38 -4.5 -79.5t3.5 -79.5q2 -7 4.5 -12.5t0.5 -13.5q-3 -15 -21 -15q-16 3 -19 18.5t-5 31.5q-4 53 0.5 107t10.5 101q8 66 19 129t26 121q8 28 15 57t21 55q5 9 12 17.5t21 6.5q11 -2 18 -11
t12 -21.5t8.5 -26l6.5 -24.5l12.5 -51.5t11.5 -51.5l43 -211.5t50 -203.5q14 -51 29.5 -99t38.5 -88q4 187 13.5 371.5t23.5 365.5q4 42 7.5 87.5t12.5 86.5q3 14 8 26.5t14 16.5l2 2q12 0 16.5 -8t4 -19.5t-3.5 -23t-6 -17.5q-20 -168 -35.5 -339.5t-26.5 -349.5
q-2 -42 -3 -89t-5 -91q-1 -14 -3 -27t-16 -16q-13 2 -20 12t-12 20q-17 30 -28.5 67l-22.5 72q-30 99 -53.5 201l-46.5 208l-21.5 104t-30.5 97z" />
    <glyph glyph-name="O" unicode="O" 
d="M245 630q59 11 110 -3.5t81 -43.5q32 -30 48.5 -76.5t15.5 -104.5q0 -51 -9.5 -97.5t-23.5 -88.5q-14 -43 -30.5 -81.5t-36.5 -72.5q-31 -51 -66.5 -99t-86.5 -80q-17 -11 -38 -19t-48 -6q-24 3 -43.5 17.5t-32.5 31.5q-14 20 -21.5 42.5t-12.5 47.5q-6 27 -7 56
t0.5 58.5t5.5 57t10 50.5q25 102 56.5 193.5t75.5 172.5q-23 -8 -43.5 -16t-33.5 -25q-1 -5 1 -11t3 -11.5t0.5 -10t-5.5 -7.5q-8 -1 -10 6t-4 13q-2 10 -5 18.5t1 18.5q6 13 21.5 22.5l29.5 17.5q17 8 34.5 13.5t31.5 10.5q25 37 53.5 70t67.5 56q3 3 8 1.5t6 -5.5
q1 -5 -3 -9t-9 -7.5t-10 -6.5t-6 -5q-21 -19 -40 -40.5t-35 -47.5zM443 271q7 26 12 57t6 62t-3 61t-14 54q-20 47 -62 73.5t-112 22.5q-13 -1 -24 -3l-23 -4q-41 -72 -72 -155.5t-54 -174.5q-11 -43 -20 -94t-6 -105q3 -52 17 -95t48 -68q15 -9 30.5 -9t30.5 5.5t27.5 13.5
t21.5 16q69 63 118.5 149.5t78.5 193.5z" />
    <glyph glyph-name="P" unicode="P" horiz-adv-x="372" 
d="M59 740q8 -9 8 -22t1 -27q2 -41 2 -84v-85q0 -57 1.5 -113t3.5 -110q36 110 87.5 203.5t126.5 165.5l26 23t28 20q9 7 22.5 13t28 8t28 -1t22.5 -13q8 -9 12 -21.5t5 -27t-1 -29t-5 -27.5q-19 -67 -57 -119.5t-75 -98.5q-55 -63 -117 -116.5l-127 -104.5q2 -78 3 -161
t-4 -161q-1 -11 -3 -24l-4 -25q-2 -11 -6 -21t-16 -11h-2q-11 2 -15 12t-6 20q-8 32 -9.5 71t0.5 77q3 105 20 191q-15 -7 -36 -21.5t-41 -21.5q-14 -5 -24.5 1t-8.5 23q5 15 20 16q10 0 15 -10q23 12 43 26l40 29q3 27 2 55.5t-3 57.5q-3 72 -4 144t-1 147q0 14 1.5 29
t-0.5 29q0 4 -2 7t-3 8q-1 9 1 20t3 22v21.5t7 16.5q3 1 6.5 0.5t6.5 -1.5zM291 406l46 56.5t42 60.5q8 15 18 31.5t19 35.5t14.5 39.5t5.5 43.5q0 24 -15 33q-13 3 -24 2q-17 -2 -36 -13t-33 -22q-42 -34 -75.5 -75.5t-60.5 -87.5q-34 -56 -59.5 -114.5t-45.5 -127.5
q-4 -14 -7.5 -28t-1.5 -30q58 43 111.5 92.5t101.5 103.5zM46 -156q5 57 5.5 117.5t-0.5 120.5h-2q-6 -54 -8.5 -117.5t5.5 -120.5z" />
    <glyph glyph-name="Q" unicode="Q" horiz-adv-x="409" 
d="M238 678q12 4 27 7t30.5 4t29.5 -2t24 -10q19 -11 30.5 -30t17 -43.5t6 -52t-2.5 -54.5q-5 -52 -17.5 -100t-26.5 -91q-28 -90 -62.5 -173.5t-75.5 -158.5q8 -44 19 -88.5t23 -87.5q4 -14 7.5 -28.5t9.5 -25.5q3 -5 7.5 -8.5t3.5 -10.5q-4 -8 -9 -9q-7 -2 -12.5 3t-9 12
t-6.5 15t-4 13q-15 43 -27 89.5l-23 89.5q-5 -3 -8 -8.5t-8 -11.5q-12 -14 -27 -27.5t-37 -18.5q-16 -2 -25 3t-17 11q-23 27 -31.5 66.5t-12.5 84.5q-6 70 -4 140t10 137t19.5 129.5t25.5 118.5q-11 -12 -21 -30.5t-10 -43.5q0 -8 2 -17t-5 -11q-5 -2 -7.5 2.5t-4 12
t-1.5 15.5t1 13q2 32 20.5 56t37.5 42q13 42 30.5 79.5t43.5 66.5q5 5 10.5 9t12.5 6q17 5 29 -2t18.5 -20.5t6.5 -30.5t-7 -31zM203 733q-2 0 -5.5 -2.5t-5.5 -4.5q-9 -8 -16.5 -19.5t-14 -24t-12 -25.5l-9.5 -23q36 22 74 36q1 6 2.5 17t0.5 21t-4 17.5t-10 7.5zM326 294
q12 35 23.5 72.5t19.5 79.5q8 39 10.5 86.5t-11.5 87.5q-9 23 -28 36.5t-52 11.5q-17 -2 -31.5 -6l-28.5 -8q-3 -2 -4 -7.5t-2.5 -11.5t-3.5 -10.5t-6 -4.5q-9 1 -6 11t2 16q-22 -9 -42.5 -19.5t-37.5 -24.5q-25 -76 -40 -163t-23 -182q-3 -35 -4.5 -72.5t-1.5 -75t3 -73.5
t10 -67q5 -20 11.5 -39.5t24.5 -27.5q17 2 27 11.5t19 20.5q10 11 17.5 22.5l15.5 23.5q-16 64 -27 131.5t-17 141.5q-3 7 -8 11t-6 13q-2 6 2.5 9.5t6.5 8.5q2 8 3 15.5t11 8.5h7q7 -1 10.5 -9.5t4.5 -19.5t1 -22.5t1 -18.5q5 -61 13.5 -120t19.5 -110q34 63 62.5 131.5
t54.5 142.5z" />
    <glyph glyph-name="R" unicode="R" horiz-adv-x="486" 
d="M108 18l121 32.5t129 27.5l37.5 6t38.5 3.5t36 -3.5t28 -14q4 -3 7 -7.5t2 -12.5q-4 -6 -7 -8q-11 -1 -15 4.5t-12 7.5q-3 2 -7 2t-7 2q-51 -1 -96 -10t-88 -19l-84 -22l-84 -22q-2 -25 -2.5 -54t-0.5 -57q0 -8 -1 -17t-10 -10h-2q-9 0 -11 8t-3 15q-4 23 -2.5 53t0.5 55
q-17 -3 -28.5 3t-12.5 17q0 11 7 19.5t13 16.5l13.5 15t11.5 13q7 121 17 237.5t30 224.5q-24 -20 -46.5 -44t-42.5 -49q4 -7 3.5 -15.5t-4 -16.5t-9.5 -13.5t-13 -6.5q-14 -2 -24 8.5t-8 24.5q2 12 12.5 25t18.5 21q27 30 60 59l61 53l14 66.5t18 61.5q2 12 13 20.5
t22 -0.5q5 -11 0 -22t-5 -24q0 -4 -2.5 -4.5t-3.5 -4.5l-6 -30t-7 -30l57.5 38t62.5 37q32 17 69.5 31.5t79.5 16.5q41 3 67 -15.5t29 -53.5q2 -30 -7 -56t-19 -47q-30 -66 -72 -121.5t-85 -106.5q-60 -69 -123 -134l-126 -131q0 -11 -0.5 -21.5t-1.5 -21.5zM127 110l54 55
l53 55l60.5 64l58.5 66q29 33 56 67.5t51 72.5q12 18 22.5 37.5t21.5 42.5q8 20 16.5 47.5t0.5 53.5q-7 21 -28 29t-50 6q-22 -2 -42.5 -8.5t-38.5 -14.5q-57 -23 -104 -54.5t-89 -66.5q-20 -111 -34 -226t-22 -238q3 -1 7 4.5t7 7.5zM64 7q4 0 7 1l6 2q-2 4 -0.5 8.5
t-0.5 6.5q-3 -5 -6.5 -9t-5.5 -9z" />
    <glyph glyph-name="S" unicode="S" horiz-adv-x="595" 
d="M420 179q21 17 41 35t43 34q16 13 33 24.5t32 25.5q6 2 11.5 8t12.5 0q2 -9 -4.5 -13t-11.5 -9q-37 -31 -76 -59.5t-72 -63.5q10 -25 9.5 -61.5t-9.5 -61.5q-17 -55 -46.5 -96.5t-66.5 -76.5l-20 -16t-21 -15l-25 -11t-29 -1q-12 4 -15.5 13t-2.5 20t5 22.5t8 20.5
q14 34 34 63l39 56q28 39 56.5 74.5l56.5 68.5q-18 36 -51.5 56t-73.5 34t-83 25t-80 29q-24 11 -44 29t-22 49q-2 22 3.5 41t13.5 36q23 49 54.5 89t64.5 78q23 25 47 48.5t50 44.5l59 38t73 24q24 2 42 -5.5t31 -20.5t21.5 -31t14.5 -37q12 -38 12.5 -89.5t-1.5 -99.5
q-1 -7 4 -9.5t3 -9.5q2 -7 -2.5 -7.5t-5.5 -5.5q-1 -10 -4.5 -17.5t-11.5 -10.5h-7q-10 1 -13.5 10t-4 21.5t1 25.5t2.5 23q2 26 3 54t-0.5 54.5t-6.5 50t-15 40.5q-5 8 -11.5 15t-14.5 12l-10.5 4t-11.5 3q-22 0 -41 -5t-35.5 -13.5t-31 -19l-27.5 -20.5q-52 -41 -91 -86
q-22 -23 -41 -47.5t-37 -50.5l-16.5 -26t-16.5 -29q-5 -9 -9.5 -21t-6.5 -24.5t-1 -25t7 -22.5q14 -20 36 -30.5t46 -18.5q36 -13 74 -23.5t73 -24.5t63.5 -34t46.5 -51zM298 -118q20 19 39 40.5t35 47.5q20 33 33.5 74.5t5.5 92.5q0 1 -1 1q-2 -2 -2 -3q-41 -48 -79 -98
t-71 -106q-9 -19 -20.5 -39t-8.5 -46q23 0 38 12.5t31 23.5z" />
    <glyph glyph-name="T" unicode="T" horiz-adv-x="330" 
d="M262 649q-4 -3 -7.5 -1t-5.5 4q-1 -6 -2 -11t-2 -12l159.5 17.5t172.5 8.5h20t21.5 -2t18.5 -6t11 -11q2 -5 2 -11t-7 -8q-6 -1 -7 4t-5 9q-24 5 -49.5 5.5t-51.5 -1.5q-75 -4 -147.5 -12t-141.5 -17q-12 -71 -19.5 -149t-12 -159t-7.5 -163t-7 -163q-1 -11 -1.5 -23
t-2.5 -23q-2 -9 -4 -19t-13 -11q-11 1 -12 11t-1 19q0 73 0.5 150.5t0.5 151.5q0 45 -1.5 85.5t-9.5 75.5q-18 69 -71 103q-25 18 -57 28t-72 15q-5 1 -12.5 1.5l-14.5 1t-12.5 2.5t-6.5 6q-2 9 7.5 14t18.5 7q65 20 135 32.5l142 24.5q3 11 6.5 25.5t8.5 30.5q5 14 11 29
t19 15q4 0 5.5 -1t3.5 -2q5 -7 4.5 -16.5t-1.5 -19.5v-19.5t-3 -15.5zM-48 550q49 -7 88.5 -23t68.5 -42.5t45.5 -65.5t19.5 -91q4 63 10 123.5t15 116.5q1 8 3 16t1 16q-65 -11 -128 -23t-123 -27z" />
    <glyph glyph-name="U" unicode="U" horiz-adv-x="625" 
d="M567 710q-39 -80 -74.5 -165.5l-70 -173l-69 -175t-71.5 -171.5q-26 -58 -55 -106q-8 -13 -21.5 -30.5t-31 -29.5t-37 -14.5t-39.5 14.5q-13 10 -22 28t-15 39.5t-9.5 45t-5.5 45.5q-5 51 -4 103.5t6 98.5q5 72 17 139.5t31 127.5l14.5 38.5t27.5 24.5q17 1 20 -10.5
t5 -28.5q1 -11 4.5 -21t-4.5 -13q-6 -1 -9.5 1t-5 5.5l-3 7t-3.5 5.5q-15 -47 -28 -103.5t-21 -118t-9.5 -126.5t4.5 -130q2 -21 5 -39.5t8 -38.5q2 -8 5 -17t7.5 -17.5t10 -14t12.5 -6.5q8 -1 14.5 3t12.5 10t11 12t9 10q27 35 48 76.5l42 83.5l62.5 150.5l63.5 156
l64.5 157l65.5 153.5q4 9 9.5 19.5t10.5 21.5q6 12 13 23.5t18 13.5q10 -1 14 -6t5.5 -12t0.5 -15.5t-1 -15.5q-4 -50 -12 -98l-15 -93q-29 -190 -50 -386t-30 -404q3 -4 6 -5t5 -6q1 -5 0 -12t-4 -12.5t-7.5 -9.5t-10.5 -3q-6 3 -8.5 9.5t-3 14.5t0 17t0.5 17q0 52 3 102.5
l6 98.5q9 203 34 389t54 366z" />
    <glyph glyph-name="V" unicode="V" horiz-adv-x="500" 
d="M161 615q10 -8 7 -18.5t-5 -21.5t-2.5 -24t-2.5 -26q-5 -76 -6 -156.5t-1 -161.5q0 -108 6 -211.5t25 -191.5q14 29 24 60l20 62l59.5 187.5t64.5 182.5l48.5 116.5l49.5 116.5l25.5 56.5t26.5 55.5q6 9 13 24l15 31t17.5 29t19.5 17q5 2 11.5 -1t6.5 -11q1 -8 -6 -12
t-11 -9q-16 -24 -29 -52l-26 -56l-73 -170t-68 -175l-59 -180.5l-57 -188.5l-17.5 -62.5t-25.5 -55.5q-5 -8 -10.5 -14t-16.5 -8q-14 1 -23 8.5t-14.5 18.5t-8.5 23.5l-6 24.5q-17 79 -21.5 167.5t-6.5 180.5q-1 61 1 123.5l4 122.5q1 29 2.5 59.5t4.5 58.5q1 12 3 26
t6.5 26t12.5 20.5t23 8.5z" />
    <glyph glyph-name="W" unicode="W" horiz-adv-x="746" 
d="M203 633q-16 -67 -24.5 -143t-14.5 -157q-5 -77 -6.5 -161.5t10.5 -157.5q10 12 15.5 27.5t11.5 29.5q15 47 28.5 95.5t29.5 96.5l32 91.5t40 87.5q4 7 10.5 16t14.5 15.5t17.5 9t20.5 -3.5q5 -2 10.5 -8t9.5 -11q10 -15 16.5 -36.5t12.5 -45.5q16 -69 26.5 -140
l20.5 -143q8 -49 15 -97t15 -95q8 -48 17 -93.5t26 -83.5q12 64 16.5 130.5t11.5 132.5q13 134 34 257.5t47 245.5l20 88.5t22 88.5q2 6 3.5 14t4.5 14.5t8 10t14 0.5q7 -8 1.5 -14t-8.5 -12q-43 -164 -74.5 -346t-48.5 -380q-3 -47 -5.5 -98t-8.5 -100q-1 -11 -2 -24.5
t-5 -25t-11 -19t-20 -7.5q-22 7 -32 28.5t-15 43.5q-8 23 -13 48.5t-10 48.5q-20 103 -33 206t-29 207q-5 26 -9 51t-9 49t-11.5 46.5t-20.5 39.5q-13 -6 -20.5 -18.5t-13.5 -24.5q-22 -45 -39 -95t-31.5 -102.5l-29 -105t-31.5 -101.5l-16 -27.5t-28 -15.5q-20 2 -29.5 23
t-13.5 43q-5 23 -6.5 48.5t-3.5 49.5q-4 52 -2.5 105.5t4.5 102.5q2 51 5.5 102t8.5 99q6 48 15.5 93.5t25.5 80.5q2 2 4 4.5t4 4.5q4 6 12 8t15.5 1t13.5 -6t7 -12l1 -1q-2 -14 -5 -30.5t1 -34.5q1 -8 4.5 -19t-4.5 -13q-10 -2 -12.5 8t-6.5 16z" />
    <glyph glyph-name="X" unicode="X" horiz-adv-x="555" 
d="M317 168l22 -64l22 -63q9 -20 16.5 -45.5t18.5 -48.5q2 -5 5 -11t4.5 -12t-0.5 -10.5t-10 -5.5q-8 -2 -14.5 2.5t-11.5 11t-8.5 14t-5.5 12.5q-19 42 -34.5 85.5t-32.5 86.5l-57 -96l-56 -97l-37.5 -74.5t-37.5 -79.5l-13.5 -34t-4.5 -37q1 -8 4.5 -17t-5.5 -14
q-14 -4 -18 7.5t-8 21.5q0 43 15 77l29 66l27.5 55.5l27.5 53.5l59.5 104l60.5 103l-75 211.5t-67 219.5q-4 6 -9 7.5t-7 9.5q-2 13 9 22.5t23 11.5q8 0 12.5 -3t9.5 -6q14 -23 20.5 -50t14.5 -54l47.5 -160.5l49.5 -157.5q8 5 13.5 17t12.5 21l12.5 20l12.5 20l25 39.5
t26 39.5l52 78.5l53 76.5l82.5 113.5l83.5 111.5q8 6 15.5 16l15.5 20t17 18t20 10q5 1 10.5 -1.5t5.5 -10.5q0 -9 -6 -11t-11 -7l-219 -300t-206 -313z" />
    <glyph glyph-name="Y" unicode="Y" horiz-adv-x="581" 
d="M538 655q2 1 1 1t-1 -1q-57 -68 -105 -143l-99 -152l-72 -112.5t-78 -110.5l-12 -17t-16 -19t-19.5 -15t-22.5 -5q-20 2 -27 23.5t-10 44.5q-3 26 -2.5 53t2.5 50q7 127 24 241.5t43 222.5l4.5 20t7 20.5t12.5 15.5t20 6q5 -2 8 -4.5t5 -4.5q5 -9 1.5 -18.5t-5.5 -19.5
q-1 -7 0 -12.5t0 -11.5t-5 -8.5t-6 -7.5q-14 -68 -27 -138.5t-24 -144.5l-16 -110.5t-10 -115.5q-1 -19 -0.5 -39t9.5 -35q12 3 20.5 11t15.5 16q23 26 42.5 53.5l38.5 55.5l136.5 211.5t142.5 206.5q8 8 16 19t19 10q9 0 13 -6t5.5 -14.5t1 -18t-1.5 -18.5
q-7 -54 -20.5 -99.5l-27.5 -90.5q-38 -120 -82 -234.5t-84 -232.5l-38.5 -121t-29.5 -128q5 -2 11.5 -2.5t7.5 -7.5q0 -11 -1.5 -21.5t-5.5 -18.5t-12 -13t-20 -5q-8 3 -12.5 9.5t-6 14.5t-1.5 17.5v18.5q1 20 3.5 39.5l4.5 34.5q9 52 23 100t29.5 93.5t32.5 90l33 88.5
l43.5 119l44.5 119t42 121.5t37 127.5v2z" />
    <glyph glyph-name="Z" unicode="Z" horiz-adv-x="630" 
d="M697 705q-33 -2 -62.5 -13l-58.5 -22l-56 -22l-56 -23l-111 -46t-125 -33q-5 -3 -3.5 -7.5t-5.5 -6.5t-9.5 3t-8.5 7q-5 4 -8.5 6t-4.5 8q0 7 6.5 12t15.5 8.5t18 6t15 4.5q49 16 95 35.5l90.5 39l90 38t94.5 33.5l34.5 10t34.5 6q32 3 48 -12t5 -45q-11 -31 -35 -57.5
l-46 -51.5l-136 -149.5l-135 -146.5l-131.5 -148.5t-126.5 -160.5l-18.5 -27.5t-18.5 -30.5q-5 -9 -10.5 -20t-10 -23.5t-6 -26t2.5 -26.5q6 -19 21 -26t33.5 -6t38.5 6t36 10q57 17 112 36.5t115 33.5q65 16 128.5 23t133.5 13l45.5 4t45.5 -4q5 -2 9.5 -6.5t6.5 -10.5
t1 -12.5t-7 -10.5q-8 -5 -14 0t-14 4q-132 -8 -254 -34t-239 -57l-36 -9.5t-44 -9t-45.5 -4.5t-40.5 5q-20 7 -32 21t-17 33q-5 23 1 44t14 39q16 37 36.5 67.5l40.5 60.5q44 60 89.5 116l92.5 112l96.5 109l96.5 108l48.5 54.5t47.5 54.5l47.5 55t39.5 62z" />
    <glyph glyph-name="one" unicode="1" horiz-adv-x="128" 
d="M93 505q5 -10 4.5 -20.5t-2.5 -20.5q-2 -32 -5 -63.5t-7 -63.5q-4 -43 -9.5 -84.5t-7.5 -83.5q-1 -7 0 -14t-2 -12q-6 -4 -11 -4q-10 5 -10 18v24q0 64 4.5 123t12.5 115q4 23 7 44.5t11 39.5q8 6 15 2z" />
    <glyph glyph-name="two" unicode="2" horiz-adv-x="259" 
d="M71 137q42 0 81 6.5t83 10.5q4 0 12 1.5t16 1.5t14 -1.5t6 -6.5q1 -5 -4.5 -8.5t-13 -5t-16 -2.5t-14.5 -1q-31 -4 -58.5 -8.5l-56.5 -9.5q-18 -3 -37 -6.5t-36 2.5q-9 4 -11.5 13t-1 19t5.5 20l7 18q7 14 13.5 25t11.5 21l64 122t53 134q3 11 5 22t-3 22
q-20 -2 -31.5 -11.5l-24.5 -19.5q-12 -10 -22.5 -21t-20.5 -23q-19 -25 -36.5 -50.5t-24.5 -61.5q0 -8 3 -16t-7 -10q-5 0 -8 3.5t-4.5 9.5t-1.5 12v10q2 14 9.5 31t16.5 31q16 28 36 52q19 24 42.5 47t49.5 35q12 6 23.5 7.5t22.5 -6.5q7 -8 10 -19t2 -24t-3.5 -26
t-5.5 -24q-11 -37 -26 -72.5t-31 -67.5q-23 -47 -46.5 -88.5t-41.5 -86.5z" />
    <glyph glyph-name="three" unicode="3" horiz-adv-x="312" 
d="M102 325q23 -11 48.5 -16.5t49.5 -13.5q23 -9 43 -21.5t31 -31.5q5 -9 8 -20t0 -24q-7 -29 -29 -48t-45 -33q-25 -14 -52.5 -25t-59.5 -17q-9 1 -15.5 0.5t-13.5 3.5q-6 3 -9 9.5t-2.5 13t4 11.5t11.5 5q3 -1 4 -3.5t1 -5.5v-6.5t2 -4.5q26 -2 47 6t40 17t35 21.5
t30 26.5q7 10 14 19t6 26q-1 0 -1 2q-10 23 -31 34t-47 19q-25 8 -51 13.5t-46 19.5q-8 8 -7 20.5t7 23.5q10 14 23.5 26.5l27.5 24.5l54 47.5l54 47.5q14 13 25.5 26.5t19.5 30.5q-19 7 -39 3t-37 -9l-33.5 -12t-30.5 -13l-42 -24t-38 -31q-5 -5 -11 -13t-6 -14
q-1 -8 3.5 -12t2.5 -12q-2 -2 -3.5 -2.5t-3.5 -2.5q-14 2 -17.5 17t1.5 28q6 14 17.5 26t25.5 23t29 20t27 17l65.5 28t77.5 17q17 0 30 -7t15 -25q-4 -23 -15.5 -38.5t-25.5 -29.5q-13 -14 -27 -27l-29 -26q-14 -14 -28.5 -26l-29.5 -25l-28.5 -24.5t-25.5 -29.5z" />
    <glyph glyph-name="four" unicode="4" horiz-adv-x="304" 
d="M70 201q35 15 66.5 33t66.5 32q2 38 5 78t7 78l4 26.5t0 24.5q-1 8 -4 20t5 20q3 2 5.5 3t7.5 0q7 -2 9.5 -9t2.5 -15q2 -27 0 -55l-4 -55t-5 -53t-5 -52l29.5 6.5t33.5 5.5q5 1 11 0.5t7 -5.5t-3.5 -8t-11 -5t-13.5 -3t-11 -2q-14 -3 -24 -5.5t-20 -7.5q-5 -38 -7 -79.5
t-7 -81.5q-2 -11 -6.5 -22.5t-18.5 -8.5q-5 3 -4 9.5t3 10.5l12 159q-25 -11 -51 -25.5l-52 -29.5l-22 -12t-26 1q-8 5 -12 18.5t-4 27.5q0 23 3 46l6 46l12 89t14 87q3 23 6.5 44t11.5 39q5 5 14 6t14 -6q4 -5 3 -15.5t-3 -20.5q-3 -25 -8.5 -54.5t-7.5 -52.5q-1 -9 1 -20
t1 -16q-2 -4 -5 -5t-5 -4q-5 -45 -13.5 -88.5t-7.5 -93.5z" />
    <glyph glyph-name="five" unicode="5" horiz-adv-x="398" 
d="M139 569q4 -9 0 -17t-2 -19q61 8 125.5 13.5t127.5 13.5q8 1 16.5 2.5t15.5 -3.5q0 -11 -10.5 -12.5t-18.5 -2.5q-48 -8 -98 -13l-99 -10l-39.5 -4t-36.5 -8q-17 -29 -34 -55t-28 -61q5 -8 15 -11.5t19 -5.5q34 -9 69.5 -17.5t68 -19.5t61 -26t49.5 -37q9 -13 18 -28
t4 -38q-4 -20 -18 -36t-30 -27q-31 -23 -71.5 -37t-91.5 -21q-12 -2 -26 -3t-26 0q-11 1 -21.5 4.5t-13.5 15.5q-2 6 2 11t9.5 8t11 2.5t7.5 -4.5q2 -5 -1.5 -7.5t-6.5 -5.5q41 -2 78 5.5t68 20.5q30 12 56.5 30.5t37.5 49.5v12q-8 23 -26.5 36t-38.5 24q-31 16 -67.5 26.5
t-74.5 18.5q-14 3 -28 5.5t-26.5 7t-23 11t-16.5 17.5q-8 21 -0.5 38t16.5 33l25.5 41.5l26.5 41.5q7 12 14 25.5t18 18.5q1 1 2 1q7 1 12 -4z" />
    <glyph glyph-name="six" unicode="6" horiz-adv-x="281" 
d="M229 562q-15 -1 -23 -9l-16 -16q-50 -63 -82.5 -142t-43.5 -181l30 21t36 20q18 9 39 17t42 10q11 2 19.5 0t16.5 -6l12 -12q9 -19 6.5 -38.5t-10.5 -38t-19.5 -34t-20.5 -26.5q-10 -11 -25.5 -24t-34.5 -22.5t-40 -11.5t-40 10q-14 8 -22 20.5t-14 28.5q-2 -1 -4 -4.5
t-7 -1.5q-10 8 -5.5 23.5t7.5 24.5q-2 70 13.5 127t38.5 112q11 26 22.5 49t27.5 47q14 21 32 42.5t40 30.5q15 7 28 2.5t20 -16.5q3 -4 4.5 -10.5t-5.5 -7.5q-5 -1 -7.5 1t-4.5 5.5t-4 6.5t-6 3zM166 246q-31 -11 -57.5 -26t-44.5 -37q1 -15 4 -30t9 -26t16.5 -17.5
t27.5 -4.5q26 3 47.5 21.5t34.5 32.5q13 17 27 39.5t6 51.5q-3 5 -10 7.5t-15 0.5q-11 -2 -22.5 -5t-22.5 -7z" />
    <glyph glyph-name="seven" unicode="7" horiz-adv-x="242" 
d="M207 508q-10 5 -21 2.5t-20 -5.5q-28 -9 -55 -21.5t-54 -22.5q-5 -2 -10.5 -5t-9.5 4q-1 6 3 9.5t9 5.5t11 3.5t10 4.5l20 8t20 9q20 5 42 16.5t46 13.5q11 0 21 -5l6 -6q2 -4 3 -8t3 -9q0 -34 -10.5 -61t-21.5 -52l-22 -50l-22 -50l-23.5 -50l-22.5 -50q-8 -18 -16 -38
t-15 -40q-2 -6 -5 -12.5t-11 -7.5q-9 2 -11.5 8.5t-1 14t4.5 15.5l5 13l29 82t34 76l36 75l35 75q4 14 10 27.5t4 30.5z" />
    <glyph glyph-name="eight" unicode="8" horiz-adv-x="281" 
d="M269 506q3 1 4 6t2.5 10t3.5 9.5t7 4.5t6 -4.5t-0.5 -10.5t-4 -11.5t-3.5 -8.5q-11 -26 -24.5 -50.5l-25.5 -46.5q-19 -30 -36 -61.5t-36 -62.5l17.5 -25t17.5 -27t13 -30.5t3 -37.5q-3 -34 -27 -56.5t-53 -30.5q-7 0 -13 -0.5t-12 0.5q-5 2 -8.5 4t-8.5 4
q-12 10 -15 25.5t-0.5 32t8.5 32.5t12 29q8 17 17.5 33t17.5 31q-12 16 -26 31l-27.5 30.5t-26 32t-21.5 36.5q-9 24 -7 43.5t11.5 36t24.5 29.5t30 23q26 17 55.5 28t61.5 11q31 0 45.5 -15.5t17.5 -43.5zM257 480q-3 18 -6.5 34.5t-17.5 22.5q-33 6 -60.5 -3.5
t-53.5 -25.5q-19 -11 -35 -25t-24 -31q-2 -5 -3 -13.5t0 -14.5q4 -17 11.5 -31t17 -26t20 -22.5t20.5 -22.5q6 -6 11.5 -14t12.5 -12q26 48 54 92t53 92zM144 245q-8 -14 -16.5 -31t-16.5 -35q-3 -8 -6.5 -18.5t-5 -21.5t0.5 -21t10 -16q15 -1 27.5 4t22.5 14t15.5 21
t6.5 25q1 27 -12 45.5l-24 35.5l-1 1q0 -1 -0.5 -1t-0.5 -2z" />
    <glyph glyph-name="nine" unicode="9" horiz-adv-x="270" 
d="M179 80q6 122 17.5 241t24.5 236l-18.5 -36.5l-18.5 -39.5q-1 -8 3.5 -12.5t2.5 -12.5q-5 -4 -10 -1t-7 6l-19.5 -33t-22.5 -35t-26.5 -31.5t-31.5 -21.5q-16 -8 -31.5 -2.5t-20.5 21.5q-2 10 -4 14q-1 33 8.5 59t24.5 49q12 20 27 35.5t37 20.5q9 2 16.5 2t15.5 -2
q10 -4 17 -11t12 -15q6 11 11.5 24.5t13.5 30.5l5 14.5t7 16.5t9.5 13.5t11.5 5.5q7 0 11 -5.5t5.5 -13.5t1.5 -18v-19q-5 -89 -16 -171t-19 -167q-4 -35 -6.5 -69.5t-7.5 -66.5q-3 -3 -5.5 -7t-8.5 -4q-4 0 -5.5 1.5zM124 519q-11 -2 -18.5 -7t-14.5 -12q-19 -17 -34.5 -48
t-17.5 -60q-1 -10 0.5 -20t9.5 -15q14 0 23 7t17 14q24 23 42 51t33 59q-5 13 -13 23.5t-27 7.5z" />
    <glyph glyph-name="zero" unicode="0" horiz-adv-x="214" 
d="M117 497q0 1 1 1q6 1 10 -1t7 -4q7 -7 7 -21q20 -24 35 -56t18 -72q3 -36 -7.5 -63t-26.5 -47q-28 -36 -67 -51q-21 -8 -38 -0.5t-25 21.5q-9 16 -10.5 38.5t2 45.5t9 45t10.5 37q13 37 30 70q8 15 18.5 32.5t24.5 24.5h2zM122 456q-12 -19 -23 -41.5t-21 -47.5
q-9 -26 -16.5 -52.5t-9.5 -54.5q-1 -18 2.5 -31t14.5 -20q23 0 38 10.5t27 24.5q11 12 19 25t13 30q11 37 1.5 74.5t-25.5 65.5q-2 1 -5 0t-5 1q-4 3 -5 9t-5 9v-2z" />
    <glyph glyph-name="ampersand" unicode="&#x26;" 
d="M275 792q0 1 2 1q11 0 14.5 -7t5.5 -16q0 -19 -2.5 -36.5t-4.5 -35.5l-4 -37t0 -38q1 -5 3 -11t0 -13q-6 -8 -11.5 -6.5t-10 7t-7.5 13.5t-3 14q-2 20 -0.5 42.5t3.5 45.5q1 11 1 21.5t1 21.5t2 20t9 14h2zM367 41q-13 -5 -25.5 -10.5t-24.5 -11.5q-15 -7 -37.5 -16
t-45.5 -12.5t-43 1t-31 24.5q-4 8 -7 22q-1 32 9.5 54t22.5 42q13 20 27 37.5l28 35.5q29 35 61 67l64 64l-54.5 -22.5t-59.5 -22.5q-29 -11 -61 -21.5t-65 -10.5q-42 0 -56 29q-6 18 -3 36t10.5 34t17.5 30t19 25q68 86 168 142q26 14 56 26.5t62 14.5q35 2 55.5 -17
t22.5 -51q1 -19 -4.5 -37.5t-22.5 -21.5q-16 0 -19 9t-1.5 21.5l3 25.5t-5.5 22q-7 7 -17.5 8.5t-21.5 0t-22.5 -4.5t-20.5 -6q-38 -14 -71.5 -36t-60.5 -44l-54.5 -51t-46.5 -60q-7 -11 -12.5 -24t-3.5 -29q6 -9 16.5 -11.5t22.5 -1.5t24 4l20 5q54 14 99.5 32.5l93.5 38.5
l18.5 8.5t20.5 2.5q12 -5 13 -12t-3.5 -15t-12 -15.5l-11.5 -11.5l-53 -52t-49 -52q-15 -16 -30.5 -35.5l-31.5 -40.5l-28 -43t-19 -48q-2 -14 3 -25q1 -3 2.5 -4t3.5 -3q12 -7 30 -4.5t32 7.5q34 11 65.5 25t66.5 25q8 2 15.5 0.5t7.5 -9.5q0 -6 -5.5 -10t-13 -7t-15 -5
t-11.5 -5zM312 -237q-6 -11 -16 -4.5t-14 16.5q-4 11 -5.5 28.5t-1.5 38t0.5 41t1.5 36.5q0 10 0.5 20.5t3 18t7.5 10.5t15 -2q8 -8 7 -19.5l-2 -22.5t-1.5 -23t-1.5 -24q-1 -24 -2.5 -48.5t3.5 -44.5q2 -5 4.5 -10t1.5 -11z" />
    <glyph glyph-name="germandbls" unicode="&#xdf;" horiz-adv-x="329" 
d="M150 24q3 -7 -2 -10t-9 -5q26 5 47.5 15t41.5 23q19 13 36.5 28t28.5 35q3 5 5.5 12.5t1.5 15.5q-1 10 -9 17t-20 11t-25.5 6t-24.5 3q-21 2 -43.5 2t-40.5 4t-29 15t-9 35q1 11 4.5 22.5t8.5 22.5q20 52 43 101t40 103q7 22 12.5 45.5t3.5 51.5q-5 0 -7.5 -4.5
t-5.5 -7.5q-38 -61 -60.5 -135.5t-41.5 -153.5q-18 -71 -30.5 -150t-16.5 -169q-1 -20 -2 -37.5t-19 -19.5h-1q-7 0 -11 3t-7 7q-5 20 -3.5 39.5t3.5 39.5q5 59 14.5 112.5t21.5 104.5q17 69 35 133.5t41 126.5q7 20 15.5 40t18.5 39q9 18 20 35.5t30 25.5q17 4 25.5 -7.5
t9.5 -28.5q3 -28 -3 -52.5t-13 -47.5q-14 -44 -31 -85.5l-34 -81.5q-10 -20 -19 -41t-11 -45q8 -10 21.5 -11t26.5 -3q24 -2 48.5 -3.5t45 -7.5t35.5 -17.5t20 -32.5q0 -11 -1 -19.5t-5 -16.5q-12 -30 -35.5 -49t-48.5 -36q-20 -11 -43 -20t-51 -13q-11 0 -19.5 2t-10.5 10
q-1 6 3 12t10 10t13 5t12 -3z" />
    <glyph glyph-name="dollar" unicode="$" horiz-adv-x="307" 
d="M180 582q12 5 29.5 10t35.5 6t33 -4t23 -18q3 -6 4.5 -17t-7.5 -13q-5 0 -7.5 2.5t-4 5.5t-2.5 6.5t-4 5.5q-11 5 -27 0.5l-27 -7.5q-14 -5 -24.5 -9.5l-19.5 -8.5q2 -74 5.5 -145.5t6.5 -143.5q9 -10 21 -20.5t23 -22.5t20.5 -26.5t13.5 -30.5q6 -22 1.5 -39.5
t-15 -30.5t-26.5 -21.5t-32 -12.5v-79q0 -19 -1 -37.5t-17 -23.5q-11 1 -11 11t6 16q2 26 1.5 54t-2.5 54q-23 -2 -43 2t-31 17q-2 3 -4.5 9t-3 12.5t1.5 12t8 6.5q8 -1 8 -9.5t4 -14.5q7 -11 25.5 -12t34.5 2l-4 78.5l-4 77.5l-45.5 38t-43.5 40q-11 10 -21.5 23.5
t-19 29.5t-12 35t0.5 40q5 26 19 46t31 37t36.5 31t39.5 25q-1 25 -1 47.5t-3 48.5q-1 7 -3 14t3 13q4 2 8 2q12 -5 14 -20.5t4 -29.5q2 -16 3 -32t2 -30zM154 524q-12 -8 -26.5 -19.5t-27.5 -25t-22.5 -29.5t-10.5 -34q-2 -27 10.5 -47.5t28.5 -38.5q6 -8 13.5 -14.5
t14.5 -13.5l11.5 -10l11.5 -10q2 -1 4 -3.5t3 -0.5q-5 61 -6.5 123.5t-3.5 122.5zM232 97q10 14 9.5 29.5t-7.5 29.5t-17.5 25.5t-19.5 18.5q0 1 -0.5 0.5t-0.5 -1.5q2 -32 2.5 -62.5t1.5 -61.5q10 3 17 9z" />
    <glyph glyph-name="sterling" unicode="&#xa3;" horiz-adv-x="351" 
d="M291 575q-8 -5 -13 -11.5t-10 -14.5q-15 -21 -28.5 -45.5t-25.5 -50.5q-16 -35 -29.5 -71t-24.5 -75q17 2 38 3t44 3h13t8 -7q0 -4 -6.5 -6.5t-15 -3.5t-17.5 -1.5t-13 -0.5q-16 -2 -29 -3t-27 -3q-16 -54 -30 -109.5t-31 -108.5q14 5 28.5 11.5t30.5 11.5q31 12 62 21.5
t70 14.5q18 2 40 0q8 -2 17.5 -3t11.5 -10q-2 -8 -9.5 -7t-14.5 1q-38 2 -72 -5.5t-64 -18.5q-31 -10 -58.5 -22t-52.5 -26q-10 -19 -18.5 -41.5t-25.5 -32.5q-14 -8 -27 0t-12 25q2 22 20 35.5l31 23.5q20 55 33.5 114t30.5 117q-12 -2 -26 -5t-26 -7q-5 -2 -11 -5t-11 3
q0 1 -1 1q1 14 12.5 16.5t22.5 5.5l22.5 6t21.5 5q18 63 44 127t60 117q11 17 24.5 34.5t30.5 26.5q8 4 17 3.5t14 -8.5q5 -9 3 -21l-4 -25q-2 -8 -3 -16t-8 -10q-8 1 -9 6.5t0.5 12t3 14.5t-0.5 15zM29 -3h-1q0 -2 -1.5 -3t0.5 -1q2 2 2 4q1 0 2.5 1.5t-0.5 2.5
q0 -1 -1 -1.5t-1 -2.5z" />
    <glyph glyph-name="percent" unicode="%" horiz-adv-x="327" 
d="M283 541q2 0 1 0.5t-1 -0.5l-76.5 -74.5t-83.5 -67.5q-11 -28 -27.5 -49t-48.5 -27q-20 4 -25 29q-1 21 5 42l8.5 26.5t11.5 25t16 20t22 11.5q24 5 35 -12.5t8 -42.5q56 39 104.5 88l96.5 97l13.5 15.5t16.5 10.5q11 -6 6 -15.5t-10 -16.5l-10 -16t-10 -14l-61 -92.5
t-57 -96.5q-38 -66 -68 -137t-58 -146q-2 -4 1.5 -6t2.5 -7q-5 -8 -9 -15.5t-15 -9.5q-11 2 -10.5 12.5t2.5 17.5q6 27 14.5 53t17.5 49q37 98 84.5 183.5t103.5 164.5zM106 445q2 -8 -0.5 -18.5t-8.5 -10.5q-4 0 -5 3t-1.5 7t-2 7t-5.5 3q-12 -7 -18 -20.5t-11 -28.5
q16 -2 27 4.5l22 12.5q2 6 4 15t1.5 17.5t-3.5 15t-10 7.5l6 -6t5 -8zM49 372q-1 -6 -1 -13t2 -12q15 3 23 12.5t16 17.5q0 2 -2 2q-7 -5 -17 -7.5t-21 0.5zM271 253q16 -18 9 -43q-2 -9 -8.5 -20t-15.5 -21.5t-19 -18.5t-19 -10q-8 -2 -12.5 0.5t-9.5 6.5q-5 6 -6 14
q0 29 12 57t29 44q5 5 12.5 9t14.5 5q12 1 16.5 -7t-3.5 -16zM263 217q1 8 0 16t-6 11q0 1 -1 1q-15 -16 -26 -35t-15 -46q17 8 28.5 22t19.5 31z" />
    <glyph glyph-name="at" unicode="@" horiz-adv-x="625" 
d="M313 223q-4 1 -6 -2.5t-4 -5.5q-8 -8 -16.5 -15.5t-16.5 -15.5q-11 -10 -24 -19.5t-33 -7.5q-10 3 -13 10t-1.5 16t5 18t7.5 16q12 24 24 39q7 8 14 17t15 16.5t18.5 12t25.5 3.5q14 -2 21 -15q3 -5 3 -12t2 -16q1 -4 3 -7.5t2 -7.5q2 -14 0 -30.5t0 -31.5q2 -14 6 -25
t17 -17q29 -2 49 11t35 27q16 14 29 32t24 37q10 21 18.5 43t10.5 51q3 36 -7.5 61.5t-31.5 42t-50.5 24t-63.5 5.5q-37 -2 -68.5 -14t-56.5 -26q-51 -29 -93 -72t-64 -100q-14 -35 -13 -69q1 -18 6 -33t13 -30q28 -54 78 -87q26 -17 59 -26t71 -6q29 3 51.5 10t44.5 17
q5 3 13 6.5t15 -4.5q2 -10 -5 -14t-13 -8t-13 -7t-13 -6q-35 -17 -81.5 -21t-87.5 8q-38 11 -67.5 33.5t-51.5 48.5q-24 29 -40.5 63.5t-11.5 81.5q5 42 23 77t40 61q20 26 48 50.5t59 42.5q31 19 71 33.5t83 16.5q49 3 84 -9.5t59 -36.5q23 -23 33.5 -59.5t-0.5 -84.5
q-13 -54 -42 -98t-70 -73q-10 -6 -23 -12t-26.5 -9t-27 -1t-23.5 12q-14 14 -19 37.5t-3 53.5zM303 280q-26 -14 -42 -38t-30 -52q25 15 44 34.5l39 38.5q-2 6 -3.5 11t-7.5 6z" />
    <glyph glyph-name="asterisk" unicode="*" horiz-adv-x="168" 
d="M87 596q8 6 14.5 16.5t16.5 18.5q5 5 13 4q4 -5 3 -9.5t-4 -8.5t-7 -7.5t-5 -7.5l-10.5 -12.5t-10.5 -11.5q11 -8 23.5 -15.5t29.5 -5.5q4 -4 1.5 -9.5t-7.5 -6.5q-17 2 -28.5 8.5t-23.5 12.5q-2 0 -0.5 -2.5t-0.5 -3.5q-5 -6 -6 -17t-8 -16q-11 -1 -13 6.5t-3 15.5
q-2 2 -4.5 2t-4.5 2q-2 4 -4 10l-19.5 17.5t-7.5 27.5q1 7 10 12q11 2 16 -3t12 -9q2 7 2 18t1.5 20.5t5.5 15.5t14 3q4 -5 5 -12.5t1 -16.5t-1 -18.5t0 -17.5zM59 565q0 5 -0.5 9.5t-0.5 9.5q-6 4 -11 8.5t-12 7.5q-2 -14 7.5 -20.5t16.5 -14.5z" />
    <glyph glyph-name="exclam" unicode="!" horiz-adv-x="159" 
d="M90 679q1 1 2 1q11 1 11.5 -8t-1.5 -17q-3 -72 -2.5 -146t-2.5 -148q-1 -11 -1.5 -23t-2.5 -23q-2 -10 -2.5 -21.5t-12.5 -13.5q-12 1 -13 12.5t-2 21.5q-3 33 -2 70.5t2 70.5q2 47 5 93t8 87q2 13 3 25t9 19h2zM77 151q8 2 12 -2t5 -9q1 -10 -5.5 -17.5t-14.5 -9.5
t-15 3t-7 19q2 2 4 7q5 3 10.5 5z" />
    <glyph glyph-name="question" unicode="?" horiz-adv-x="282" 
d="M79 257q1 -5 6 -5.5t3 -7.5q-1 -8 -9 -10t-17 0q-14 10 -10.5 29t7.5 32q14 46 35 86t43 78l45.5 74.5t40.5 80.5l5 14.5t4.5 17t0 16.5t-7.5 13q-17 2 -31 -3.5t-27 -12.5q-25 -14 -45 -30.5t-39 -38.5l-18 -21.5t-13 -23.5q-2 -5 -1 -10t-4 -8q-6 -2 -9.5 0.5t-5 7.5
t-0.5 10.5t3 9.5q2 9 6.5 16t9.5 14q23 29 50 55t62 44q10 6 25 11t29.5 6t26.5 -4t18 -20q8 -22 1.5 -45.5t-14.5 -40.5q-15 -38 -36 -73l-40 -67l-52 -92t-42 -102zM52 111q-6 6 -7.5 15t2.5 16t10.5 9t13 0t11.5 -7.5t5 -12.5q0 -14 -11.5 -20.5t-23.5 0.5z" />
    <glyph glyph-name="parenleft" unicode="(" horiz-adv-x="227" 
d="M169 687q-20 -32 -33 -71t-24 -81t-19 -86t-12 -91q-5 -49 -5.5 -99t4 -97t15.5 -89t30 -75q15 -26 38 -51q4 -4 7.5 -9t1.5 -10q-3 -7 -10.5 -5t-11.5 6q-26 27 -44 54q-23 30 -37.5 72t-22 91.5t-7.5 104t6 110.5q9 77 26 144t42 128l9 21t10.5 22.5t12.5 19t16 11.5
q8 2 14 -2t9 -10q2 -5 3.5 -13t-5.5 -9q-7 -2 -7.5 4t-5.5 10z" />
    <glyph glyph-name="parenright" unicode=")" horiz-adv-x="219" 
d="M37 705q-5 -2 -7.5 -6t-9.5 -1q-5 2 -5.5 6.5t1.5 9.5t5.5 8.5t8.5 3.5q6 1 10.5 0t9.5 -2q45 -24 72 -64.5t44 -93.5q12 -33 16.5 -72t3 -79.5t-7.5 -79.5t-14 -71q-17 -69 -43 -129.5l-51 -119.5l-10.5 -23.5t-11.5 -23.5q-5 -11 -11 -22.5t-19 -15.5q-9 2 -10.5 8.5
t1.5 14t7.5 15.5t7.5 14q16 34 30 68.5l28 67.5q19 48 34 96.5t26 102.5q11 60 11 119.5t-12.5 111.5t-38 93t-65.5 64z" />
    <glyph glyph-name="numbersign" unicode="#" horiz-adv-x="292" 
d="M204 491q7 -10 6 -24.5t-3 -28.5q-1 -14 -1.5 -28t-2.5 -27q7 -1 17.5 1.5t20.5 3t17.5 -1.5t8.5 -12q-2 -5 -6.5 -4t-9.5 1l-25 -4l-24 -4q-2 -19 -3 -39t-3 -41q8 2 16 3t18 2l17 2.5t11 -7.5q1 -8 -10 -8.5t-19 -2.5q-10 -1 -18 -2.5t-16 -3.5q0 -28 -1 -58t-1 -59
q0 -9 1 -19t-7 -15q-11 0 -12 10t-2 18q-2 26 -1.5 58t-0.5 58q-18 -3 -34.5 -7.5t-33.5 -8.5q1 -10 0.5 -20.5t-0.5 -17.5q-1 -11 -1 -20.5t-9 -10.5q-8 -1 -11 5.5t-3.5 16.5t0.5 20.5t0 18.5q-11 -1 -22.5 -7t-18.5 2q3 13 16 15.5t24 8.5l-2 40.5t-1 41.5q-6 -2 -15 -3
t-17 -4q-6 -2 -11 -4.5t-9 5.5q1 10 6.5 14.5t14 6.5t17 3.5t15.5 4.5q0 18 1 36t3 36q2 12 3.5 25.5t15.5 14.5q6 -1 8.5 -6t4.5 -10q0 -23 -1 -44.5t-3 -43.5q16 2 33 5l34 6q2 21 5 43.5t5 44.5q1 7 1 13.5t5 11.5q2 2 6.5 2t6.5 -2zM107 345q-1 -20 -1.5 -41t-1.5 -42
q17 5 33.5 8.5t33.5 7.5q0 40 3 81h-2q-16 -4 -32 -7t-33 -7z" />
    <glyph glyph-name="Euro" unicode="&#x20ac;" horiz-adv-x="367" 
d="M302 407q-7 0 -11 2q-6 12 -3.5 25.5t5.5 24.5q4 11 7 22.5t5 23.5q-17 -4 -30 -14t-25 -21t-23 -23l-22 -24q-21 -25 -39.5 -52t-33.5 -58q23 4 50 6.5t54 5.5q7 1 18 3t12 -6t-11 -10t-19 -3q-29 -4 -57 -6.5t-54 -8.5q-6 -13 -9 -28.5t-5 -32.5q20 5 46.5 8.5
t52.5 6.5l17 2.5t10 -8.5q-3 -8 -11.5 -9l-16.5 -2q-25 -5 -51 -7.5t-46 -10.5q3 -32 23 -49.5t48 -26.5q24 -8 47.5 -9t45 4t40 15t33.5 22l10.5 11t13.5 5q8 -4 7.5 -9.5t-5 -11.5t-10.5 -12l-9 -9q-17 -12 -36 -24q-20 -9 -44.5 -15t-53.5 -4q-51 3 -91.5 29.5
t-50.5 71.5q-3 -1 -7.5 -3.5t-9 -4t-8 -0.5t-4.5 6q-2 10 8.5 13.5t17.5 8.5q-1 16 1.5 33t6.5 31q-8 -1 -17 -3.5t-17 -4.5t-16 -5t-13 5q2 11 11.5 13.5t18.5 4.5q10 3 20 5t19 4q16 40 37.5 73.5t46.5 64.5l54.5 55.5t70.5 41.5q17 1 25 -6t11 -19q0 -28 -9.5 -46
t-16.5 -38q-2 -7 -2.5 -13.5t-5.5 -9.5z" />
    <glyph glyph-name="quotedbl" unicode="&#x22;" horiz-adv-x="195" 
d="M137 467h-7q-5 5 -6.5 12.5t-2.5 15.5q-2 25 -2.5 55t1.5 56q-9 -15 -20 -31.5t-21 -33.5q-3 -5 -6.5 -11.5t-11.5 -6.5q-8 2 -11.5 9.5t-4.5 17.5t-1.5 21t-1.5 20q-2 1 -5 1.5t-5 2.5q-1 13 1.5 24.5t11.5 16.5q12 0 17.5 -7t7.5 -18.5t1.5 -24.5t0.5 -25
q18 19 30.5 46.5t26.5 51.5q5 2 9 0t6 -5q-1 -38 -4.5 -81.5t1.5 -84.5q1 -6 1.5 -12.5t-5.5 -8.5z" />
    <glyph glyph-name="equal" unicode="=" horiz-adv-x="290" 
d="M244 338q-5 -4 -9 -2t-9 2q-11 2 -24 0l-27 -4q-26 -3 -47 -7l-46 -9q-5 -1 -11 -1.5t-12 0t-10.5 3.5t-5.5 10q1 10 10 12l18 4q26 5 57 8t60 5q8 0 19 0.5t20 -1t14.5 -6t2.5 -14.5zM81 269q1 10 10.5 12t17.5 4q20 5 38 8q20 3 40.5 4t37.5 4q5 1 9.5 0t5.5 -6
q0 -5 -4 -7.5t-10 -4t-12 -2t-10 -0.5q-25 -3 -45 -6t-41 -8q-9 -2 -20.5 -5t-16.5 7z" />
    <glyph glyph-name="less" unicode="&#x3c;" horiz-adv-x="313" 
d="M248 408q5 -11 -1 -18.5l-11 -13.5q-39 -47 -85 -86t-88 -83q26 -9 51 -19t50 -19q17 -8 35.5 -15.5t34.5 -18.5q5 -3 10 -7.5t3 -12.5q-6 -7 -13 -2.5l-12 7.5q-32 15 -66 28.5t-72 24.5l-28.5 8t-21.5 17q0 3 -1 3q1 20 14.5 33.5l26.5 25.5q32 30 65.5 58t65.5 59
q8 8 15 16.5t17 15.5q2 2 5.5 1.5t5.5 -2.5z" />
    <glyph glyph-name="greater" unicode="&#x3e;" horiz-adv-x="290" 
d="M40 59q-13 1 -16 7.5t-0.5 14.5t8 16t10.5 13q20 23 43.5 44t43.5 41q16 13 30.5 26.5l29.5 27.5l13.5 13t15.5 16q6 7 13 17t6 20q-2 14 -15 19t-23 12q-25 12 -54.5 20.5t-58.5 19.5q-8 2 -19.5 7t-11.5 12q-1 5 3.5 8t7.5 2q13 -2 25.5 -5.5l25.5 -7.5l49.5 -15.5
t46.5 -18.5q9 -4 19 -9t17.5 -12t12 -17t3.5 -24q-2 -21 -16.5 -38t-27.5 -30q-20 -21 -43 -40.5l-46 -39l-44.5 -39.5t-39.5 -42l-2 -11.5t-6 -6.5z" />
    <glyph glyph-name="copyright" unicode="&#xa9;" horiz-adv-x="308" 
d="M222 741q-5 -5 -10 -2.5t-10 3.5q-17 2 -29.5 -7t-21.5 -17q30 1 50 -12t37 -27q12 -14 23.5 -29t15.5 -38q0 -22 -5 -38t-13.5 -29t-19.5 -23l-22 -20q-23 -14 -46.5 -30t-56.5 -18q-43 -3 -63.5 22.5t-18.5 67.5q2 20 7.5 38t13.5 34q14 31 33 59.5t44 49.5
q11 11 27.5 21t32.5 12q11 2 21 -2t11 -15zM169 702q-17 4 -28 -2t-17 -17q-2 -1 -5 -1t-5 -2l-20.5 -32.5t-18.5 -34.5t-13.5 -39.5t-5.5 -47.5q3 -20 14 -34q12 -11 26 -13q32 -1 53.5 9.5t43.5 24.5q18 12 32.5 25t23.5 30q7 13 9 28.5t-3 29.5q-13 23 -34.5 46t-51.5 30
zM198 623q-7 0 -12 5q-11 -20 -19.5 -40.5t-12.5 -47.5q13 5 22 13.5t17 18.5q9 8 15 19t19 16q4 -1 7 -6q-5 -17 -15 -28t-19 -23q-5 -6 -14.5 -15t-20 -14t-20.5 -3t-15 17q0 21 5 39t13 38l16.5 34t22.5 22q9 3 15 -3t8 -14t-0.5 -16.5t-11.5 -11.5z" />
    <glyph glyph-name="slash" unicode="/" horiz-adv-x="283" 
d="M319 702q2 -11 -2.5 -20.5t-7.5 -17.5q-55 -137 -118.5 -267t-120.5 -264q-19 -41 -36 -83.5t-33 -87.5l-4.5 -11.5t-10.5 -7.5q-8 2 -10 8t-1 13.5t3.5 15.5t4.5 13q4 14 9 27l9 24q102 255 223 500l29 60.5l31 60.5q5 11 10.5 21.5t12.5 16.5q2 2 6 1.5t6 -2.5z" />
    <glyph glyph-name="backslash" unicode="\" horiz-adv-x="352" 
d="M40 724q2 -5 0 -8.5t-2 -8.5t3 -12.5t5 -14.5q15 -43 33.5 -85t33.5 -84l39 -96l38 -96q38 -88 71 -181t71 -183q2 -6 2.5 -13t-7.5 -10q-8 1 -12 5.5t-6.5 10.5l-5 12.5t-6.5 11.5l-30.5 73l-31.5 72q-47 106 -90 219.5l-85 228.5l-20.5 56.5t-18.5 61.5q-2 11 -3 25.5
t9 18.5q7 3 13 -3z" />
    <glyph glyph-name="bracketleft" unicode="[" horiz-adv-x="192" 
d="M77 631q-2 -80 -3.5 -161.5t-5.5 -162.5q-3 -81 0 -160q2 -40 3 -79t8 -76q17 2 35.5 5t36.5 5q6 1 12 1t8 -8q-1 -8 -9 -9t-14 -3l-14 -2t-14 -3q-12 -3 -26.5 -9t-26.5 -2q-8 2 -12 9.5t-6.5 17t-4 21t-2.5 21.5q-8 64 -9 129t1 131t5 133.5t4 135.5q0 10 0.5 22
t1.5 23q1 19 3 32t17 17q14 3 30 -1.5t27 -6.5q4 0 10.5 -2t12.5 -5.5t9.5 -8t0.5 -10.5q-3 -8 -10 -4.5t-14 5.5q-12 3 -27 3.5t-27 1.5z" />
    <glyph glyph-name="bracketright" unicode="]" horiz-adv-x="206" 
d="M149 -13q-7 -10 -23.5 -9.5t-33.5 0.5q-5 0 -14 -0.5t-17.5 0.5t-14.5 4t-5 10q2 8 11.5 7.5t19.5 0.5q13 0 24.5 2l22.5 4q-3 77 -3 155.5v159.5v159.5t-8 153.5q-9 0 -19 -2t-23 -1q-9 0 -21.5 2t-12.5 11q-1 10 9.5 11l21.5 2q18 2 31.5 5.5t28.5 -1.5
q14 -9 16.5 -28.5t4.5 -39.5q5 -63 5.5 -127t0.5 -131q0 -44 -0.5 -87.5t-1.5 -87.5q-2 -45 0 -88t1 -85z" />
    <glyph glyph-name="cent" unicode="&#xa2;" horiz-adv-x="236" 
d="M110 495q4 -5 3.5 -10.5t-0.5 -11.5q-1 -21 -0.5 -45.5t-1.5 -45.5q3 -2 7 -3t7 -3q5 -5 8.5 -11t4.5 -15q-3 -9 -3 -20t-11 -13q-5 0 -6.5 4t-1.5 9.5t-0.5 10.5t-4.5 7q-3 -53 -3 -106q12 5 24 15t23 18q6 5 11.5 9t11.5 9q5 5 10 11t15 5q0 -3 2 -1q6 -11 -1.5 -19
l-12.5 -13q-20 -19 -40.5 -35.5t-43.5 -32.5q1 -19 0 -40t1 -38q1 -6 3 -12t-4 -10q-11 -2 -13.5 7t-3.5 19q-1 15 -1 30.5t-1 31.5q-11 -6 -25.5 -5.5t-22.5 9.5q-8 11 -10.5 24.5t-1 28t6 29t9.5 27.5q9 23 19 39.5t27 27.5q1 20 2 44.5t3 47.5v15.5t5 10.5q3 3 10 1z
M65 220q8 0 12.5 2.5l9.5 5.5q0 23 0.5 47.5t-0.5 46.5q-5 -10 -10.5 -22.5t-9.5 -26t-5 -27t3 -26.5z" />
    <glyph glyph-name="bar" unicode="|" horiz-adv-x="188" 
d="M103 670q8 2 10.5 -2t2.5 -11.5t-1 -16.5t-1 -16q-2 -36 -2 -71.5t-2 -69.5q-5 -95 -10.5 -184.5t-10.5 -180.5q-2 -23 -3 -46l-2 -46q-1 -24 -3 -47.5t0 -45.5q1 -8 3 -15.5t-7 -10.5q-14 -1 -17 9.5t-4 21.5q-2 36 -0.5 76t3.5 73q5 103 5.5 203t8.5 200q2 36 3.5 72.5
t9.5 70.5q2 11 6 22t10 14z" />
    <glyph glyph-name="hyphen" unicode="-" horiz-adv-x="265" 
d="M34 296q0 9 5.5 13t14 5.5t18 2t18.5 0.5q9 1 18.5 1.5t17.5 0.5q11 1 21.5 1t18.5 1q12 1 25.5 0.5t15.5 -10.5q-2 -11 -15 -11.5t-24 -0.5q-25 -2 -47.5 -4t-46.5 -5q-11 -2 -23 -3.5t-17 9.5z" />
    <glyph glyph-name="underscore" unicode="_" horiz-adv-x="407" 
d="M294 176q0 -9 -8.5 -10t-14.5 -1q-23 -3 -49.5 -2.5t-50.5 -0.5t-49.5 -1.5t-51.5 0.5q-7 0 -14 1t-9 9q1 11 12.5 12t21.5 1q42 0 87.5 2.5t90.5 -1.5q5 -1 10 -1.5t10 -1.5q5 0 9.5 -0.5t5.5 -5.5z" />
    <glyph glyph-name="quotesingle" unicode="'" horiz-adv-x="123" 
d="M79 625q-2 -23 -4.5 -47.5t-0.5 -47.5q-4 -6 -7 -7q-11 -2 -15 7t-5 19q0 11 1 27t3 30t4.5 28t10.5 16q11 4 16 -6.5t-3 -18.5z" />
    <glyph glyph-name="semicolon" unicode=";" horiz-adv-x="179" 
d="M105 311q-1 -6 -8 -9t-14.5 -2.5t-13.5 4.5t-5 12t7.5 11t14 2.5t13.5 -5.5t6 -13zM82 190q3 -7 0.5 -14.5t-4.5 -14.5l-10 -27.5l-10 -27.5q-2 -7 -5 -13.5t-11 -8.5q-5 0 -7 2.5t-4 6.5q6 27 13.5 53t20.5 46q4 2 9 2t8 -4z" />
    <glyph glyph-name="plus" unicode="+" horiz-adv-x="262" 
d="M154 314q5 0 14 1.5t18 2.5t15.5 0.5t6.5 -6.5q1 -8 -7.5 -9t-16.5 -3q-7 -2 -15 -3l-16 -2q-2 -6 -1 -15.5l2 -19t-0.5 -17t-7.5 -7.5t-9 6.5t-4 15.5t-1.5 18.5t-1.5 15.5q-10 -1 -19.5 -2.5t-19.5 -2.5q-11 -2 -21.5 -1.5t-10.5 10.5q0 8 8 10.5t19.5 2.5h23.5t18 2
q1 6 1 16.5t0.5 20t3 17t10.5 7.5q7 -2 9.5 -8t2.5 -15t-0.5 -18.5t-0.5 -16.5z" />
    <glyph glyph-name="comma" unicode="," horiz-adv-x="141" 
d="M106 225q0 -26 -9.5 -40.5l-19.5 -28.5l-8.5 -11t-10.5 -12q-3 -4 -8 -8.5t-10 -7t-9.5 -1.5t-7.5 9q2 8 8 11.5t9 9.5q13 15 24.5 32t19.5 37q1 5 1.5 9.5t3.5 7.5q5 3 10 0t7 -7z" />
    <glyph glyph-name="period" unicode="." horiz-adv-x="156" 
d="M50 221q8 2 13.5 -2t6.5 -11q1 -8 -4 -12.5t-11.5 -5t-12 3.5t-5.5 13q2 13 13 14z" />
    <glyph glyph-name="agrave" unicode="&#xe0;" horiz-adv-x="339" 
d="M362 325q2 -5 -2 -8.5t-7 -5.5q-9 -10 -17.5 -20.5l-17.5 -21.5l-21.5 -30l-21.5 -30l-21 -29l-22 -30q-14 -19 -31 -35.5t-45 -21.5q-11 0 -18 4.5t-12 11.5q-10 19 -11.5 43t0.5 49.5t5.5 51t4.5 48.5q-23 -20 -45 -47.5t-50 -48.5q-12 -8 -25.5 -15.5t-30.5 -5.5
q-5 2 -9 4t-7 5q-7 10 -8 20q1 30 15.5 59t32.5 44q12 11 30.5 13.5t29.5 -14.5q2 -3 4.5 -8t3.5 -10.5t0.5 -10t-4.5 -5.5q-6 -2 -8.5 2t-4.5 9t-4.5 9.5t-8.5 4.5q-6 1 -12 -3t-11 -9.5t-8.5 -12t-6.5 -10.5q-7 -13 -12 -25t-5 -30q14 2 24 9.5t19 15.5q19 16 35 32.5
l34 35.5l17 19t20 14q1 0 1 0.5t1 0.5q10 0 14 -2q13 -11 11 -32l-4 -42l-6 -49.5t-3 -52.5q0 -11 1 -23.5t10 -20.5q22 5 34.5 18t26.5 26q25 29 47 59l45 59q6 8 12 14.5t12 14.5q6 4 14 12.5t16 0.5zM111 380q-14 4 -26 11t-25 13l-11 6.5t-12 7.5q-5 4 -11 7.5t-7 11.5
q2 8 6.5 9.5t10.5 0t12 -4.5t11 -6l21.5 -14l21.5 -15q5 -4 12 -7.5t5 -11.5q-1 -4 -3.5 -5t-4.5 -3z" />
    <glyph glyph-name="aacute" unicode="&#xe1;" horiz-adv-x="339" 
d="M362 325q2 -5 -2 -8.5t-7 -5.5q-9 -10 -17.5 -20.5l-17.5 -21.5l-21.5 -30l-21.5 -30l-21 -29l-22 -30q-14 -19 -31 -35.5t-45 -21.5q-11 0 -18 4.5t-12 11.5q-10 19 -11.5 43t0.5 49.5t5.5 51t4.5 48.5q-23 -20 -45 -47.5t-50 -48.5q-12 -8 -25.5 -15.5t-30.5 -5.5
q-5 2 -9 4t-7 5q-7 10 -8 20q1 30 15.5 59t32.5 44q12 11 30.5 13.5t29.5 -14.5q2 -3 4.5 -8t3.5 -10.5t0.5 -10t-4.5 -5.5q-6 -2 -8.5 2t-4.5 9t-4.5 9.5t-8.5 4.5q-6 1 -12 -3t-11 -9.5t-8.5 -12t-6.5 -10.5q-7 -13 -12 -25t-5 -30q14 2 24 9.5t19 15.5q19 16 35 32.5
l34 35.5l17 19t20 14q1 0 1 0.5t1 0.5q10 0 14 -2q13 -11 11 -32l-4 -42l-6 -49.5t-3 -52.5q0 -11 1 -23.5t10 -20.5q22 5 34.5 18t26.5 26q25 29 47 59l45 59q6 8 12 14.5t12 14.5q6 4 14 12.5t16 0.5zM102 437q6 2 10 -1t4 -8t-5.5 -10t-12 -9.5t-13 -8.5t-8.5 -7
q-5 -2 -10 -7t-11 -10t-12 -9t-12 -4q-5 1 -8.5 4t-3.5 9q4 14 16 19.5t22 13.5q19 15 42 27q0 1 2 1z" />
    <glyph glyph-name="acircumflex" unicode="&#xe2;" horiz-adv-x="339" 
d="M362 325q2 -5 -2 -8.5t-7 -5.5q-9 -10 -17.5 -20.5l-17.5 -21.5l-21.5 -30l-21.5 -30l-21 -29l-22 -30q-14 -19 -31 -35.5t-45 -21.5q-11 0 -18 4.5t-12 11.5q-10 19 -11.5 43t0.5 49.5t5.5 51t4.5 48.5q-23 -20 -45 -47.5t-50 -48.5q-12 -8 -25.5 -15.5t-30.5 -5.5
q-5 2 -9 4t-7 5q-7 10 -8 20q1 30 15.5 59t32.5 44q12 11 30.5 13.5t29.5 -14.5q2 -3 4.5 -8t3.5 -10.5t0.5 -10t-4.5 -5.5q-6 -2 -8.5 2t-4.5 9t-4.5 9.5t-8.5 4.5q-6 1 -12 -3t-11 -9.5t-8.5 -12t-6.5 -10.5q-7 -13 -12 -25t-5 -30q14 2 24 9.5t19 15.5q19 16 35 32.5
l34 35.5l17 19t20 14q1 0 1 0.5t1 0.5q10 0 14 -2q13 -11 11 -32l-4 -42l-6 -49.5t-3 -52.5q0 -11 1 -23.5t10 -20.5q22 5 34.5 18t26.5 26q25 29 47 59l45 59q6 8 12 14.5t12 14.5q6 4 14 12.5t16 0.5zM143 388q-5 -6 -10.5 -4.5t-11.5 6t-10.5 10.5t-7.5 9
q-8 11 -13.5 19.5t-11.5 15.5q-12 -14 -21.5 -31t-28.5 -24q-15 3 -10.5 12t10.5 17q4 5 6.5 9l5.5 9q6 9 12 19t13 15q9 7 16 5.5t12.5 -7t10 -13.5t7.5 -14l9.5 -16.5l9.5 -15.5q5 -5 9.5 -8.5t3.5 -12.5z" />
    <glyph glyph-name="atilde" unicode="&#xe3;" horiz-adv-x="339" 
d="M362 325q2 -5 -2 -8.5t-7 -5.5q-9 -10 -17.5 -20.5l-17.5 -21.5l-21.5 -30l-21.5 -30l-21 -29l-22 -30q-14 -19 -31 -35.5t-45 -21.5q-11 0 -18 4.5t-12 11.5q-10 19 -11.5 43t0.5 49.5t5.5 51t4.5 48.5q-23 -20 -45 -47.5t-50 -48.5q-12 -8 -25.5 -15.5t-30.5 -5.5
q-5 2 -9 4t-7 5q-7 10 -8 20q1 30 15.5 59t32.5 44q12 11 30.5 13.5t29.5 -14.5q2 -3 4.5 -8t3.5 -10.5t0.5 -10t-4.5 -5.5q-6 -2 -8.5 2t-4.5 9t-4.5 9.5t-8.5 4.5q-6 1 -12 -3t-11 -9.5t-8.5 -12t-6.5 -10.5q-7 -13 -12 -25t-5 -30q14 2 24 9.5t19 15.5q19 16 35 32.5
l34 35.5l17 19t20 14q1 0 1 0.5t1 0.5q10 0 14 -2q13 -11 11 -32l-4 -42l-6 -49.5t-3 -52.5q0 -11 1 -23.5t10 -20.5q22 5 34.5 18t26.5 26q25 29 47 59l45 59q6 8 12 14.5t12 14.5q6 4 14 12.5t16 0.5zM111 405q-15 4 -22.5 13t-14.5 19q-26 -18 -42 -46q-5 -2 -8.5 -4
t-11.5 0q-10 8 -3 20t15 22q9 11 21 22.5t28 14.5q10 0 16 -4.5t10 -10l8 -11.5t11 -10q8 -2 14 0.5t10.5 5.5t9 6.5t10.5 4.5q6 -3 6.5 -7t-2.5 -8.5t-7.5 -8.5t-7.5 -7q-18 -14 -40 -11z" />
    <glyph glyph-name="adieresis" unicode="&#xe4;" horiz-adv-x="339" 
d="M362 325q2 -5 -2 -8.5t-7 -5.5q-9 -10 -17.5 -20.5l-17.5 -21.5l-21.5 -30l-21.5 -30l-21 -29l-22 -30q-14 -19 -31 -35.5t-45 -21.5q-11 0 -18 4.5t-12 11.5q-10 19 -11.5 43t0.5 49.5t5.5 51t4.5 48.5q-23 -20 -45 -47.5t-50 -48.5q-12 -8 -25.5 -15.5t-30.5 -5.5
q-5 2 -9 4t-7 5q-7 10 -8 20q1 30 15.5 59t32.5 44q12 11 30.5 13.5t29.5 -14.5q2 -3 4.5 -8t3.5 -10.5t0.5 -10t-4.5 -5.5q-6 -2 -8.5 2t-4.5 9t-4.5 9.5t-8.5 4.5q-6 1 -12 -3t-11 -9.5t-8.5 -12t-6.5 -10.5q-7 -13 -12 -25t-5 -30q14 2 24 9.5t19 15.5q19 16 35 32.5
l34 35.5l17 19t20 14q1 0 1 0.5t1 0.5q10 0 14 -2q13 -11 11 -32l-4 -42l-6 -49.5t-3 -52.5q0 -11 1 -23.5t10 -20.5q22 5 34.5 18t26.5 26q25 29 47 59l45 59q6 8 12 14.5t12 14.5q6 4 14 12.5t16 0.5zM41 429q5 2 9 -1t6 -5q5 -25 -13 -32q-26 -2 -24 23q3 7 7.5 11.5
t14.5 3.5zM113 425q10 2 16.5 -5t4.5 -18q-1 -8 -7 -11.5t-13 -2.5t-12 6t-5 13q0 15 16 18z" />
    <glyph glyph-name="aring" unicode="&#xe5;" horiz-adv-x="339" 
d="M362 325q2 -5 -2 -8.5t-7 -5.5q-9 -10 -17.5 -20.5l-17.5 -21.5l-21.5 -30l-21.5 -30l-21 -29l-22 -30q-14 -19 -31 -35.5t-45 -21.5q-11 0 -18 4.5t-12 11.5q-10 19 -11.5 43t0.5 49.5t5.5 51t4.5 48.5q-23 -20 -45 -47.5t-50 -48.5q-12 -8 -25.5 -15.5t-30.5 -5.5
q-5 2 -9 4t-7 5q-7 10 -8 20q1 30 15.5 59t32.5 44q12 11 30.5 13.5t29.5 -14.5q2 -3 4.5 -8t3.5 -10.5t0.5 -10t-4.5 -5.5q-6 -2 -8.5 2t-4.5 9t-4.5 9.5t-8.5 4.5q-6 1 -12 -3t-11 -9.5t-8.5 -12t-6.5 -10.5q-7 -13 -12 -25t-5 -30q14 2 24 9.5t19 15.5q19 16 35 32.5
l34 35.5l17 19t20 14q1 0 1 0.5t1 0.5q10 0 14 -2q13 -11 11 -32l-4 -42l-6 -49.5t-3 -52.5q0 -11 1 -23.5t10 -20.5q22 5 34.5 18t26.5 26q25 29 47 59l45 59q6 8 12 14.5t12 14.5q6 4 14 12.5t16 0.5zM80 415q11 -4 20 -11t5 -24q-12 -24 -41 -30q-20 -2 -28.5 8.5
t-9 24.5t5.5 28.5t15 21.5q3 1 5 2t5 3q7 1 11 -1.5t8 -4.5q2 -4 3.5 -7.5t0.5 -9.5zM55 398q-2 -5 -2 -10.5t2 -9.5q9 -2 16 2t10 10q-12 7 -26 8z" />
    <glyph glyph-name="ccedilla" unicode="&#xe7;" horiz-adv-x="219" 
d="M72 297q-7 0 -8.5 5t-6.5 7q-16 -6 -28.5 -18.5t-22.5 -29.5q-8 -14 -16.5 -34t-6.5 -40q2 -14 10 -18q24 -2 39.5 8.5t32.5 18.5l57 42l27.5 23t26.5 24q15 12 26 24q8 4 13.5 12t16.5 6q6 -10 -2 -18t-13 -14q-19 -20 -40.5 -39.5l-41.5 -37.5l-27.5 -23.5t-30.5 -24.5
q-11 -8 -24.5 -16.5t-28.5 -13.5t-30.5 -4t-28.5 13q-11 13 -13 29t1 33.5t9.5 33.5t14.5 29q13 21 29 37t39 24q2 0 2 0.5t1 0.5q10 3 17.5 -1t11.5 -11t3 -14.5t-8 -12.5zM6 65q25 -3 45.5 -13t21.5 -36q0 -12 -5 -20.5t-12.5 -15.5t-16 -12t-16.5 -11q-5 -1 -9.5 -2.5
t-11.5 -0.5q-5 2 -8 6t-2 12l2 3t6.5 4t9.5 1l9 6t12 8.5t10 10.5t4 13q-1 7 -8 11t-14 5q-15 2 -27.5 3t-17.5 13q-3 6 -2.5 16.5t3.5 20.5t8 17.5t11 7.5q8 0 10.5 -5t2 -12.5t-2.5 -15.5t-2 -14z" />
    <glyph glyph-name="egrave" unicode="&#xe8;" horiz-adv-x="238" 
d="M6 266q-4 -6 -6.5 -15t-3.5 -19t1.5 -18.5t8.5 -13.5q25 -10 49 -1t44 18q32 15 55 32q20 12 39 26l38 28l12.5 10t14.5 3q4 -10 -3.5 -16t-12.5 -11q-7 -6 -14.5 -11t-12.5 -10q-18 -14 -39 -28.5l-44 -29.5q-22 -14 -45.5 -27.5t-51.5 -16.5t-47 10.5t-22 39.5
q-2 18 2 32t9 27q-3 5 -9 8t-6 11q5 5 11 2.5l11 -4.5q13 19 32 40.5t45 27.5q11 2 20.5 -3t12.5 -16q1 -16 -6.5 -28.5t-17.5 -20.5q-12 -11 -27.5 -18t-36.5 -8zM20 292q17 7 30 17q6 5 12 11.5t5 14.5q-16 -6 -27.5 -18t-19.5 -25zM101 395q-14 4 -26 11t-25 13l-11 6.5
t-12 7.5q-5 4 -11 7.5t-7 11.5q2 8 6.5 9.5t10.5 0t12 -4.5t11 -6l21.5 -14l21.5 -15q5 -4 12 -7.5t5 -11.5q-1 -4 -3.5 -5t-4.5 -3z" />
    <glyph glyph-name="eacute" unicode="&#xe9;" horiz-adv-x="238" 
d="M6 266q-4 -6 -6.5 -15t-3.5 -19t1.5 -18.5t8.5 -13.5q25 -10 49 -1t44 18q32 15 55 32q20 12 39 26l38 28l12.5 10t14.5 3q4 -10 -3.5 -16t-12.5 -11q-7 -6 -14.5 -11t-12.5 -10q-18 -14 -39 -28.5l-44 -29.5q-22 -14 -45.5 -27.5t-51.5 -16.5t-47 10.5t-22 39.5
q-2 18 2 32t9 27q-3 5 -9 8t-6 11q5 5 11 2.5l11 -4.5q13 19 32 40.5t45 27.5q11 2 20.5 -3t12.5 -16q1 -16 -6.5 -28.5t-17.5 -20.5q-12 -11 -27.5 -18t-36.5 -8zM20 292q17 7 30 17q6 5 12 11.5t5 14.5q-16 -6 -27.5 -18t-19.5 -25zM86 454q6 2 10 -1t4 -8t-5.5 -10
t-12 -9.5t-13 -8.5t-8.5 -7q-5 -2 -10 -7t-11 -10t-12 -9t-12 -4q-5 1 -8.5 4t-3.5 9q4 14 16 19.5t22 13.5q19 15 42 27q0 1 2 1z" />
    <glyph glyph-name="ecircumflex" unicode="&#xea;" horiz-adv-x="238" 
d="M6 266q-4 -6 -6.5 -15t-3.5 -19t1.5 -18.5t8.5 -13.5q25 -10 49 -1t44 18q32 15 55 32q20 12 39 26l38 28l12.5 10t14.5 3q4 -10 -3.5 -16t-12.5 -11q-7 -6 -14.5 -11t-12.5 -10q-18 -14 -39 -28.5l-44 -29.5q-22 -14 -45.5 -27.5t-51.5 -16.5t-47 10.5t-22 39.5
q-2 18 2 32t9 27q-3 5 -9 8t-6 11q5 5 11 2.5l11 -4.5q13 19 32 40.5t45 27.5q11 2 20.5 -3t12.5 -16q1 -16 -6.5 -28.5t-17.5 -20.5q-12 -11 -27.5 -18t-36.5 -8zM20 292q17 7 30 17q6 5 12 11.5t5 14.5q-16 -6 -27.5 -18t-19.5 -25zM125 389q-5 -6 -10.5 -4.5t-11.5 6
t-10.5 10.5t-7.5 9q-8 11 -13.5 19.5t-11.5 15.5q-12 -14 -21.5 -31t-28.5 -24q-15 3 -10.5 12t10.5 17q4 5 6.5 9l5.5 9q6 9 12 19t13 15q9 7 16 5.5t12.5 -7t10 -13.5t7.5 -14l9.5 -16.5l9.5 -15.5q5 -5 9.5 -8.5t3.5 -12.5z" />
    <glyph glyph-name="edieresis" unicode="&#xeb;" horiz-adv-x="238" 
d="M6 266q-4 -6 -6.5 -15t-3.5 -19t1.5 -18.5t8.5 -13.5q25 -10 49 -1t44 18q32 15 55 32q20 12 39 26l38 28l12.5 10t14.5 3q4 -10 -3.5 -16t-12.5 -11q-7 -6 -14.5 -11t-12.5 -10q-18 -14 -39 -28.5l-44 -29.5q-22 -14 -45.5 -27.5t-51.5 -16.5t-47 10.5t-22 39.5
q-2 18 2 32t9 27q-3 5 -9 8t-6 11q5 5 11 2.5l11 -4.5q13 19 32 40.5t45 27.5q11 2 20.5 -3t12.5 -16q1 -16 -6.5 -28.5t-17.5 -20.5q-12 -11 -27.5 -18t-36.5 -8zM20 292q17 7 30 17q6 5 12 11.5t5 14.5q-16 -6 -27.5 -18t-19.5 -25zM31 441q5 2 9 -1t6 -5q5 -25 -13 -32
q-26 -2 -24 23q3 7 7.5 11.5t14.5 3.5zM103 437q10 2 16.5 -5t4.5 -18q-1 -8 -7 -11.5t-13 -2.5t-12 6t-5 13q0 15 16 18z" />
    <glyph glyph-name="igrave" unicode="&#xec;" horiz-adv-x="172" 
d="M16 112q18 4 29.5 16t21.5 25q11 13 20.5 26t18.5 27q10 14 18.5 27.5l17.5 27.5l9.5 15t9.5 13t8.5 14.5t14.5 6.5q4 -7 -2.5 -13.5t-9.5 -12.5q-11 -21 -24 -40.5t-25 -40.5l-33.5 -52t-38.5 -48q-8 -7 -18 -13.5t-27 -3.5q-6 4 -10 6q-12 10 -17 31.5t-5 47t3.5 51.5
t7.5 44l5 21.5t8 22.5t12.5 14t18.5 -3q4 -8 4 -17q0 -5 -3 -5.5t-4 -3.5q-7 -20 -11 -42t-7 -48q-2 -23 -2.5 -49.5t10.5 -43.5zM74 377q-14 4 -26 11t-25 13l-11 6.5t-12 7.5q-5 4 -11 7.5t-7 11.5q2 8 6.5 9.5t10.5 0t12 -4.5t11 -6l21.5 -14l21.5 -15q5 -4 12 -7.5
t5 -11.5q-1 -4 -3.5 -5t-4.5 -3z" />
    <glyph glyph-name="iacute" unicode="&#xed;" horiz-adv-x="172" 
d="M16 112q18 4 29.5 16t21.5 25q11 13 20.5 26t18.5 27q10 14 18.5 27.5l17.5 27.5l9.5 15t9.5 13t8.5 14.5t14.5 6.5q4 -7 -2.5 -13.5t-9.5 -12.5q-11 -21 -24 -40.5t-25 -40.5l-33.5 -52t-38.5 -48q-8 -7 -18 -13.5t-27 -3.5q-6 4 -10 6q-12 10 -17 31.5t-5 47t3.5 51.5
t7.5 44q2 11 7 26t12 24.5t14.5 9t14.5 -21.5q0 -5 -3 -5.5t-4 -3.5q-7 -20 -11 -42t-7 -48q-2 -23 -2.5 -49.5t10.5 -43.5zM62 443q6 2 10 -1t4 -8t-5.5 -10t-12 -9.5t-13 -8.5t-8.5 -7q-5 -2 -10 -7t-11 -10t-12 -9t-12 -4q-5 1 -8.5 4t-3.5 9q4 14 16 19.5t22 13.5
q19 15 42 27q0 1 2 1z" />
    <glyph glyph-name="icircumflex" unicode="&#xee;" horiz-adv-x="172" 
d="M16 112q18 4 29.5 16t21.5 25q11 13 20.5 26t18.5 27q10 14 18.5 27.5l17.5 27.5l9.5 15t9.5 13t8.5 14.5t14.5 6.5q4 -7 -2.5 -13.5t-9.5 -12.5q-11 -21 -24 -40.5t-25 -40.5l-33.5 -52t-38.5 -48q-8 -7 -18 -13.5t-27 -3.5q-6 4 -10 6q-12 10 -17 31.5t-5 47t3.5 51.5
t7.5 44l5 21.5t8 22.5t12.5 14t18.5 -3q4 -8 4 -17q0 -5 -3 -5.5t-4 -3.5q-7 -20 -11 -42t-7 -48q-2 -23 -2.5 -49.5t10.5 -43.5zM97 374q-5 -6 -10.5 -4.5t-11.5 6t-10.5 10.5t-7.5 9q-8 11 -13.5 19.5t-11.5 15.5q-12 -14 -21.5 -31t-28.5 -24q-15 3 -10.5 12t10.5 17
q4 5 6.5 9l5.5 9q6 9 12 19t13 15q9 7 16 5.5t12.5 -7t10 -13.5t7.5 -14l9.5 -16.5l9.5 -15.5q5 -5 9.5 -8.5t3.5 -12.5z" />
    <glyph glyph-name="idieresis" unicode="&#xef;" horiz-adv-x="172" 
d="M46 431q-8 -4 -16 -4q-6 6 -6 11q0 6 5 8.5t10 1.5t8 -5.5t-1 -11.5zM16 112q18 4 29.5 16t21.5 25q11 13 20.5 26t18.5 27q10 14 18.5 27.5l17.5 27.5l9.5 15t9.5 13t8.5 14.5t14.5 6.5q4 -7 -2.5 -13.5t-9.5 -12.5q-11 -21 -24 -40.5t-25 -40.5l-33.5 -52t-38.5 -48
q-8 -7 -18 -13.5t-27 -3.5q-6 4 -10 6q-12 10 -17 31.5t-5 47t3.5 51.5t7.5 44l5 21.5t8 22.5t12.5 14t18.5 -3q4 -8 4 -17q0 -5 -3 -5.5t-4 -3.5q-7 -20 -11 -42t-7 -48q-2 -23 -2.5 -49.5t10.5 -43.5z" />
    <glyph glyph-name="ntilde" unicode="&#xf1;" horiz-adv-x="320" 
d="M17 211h-1q0 -2 0.5 -1.5t0.5 1.5q7 16 13 32.5t14 30.5q4 6 7.5 14t8 16t10.5 14t14 7q9 1 15 -4t11 -11q7 -15 10 -33.5t8 -37.5q4 -18 9 -35t21 -24q17 2 29.5 10t23.5 16q12 9 22.5 18l21.5 19q11 9 21.5 19l21.5 20q5 4 10 8.5l11 9.5l12 9.5t13 -1.5q1 -8 -5.5 -13
t-11.5 -10q-17 -15 -32.5 -31t-32.5 -30q-11 -9 -22 -19t-24 -19q-14 -11 -32.5 -21.5t-39.5 -2.5q-16 9 -23.5 26t-12 37t-8.5 40.5t-13 37.5q-15 -16 -24.5 -37t-17.5 -44l-7.5 -20.5l-8.5 -24.5l-8.5 -24t-15.5 -14q-8 0 -12.5 6t-6.5 15.5t-2 20.5v20q1 35 5 63t9 57
q1 7 3 14.5t5 13.5t7.5 10t10.5 3q9 -1 12.5 -14t4.5 -20q-2 -4 -6 -3.5t-6 0.5q-4 -28 -7 -56t-5 -58zM109 414q-15 4 -22.5 12.5t-14.5 19.5q-27 -20 -42 -47q-4 -2 -8 -4.5t-12 -0.5q-10 8 -3 20t14 22q9 12 21 23.5t28 15.5q10 0 16 -4.5t10 -10l8 -11.5t11 -9
q9 -2 14.5 0.5t10 5.5l9.5 6.5t11 4.5q6 -2 6.5 -6.5t-2.5 -9t-7.5 -8.5t-7.5 -7q-8 -7 -19 -10t-21 -2z" />
    <glyph glyph-name="ograve" unicode="&#xf2;" horiz-adv-x="164" 
d="M58 322v0q11 -13 19.5 -35t11 -46t-1.5 -46.5t-19 -36.5q-10 -8 -22 -14.5t-26 -6.5q-24 0 -38 15.5t-16 38.5q-2 32 9 58.5t22 47.5q-5 18 -0.5 33.5t21.5 17.5q5 0 9 -2.5t7 -2.5q5 0 9 2.5t7 2.5q11 0 18 -8t3 -18q-6 -6 -13 0zM16 326q1 -3 1 -0.5t-1 0.5zM37 307
q-10 -17 -21.5 -41t-13.5 -51q-2 -14 0.5 -27t11.5 -18t18.5 -1.5t16.5 8.5q12 12 15 30t0.5 37.5t-9.5 37t-16 27.5q0 1 -1 0t-1 -2zM84 382q-14 4 -26 11t-25 13l-11 6.5t-12 7.5q-5 4 -11 7.5t-7 11.5q2 8 6.5 9.5t10.5 0t12 -4.5t11 -6l21.5 -14l21.5 -15q5 -4 12 -7.5
t5 -11.5q-1 -4 -3.5 -5t-4.5 -3z" />
    <glyph glyph-name="oacute" unicode="&#xf3;" horiz-adv-x="164" 
d="M58 322v0q11 -13 19.5 -35t11 -46t-1.5 -46.5t-19 -36.5q-10 -8 -22 -14.5t-26 -6.5q-24 0 -38 15.5t-16 38.5q-2 32 9 58.5t22 47.5q-5 18 -0.5 33.5t21.5 17.5q5 0 9 -2.5t7 -2.5q5 0 9 2.5t7 2.5q11 0 18 -8t3 -18q-6 -6 -13 0zM16 326q1 -3 1 -0.5t-1 0.5zM37 307
q-10 -17 -21.5 -41t-13.5 -51q-2 -14 0.5 -27t11.5 -18t18.5 -1.5t16.5 8.5q12 12 15 30t0.5 37.5t-9.5 37t-16 27.5q0 1 -1 0t-1 -2zM68 445q6 2 10 -1t4 -8t-5.5 -10t-12 -9.5t-13 -8.5t-8.5 -7q-5 -2 -10 -7t-11 -10t-12 -9t-12 -4q-5 1 -8.5 4t-3.5 9q4 14 16 19.5
t22 13.5q19 15 42 27q0 1 2 1z" />
    <glyph glyph-name="ocircumflex" unicode="&#xf4;" horiz-adv-x="164" 
d="M58 322v0q11 -13 19.5 -35t11 -46t-1.5 -46.5t-19 -36.5q-10 -8 -22 -14.5t-26 -6.5q-24 0 -38 15.5t-16 38.5q-2 32 9 58.5t22 47.5q-5 18 -0.5 33.5t21.5 17.5q5 0 9 -2.5t7 -2.5q5 0 9 2.5t7 2.5q11 0 18 -8t3 -18q-6 -6 -13 0zM16 326q1 -3 1 -0.5t-1 0.5zM37 307
q-10 -17 -21.5 -41t-13.5 -51q-2 -14 0.5 -27t11.5 -18t18.5 -1.5t16.5 8.5q12 12 15 30t0.5 37.5t-9.5 37t-16 27.5q0 1 -1 0t-1 -2zM106 378q-5 -6 -10.5 -4.5t-11.5 6t-10.5 10.5t-7.5 9q-8 11 -13.5 19.5t-11.5 15.5q-12 -14 -21.5 -31t-28.5 -24q-15 3 -10.5 12
t10.5 17q4 5 6.5 9l5.5 9q6 9 12 19t13 15q9 7 16 5.5t12.5 -7t10 -13.5t7.5 -14l9.5 -16.5l9.5 -15.5q5 -5 9.5 -8.5t3.5 -12.5z" />
    <glyph glyph-name="otilde" unicode="&#xf5;" horiz-adv-x="164" 
d="M58 322v0q11 -13 19.5 -35t11 -46t-1.5 -46.5t-19 -36.5q-10 -8 -22 -14.5t-26 -6.5q-24 0 -38 15.5t-16 38.5q-2 32 9 58.5t22 47.5q-5 18 -0.5 33.5t21.5 17.5q5 0 9 -2.5t7 -2.5q5 0 9 2.5t7 2.5q11 0 18 -8t3 -18q-6 -6 -13 0zM16 326q1 -3 1 -0.5t-1 0.5zM37 307
q-10 -17 -21.5 -41t-13.5 -51q-2 -14 0.5 -27t11.5 -18t18.5 -1.5t16.5 8.5q12 12 15 30t0.5 37.5t-9.5 37t-16 27.5q0 1 -1 0t-1 -2zM66 389q-15 4 -22.5 12.5t-14.5 19.5q-27 -20 -42 -47q-4 -2 -8 -4.5t-12 -0.5q-10 8 -3 20t14 22q9 12 21 23.5t28 15.5q10 0 16 -4.5
t10 -10l8 -11.5t11 -9q9 -2 14.5 0.5t10 5.5l9.5 6.5t11 4.5q6 -2 6.5 -6.5t-2.5 -9t-7.5 -8.5t-7.5 -7q-8 -7 -19 -10t-21 -2z" />
    <glyph glyph-name="odieresis" unicode="&#xf6;" horiz-adv-x="164" 
d="M58 322v0q11 -13 19.5 -35t11 -46t-1.5 -46.5t-19 -36.5q-10 -8 -22 -14.5t-26 -6.5q-24 0 -38 15.5t-16 38.5q-2 32 9 58.5t22 47.5q-5 18 -0.5 33.5t21.5 17.5q5 0 9 -2.5t7 -2.5q5 0 9 2.5t7 2.5q11 0 18 -8t3 -18q-6 -6 -13 0zM16 326q1 -3 1 -0.5t-1 0.5zM37 307
q-10 -17 -21.5 -41t-13.5 -51q-2 -14 0.5 -27t11.5 -18t18.5 -1.5t16.5 8.5q12 12 15 30t0.5 37.5t-9.5 37t-16 27.5q0 1 -1 0t-1 -2zM9 433q5 2 9 -1t6 -5q5 -25 -13 -32q-26 -2 -24 23q3 7 7.5 11.5t14.5 3.5zM81 429q10 2 16.5 -5t4.5 -18q-1 -8 -7 -11.5t-13 -2.5t-12 6
t-5 13q0 15 16 18z" />
    <glyph glyph-name="oslash" unicode="&#xf8;" horiz-adv-x="164" 
d="M97 331q7 -5 3.5 -12.5t-7.5 -13.5q-3 -6 -6.5 -12t-7.5 -12q5 -16 8 -33.5t2 -34t-6 -31t-15 -24.5q-10 -8 -22 -14.5t-26 -6.5q-17 0 -28 7l-6 -8q-4 -6 -8.5 -11.5t-12.5 -2.5q-9 7 -3.5 17.5t10.5 18.5l3 4q-7 12 -9 29q-2 32 9 58.5t22 47.5q-5 18 -0.5 33.5
t21.5 17.5q5 0 9 -2.5t7 -2.5q5 0 9 2.5t7 2.5q11 0 18 -8t3 -18q-6 -6 -13 0l11 -17q0 1 1 2q3 4 6.5 8t7.5 7q2 4 5 7.5t8 1.5zM14 170q9 -5 18.5 -1.5t16.5 8.5q13 13 16 34.5t-2 43.5l-11.5 -17.5l-10.5 -16.5q-8 -12 -15.5 -24.5t-15.5 -24.5q2 -2 4 -2zM37 307
q-10 -17 -21.5 -41t-13.5 -51q-1 -3 -1 -6.5v-6.5q13 20 25.5 41.5t26.5 41.5q-6 14 -14 24q0 1 -1 0t-1 -2z" />
    <glyph glyph-name="ugrave" unicode="&#xf9;" horiz-adv-x="300" 
d="M205 30q-11 1 -13.5 11l-4.5 18q-5 28 -4.5 61.5t1.5 65.5q1 45 4 91t7 91q-26 -41 -48 -81t-53 -75l-24 -23.5t-31 -14.5q-8 -1 -17 2.5t-14 7.5q-21 20 -23 63v25t2 29t7 25t14 13q18 2 26.5 -8t4.5 -27q-1 -4 -5.5 -3.5t-6.5 0.5q-1 -8 -2 -20t-2 -22q0 -14 2.5 -31.5
t11.5 -19.5q5 -2 14 4.5t14 11.5q18 17 32.5 38l28.5 41q15 22 26.5 43.5t25.5 44.5q3 4 6 10t7.5 10.5t10 5.5t11.5 -4q5 -4 6.5 -14.5t1 -24t-2 -26.5t-1.5 -21q-2 -29 -4 -50.5t-3 -44.5q-2 -47 -3 -92t2 -87l4 -14t-8 -9zM126 411q-14 4 -26 11t-25 13l-11 6.5t-12 7.5
q-5 4 -11 7.5t-7 11.5q2 8 6.5 9.5t10.5 0t12 -4.5t11 -6l21.5 -14l21.5 -15q5 -4 12 -7.5t5 -11.5q-1 -4 -3.5 -5t-4.5 -3z" />
    <glyph glyph-name="uacute" unicode="&#xfa;" horiz-adv-x="300" 
d="M205 30q-11 1 -13.5 11l-4.5 18q-5 28 -4.5 61.5t1.5 65.5q1 45 4 91t7 91q-26 -41 -48 -81t-53 -75l-24 -23.5t-31 -14.5q-8 -1 -17 2.5t-14 7.5q-21 20 -23 63v25t2 29t7 25t14 13q18 2 26.5 -8t4.5 -27q-1 -4 -5.5 -3.5t-6.5 0.5q-1 -8 -2 -20t-2 -22q0 -14 2.5 -31.5
t11.5 -19.5q5 -2 14 4.5t14 11.5q18 17 32.5 38l28.5 41q15 22 26.5 43.5t25.5 44.5q3 4 6 10t7.5 10.5t10 5.5t11.5 -4q5 -4 6.5 -14.5t1 -24t-2 -26.5t-1.5 -21q-2 -29 -4 -50.5t-3 -44.5q-2 -47 -3 -92t2 -87l4 -14t-8 -9zM122 476q6 2 10 -1t4 -8t-5.5 -10t-12 -9.5
t-13 -8.5t-8.5 -7q-5 -2 -10 -7t-11 -10t-12 -9t-12 -4q-5 1 -8.5 4t-3.5 9q4 14 16 19.5t22 13.5q19 15 42 27q0 1 2 1z" />
    <glyph glyph-name="udieresis" unicode="&#xfc;" horiz-adv-x="300" 
d="M205 30q-11 1 -13.5 11l-4.5 18q-5 28 -4.5 61.5t1.5 65.5q1 45 4 91t7 91q-26 -41 -48 -81t-53 -75l-24 -23.5t-31 -14.5q-8 -1 -17 2.5t-14 7.5q-21 20 -23 63v25t2 29t7 25t14 13q18 2 26.5 -8t4.5 -27q-1 -4 -5.5 -3.5t-6.5 0.5q-1 -8 -2 -20t-2 -22q0 -14 2.5 -31.5
t11.5 -19.5q5 -2 14 4.5t14 11.5q18 17 32.5 38l28.5 41q15 22 26.5 43.5t25.5 44.5q3 4 6 10t7.5 10.5t10 5.5t11.5 -4q5 -4 6.5 -14.5t1 -24t-2 -26.5t-1.5 -21q-2 -29 -4 -50.5t-3 -44.5q-2 -47 -3 -92t2 -87l4 -14t-8 -9zM57 450q5 2 9 -1t6 -5q5 -25 -13 -32
q-26 -2 -24 23q3 7 7.5 11.5t14.5 3.5zM129 446q10 2 16.5 -5t4.5 -18q-1 -8 -7 -11.5t-13 -2.5t-12 6t-5 13q0 15 16 18z" />
    <glyph glyph-name="ucircumflex" unicode="&#xfb;" horiz-adv-x="300" 
d="M205 30q-11 1 -13.5 11l-4.5 18q-5 28 -4.5 61.5t1.5 65.5q1 45 4 91t7 91q-26 -41 -48 -81t-53 -75l-24 -23.5t-31 -14.5q-8 -1 -17 2.5t-14 7.5q-21 20 -23 63v25t2 29t7 25t14 13q18 2 26.5 -8t4.5 -27q-1 -4 -5.5 -3.5t-6.5 0.5q-1 -8 -2 -20t-2 -22q0 -14 2.5 -31.5
t11.5 -19.5q5 -2 14 4.5t14 11.5q18 17 32.5 38l28.5 41q15 22 26.5 43.5t25.5 44.5q3 4 6 10t7.5 10.5t10 5.5t11.5 -4q5 -4 6.5 -14.5t1 -24t-2 -26.5t-1.5 -21q-2 -29 -4 -50.5t-3 -44.5q-2 -47 -3 -92t2 -87l4 -14t-8 -9zM155 416q-5 -6 -10.5 -4.5t-11.5 6t-10.5 10.5
t-7.5 9q-8 11 -13.5 19.5t-11.5 15.5q-12 -14 -21.5 -31t-28.5 -24q-15 3 -10.5 12t10.5 17q4 5 6.5 9l5.5 9q6 9 12 19t13 15q9 7 16 5.5t12.5 -7t10 -13.5t7.5 -14l9.5 -16.5l9.5 -15.5q5 -5 9.5 -8.5t3.5 -12.5z" />
    <glyph glyph-name="yacute" unicode="&#xfd;" horiz-adv-x="332" 
d="M205 190l32.5 40.5t35.5 40.5q8 10 17.5 19.5t19.5 18.5l10.5 8t10.5 9q5 3 11 7.5t13 -0.5q2 -5 -2 -7.5t-6 -4.5q-45 -33 -80 -77t-68 -90q-16 -86 -41 -172t-58 -161q-11 -25 -25 -47q-7 -11 -15.5 -21.5t-19.5 -15.5q-17 -7 -27 2.5t-12 25.5q-1 35 5.5 63.5
t17.5 56.5q24 66 57.5 121.5t69.5 108.5l28.5 129.5t17.5 141.5q-8 -5 -13.5 -14l-10.5 -18q-28 -45 -51.5 -92.5t-52.5 -92.5l-9.5 -16t-12.5 -18t-15.5 -16t-17.5 -9q-4 -1 -7.5 -0.5t-8.5 0.5q-5 2 -8 5.5t-7 6.5q-9 16 -12 37.5t-2 44.5t5 45t10 40q4 12 10 23t19 13
q13 -1 15 -13.5t1 -24.5q-2 -3 -6 -2.5t-6 0.5l-7 -34.5t-6.5 -40t-1.5 -40.5t7 -36q19 8 31.5 25t23.5 35q26 43 51 89.5t54 90.5q2 4 5.5 9.5t7.5 10.5t8.5 8.5t8.5 3.5q13 -2 15.5 -16t2.5 -30q2 -37 -2.5 -84.5t-9.5 -85.5zM43 -124q-8 -24 -14 -49.5t-2 -54.5
q37 62 63 138t47 154v1q-28 -42 -52 -89t-42 -100zM114 465q6 2 10 -1t4 -8t-5.5 -10t-12 -9.5t-13 -8.5t-8.5 -7q-5 -2 -10 -7t-11 -10t-12 -9t-12 -4q-5 1 -8.5 4t-3.5 9q4 14 16 19.5t22 13.5q19 15 42 27q0 1 2 1z" />
    <glyph glyph-name="ydieresis" unicode="&#xff;" horiz-adv-x="332" 
d="M205 190l32.5 40.5t35.5 40.5q8 10 17.5 19.5t19.5 18.5l10.5 8t10.5 9q5 3 11 7.5t13 -0.5q2 -5 -2 -7.5t-6 -4.5q-45 -33 -80 -77t-68 -90q-16 -86 -41 -172t-58 -161q-11 -25 -25 -47q-7 -11 -15.5 -21.5t-19.5 -15.5q-17 -7 -27 2.5t-12 25.5q-1 35 5.5 63.5
t17.5 56.5q24 66 57.5 121.5t69.5 108.5l28.5 129.5t17.5 141.5q-8 -5 -13.5 -14l-10.5 -18q-28 -45 -51.5 -92.5t-52.5 -92.5l-9.5 -16t-12.5 -18t-15.5 -16t-17.5 -9q-4 -1 -7.5 -0.5t-8.5 0.5q-5 2 -8 5.5t-7 6.5q-9 16 -12 37.5t-2 44.5t5 45t10 40q4 12 10 23t19 13
q13 -1 15 -13.5t1 -24.5q-2 -3 -6 -2.5t-6 0.5l-7 -34.5t-6.5 -40t-1.5 -40.5t7 -36q19 8 31.5 25t23.5 35q26 43 51 89.5t54 90.5q2 4 5.5 9.5t7.5 10.5t8.5 8.5t8.5 3.5q13 -2 15.5 -16t2.5 -30q2 -37 -2.5 -84.5t-9.5 -85.5zM43 -124q-8 -24 -14 -49.5t-2 -54.5
q37 62 63 138t47 154v1q-28 -42 -52 -89t-42 -100z" />
    <glyph glyph-name="Agrave" unicode="&#xc0;" horiz-adv-x="402" 
d="M305 319q20 2 43 1.5t46 0.5q6 0 13 1t9 -7q-2 -7 -9.5 -6.5t-14.5 -0.5q-20 -1 -43.5 -2t-43.5 -3q2 -134 9 -264.5t13 -263.5q0 -8 1 -18t0 -19.5t-4 -16.5t-10 -10h-4q-11 2 -11.5 11t-1.5 17q-11 135 -23.5 274t-10.5 286q-47 -3 -90.5 -8.5t-86.5 -12.5
q-15 -46 -29 -95t-22 -102q-2 -7 -2.5 -14.5t-7.5 -11.5q-8 1 -11 7t-3 14t1.5 16.5l2.5 14.5q6 45 17 86l22 79q-17 -2 -35 -5.5t-36 -6.5q-5 -1 -11 -2t-9 4q-2 8 4.5 10t11.5 4q18 5 39.5 8.5l40.5 6.5q27 81 58.5 157t69.5 147q8 10 15 23.5t15 27t18 24t24 13.5
q2 0 6 0.5t8 -0.5q17 -9 22 -29t7 -43q5 -70 3 -145t0 -147zM91 295q43 6 85.5 11t86.5 9q-2 81 -1 163.5t-5 159.5q0 1 -1 1q-54 -74 -93 -161.5t-72 -182.5zM310 721q-14 4 -26 10.5l-25 13.5l-11 6.5t-12 7.5l-11 6.5t-7 11.5q2 8 6.5 10t10.5 0.5t12 -4.5t11 -6
l21.5 -14l21.5 -15q5 -4 12 -7.5t5 -11.5q-1 -6 -8 -8z" />
    <glyph glyph-name="Aacute" unicode="&#xc1;" horiz-adv-x="402" 
d="M305 319q20 2 43 1.5t46 0.5q6 0 13 1t9 -7q-2 -7 -9.5 -6.5t-14.5 -0.5q-20 -1 -43.5 -2t-43.5 -3q2 -134 9 -264.5t13 -263.5q0 -8 1 -18t0 -19.5t-4 -16.5t-10 -10h-4q-11 2 -11.5 11t-1.5 17q-11 135 -23.5 274t-10.5 286q-47 -3 -90.5 -8.5t-86.5 -12.5
q-15 -46 -29 -95t-22 -102q-2 -7 -2.5 -14.5t-7.5 -11.5q-8 1 -11 7t-3 14t1.5 16.5l2.5 14.5q6 45 17 86l22 79q-17 -2 -35 -5.5t-36 -6.5q-5 -1 -11 -2t-9 4q-2 8 4.5 10t11.5 4q18 5 39.5 8.5l40.5 6.5q27 81 58.5 157t69.5 147q8 10 15 23.5t15 27t18 24t24 13.5
q2 0 6 0.5t8 -0.5q17 -9 22 -29t7 -43q5 -70 3 -145t0 -147zM91 295q43 6 85.5 11t86.5 9q-2 81 -1 163.5t-5 159.5q0 1 -1 1q-54 -74 -93 -161.5t-72 -182.5zM300 805q6 2 10 -1t4 -8t-5.5 -10t-12 -9.5t-13 -8.5t-8.5 -7q-5 -2 -10 -7t-11 -10t-12 -9t-12 -4q-5 1 -8.5 4
t-3.5 9q4 14 16 19.5t22 13.5q19 15 42 27q0 1 2 1z" />
    <glyph glyph-name="Acircumflex" unicode="&#xc2;" horiz-adv-x="402" 
d="M305 319q20 2 43 1.5t46 0.5q6 0 13 1t9 -7q-2 -7 -9.5 -6.5t-14.5 -0.5q-20 -1 -43.5 -2t-43.5 -3q2 -134 9 -264.5t13 -263.5q0 -8 1 -18t0 -19.5t-4 -16.5t-10 -10h-4q-11 2 -11.5 11t-1.5 17q-11 135 -23.5 274t-10.5 286q-47 -3 -90.5 -8.5t-86.5 -12.5
q-15 -46 -29 -95t-22 -102q-2 -7 -2.5 -14.5t-7.5 -11.5q-8 1 -11 7t-3 14t1.5 16.5l2.5 14.5q6 45 17 86l22 79q-17 -2 -35 -5.5t-36 -6.5q-5 -1 -11 -2t-9 4q-2 8 4.5 10t11.5 4q18 5 39.5 8.5l40.5 6.5q27 81 58.5 157t69.5 147q8 10 15 23.5t15 27t18 24t24 13.5
q2 0 6 0.5t8 -0.5q17 -9 22 -29t7 -43q5 -70 3 -145t0 -147zM91 295q43 6 85.5 11t86.5 9q-2 81 -1 163.5t-5 159.5q0 1 -1 1q-54 -74 -93 -161.5t-72 -182.5zM339 736q-5 -6 -10.5 -4.5t-11.5 6t-10.5 10.5t-7.5 9q-8 11 -13.5 19.5t-11.5 15.5q-12 -14 -21.5 -31
t-28.5 -24q-15 3 -10.5 12t10.5 17q4 5 6.5 9l5.5 9q6 9 12 19t13 15q9 7 16 5.5t12.5 -7t10 -13.5t7.5 -14l9.5 -16.5l9.5 -15.5q5 -5 9.5 -8.5t3.5 -12.5z" />
    <glyph glyph-name="Atilde" unicode="&#xc3;" horiz-adv-x="402" 
d="M305 319q20 2 43 1.5t46 0.5q6 0 13 1t9 -7q-2 -7 -9.5 -6.5t-14.5 -0.5q-20 -1 -43.5 -2t-43.5 -3q2 -134 9 -264.5t13 -263.5q0 -8 1 -18t0 -19.5t-4 -16.5t-10 -10h-4q-11 2 -11.5 11t-1.5 17q-11 135 -23.5 274t-10.5 286q-47 -3 -90.5 -8.5t-86.5 -12.5
q-15 -46 -29 -95t-22 -102q-2 -7 -2.5 -14.5t-7.5 -11.5q-8 1 -11 7t-3 14t1.5 16.5l2.5 14.5q6 45 17 86l22 79q-17 -2 -35 -5.5t-36 -6.5q-5 -1 -11 -2t-9 4q-2 8 4.5 10t11.5 4q18 5 39.5 8.5l40.5 6.5q27 81 58.5 157t69.5 147q8 10 15 23.5t15 27t18 24t24 13.5
q2 0 6 0.5t8 -0.5q17 -9 22 -29t7 -43q5 -70 3 -145t0 -147zM91 295q43 6 85.5 11t86.5 9q-2 81 -1 163.5t-5 159.5q0 1 -1 1q-54 -74 -93 -161.5t-72 -182.5zM292 745q-15 4 -22.5 13t-14.5 19q-26 -18 -42 -46q-5 -2 -8.5 -4t-11.5 0q-10 8 -3 20t15 22q9 11 21 22.5
t28 14.5q10 0 16 -4.5t10 -10l8 -11.5t11 -10q8 -2 14 0.5t10.5 5.5t9 6.5t10.5 4.5q6 -3 6.5 -7t-2.5 -8.5t-7.5 -8.5t-7.5 -7q-18 -14 -40 -11z" />
    <glyph glyph-name="Adieresis" unicode="&#xc4;" horiz-adv-x="402" 
d="M305 319q20 2 43 1.5t46 0.5q6 0 13 1t9 -7q-2 -7 -9.5 -6.5t-14.5 -0.5q-20 -1 -43.5 -2t-43.5 -3q2 -134 9 -264.5t13 -263.5q0 -8 1 -18t0 -19.5t-4 -16.5t-10 -10h-4q-11 2 -11.5 11t-1.5 17q-11 135 -23.5 274t-10.5 286q-47 -3 -90.5 -8.5t-86.5 -12.5
q-15 -46 -29 -95t-22 -102q-2 -7 -2.5 -14.5t-7.5 -11.5q-8 1 -11 7t-3 14t1.5 16.5l2.5 14.5q6 45 17 86l22 79q-17 -2 -35 -5.5t-36 -6.5q-5 -1 -11 -2t-9 4q-2 8 4.5 10t11.5 4q18 5 39.5 8.5l40.5 6.5q27 81 58.5 157t69.5 147q8 10 15 23.5t15 27t18 24t24 13.5
q2 0 6 0.5t8 -0.5q17 -9 22 -29t7 -43q5 -70 3 -145t0 -147zM91 295q43 6 85.5 11t86.5 9q-2 81 -1 163.5t-5 159.5q0 1 -1 1q-54 -74 -93 -161.5t-72 -182.5zM236 781q5 2 9 -1t6 -5q5 -25 -13 -32q-26 -2 -24 23q3 7 7.5 11.5t14.5 3.5zM308 777q10 2 16.5 -5t4.5 -18
q-1 -8 -7 -11.5t-13 -2.5t-12 6t-5 13q0 15 16 18z" />
    <glyph glyph-name="Aring" unicode="&#xc5;" horiz-adv-x="402" 
d="M305 319q20 2 43 1.5t46 0.5q6 0 13 1t9 -7q-2 -7 -9.5 -6.5t-14.5 -0.5q-20 -1 -43.5 -2t-43.5 -3q2 -134 9 -264.5t13 -263.5q0 -8 1 -18t0 -19.5t-4 -16.5t-10 -10h-4q-11 2 -11.5 11t-1.5 17q-11 135 -23.5 274t-10.5 286q-47 -3 -90.5 -8.5t-86.5 -12.5
q-15 -46 -29 -95t-22 -102q-2 -7 -2.5 -14.5t-7.5 -11.5q-8 1 -11 7t-3 14t1.5 16.5l2.5 14.5q6 45 17 86l22 79q-17 -2 -35 -5.5t-36 -6.5q-5 -1 -11 -2t-9 4q-2 8 4.5 10t11.5 4q18 5 39.5 8.5l40.5 6.5q27 81 58.5 157t69.5 147q7 11 13.5 25t15 27t19 23t24.5 13
q2 0 6 0.5t8 -0.5q17 -9 22 -29t7 -43q5 -70 3 -145t0 -147zM91 295q43 6 85.5 11t86.5 9q-2 81 -1 163.5t-5 159.5q0 1 -1 1q-54 -74 -93 -161.5t-72 -182.5zM289 784q11 -4 20 -11t5 -24q-12 -24 -41 -30q-20 -2 -28.5 8.5t-9 24.5t5.5 28.5t15 21.5q3 1 5 2t5 3
q7 1 11 -1.5t8 -4.5q2 -4 3.5 -7.5t0.5 -9.5zM264 767q-2 -5 -2 -10.5t2 -9.5q9 -2 16 2t10 10q-12 7 -26 8z" />
    <glyph glyph-name="Ccedilla" unicode="&#xc7;" horiz-adv-x="503" 
d="M399 465q6 14 10.5 33.5t6.5 39.5q3 20 1.5 41t-18.5 29q-29 1 -46.5 -11.5t-34.5 -23.5q-49 -44 -88.5 -100.5t-69.5 -121.5q-31 -65 -55.5 -136.5t-34.5 -153.5q-6 -50 -1 -90.5t23 -69.5t50.5 -44.5t80.5 -13.5q42 2 82 11.5t75 21.5q71 24 134 56l37.5 20.5
t35.5 23.5q17 12 31.5 26.5t22.5 35.5q3 9 0 19t4 15q8 0 11.5 -6t4.5 -14t-1 -16.5t-4 -14.5q-8 -20 -24.5 -36t-35.5 -30t-39 -25.5l-38 -22.5q-52 -27 -109 -48.5t-122 -36.5q-34 -8 -70.5 -10t-67.5 7q-60 16 -90 68q-15 27 -21 60.5t-5 69t7.5 71t14.5 65.5
q17 63 38 119.5t47 108.5q22 42 45.5 81t52.5 74l28 31t33 33t39 27.5t45 14.5q22 3 37.5 -6.5t23.5 -25.5q7 -18 8.5 -39t-1.5 -42t-8 -41t-11 -35q-6 -10 -11 -20.5t-21 -10.5q-4 -1 -8 3t-7.5 9.5t-5.5 11.5t0 10q2 5 7.5 6t11.5 3zM229 -269q25 -3 45.5 -13t21.5 -36
q0 -12 -5 -20.5t-12.5 -15.5t-16 -12t-16.5 -11q-5 -1 -9.5 -2.5t-11.5 -0.5q-5 2 -8 6t-2 12l2 3t6.5 4t9.5 1l9 6t12 8.5t10 10.5t4 13q-1 7 -8 11t-14 5q-15 2 -27.5 3t-17.5 13q-3 6 -2.5 16.5t3.5 20.5t8 17.5t11 7.5q8 0 10.5 -5t2 -12.5t-2.5 -15.5t-2 -14z" />
    <glyph glyph-name="Egrave" unicode="&#xc8;" horiz-adv-x="405" 
d="M220 305q-26 -3 -54 -4t-53 3.5t-43.5 15.5t-25.5 32q-5 17 -4 33t5.5 31t11.5 28.5t14 24.5q32 52 75 98t85 82q20 14 44.5 33.5t54.5 21.5q27 2 40.5 -15.5t17.5 -42.5q2 -29 -3.5 -51t-13.5 -42l-5 -12.5t-11 -4.5q-8 2 -5 10t5 14q6 19 10 45.5t-2 46.5
q-3 8 -7.5 14.5t-12.5 9.5h-2q-33 -4 -52.5 -21t-40.5 -32l-37.5 -35t-35.5 -38q-23 -26 -48.5 -58t-42.5 -70q-5 -13 -9 -31.5t4 -32.5q10 -13 30.5 -18t45 -5t50 2.5t46.5 5.5q7 1 15.5 2.5t16 1.5t13 -3t6.5 -11q2 -12 -6.5 -18t-16.5 -11q-25 -15 -46.5 -32t-41.5 -36
q-29 -23 -53 -50.5t-46 -57.5q-20 -29 -38.5 -63.5t-31.5 -73.5q-6 -18 -10.5 -41.5t-3.5 -46.5t9 -42t26 -28q21 -9 42.5 -8.5t42 6.5t38.5 15l33 17q35 17 67 36.5t64 36.5l92.5 58.5t97.5 57.5q8 4 16 7t20 8q2 1 8 3t12 3t11 1t7 -4q1 -4 -3 -7t-9.5 -5t-11 -3.5
t-8.5 -2.5q-29 -11 -52.5 -26l-47.5 -29l-126 -80.5t-130 -76.5l-43 -21.5t-48 -17.5q-32 -8 -57.5 -3.5t-44 19.5t-28.5 38t-11 53q-1 29 5.5 56t15.5 52q34 93 94 163.5t131 125.5zM339 746q-14 4 -26 10.5l-25 13.5l-11 6.5t-12 7.5l-11 6.5t-7 11.5q2 8 6.5 10t10.5 0.5
t12 -4.5t11 -6l21.5 -14l21.5 -15q5 -4 12 -7.5t5 -11.5q-1 -6 -8 -8z" />
    <glyph glyph-name="Eacute" unicode="&#xc9;" horiz-adv-x="405" 
d="M220 305q-26 -3 -54 -4t-53 3.5t-43.5 15.5t-25.5 32q-5 17 -4 33t5.5 31t11.5 28.5t14 24.5q32 52 75 98t85 82q20 14 44.5 33.5t54.5 21.5q27 2 40.5 -15.5t17.5 -42.5q2 -29 -3.5 -51t-13.5 -42l-5 -12.5t-11 -4.5q-8 2 -5 10t5 14q6 19 10 45.5t-2 46.5
q-3 8 -7.5 14.5t-12.5 9.5h-2q-33 -4 -52.5 -21t-40.5 -32l-37.5 -35t-35.5 -38q-23 -26 -48.5 -58t-42.5 -70q-5 -13 -9 -31.5t4 -32.5q10 -13 30.5 -18t45 -5t50 2.5t46.5 5.5q7 1 15.5 2.5t16 1.5t13 -3t6.5 -11q2 -12 -6.5 -18t-16.5 -11q-25 -15 -46.5 -32t-41.5 -36
q-29 -23 -53 -50.5t-46 -57.5q-20 -29 -38.5 -63.5t-31.5 -73.5q-6 -18 -10.5 -41.5t-3.5 -46.5t9 -42t26 -28q21 -9 42.5 -8.5t42 6.5t38.5 15l33 17q35 17 67 36.5t64 36.5l92.5 58.5t97.5 57.5q8 4 16 7t20 8q2 1 8 3t12 3t11 1t7 -4q1 -4 -3 -7t-9.5 -5t-11 -3.5
t-8.5 -2.5q-29 -11 -52.5 -26l-47.5 -29l-126 -80.5t-130 -76.5l-43 -21.5t-48 -17.5q-32 -8 -57.5 -3.5t-44 19.5t-28.5 38t-11 53q-1 29 5.5 56t15.5 52q34 93 94 163.5t131 125.5zM315 810q6 2 10 -1t4 -8t-5.5 -10t-12 -9.5t-13 -8.5t-8.5 -7q-5 -2 -10 -7t-11 -10
t-12 -9t-12 -4q-5 1 -8.5 4t-3.5 9q4 14 16 19.5t22 13.5q19 15 42 27q0 1 2 1z" />
    <glyph glyph-name="Ecircumflex" unicode="&#xca;" horiz-adv-x="405" 
d="M220 305q-26 -3 -54 -4t-53 3.5t-43.5 15.5t-25.5 32q-5 17 -4 33t5.5 31t11.5 28.5t14 24.5q32 52 75 98t85 82q20 14 44.5 33.5t54.5 21.5q27 2 40.5 -15.5t17.5 -42.5q2 -29 -3.5 -51t-13.5 -42l-5 -12.5t-11 -4.5q-8 2 -5 10t5 14q6 19 10 45.5t-2 46.5
q-3 8 -7.5 14.5t-12.5 9.5h-2q-33 -4 -52.5 -21t-40.5 -32l-37.5 -35t-35.5 -38q-23 -26 -48.5 -58t-42.5 -70q-5 -13 -9 -31.5t4 -32.5q10 -13 30.5 -18t45 -5t50 2.5t46.5 5.5q7 1 15.5 2.5t16 1.5t13 -3t6.5 -11q2 -12 -6.5 -18t-16.5 -11q-25 -15 -46.5 -32t-41.5 -36
q-29 -23 -53 -50.5t-46 -57.5q-20 -29 -38.5 -63.5t-31.5 -73.5q-6 -18 -10.5 -41.5t-3.5 -46.5t9 -42t26 -28q21 -9 42.5 -8.5t42 6.5t38.5 15l33 17q35 17 67 36.5t64 36.5l92.5 58.5t97.5 57.5q8 4 16 7t20 8q2 1 8 3t12 3t11 1t7 -4q1 -4 -3 -7t-9.5 -5t-11 -3.5
t-8.5 -2.5q-29 -11 -52.5 -26l-47.5 -29l-126 -80.5t-130 -76.5l-43 -21.5t-48 -17.5q-32 -8 -57.5 -3.5t-44 19.5t-28.5 38t-11 53q-1 29 5.5 56t15.5 52q34 93 94 163.5t131 125.5zM367 753q-5 -6 -10.5 -4.5t-11.5 6t-10.5 10.5t-7.5 9q-8 11 -13.5 19.5t-11.5 15.5
q-12 -14 -21.5 -31t-28.5 -24q-15 3 -10.5 12t10.5 17q4 5 6.5 9l5.5 9q6 9 12 19t13 15q9 7 16 5.5t12.5 -7t10 -13.5t7.5 -14l9.5 -16.5l9.5 -15.5q5 -5 9.5 -8.5t3.5 -12.5z" />
    <glyph glyph-name="Edieresis" unicode="&#xcb;" horiz-adv-x="405" 
d="M220 305q-26 -3 -54 -4t-53 3.5t-43.5 15.5t-25.5 32q-5 17 -4 33t5.5 31t11.5 28.5t14 24.5q32 52 75 98t85 82q20 14 44.5 33.5t54.5 21.5q27 2 40.5 -15.5t17.5 -42.5q2 -29 -3.5 -51t-13.5 -42l-5 -12.5t-11 -4.5q-8 2 -5 10t5 14q6 19 10 45.5t-2 46.5
q-3 8 -7.5 14.5t-12.5 9.5h-2q-33 -4 -52.5 -21t-40.5 -32l-37.5 -35t-35.5 -38q-23 -26 -48.5 -58t-42.5 -70q-5 -13 -9 -31.5t4 -32.5q10 -13 30.5 -18t45 -5t50 2.5t46.5 5.5q7 1 15.5 2.5t16 1.5t13 -3t6.5 -11q2 -12 -6.5 -18t-16.5 -11q-25 -15 -46.5 -32t-41.5 -36
q-29 -23 -53 -50.5t-46 -57.5q-20 -29 -38.5 -63.5t-31.5 -73.5q-6 -18 -10.5 -41.5t-3.5 -46.5t9 -42t26 -28q21 -9 42.5 -8.5t42 6.5t38.5 15l33 17q35 17 67 36.5t64 36.5l92.5 58.5t97.5 57.5q8 4 16 7t20 8q2 1 8 3t12 3t11 1t7 -4q1 -4 -3 -7t-9.5 -5t-11 -3.5
t-8.5 -2.5q-29 -11 -52.5 -26l-47.5 -29l-126 -80.5t-130 -76.5l-43 -21.5t-48 -17.5q-32 -8 -57.5 -3.5t-44 19.5t-28.5 38t-11 53q-1 29 5.5 56t15.5 52q34 93 94 163.5t131 125.5zM284 794q5 2 9 -1t6 -5q5 -25 -13 -32q-26 -2 -24 23q3 7 7.5 11.5t14.5 3.5zM356 790
q10 2 16.5 -5t4.5 -18q-1 -8 -7 -11.5t-13 -2.5t-12 6t-5 13q0 15 16 18z" />
    <glyph glyph-name="Igrave" unicode="&#xcc;" horiz-adv-x="341" 
d="M251 626q-6 -157 -13.5 -315t-26.5 -307q-2 -11 -2.5 -20t-2.5 -22l-5 -19.5t-11 -11.5q-11 0 -11 12v21q4 73 11.5 144t2.5 148q-6 85 -31.5 146t-76.5 99q-14 12 -30.5 20.5t-24.5 25.5q-3 16 4.5 27.5t18.5 18.5q15 10 36 16.5t41 13.5q43 15 83 26q-2 10 3 17t12 9
t13.5 -1.5t8.5 -13.5l113 26t121 17q31 1 53 -9q5 -2 10 -8t8 -14t1.5 -15t-10.5 -10q-10 0 -12 8t-8 11q-36 8 -73.5 3t-70.5 -12q-34 -7 -66.5 -15zM211 615q-31 -10 -65.5 -18t-66.5 -18q-10 -3 -19.5 -8.5t-12.5 -16.5q3 -11 11.5 -16t16.5 -12l16 -11.5t15 -12.5
q46 -40 69 -101t30 -139q3 87 4.5 177t4.5 176q-1 2 -1.5 1t-1.5 -1zM682 -118q-8 0 -9 6t-6 9q-7 4 -21 5t-25 1q-39 2 -79.5 0.5t-75.5 -3.5q-103 -5 -195 -14.5t-185 -23.5l-68 -10.5t-72 -8.5q-10 -1 -22 -1t-16 13q3 9 12.5 10.5t17.5 3.5q101 19 205 32.5t219 20.5
q42 3 83.5 3.5t84.5 2.5q21 1 52 0t53 -3l23 -4t20 -7q4 -2 7.5 -5.5t5 -8t0 -9.5t-8.5 -9zM292 722q-14 4 -26 10.5l-25 13.5l-11 6.5t-12 7.5l-11 6.5t-7 11.5q2 8 6.5 10t10.5 0.5t12 -4.5t11 -6l21.5 -14l21.5 -15q5 -4 12 -7.5t5 -11.5q-1 -6 -8 -8z" />
    <glyph glyph-name="Iacute" unicode="&#xcd;" horiz-adv-x="341" 
d="M251 626q-6 -157 -13.5 -315t-26.5 -307q-2 -11 -2.5 -20t-2.5 -22l-5 -19.5t-11 -11.5q-11 0 -11 12v21q4 73 11.5 144t2.5 148q-6 85 -31.5 146t-76.5 99q-14 12 -30.5 20.5t-24.5 25.5q-3 16 4.5 27.5t18.5 18.5q15 10 36 16.5t41 13.5q43 15 83 26q-2 10 3 17t12 9
t13.5 -1.5t8.5 -13.5l113 26t121 17q31 1 53 -9q5 -2 10 -8t8 -14t1.5 -15t-10.5 -10q-10 0 -12 8t-8 11q-36 8 -73.5 3t-70.5 -12q-34 -7 -66.5 -15zM211 615q-31 -10 -65.5 -18t-66.5 -18q-10 -3 -19.5 -8.5t-12.5 -16.5q3 -11 11.5 -16t16.5 -12l16 -11.5t15 -12.5
q46 -40 69 -101t30 -139q3 87 4.5 177t4.5 176q-1 2 -1.5 1t-1.5 -1zM682 -118q-8 0 -9 6t-6 9q-7 4 -21 5t-25 1q-39 2 -79.5 0.5t-75.5 -3.5q-103 -5 -195 -14.5t-185 -23.5l-68 -10.5t-72 -8.5q-10 -1 -22 -1t-16 13q3 9 12.5 10.5t17.5 3.5q101 19 205 32.5t219 20.5
q42 3 83.5 3.5t84.5 2.5q21 1 52 0t53 -3l23 -4t20 -7q4 -2 7.5 -5.5t5 -8t0 -9.5t-8.5 -9zM266 798q6 2 10 -1t4 -8t-5.5 -10t-12 -9.5t-13 -8.5t-8.5 -7q-5 -2 -10 -7t-11 -10t-12 -9t-12 -4q-5 1 -8.5 4t-3.5 9q4 14 16 19.5t22 13.5q19 15 42 27q0 1 2 1z" />
    <glyph glyph-name="Icircumflex" unicode="&#xce;" horiz-adv-x="341" 
d="M251 626q-6 -157 -13.5 -315t-26.5 -307q-2 -11 -2.5 -20t-2.5 -22l-5 -19.5t-11 -11.5q-11 0 -11 12v21q4 73 11.5 144t2.5 148q-6 85 -31.5 146t-76.5 99q-14 12 -30.5 20.5t-24.5 25.5q-3 16 4.5 27.5t18.5 18.5q15 10 36 16.5t41 13.5q43 15 83 26q-2 10 3 17t12 9
t13.5 -1.5t8.5 -13.5l113 26t121 17q31 1 53 -9q5 -2 10 -8t8 -14t1.5 -15t-10.5 -10q-10 0 -12 8t-8 11q-36 8 -73.5 3t-70.5 -12q-34 -7 -66.5 -15zM211 615q-31 -10 -65.5 -18t-66.5 -18q-10 -3 -19.5 -8.5t-12.5 -16.5q3 -11 11.5 -16t16.5 -12l16 -11.5t15 -12.5
q46 -40 69 -101t30 -139q3 87 4.5 177t4.5 176q-1 2 -1.5 1t-1.5 -1zM682 -118q-8 0 -9 6t-6 9q-7 4 -21 5t-25 1q-39 2 -79.5 0.5t-75.5 -3.5q-103 -5 -195 -14.5t-185 -23.5l-68 -10.5t-72 -8.5q-10 -1 -22 -1t-16 13q3 9 12.5 10.5t17.5 3.5q101 19 205 32.5t219 20.5
q42 3 83.5 3.5t84.5 2.5q21 1 52 0t53 -3l23 -4t20 -7q4 -2 7.5 -5.5t5 -8t0 -9.5t-8.5 -9zM320 733q-5 -6 -10.5 -4.5t-11.5 6t-10.5 10.5t-7.5 9q-8 11 -13.5 19.5t-11.5 15.5q-12 -14 -21.5 -31t-28.5 -24q-15 3 -10.5 12t10.5 17q4 5 6.5 9l5.5 9q6 9 12 19t13 15
q9 7 16 5.5t12.5 -7t10 -13.5t7.5 -14l9.5 -16.5l9.5 -15.5q5 -5 9.5 -8.5t3.5 -12.5z" />
    <glyph glyph-name="Idieresis" unicode="&#xcf;" horiz-adv-x="341" 
d="M251 626q-6 -157 -13.5 -315t-26.5 -307q-2 -11 -2.5 -20t-2.5 -22l-5 -19.5t-11 -11.5q-11 0 -11 12v21q4 73 11.5 144t2.5 148q-6 85 -31.5 146t-76.5 99q-14 12 -30.5 20.5t-24.5 25.5q-3 16 4.5 27.5t18.5 18.5q15 10 36 16.5t41 13.5q43 15 83 26q-2 10 3 17t12 9
t13.5 -1.5t8.5 -13.5l113 26t121 17q31 1 53 -9q5 -2 10 -8t8 -14t1.5 -15t-10.5 -10q-10 0 -12 8t-8 11q-36 8 -73.5 3t-70.5 -12q-34 -7 -66.5 -15zM211 615q-31 -10 -65.5 -18t-66.5 -18q-10 -3 -19.5 -8.5t-12.5 -16.5q3 -11 11.5 -16t16.5 -12l16 -11.5t15 -12.5
q46 -40 69 -101t30 -139q3 87 4.5 177t4.5 176q-1 2 -1.5 1t-1.5 -1zM682 -118q-8 0 -9 6t-6 9q-7 4 -21 5t-25 1q-39 2 -79.5 0.5t-75.5 -3.5q-103 -5 -195 -14.5t-185 -23.5l-68 -10.5t-72 -8.5q-10 -1 -22 -1t-16 13q3 9 12.5 10.5t17.5 3.5q101 19 205 32.5t219 20.5
q42 3 83.5 3.5t84.5 2.5q21 1 52 0t53 -3l23 -4t20 -7q4 -2 7.5 -5.5t5 -8t0 -9.5t-8.5 -9zM209 771q5 2 9 -1t6 -5q5 -25 -13 -32q-26 -2 -24 23q3 7 7.5 11.5t14.5 3.5zM281 767q10 2 16.5 -5t4.5 -18q-1 -8 -7 -11.5t-13 -2.5t-12 6t-5 13q0 15 16 18z" />
    <glyph glyph-name="Ntilde" unicode="&#xd1;" horiz-adv-x="527" 
d="M167 578q-10 -12 -14.5 -27l-9.5 -31q-23 -79 -36.5 -168.5t-21.5 -186.5q-3 -38 -4.5 -79.5t3.5 -79.5q2 -7 4.5 -12.5t0.5 -13.5q-3 -15 -21 -15q-16 3 -19 18.5t-5 31.5q-4 53 0.5 107t10.5 101q8 66 19 129t26 121q8 28 15 57t21 55q5 9 12 17.5t21 6.5q11 -2 18 -11
t12 -21.5t8.5 -26l6.5 -24.5l12.5 -51.5t11.5 -51.5l43 -211.5t50 -203.5q14 -51 29.5 -99t38.5 -88q4 187 13.5 371.5t23.5 365.5q4 42 7.5 87.5t12.5 86.5q3 14 8 26.5t14 16.5l2 2q12 0 16.5 -8t4 -19.5t-3.5 -23t-6 -17.5q-20 -168 -35.5 -339.5t-26.5 -349.5
q-2 -42 -3 -89t-5 -91q-1 -14 -3 -27t-16 -16q-13 2 -20 12t-12 20q-17 30 -28.5 67l-22.5 72q-30 99 -53.5 201l-46.5 208l-21.5 104t-30.5 97zM314 722q-16 2 -24.5 10t-16.5 17q-23 -21 -36 -51q-4 -2 -7.5 -5t-11.5 -2q-5 3 -6 8t0.5 11t5 12.5t6.5 11.5q8 13 18.5 26
t25.5 18q10 1 16.5 -2.5t11.5 -9l9.5 -10.5t11.5 -8q9 0 14 2.5t9.5 6t8.5 7.5t10 6q7 -2 7.5 -6t-1.5 -8.5t-6 -9.5t-7 -8q-16 -16 -38 -16z" />
    <glyph glyph-name="Ograve" unicode="&#xd2;" 
d="M245 630q59 11 110 -3.5t81 -43.5q32 -30 48.5 -76.5t15.5 -104.5q0 -51 -9.5 -97.5t-23.5 -88.5q-14 -43 -30.5 -81.5t-36.5 -72.5q-31 -51 -66.5 -99t-86.5 -80q-17 -11 -38 -19t-48 -6q-24 3 -43.5 17.5t-32.5 31.5q-14 20 -21.5 42.5t-12.5 47.5q-6 27 -7 56
t0.5 58.5t5.5 57t10 50.5q25 102 56.5 193.5t75.5 172.5q-23 -8 -43.5 -16t-33.5 -25q-1 -5 1 -11t3 -11.5t0.5 -10t-5.5 -7.5q-8 -1 -10 6t-4 13q-2 10 -5 18.5t1 18.5q6 13 21.5 22.5l29.5 17.5q17 8 34.5 13.5t31.5 10.5q25 37 53.5 70t67.5 56q3 3 8 1.5t6 -5.5
q1 -5 -3 -9t-9 -7.5t-10 -6.5t-6 -5q-21 -19 -40 -40.5t-35 -47.5zM443 271q7 26 12 57t6 62t-3 61t-14 54q-20 47 -62 73.5t-112 22.5q-13 -1 -24 -3l-23 -4q-41 -72 -72 -155.5t-54 -174.5q-11 -43 -20 -94t-6 -105q3 -52 17 -95t48 -68q15 -9 30.5 -9t30.5 5.5t27.5 13.5
t21.5 16q69 63 118.5 149.5t78.5 193.5zM368 775q-14 4 -26 10.5l-25 13.5l-11 6.5t-12 7.5l-11 6.5t-7 11.5q2 8 6.5 10t10.5 0.5t12 -4.5t11 -6l21.5 -14l21.5 -15q5 -4 12 -7.5t5 -11.5q-1 -6 -8 -8z" />
    <glyph glyph-name="Oacute" unicode="&#xd3;" 
d="M245 630q59 11 110 -3.5t81 -43.5q32 -30 48.5 -76.5t15.5 -104.5q0 -51 -9.5 -97.5t-23.5 -88.5q-14 -43 -30.5 -81.5t-36.5 -72.5q-31 -51 -66.5 -99t-86.5 -80q-17 -11 -38 -19t-48 -6q-24 3 -43.5 17.5t-32.5 31.5q-14 20 -21.5 42.5t-12.5 47.5q-6 27 -7 56
t0.5 58.5t5.5 57t10 50.5q25 102 56.5 193.5t75.5 172.5q-23 -8 -43.5 -16t-33.5 -25q-1 -5 1 -11t3 -11.5t0.5 -10t-5.5 -7.5q-8 -1 -10 6t-4 13q-2 10 -5 18.5t1 18.5q6 13 21.5 22.5l29.5 17.5q17 8 34.5 13.5t31.5 10.5q25 37 53.5 70t67.5 56q3 3 8 1.5t6 -5.5
q1 -5 -3 -9t-9 -7.5t-10 -6.5t-6 -5q-21 -19 -40 -40.5t-35 -47.5zM443 271q7 26 12 57t6 62t-3 61t-14 54q-20 47 -62 73.5t-112 22.5q-13 -1 -24 -3l-23 -4q-41 -72 -72 -155.5t-54 -174.5q-11 -43 -20 -94t-6 -105q3 -52 17 -95t48 -68q15 -9 30.5 -9t30.5 5.5t27.5 13.5
t21.5 16q69 63 118.5 149.5t78.5 193.5zM309 837q6 2 10 -1t4 -8t-5.5 -10t-12 -9.5t-13 -8.5t-8.5 -7q-5 -2 -10 -7t-11 -10t-12 -9t-12 -4q-5 1 -8.5 4t-3.5 9q4 14 16 19.5t22 13.5q19 15 42 27q0 1 2 1z" />
    <glyph glyph-name="Ocircumflex" unicode="&#xd4;" 
d="M245 630q59 11 110 -3.5t81 -43.5q32 -30 48.5 -76.5t15.5 -104.5q0 -51 -9.5 -97.5t-23.5 -88.5q-14 -43 -30.5 -81.5t-36.5 -72.5q-31 -51 -66.5 -99t-86.5 -80q-17 -11 -38 -19t-48 -6q-24 3 -43.5 17.5t-32.5 31.5q-14 20 -21.5 42.5t-12.5 47.5q-6 27 -7 56
t0.5 58.5t5.5 57t10 50.5q25 102 56.5 193.5t75.5 172.5q-23 -8 -43.5 -16t-33.5 -25q-1 -5 1 -11t3 -11.5t0.5 -10t-5.5 -7.5q-8 -1 -10 6t-4 13q-2 10 -5 18.5t1 18.5q6 13 21.5 22.5l29.5 17.5q17 8 34.5 13.5t31.5 10.5q25 37 53.5 70t67.5 56q3 3 8 1.5t6 -5.5
q1 -5 -3 -9t-9 -7.5t-10 -6.5t-6 -5q-21 -19 -40 -40.5t-35 -47.5zM443 271q7 26 12 57t6 62t-3 61t-14 54q-20 47 -62 73.5t-112 22.5q-13 -1 -24 -3l-23 -4q-41 -72 -72 -155.5t-54 -174.5q-11 -43 -20 -94t-6 -105q3 -52 17 -95t48 -68q15 -9 30.5 -9t30.5 5.5t27.5 13.5
t21.5 16q69 63 118.5 149.5t78.5 193.5zM387 770q-5 -6 -10.5 -4.5t-11.5 6t-10.5 10.5t-7.5 9q-8 11 -13.5 19.5t-11.5 15.5q-12 -14 -21.5 -31t-28.5 -24q-15 3 -10.5 12t10.5 17q4 5 6.5 9l5.5 9q6 9 12 19t13 15q9 7 16 5.5t12.5 -7t10 -13.5t7.5 -14l9.5 -16.5
l9.5 -15.5q5 -5 9.5 -8.5t3.5 -12.5z" />
    <glyph glyph-name="Otilde" unicode="&#xd5;" 
d="M245 630q59 11 110 -3.5t81 -43.5q32 -30 48.5 -76.5t15.5 -104.5q0 -51 -9.5 -97.5t-23.5 -88.5q-14 -43 -30.5 -81.5t-36.5 -72.5q-31 -51 -66.5 -99t-86.5 -80q-17 -11 -38 -19t-48 -6q-24 3 -43.5 17.5t-32.5 31.5q-14 20 -21.5 42.5t-12.5 47.5q-6 27 -7 56
t0.5 58.5t5.5 57t10 50.5q25 102 56.5 193.5t75.5 172.5q-23 -8 -43.5 -16t-33.5 -25q-1 -5 1 -11t3 -11.5t0.5 -10t-5.5 -7.5q-8 -1 -10 6t-4 13q-2 10 -5 18.5t1 18.5q6 13 21.5 22.5l29.5 17.5q17 8 34.5 13.5t31.5 10.5q25 37 53.5 70t67.5 56q3 3 8 1.5t6 -5.5
q1 -5 -3 -9t-9 -7.5t-10 -6.5t-6 -5q-21 -19 -40 -40.5t-35 -47.5zM443 271q7 26 12 57t6 62t-3 61t-14 54q-20 47 -62 73.5t-112 22.5q-13 -1 -24 -3l-23 -4q-41 -72 -72 -155.5t-54 -174.5q-11 -43 -20 -94t-6 -105q3 -52 17 -95t48 -68q15 -9 30.5 -9t30.5 5.5t27.5 13.5
t21.5 16q69 63 118.5 149.5t78.5 193.5zM332 779q-15 4 -22.5 12.5t-14.5 19.5q-27 -20 -42 -47q-4 -2 -8 -4.5t-12 -0.5q-10 8 -3 20t14 22q9 12 21 23.5t28 15.5q10 0 16 -4.5t10 -10l8 -11.5t11 -9q9 -2 14.5 0.5t10 5.5l9.5 6.5t11 4.5q6 -2 6.5 -6.5t-2.5 -9t-7.5 -8.5
t-7.5 -7q-8 -7 -19 -10t-21 -2z" />
    <glyph glyph-name="Odieresis" unicode="&#xd6;" 
d="M245 630q59 11 110 -3.5t81 -43.5q32 -30 48.5 -76.5t15.5 -104.5q0 -51 -9.5 -97.5t-23.5 -88.5q-14 -43 -30.5 -81.5t-36.5 -72.5q-31 -51 -66.5 -99t-86.5 -80q-17 -11 -38 -19t-48 -6q-24 3 -43.5 17.5t-32.5 31.5q-14 20 -21.5 42.5t-12.5 47.5q-6 27 -7 56
t0.5 58.5t5.5 57t10 50.5q25 102 56.5 193.5t75.5 172.5q-23 -8 -43.5 -16t-33.5 -25q-1 -5 1 -11t3 -11.5t0.5 -10t-5.5 -7.5q-8 -1 -10 6t-4 13q-2 10 -5 18.5t1 18.5q6 13 21.5 22.5l29.5 17.5q17 8 34.5 13.5t31.5 10.5q25 37 53.5 70t67.5 56q3 3 8 1.5t6 -5.5
q1 -5 -3 -9t-9 -7.5t-10 -6.5t-6 -5q-21 -19 -40 -40.5t-35 -47.5zM443 271q7 26 12 57t6 62t-3 61t-14 54q-20 47 -62 73.5t-112 22.5q-13 -1 -24 -3l-23 -4q-41 -72 -72 -155.5t-54 -174.5q-11 -43 -20 -94t-6 -105q3 -52 17 -95t48 -68q15 -9 30.5 -9t30.5 5.5t27.5 13.5
t21.5 16q69 63 118.5 149.5t78.5 193.5zM289 814q5 2 9 -1t6 -5q5 -25 -13 -32q-26 -2 -24 23q3 7 7.5 11.5t14.5 3.5zM361 810q10 2 16.5 -5t4.5 -18q-1 -8 -7 -11.5t-13 -2.5t-12 6t-5 13q0 15 16 18z" />
    <glyph glyph-name="Oslash" unicode="&#xd8;" 
d="M425 628q2 -8 -1 -16t-6 -15q5 -3 9 -6.5l9 -7.5q32 -30 48.5 -76.5t15.5 -104.5q0 -51 -9.5 -97.5t-23.5 -88.5q-14 -43 -30.5 -81.5t-36.5 -72.5q-31 -51 -66.5 -99t-86.5 -80q-17 -11 -38 -19t-48 -6q-30 4 -56 27q-2 -5 -4.5 -10t-8.5 -6q-12 4 -11.5 15.5t4.5 22.5
q-14 20 -21.5 42.5t-12.5 47.5q-6 27 -7 56t0.5 58.5t5.5 57t10 50.5q25 102 56.5 193.5t75.5 172.5q-23 -8 -43.5 -16t-33.5 -25q-1 -5 1 -11t3 -11.5t0.5 -10t-5.5 -7.5q-8 -1 -10 6t-4 13q-2 10 -5 18.5t1 18.5q6 13 21.5 22.5l29.5 17.5q17 8 34.5 13.5t31.5 10.5
q25 37 53.5 70t67.5 56q3 3 8 1.5t6 -5.5q1 -5 -3 -9t-9 -7.5t-10 -6.5t-6 -5q-21 -19 -40 -40.5t-35 -47.5q44 8 83.5 2t70.5 -23q6 12 14 20q2 2 6 1.5t6 -2.5zM443 271q7 26 12 57t6 62t-3 61t-14 54q-8 17 -17.5 31.5t-22.5 25.5q-54 -130 -114 -252.5t-114 -250.5
q-16 -34 -30.5 -69l-28.5 -71q5 -5 9.5 -9t9.5 -8q15 -9 30.5 -9t30.5 5.5t27.5 13.5t21.5 16q69 63 118.5 149.5t78.5 193.5zM270 601q-13 -1 -24 -3l-23 -4q-41 -72 -72 -155.5t-54 -174.5q-11 -43 -20 -94t-6 -105q2 -34 8 -64t19 -54l9 23q102 255 223 500l26 53.5
t27 53.5q-22 13 -50 19.5t-63 4.5z" />
    <glyph glyph-name="Ugrave" unicode="&#xd9;" horiz-adv-x="625" 
d="M567 710q-39 -80 -74.5 -165.5l-70 -173l-69 -175t-71.5 -171.5q-26 -58 -55 -106q-8 -13 -21.5 -30.5t-31 -29.5t-37 -14.5t-39.5 14.5q-13 10 -22 28t-15 39.5t-9.5 45t-5.5 45.5q-5 51 -4 103.5t6 98.5q5 72 17 139.5t31 127.5l14.5 38.5t27.5 24.5q17 1 20 -10.5
t5 -28.5q1 -11 4.5 -21t-4.5 -13q-6 -1 -9.5 1t-5 5.5l-3 7t-3.5 5.5q-15 -47 -28 -103.5t-21 -118t-9.5 -126.5t4.5 -130q2 -21 5 -39.5t8 -38.5q2 -8 5 -17t7.5 -17.5t10 -14t12.5 -6.5q8 -1 14.5 3t12.5 10t11 12t9 10q27 35 48 76.5l42 83.5l62.5 150.5l63.5 156
l64.5 157l65.5 153.5q4 9 9.5 19.5t10.5 21.5q6 12 13 23.5t18 13.5q10 -1 14 -6t5.5 -12t0.5 -15.5t-1 -15.5q-4 -50 -12 -98l-15 -93q-29 -190 -50 -386t-30 -404q3 -4 6 -5t5 -6q1 -5 0 -12t-4 -12.5t-7.5 -9.5t-10.5 -3q-6 3 -8.5 9.5t-3 14.5t0 17t0.5 17q0 52 3 102.5
l6 98.5q9 203 34 389t54 366zM361 689q-14 4 -26 10.5l-25 13.5l-11 6.5t-12 7.5l-11 6.5t-7 11.5q2 8 6.5 10t10.5 0.5t12 -4.5t11 -6l21.5 -14l21.5 -15q5 -4 12 -7.5t5 -11.5q-1 -6 -8 -8z" />
    <glyph glyph-name="Uacute" unicode="&#xda;" horiz-adv-x="625" 
d="M567 710q-39 -80 -74.5 -165.5l-70 -173l-69 -175t-71.5 -171.5q-26 -58 -55 -106q-8 -13 -21.5 -30.5t-31 -29.5t-37 -14.5t-39.5 14.5q-13 10 -22 28t-15 39.5t-9.5 45t-5.5 45.5q-5 51 -4 103.5t6 98.5q5 72 17 139.5t31 127.5l14.5 38.5t27.5 24.5q17 1 20 -10.5
t5 -28.5q1 -11 4.5 -21t-4.5 -13q-6 -1 -9.5 1t-5 5.5l-3 7t-3.5 5.5q-15 -47 -28 -103.5t-21 -118t-9.5 -126.5t4.5 -130q2 -21 5 -39.5t8 -38.5q2 -8 5 -17t7.5 -17.5t10 -14t12.5 -6.5q8 -1 14.5 3t12.5 10t11 12t9 10q27 35 48 76.5l42 83.5l62.5 150.5l63.5 156
l64.5 157l65.5 153.5q4 9 9.5 19.5t10.5 21.5q6 12 13 23.5t18 13.5q10 -1 14 -6t5.5 -12t0.5 -15.5t-1 -15.5q-4 -50 -12 -98l-15 -93q-29 -190 -50 -386t-30 -404q3 -4 6 -5t5 -6q1 -5 0 -12t-4 -12.5t-7.5 -9.5t-10.5 -3q-6 3 -8.5 9.5t-3 14.5t0 17t0.5 17q0 52 3 102.5
l6 98.5q9 203 34 389t54 366zM347 792q6 2 10 -1t4 -8t-5.5 -10t-12 -9.5t-13 -8.5t-8.5 -7q-5 -2 -10 -7t-11 -10t-12 -9t-12 -4q-5 1 -8.5 4t-3.5 9q4 14 16 19.5t22 13.5q19 15 42 27q0 1 2 1z" />
    <glyph glyph-name="Ucircumflex" unicode="&#xdb;" horiz-adv-x="625" 
d="M567 710q-39 -80 -74.5 -165.5l-70 -173l-69 -175t-71.5 -171.5q-26 -58 -55 -106q-8 -13 -21.5 -30.5t-31 -29.5t-37 -14.5t-39.5 14.5q-13 10 -22 28t-15 39.5t-9.5 45t-5.5 45.5q-5 51 -4 103.5t6 98.5q5 72 17 139.5t31 127.5l14.5 38.5t27.5 24.5q17 1 20 -10.5
t5 -28.5q1 -11 4.5 -21t-4.5 -13q-6 -1 -9.5 1t-5 5.5l-3 7t-3.5 5.5q-15 -47 -28 -103.5t-21 -118t-9.5 -126.5t4.5 -130q2 -21 5 -39.5t8 -38.5q2 -8 5 -17t7.5 -17.5t10 -14t12.5 -6.5q8 -1 14.5 3t12.5 10t11 12t9 10q27 35 48 76.5l42 83.5l62.5 150.5l63.5 156
l64.5 157l65.5 153.5q4 9 9.5 19.5t10.5 21.5q6 12 13 23.5t18 13.5q10 -1 14 -6t5.5 -12t0.5 -15.5t-1 -15.5q-4 -50 -12 -98l-15 -93q-29 -190 -50 -386t-30 -404q3 -4 6 -5t5 -6q1 -5 0 -12t-4 -12.5t-7.5 -9.5t-10.5 -3q-6 3 -8.5 9.5t-3 14.5t0 17t0.5 17q0 52 3 102.5
l6 98.5q9 203 34 389t54 366zM396 725q-5 -6 -10.5 -4.5t-11.5 6t-10.5 10.5t-7.5 9q-8 11 -13.5 19.5t-11.5 15.5q-12 -14 -21.5 -31t-28.5 -24q-15 3 -10.5 12t10.5 17q4 5 6.5 9l5.5 9q6 9 12 19t13 15q9 7 16 5.5t12.5 -7t10 -13.5t7.5 -14l9.5 -16.5l9.5 -15.5
q5 -5 9.5 -8.5t3.5 -12.5z" />
    <glyph glyph-name="Udieresis" unicode="&#xdc;" horiz-adv-x="625" 
d="M567 710q-39 -80 -74.5 -165.5l-70 -173l-69 -175t-71.5 -171.5q-26 -58 -55 -106q-8 -13 -21.5 -30.5t-31 -29.5t-37 -14.5t-39.5 14.5q-13 10 -22 28t-15 39.5t-9.5 45t-5.5 45.5q-5 51 -4 103.5t6 98.5q5 72 17 139.5t31 127.5l14.5 38.5t27.5 24.5q17 1 20 -10.5
t5 -28.5q1 -11 4.5 -21t-4.5 -13q-6 -1 -9.5 1t-5 5.5l-3 7t-3.5 5.5q-15 -47 -28 -103.5t-21 -118t-9.5 -126.5t4.5 -130q2 -21 5 -39.5t8 -38.5q2 -8 5 -17t7.5 -17.5t10 -14t12.5 -6.5q8 -1 14.5 3t12.5 10t11 12t9 10q27 35 48 76.5l42 83.5l62.5 150.5l63.5 156
l64.5 157l65.5 153.5q4 9 9.5 19.5t10.5 21.5q6 12 13 23.5t18 13.5q10 -1 14 -6t5.5 -12t0.5 -15.5t-1 -15.5q-4 -50 -12 -98l-15 -93q-29 -190 -50 -386t-30 -404q3 -4 6 -5t5 -6q1 -5 0 -12t-4 -12.5t-7.5 -9.5t-10.5 -3q-6 3 -8.5 9.5t-3 14.5t0 17t0.5 17q0 52 3 102.5
l6 98.5q9 203 34 389t54 366zM295 699q5 2 9 -1t6 -5q5 -25 -13 -32q-26 -2 -24 23q3 7 7.5 11.5t14.5 3.5zM367 695q10 2 16.5 -5t4.5 -18q-1 -8 -7 -11.5t-13 -2.5t-12 6t-5 13q0 15 16 18z" />
    <glyph glyph-name="Yacute" unicode="&#xdd;" horiz-adv-x="581" 
d="M538 655q2 1 1 1t-1 -1q-57 -68 -105 -143l-99 -152l-72 -112.5t-78 -110.5l-12 -17t-16 -19t-19.5 -15t-22.5 -5q-20 2 -27 23.5t-10 44.5q-3 26 -2.5 53t2.5 50q7 127 24 241.5t43 222.5l4.5 20t7 20.5t12.5 15.5t20 6q5 -2 8 -4.5t5 -4.5q5 -9 1.5 -18.5t-5.5 -19.5
q-1 -7 0 -12.5t0 -11.5t-5 -8.5t-6 -7.5q-14 -68 -27 -138.5t-24 -144.5l-16 -110.5t-10 -115.5q-1 -19 -0.5 -39t9.5 -35q12 3 20.5 11t15.5 16q23 26 42.5 53.5l38.5 55.5l136.5 211.5t142.5 206.5q8 8 16 19t19 10q9 0 13 -6t5.5 -14.5t1 -18t-1.5 -18.5
q-7 -54 -20.5 -99.5l-27.5 -90.5q-38 -120 -82 -234.5t-84 -232.5l-38.5 -121t-29.5 -128q5 -2 11.5 -2.5t7.5 -7.5q0 -11 -1.5 -21.5t-5.5 -18.5t-12 -13t-20 -5q-8 3 -12.5 9.5t-6 14.5t-1.5 17.5v18.5q1 20 3.5 39.5l4.5 34.5q9 52 23 100t29.5 93.5t32.5 90l33 88.5
l43.5 119l44.5 119t42 121.5t37 127.5v2zM397 791q6 2 10 -1t4 -8t-5.5 -10t-12 -9.5t-13 -8.5t-8.5 -7q-5 -2 -10 -7t-11 -10t-12 -9t-12 -4q-5 1 -8.5 4t-3.5 9q4 14 16 19.5t22 13.5q19 15 42 27q0 1 2 1z" />
    <glyph glyph-name="Ydieresis" unicode="&#x178;" horiz-adv-x="581" 
d="M538 655q2 1 1 1t-1 -1q-57 -68 -105 -143l-99 -152l-72 -112.5t-78 -110.5l-12 -17t-16 -19t-19.5 -15t-22.5 -5q-20 2 -27 23.5t-10 44.5q-3 26 -2.5 53t2.5 50q7 127 24 241.5t43 222.5l4.5 20t7 20.5t12.5 15.5t20 6q5 -2 8 -4.5t5 -4.5q5 -9 1.5 -18.5t-5.5 -19.5
q-1 -7 0 -12.5t0 -11.5t-5 -8.5t-6 -7.5q-14 -68 -27 -138.5t-24 -144.5l-16 -110.5t-10 -115.5q-1 -19 -0.5 -39t9.5 -35q12 3 20.5 11t15.5 16q23 26 42.5 53.5l38.5 55.5l136.5 211.5t142.5 206.5q8 8 16 19t19 10q9 0 13 -6t5.5 -14.5t1 -18t-1.5 -18.5
q-7 -54 -20.5 -99.5l-27.5 -90.5q-38 -120 -82 -234.5t-84 -232.5l-38.5 -121t-29.5 -128q5 -2 11.5 -2.5t7.5 -7.5q0 -11 -1.5 -21.5t-5.5 -18.5t-12 -13t-20 -5q-8 3 -12.5 9.5t-6 14.5t-1.5 17.5v18.5q1 20 3.5 39.5l4.5 34.5q9 52 23 100t29.5 93.5t32.5 90l33 88.5
l43.5 119l44.5 119t42 121.5t37 127.5v2zM337 781q5 2 9 -1t6 -5q5 -25 -13 -32q-26 -2 -24 23q3 7 7.5 11.5t14.5 3.5zM409 777q10 2 16.5 -5t4.5 -18q-1 -8 -7 -11.5t-13 -2.5t-12 6t-5 13q0 15 16 18z" />
    <glyph glyph-name="Zcaron" unicode="&#x17d;" horiz-adv-x="630" 
d="M697 705q-33 -2 -62.5 -13l-58.5 -22l-56 -22l-56 -23l-111 -46t-125 -33q-5 -3 -3.5 -7.5t-5.5 -6.5t-9.5 3t-8.5 7q-5 4 -8.5 6t-4.5 8q0 7 6.5 12t15.5 8.5t18 6t15 4.5q49 16 95 35.5l90.5 39l90 38t94.5 33.5l34.5 10t34.5 6q32 3 48 -12t5 -45q-11 -31 -35 -57.5
l-46 -51.5l-136 -149.5l-135 -146.5l-131.5 -148.5t-126.5 -160.5l-18.5 -27.5t-18.5 -30.5q-5 -9 -10.5 -20t-10 -23.5t-6 -26t2.5 -26.5q6 -19 21 -26t33.5 -6t38.5 6t36 10q57 17 112 36.5t115 33.5q65 16 128.5 23t133.5 13l45.5 4t45.5 -4q5 -2 9.5 -6.5t6.5 -10.5
t1 -12.5t-7 -10.5q-8 -5 -14 0t-14 4q-132 -8 -254 -34t-239 -57l-36 -9.5t-44 -9t-45.5 -4.5t-40.5 5q-20 7 -32 21t-17 33q-5 23 1 44t14 39q16 37 36.5 67.5l40.5 60.5q44 60 89.5 116l92.5 112l96.5 109l96.5 108l48.5 54.5t47.5 54.5l47.5 55t39.5 62zM515 829
q-4 -11 -9 -22.5l-10 -23.5q-3 -8 -8.5 -17.5t-12 -16t-15 -8.5t-18.5 6q-4 3 -10 11t-11 17t-8 18.5t0 15.5q9 6 15.5 2.5t12.5 -10.5t10.5 -15.5t9.5 -12.5q6 4 10.5 13l9.5 19q3 5 7 12.5t8.5 12.5t9 5.5t9.5 -6.5z" />
    <glyph glyph-name="zcaron" unicode="&#x17e;" horiz-adv-x="281" 
d="M-22 127q65 12 130.5 27.5t140.5 20.5q18 1 36.5 0t35.5 -4q5 -2 11 -3t5 -8q-1 -8 -7.5 -7t-11.5 2q-44 6 -90.5 0t-84.5 -13l-46 -10l-45 -10q-23 -5 -46 -11.5t-47 -5.5q-9 3 -11 9.5t0.5 13.5t7 14.5t8.5 12.5q42 51 92.5 95.5t91.5 92.5q-30 -11 -56.5 -23.5
l-53.5 -26.5q-8 -5 -17.5 -10t-20.5 -5q-12 6 -12.5 13t5.5 14t15 13.5l15 10.5q12 8 23 14.5t21 11.5q24 12 49 23t55 17q25 3 35 -14q4 -9 2.5 -18t-5.5 -16q-9 -16 -24.5 -30.5l-29.5 -27.5l-87.5 -81t-83.5 -81zM150 505q-4 -11 -9 -22.5l-10 -23.5q-3 -8 -8.5 -17.5
t-12 -16t-15 -8.5t-18.5 6q-4 3 -10 11t-11 17t-8 18.5t0 15.5q9 6 15.5 2.5t12.5 -10.5t10.5 -15.5t9.5 -12.5q6 4 10.5 13l9.5 19q3 5 7 12.5t8.5 12.5t9 5.5t9.5 -6.5z" />
    <glyph glyph-name="Scaron" unicode="&#x160;" horiz-adv-x="595" 
d="M420 179q21 17 41 35t43 34q16 13 33 24.5t32 25.5q6 2 11.5 8t12.5 0q2 -9 -4.5 -13t-11.5 -9q-37 -31 -76 -59.5t-72 -63.5q10 -25 9.5 -61.5t-9.5 -61.5q-17 -55 -46.5 -96.5t-66.5 -76.5l-20 -16t-21 -15l-25 -11t-29 -1q-12 4 -15.5 13t-2.5 20t5 22.5t8 20.5
q14 34 34 63l39 56q28 39 56.5 74.5l56.5 68.5q-18 36 -51.5 56t-73.5 34t-83 25t-80 29q-24 11 -44 29t-22 49q-2 22 3.5 41t13.5 36q23 49 54.5 89t64.5 78q23 25 47 48.5t50 44.5l59 38t73 24q24 2 42 -5.5t31 -20.5t21.5 -31t14.5 -37q12 -38 12.5 -89.5t-1.5 -99.5
q-1 -7 4 -9.5t3 -9.5q2 -7 -2.5 -7.5t-5.5 -5.5q-1 -10 -4.5 -17.5t-11.5 -10.5h-7q-10 1 -13.5 10t-4 21.5t1 25.5t2.5 23q2 26 3 54t-0.5 54.5t-6.5 50t-15 40.5q-5 8 -11.5 15t-14.5 12l-10.5 4t-11.5 3q-22 0 -41 -5t-35.5 -13.5t-31 -19l-27.5 -20.5q-52 -41 -91 -86
q-22 -23 -41 -47.5t-37 -50.5l-16.5 -26t-16.5 -29q-5 -9 -9.5 -21t-6.5 -24.5t-1 -25t7 -22.5q14 -20 36 -30.5t46 -18.5q36 -13 74 -23.5t73 -24.5t63.5 -34t46.5 -51zM298 -118q20 19 39 40.5t35 47.5q20 33 33.5 74.5t5.5 92.5q0 1 -1 1q-2 -2 -2 -3q-41 -48 -79 -98
t-71 -106q-9 -19 -20.5 -39t-8.5 -46q23 0 38 12.5t31 23.5zM456 906q-4 -11 -9 -22.5l-10 -23.5q-3 -8 -8.5 -17.5t-12 -16t-15 -8.5t-18.5 6q-4 3 -10 11t-11.5 17t-8.5 18.5t0 15.5q9 6 16 2.5t13 -10.5t10.5 -16t9.5 -13q6 5 10.5 14t9.5 18l6.5 13t8 12.5t9.5 6
t10 -6.5z" />
    <glyph glyph-name="scaron" unicode="&#x161;" horiz-adv-x="344" 
d="M115 379q-19 -8 -34.5 -22.5t-29.5 -29.5q-14 -20 -26 -41t-10 -56q1 -22 9 -41t18 -36.5t20.5 -34t16.5 -33.5q8 6 16 14l16 16t17 15t17 15l33.5 31t34.5 29l60 52t66 48q4 2 9.5 6t10.5 -2q1 -7 -4.5 -10.5l-10.5 -6.5q-5 -4 -9.5 -7t-9.5 -6q-28 -21 -54 -43.5
l-52 -44.5l-67 -62t-64 -65q11 -26 17.5 -58t-6.5 -60q-9 -21 -32 -40t-52 -20q-14 0 -26 7q-3 2 -9 8q-2 3 -3.5 6.5t-2.5 8.5q-1 29 10 49t24 37q11 15 22.5 28l22.5 26q-10 21 -23 41t-25 42q-12 21 -22 45.5t-10 53.5q0 35 13.5 61.5t30.5 48.5q16 19 40 37
q7 5 16.5 10.5t19 9t19.5 3.5t18 -7q3 -2 4 -9.5t0 -15.5t-3 -14t-5 -6q-4 0 -5.5 2.5t-2 6.5l-1 8t-2.5 6zM20 -19q-5 -5 -8.5 -12l-8.5 -17q-3 -6 -5 -14t-1.5 -15t5.5 -10.5t17 -1.5q20 6 37 21t19 41q2 18 -2.5 33t-9.5 29q-1 1 -1 0l-22 -26t-20 -28zM131 530
q-4 -11 -9 -22.5l-10 -23.5q-3 -8 -8.5 -17.5t-12 -16t-15 -8.5t-18.5 6q-4 3 -10 11t-11.5 17t-8.5 18.5t0 15.5q9 6 16 2.5t13 -10.5t10.5 -16t9.5 -13q6 5 10.5 14t9.5 18l6.5 13t8 12.5t9.5 6t10 -6.5z" />
    <glyph glyph-name="AE" unicode="&#xc6;" horiz-adv-x="650" 
d="M323 -148q29 3 55.5 15t47.5 23q35 17 67 36.5t64 36.5l92.5 58.5t97.5 57.5q8 4 16 7t20 8q2 1 8 3t12 3t11 1t7 -4q1 -4 -3 -7t-9.5 -5t-11 -3.5t-8.5 -2.5q-29 -11 -52.5 -26l-47.5 -29l-126 -80.5t-130 -76.5l-43 -21.5t-48 -17.5l-17 -3l2 -50q0 -8 1 -18t0 -19.5
t-4 -16.5t-10 -10h-4q-11 2 -11.5 11t-1.5 17l-8 85q-41 5 -64 35t-24 76q-1 29 5.5 56t15.5 52t19.5 48t24.5 45q-5 80 -3 163q-47 -3 -90.5 -8.5t-86.5 -12.5q-15 -46 -29 -95t-22 -102q-2 -7 -2.5 -14.5t-7.5 -11.5q-8 1 -11 7t-3 14t1.5 16.5l2.5 14.5q6 45 17 86l22 79
q-17 -2 -35 -5.5t-36 -6.5q-5 -1 -11 -2t-9 4q-2 8 4.5 10t11.5 4q18 5 39.5 8.5l40.5 6.5q27 81 58.5 157t69.5 147l14 28.5t15 26.5t18.5 21t24.5 12q2 0 6 0.5t8 -0.5q17 -9 22 -29t7 -43q3 -51 3 -104q31 49 72 91.5t81 77.5q20 14 44.5 33.5t54.5 21.5q27 2 40.5 -15.5
t17.5 -42.5q2 -29 -3.5 -51t-13.5 -42l-5 -12.5t-11 -4.5q-8 2 -5 10t5 14q6 19 10 45.5t-2 46.5q-3 8 -7.5 14.5t-12.5 9.5h-2q-33 -4 -52.5 -21t-40.5 -32l-37.5 -35t-35.5 -38q-23 -26 -48.5 -58t-42.5 -70q-2 -5 -3.5 -9.5t-3.5 -9.5v-41q0 -2 2 -4q10 -13 30.5 -18
t45 -5t50 2.5t46.5 5.5q7 1 15.5 2.5t16 1.5t13 -3t6.5 -11q2 -12 -6.5 -18t-16.5 -11q-25 -15 -46.5 -32t-41.5 -36q-29 -23 -53 -50.5t-46 -57.5l-5.5 -7.5t-4.5 -7.5q2 -73 6 -144.5zM91 295q43 6 85.5 11t86.5 9q-2 81 -1 163.5t-5 159.5q0 1 -1 1q-54 -74 -93 -161.5
t-72 -182.5zM447 332q-37 -5 -76 -4t-67 15q0 -6 0.5 -12t0.5 -12q20 2 43 1.5t46 0.5q6 0 13 1t9 -7q-2 -7 -9.5 -6.5t-14.5 -0.5q-20 -1 -43.5 -2t-43.5 -3q0 -27 0.5 -54t1.5 -54q31 40 66.5 73.5t73.5 63.5zM269 70q-6 -12 -10.5 -25l-9.5 -27q-6 -18 -10.5 -41.5
t-3.5 -46.5t9 -42t26 -28q9 -4 17 -5l-9.5 107t-8.5 108z" />
    <glyph glyph-name="ae" unicode="&#xe6;" horiz-adv-x="382" 
d="M158 268q-4 -5 -7 -15l-3 -32q2 -13 10 -19q25 -10 49 -1t44 18q32 15 55 32q20 12 39 26l38 28l12.5 10t14.5 3q4 -10 -3.5 -16t-12.5 -11q-7 -6 -14.5 -11t-12.5 -10q-18 -14 -39 -28.5l-44 -29.5q-22 -14 -45.5 -27.5t-51.5 -16.5q-26 -3 -43 8q-1 -9 -1.5 -18.5
t-0.5 -18.5v-18t-1 -22t-3.5 -19.5t-8.5 -8.5q-7 0 -10.5 6.5t-5 16t-1.5 19.5t-1 16q-3 40 0 79.5t7 77.5q-4 4 -4 10q3 3 6 3q2 9 2.5 18.5t1.5 18.5q-19 -25 -37 -54l-36 -56l-27 -41t-32 -39q-6 -7 -14 -12.5t-19 -2.5q-11 5 -14 22q3 45 18.5 87t35.5 74q7 11 15.5 22
t18.5 16q19 10 33.5 -1.5t10.5 -36.5q5 4 11.5 16t14 24.5t16 22.5t17.5 11q4 0 7 -1l6 -2q6 -6 10 -19l-2 -44q11 14 25 25t31 15q11 2 20.5 -3t12.5 -16q1 -16 -6.5 -28.5t-17.5 -20.5q-12 -11 -27.5 -18t-36.5 -8zM52 334q0 1 -1 1q-3 -1 -5.5 -2.5t-5.5 -2.5
q-14 -16 -25 -35.5t-20 -40.5q-8 -21 -15.5 -44.5t-9.5 -50.5q28 28 50.5 64.5l45.5 71.5q-5 8 -5 21.5t-9 17.5zM172 294q17 7 30 17q6 5 12 11.5t5 14.5q-16 -6 -27.5 -18t-19.5 -25z" />
    <glyph glyph-name="oe" unicode="&#x153;" horiz-adv-x="331" 
d="M102 267q-4 -6 -6.5 -15t-3.5 -19t1.5 -18.5t8.5 -13.5q25 -10 49 -1t44 18q32 15 55 32q20 12 39 26l38 28l12.5 10t14.5 3q4 -10 -3.5 -16t-12.5 -11q-7 -6 -14.5 -11t-12.5 -10q-18 -14 -39 -28.5l-44 -29.5q-22 -14 -45.5 -27.5t-51.5 -16.5q-35 -5 -55 17
q-2 -4 -8 -10q-10 -8 -22 -14.5t-26 -6.5q-24 0 -38 15.5t-16 38.5q-2 32 9 58.5t22 47.5q-5 18 -0.5 33.5t21.5 17.5q5 0 9 -2.5t7 -2.5q5 0 9 2.5t7 2.5q11 0 18 -8t3 -18q-6 -6 -13 0q15 -18 22 -44q13 19 32 40t45 27q11 2 20.5 -3t12.5 -16q1 -16 -6.5 -28.5
t-17.5 -20.5q-12 -11 -27.5 -18t-36.5 -8zM37 323q-10 -17 -21.5 -41t-13.5 -51q-2 -14 0.5 -27t11.5 -18t18.5 -1.5t16.5 8.5q8 8 13 23v1q-1 21 3 37q-2 21 -9 40.5t-17 30.5q0 1 -1 0t-1 -2zM116 293q17 7 30 17q6 5 12 11.5t5 14.5q-16 -6 -27.5 -18t-19.5 -25z" />
    <glyph glyph-name="OE" unicode="&#x152;" horiz-adv-x="761" 
d="M245 630q59 11 110 -3.5t81 -43.5q18 -18 31 -41q26 30 53 57t54 50q20 14 44.5 33.5t54.5 21.5q27 2 40.5 -15.5t17.5 -42.5q2 -29 -3.5 -51t-13.5 -42l-5 -12.5t-11 -4.5q-8 2 -5 10t5 14q6 19 10 45.5t-2 46.5q-3 8 -7.5 14.5t-12.5 9.5h-2q-33 -4 -52.5 -21
t-40.5 -32l-37.5 -35t-35.5 -38q-8 -10 -17 -20l-18 -21q17 -48 17 -107q0 -17 -1.5 -34t-3.5 -33q25 -1 51 2t48 6q7 1 15.5 2.5t16 1.5t13 -3t6.5 -11q2 -12 -6.5 -18t-16.5 -11q-25 -15 -46.5 -32t-41.5 -36q-29 -23 -53 -50.5t-46 -57.5q-2 -2 -4 -6l-15.5 -31
t-15.5 -29l-10.5 -18t-11.5 -17q-4 -9 -7 -18l-6 -18q-6 -18 -10.5 -41.5t-3.5 -46.5t9 -42t26 -28q21 -9 42.5 -8.5t42 6.5t38.5 15l33 17q35 17 67 36.5t64 36.5l92.5 58.5t97.5 57.5q8 4 16 7t20 8q2 1 8 3t12 3t11 1t7 -4q1 -4 -3 -7t-9.5 -5t-11 -3.5t-8.5 -2.5
q-29 -11 -52.5 -26l-47.5 -29l-126 -80.5t-130 -76.5l-43 -21.5t-48 -17.5q-32 -8 -57.5 -3.5t-44 19.5t-28.5 38t-11 53q-1 18 2 38q-32 -36 -72 -63q-17 -11 -38 -19t-48 -6q-24 3 -43.5 17.5t-32.5 31.5q-14 20 -21.5 42.5t-12.5 47.5q-6 27 -7 56t0.5 58.5t5.5 57
t10 50.5q25 102 56.5 193.5t75.5 172.5q-23 -8 -43.5 -16t-33.5 -25q-1 -5 1 -11t3 -11.5t0.5 -10t-5.5 -7.5q-8 -1 -10 6t-4 13q-2 10 -5 18.5t1 18.5q6 13 21.5 22.5l29.5 17.5q17 8 34.5 13.5t31.5 10.5q25 37 53.5 70t67.5 56q3 3 8 1.5t6 -5.5q1 -5 -3 -9t-9 -7.5
t-10 -6.5t-6 -5q-21 -19 -40 -40.5t-35 -47.5zM443 271l8 34q-23 5 -40 16t-24 31q-5 17 -4 33t5.5 31t11.5 28.5t14 24.5q6 11 12.5 20.5l14.5 20.5q-20 45 -61.5 70t-109.5 21q-13 -1 -24 -3l-23 -4q-41 -72 -72 -155.5t-54 -174.5q-11 -43 -20 -94t-6 -105q3 -52 17 -95
t48 -68q15 -9 30.5 -9t30.5 5.5t27.5 13.5t21.5 16q69 64 121 153l7 14q42 79 69 176zM454 471q-8 -11 -15 -23.5t-12 -25.5t-9 -31.5t4 -32.5q5 -8 14 -12.5t20 -6.5q5 33 5 67.5t-7 64.5zM563 305q-18 -2 -36.5 -3.5t-36.5 -0.5l-10 -40.5t-11 -39.5q22 23 45.5 43.5z" />
    <glyph glyph-name="braceleft" unicode="{" horiz-adv-x="1139" 
d="M1101 331q-8 -3 -12 1.5t-12 6.5q-14 3 -30 3h-33q-115 0 -222.5 -9.5t-208.5 -23.5l-235 -34t-223 -38q-2 -1 -0.5 -5.5t-3.5 -5.5q-8 -1 -19 1t-26 1q-9 -1 -23 -3t-16 8q-2 6 3 10t12.5 6t15 3t11.5 2q143 33 294.5 57.5t312.5 38.5q60 5 120 7.5t123 4.5q20 2 51.5 2
t54.5 -2q11 0 23.5 -0.5t23.5 -3.5q9 -3 17.5 -9.5t1.5 -17.5z" />
    <glyph glyph-name="braceright" unicode="}" horiz-adv-x="1479" 
d="M1395 372q-95 4 -185 1t-176 -11.5t-170 -20l-167 -23.5l-247.5 -37l-246.5 -38q-28 -5 -59.5 -9.5l-64.5 -9.5q-8 -1 -19.5 -3t-13.5 10q-1 7 6.5 11.5t17.5 6.5t21 3t17 2l403 63.5t410 55.5q57 7 114.5 12t119.5 8q49 2 95.5 3t97.5 -1q14 -1 27 -1t26 -2
q11 -2 23.5 -3.5t17.5 -12.5q1 -10 -6 -14.5t-16 -4.5t-16.5 4t-8.5 11z" />
    <glyph glyph-name="colon" unicode=":" horiz-adv-x="172" 
d="M89 320q-1 -6 -6.5 -9.5t-11.5 -3t-11 4.5t-4 12t6.5 11.5t11.5 2.5t10.5 -5.5t4.5 -12.5zM65 200q8 2 13.5 -2t6.5 -11q1 -8 -4 -12.5t-11.5 -5t-12 3.5t-5.5 13q2 13 13 14z" />
    <glyph glyph-name="exclamdown" unicode="&#xa1;" horiz-adv-x="159" 
d="M66 114q-1 -1 -2 -1q-11 -1 -11.5 8t1.5 17q3 72 2.5 146t2.5 148q1 11 1.5 23t2.5 23q2 10 2.5 21.5t12.5 13.5q12 -1 13 -12.5t2 -21.5q3 -33 2 -70.5t-2 -70.5q-2 -47 -5 -93t-8 -87q-2 -13 -3 -25t-9 -19h-2zM79 642q-8 -2 -12 2t-5 9q-2 10 5 17.5t15 9.5t15 -3
t7 -19q-3 -3 -4 -7q-5 -3 -10.5 -5z" />
    <glyph glyph-name="questiondown" unicode="&#xbf;" horiz-adv-x="282" 
d="M219 552q-1 5 -6 5.5t-3 7.5q1 8 9 10t17 0q14 -10 10.5 -29t-7.5 -32q-14 -46 -35 -86t-43 -78l-45.5 -74.5t-40.5 -80.5l-5 -14.5t-4.5 -17t0 -16.5t7.5 -13q17 -2 31 3.5t27 12.5q25 14 45 30.5t39 38.5l18 21.5t13 23.5q2 5 1 10t4 8q6 2 9.5 -0.5t5 -7.5t0.5 -10.5
t-3 -9.5q-2 -9 -6.5 -16t-9.5 -14q-23 -29 -50 -55t-62 -44q-11 -6 -25.5 -11t-29 -6t-26.5 4t-18 20q-8 22 -1.5 45.5t14.5 40.5q15 38 36 73l40 67l52 92t42 102zM246 698q6 -6 7.5 -15t-2.5 -16t-10.5 -9t-13 0t-11.5 7.5t-5 12.5q0 14 11.5 20.5t23.5 -0.5z" />
    <glyph glyph-name="minus" unicode="&#x2212;" horiz-adv-x="265" 
d="M34 296q0 9 5.5 13t14 5.5t18 2t18.5 0.5q9 1 18.5 1.5t17.5 0.5q11 1 21.5 1t18.5 1q12 1 25.5 0.5t15.5 -10.5q-2 -11 -15 -11.5t-24 -0.5q-25 -2 -47.5 -4t-46.5 -5q-11 -2 -23 -3.5t-17 9.5z" />
    <glyph glyph-name="dotlessi" unicode="&#x131;" horiz-adv-x="172" 
d="M16 112q18 4 29.5 16t21.5 25q11 13 20.5 26t18.5 27q10 14 18.5 27.5l17.5 27.5l9.5 15t9.5 13t8.5 14.5t14.5 6.5q4 -7 -2.5 -13.5t-9.5 -12.5q-11 -21 -24 -40.5t-25 -40.5l-33.5 -52t-38.5 -48q-8 -7 -18 -13.5t-27 -3.5q-6 4 -10 6q-12 10 -17 31.5t-5 47t3.5 51.5
t7.5 44l5 21.5t8 22.5t12.5 14t18.5 -3q4 -8 4 -17q0 -5 -3 -5.5t-4 -3.5q-7 -20 -11 -42t-7 -48q-2 -23 -2.5 -49.5t10.5 -43.5z" />
    <glyph glyph-name="a" unicode="a" horiz-adv-x="339" 
d="M362 325q2 -5 -2 -8.5t-7 -5.5q-9 -10 -17.5 -20.5l-17.5 -21.5l-21.5 -30l-21.5 -30l-21 -29l-22 -30q-14 -19 -31 -35.5t-45 -21.5q-11 0 -18 4.5t-12 11.5q-10 19 -11.5 43t0.5 49.5t5.5 51t4.5 48.5q-23 -20 -45 -47.5t-50 -48.5q-12 -8 -25.5 -15.5t-30.5 -5.5
q-5 2 -9 4t-7 5q-7 10 -8 20q1 30 15.5 59t32.5 44q12 11 30.5 13.5t29.5 -14.5q2 -3 4.5 -8t3.5 -10.5t0.5 -10t-4.5 -5.5q-6 -2 -8.5 2t-4.5 9t-4.5 9.5t-8.5 4.5q-6 1 -12 -3t-11 -9.5t-8.5 -12t-6.5 -10.5q-7 -13 -12 -25t-5 -30q14 2 24 9.5t19 15.5q19 16 35 32.5
l34 35.5l17 19t20 14q1 0 1 0.5t1 0.5q10 0 14 -2q13 -11 11 -32l-4 -42l-6 -49.5t-3 -52.5q0 -11 1 -23.5t10 -20.5q22 5 34.5 18t26.5 26q25 29 47 59l45 59q6 8 12 14.5t12 14.5q6 4 14 12.5t16 0.5z" />
    <glyph glyph-name="b" unicode="b" horiz-adv-x="321" 
d="M88 539q-4 -2 -7.5 -0.5t-5.5 4.5q-23 -69 -32.5 -150.5t-15.5 -167.5q14 23 35 50t47 44q14 9 33.5 15.5t35.5 -7.5q15 -12 17.5 -38t-5.5 -49q23 15 52.5 32.5t60.5 30.5q3 1 9.5 4t13 5t11.5 2t6 -5q2 -8 -7 -10.5t-11 -4.5q-78 -35 -144 -86q-16 -44 -40.5 -83.5
t-54.5 -71.5q-14 -14 -29 -25t-37 -15v-20t-2.5 -22.5t-8 -17t-16.5 -3.5q-7 1 -10.5 8.5t-5 18t-1.5 22v22.5q1 21 4 41t5 38q2 17 1.5 34t0.5 34q5 81 13 160t25 151q3 13 7 26.5t9 27.5q3 7 6.5 16t9 16t12.5 9.5t16 -3.5q4 -5 6 -15.5t-3 -16.5zM158 216l7 21.5t5.5 26
t-0.5 25.5t-11 19q-2 2 -5.5 1.5t-6.5 -0.5q-1 0 -1 -0.5t-1 -0.5q-26 -10 -43 -28.5t-32 -40.5q-8 -9 -14.5 -21l-12.5 -24l-11.5 -25t-8.5 -27q-2 -16 -0.5 -32t-0.5 -35q29 38 63.5 73.5t72.5 67.5zM141 174q-33 -31 -63.5 -64t-52.5 -75q21 10 37 26.5t30 33.5
q14 18 26.5 37.5t22.5 41.5v0z" />
    <glyph glyph-name="c" unicode="c" horiz-adv-x="219" 
d="M72 297q-7 0 -8.5 5t-6.5 7q-16 -6 -28.5 -18.5t-22.5 -29.5q-8 -14 -16.5 -34t-6.5 -40q2 -14 10 -18q24 -2 39.5 8.5t32.5 18.5l57 42l27.5 23t26.5 24q15 12 26 24q8 4 13.5 12t16.5 6q6 -10 -2 -18t-13 -14q-19 -20 -40.5 -39.5l-41.5 -37.5l-27.5 -23.5t-30.5 -24.5
q-11 -8 -24.5 -16.5t-28.5 -13.5t-30.5 -4t-28.5 13q-11 13 -13 29t1 33.5t9.5 33.5t14.5 29q13 21 29 37t39 24q2 0 2 0.5t1 0.5q10 3 17.5 -1t11.5 -11t3 -14.5t-8 -12.5z" />
    <glyph glyph-name="quoteleft" unicode="&#x2018;" horiz-adv-x="123" 
d="M79 625q-2 -23 -4.5 -47.5t-0.5 -47.5q-4 -6 -7 -7q-11 -2 -15 7t-5 19q0 11 1 27t3 30t4.5 28t10.5 16q11 4 16 -6.5t-3 -18.5z" />
    <glyph glyph-name="quoteright" unicode="&#x2019;" horiz-adv-x="123" 
d="M79 625q-2 -23 -4.5 -47.5t-0.5 -47.5q-4 -6 -7 -7q-11 -2 -15 7t-5 19q0 11 1 27t3 30t4.5 28t10.5 16q11 4 16 -6.5t-3 -18.5z" />
    <glyph glyph-name="quotedblleft" unicode="&#x201c;" horiz-adv-x="195" 
d="M137 467h-7q-5 5 -6.5 12.5t-2.5 15.5q-2 25 -2.5 55t1.5 56q-9 -15 -20 -31.5t-21 -33.5q-3 -5 -6.5 -11.5t-11.5 -6.5q-8 2 -11.5 9.5t-4.5 17.5t-1.5 21t-1.5 20q-2 1 -5 1.5t-5 2.5q-1 13 1.5 24.5t11.5 16.5q12 0 17.5 -7t7.5 -18.5t1.5 -24.5t0.5 -25
q18 19 30.5 46.5t26.5 51.5q5 2 9 0t6 -5q-1 -38 -4.5 -81.5t1.5 -84.5q1 -6 1.5 -12.5t-5.5 -8.5z" />
    <glyph glyph-name="quotedblright" unicode="&#x201d;" horiz-adv-x="195" 
d="M137 467h-7q-5 5 -6.5 12.5t-2.5 15.5q-2 25 -2.5 55t1.5 56q-9 -15 -20 -31.5t-21 -33.5q-3 -5 -6.5 -11.5t-11.5 -6.5q-8 2 -11.5 9.5t-4.5 17.5t-1.5 21t-1.5 20q-2 1 -5 1.5t-5 2.5q-1 13 1.5 24.5t11.5 16.5q12 0 17.5 -7t7.5 -18.5t1.5 -24.5t0.5 -25
q18 19 30.5 46.5t26.5 51.5q5 2 9 0t6 -5q-1 -38 -4.5 -81.5t1.5 -84.5q1 -6 1.5 -12.5t-5.5 -8.5z" />
    </font>
</defs>
</svg>
